<svg width="24" height="24" viewBox="0 0 24 24" fill="none" xmlns="http://www.w3.org/2000/svg">
<path fill-rule="evenodd" clip-rule="evenodd" d="M5.88681 21C5.57571 21 5.34014 20.7189 5.39451 20.4126L6.00025 17H2.59535C2.28473 17 2.04929 16.7198 2.10283 16.4138L2.27783 15.4138C2.3197 15.1746 2.52746 15 2.77035 15H6.35025L7.41025 9H4.00535C3.69473 9 3.45929 8.71977 3.51283 8.41381L3.68783 7.41381C3.7297 7.17456 3.93746 7 4.18035 7H7.76025L8.39701 3.41262C8.43938 3.17391 8.64688 3 8.88931 3H9.87368C10.1847 3 10.4203 3.28107 10.3659 3.58738L9.76025 7H15.7602L16.397 3.41262C16.4393 3.17391 16.6468 3 16.8893 3H17.8736C18.1847 3 18.4203 3.28107 18.3659 3.58738L17.7602 7H21.1651C21.4757 7 21.7112 7.28023 21.6576 7.58619L21.4826 8.58619C21.4408 8.82544 21.233 9 20.9901 9H17.4102L16.3502 15H19.7551C20.0657 15 20.3012 15.2802 20.2476 15.5862L20.0726 16.5862C20.0308 16.8254 19.823 17 19.5801 17H16.0002L15.3634 20.5874C15.3211 20.8261 15.1136 21 14.8711 21H13.8868C13.5757 21 13.3401 20.7189 13.3945 20.4126L14.0002 17H8.00025L7.36349 20.5874C7.32112 20.8261 7.11361 21 6.87118 21H5.88681ZM9.41069 9L8.35069 15H14.3506L15.4106 9H9.41069Z" fill="#747F8D"/>
</svg>
