<svg width="72" height="48" viewBox="0 0 72 48" fill="none" xmlns="http://www.w3.org/2000/svg">
<circle cx="36" cy="24" r="24" fill="white"/>
<path fill-rule="evenodd" clip-rule="evenodd" d="M28.8011 21.604C28.8011 18.9465 30.9463 16.8013 33.6038 16.8013C36.2613 16.8013 38.4065 18.9465 38.4065 21.604C38.4065 24.2616 36.2613 26.4068 33.6038 26.4068C30.9463 26.4068 28.8011 24.2616 28.8011 21.604ZM40.0075 26.4068H39.1643L38.8655 26.1186C39.9114 24.9019 40.5411 23.3224 40.5411 21.604C40.5411 17.7725 37.4353 14.6667 33.6038 14.6667C29.7723 14.6667 26.6665 17.7725 26.6665 21.604C26.6665 25.4356 29.7723 28.5413 33.6038 28.5413C35.3221 28.5413 36.9017 27.9117 38.1184 26.8657L38.4065 27.1646V28.0077L43.7429 33.3334L45.3332 31.7432L40.2802 26.6801L40.0075 26.4068Z" fill="#43B581"/>
</svg>
