<svg width="430" height="127" viewBox="0 0 430 127" fill="none" xmlns="http://www.w3.org/2000/svg">
<g clip-path="url(#clip0_1023_2683)">
<rect width="430" height="127" fill="white"/>
<path d="M112.55 43.125C112.233 43.125 111.967 43.0167 111.75 42.8C111.533 42.5833 111.425 42.3167 111.425 42V26.7C111.425 26.3833 111.533 26.1167 111.75 25.9C111.967 25.6667 112.233 25.55 112.55 25.55H118.375C120.642 25.55 122.342 26.0167 123.475 26.95C124.608 27.8833 125.175 29.1083 125.175 30.625C125.175 31.625 124.892 32.5417 124.325 33.375C123.775 34.1917 122.967 34.7833 121.9 35.15C123.1 35.4667 123.917 36.2167 124.35 37.4C124.8 38.5667 125.025 39.7167 125.025 40.85V42C125.025 42.3167 124.917 42.5833 124.7 42.8C124.483 43.0167 124.217 43.125 123.9 43.125C123.55 43.125 123.267 43.025 123.05 42.825C122.85 42.6083 122.75 42.3333 122.75 42V41.25C122.75 40.4167 122.675 39.65 122.525 38.95C122.375 38.2333 122.017 37.6 121.45 37.05C120.883 36.4833 120.025 36.2 118.875 36.2H113.7V42C113.7 42.3167 113.583 42.5833 113.35 42.8C113.133 43.0167 112.867 43.125 112.55 43.125ZM118.225 34.05C119.658 34.05 120.792 33.7667 121.625 33.2C122.475 32.6333 122.9 31.8333 122.9 30.8C122.9 29.8 122.533 29.0333 121.8 28.5C121.083 27.9667 119.85 27.7 118.1 27.7H113.7V34.05H118.225ZM129.173 43.125C128.84 43.125 128.565 43.0167 128.348 42.8C128.148 42.5833 128.048 42.3167 128.048 42C128.048 41.8667 128.09 41.7 128.173 41.5L134.548 26.45C134.681 26.15 134.865 25.9083 135.098 25.725C135.348 25.525 135.648 25.425 135.998 25.425H136.248C136.598 25.425 136.89 25.525 137.123 25.725C137.373 25.9083 137.565 26.15 137.698 26.45L144.073 41.5C144.156 41.7 144.198 41.8667 144.198 42C144.198 42.3167 144.09 42.5833 143.873 42.8C143.673 43.0167 143.406 43.125 143.073 43.125C142.84 43.125 142.623 43.0667 142.423 42.95C142.24 42.8167 142.098 42.6417 141.998 42.425L140.373 38.525H131.873L130.248 42.425C130.148 42.6417 129.998 42.8167 129.798 42.95C129.615 43.0667 129.406 43.125 129.173 43.125ZM132.748 36.45H139.498L136.123 28.325L132.748 36.45ZM149 43.125C148.684 43.125 148.417 43.0167 148.2 42.8C147.984 42.5833 147.875 42.3167 147.875 42V27.075C147.875 26.625 148.034 26.2417 148.35 25.925C148.667 25.5917 149.05 25.425 149.5 25.425H149.825C150.359 25.425 150.817 25.675 151.2 26.175L160.825 40.075V26.575C160.825 26.2583 160.934 25.9917 161.15 25.775C161.367 25.5417 161.634 25.425 161.95 25.425C162.267 25.425 162.534 25.5417 162.75 25.775C162.984 25.9917 163.1 26.2583 163.1 26.575V41.5C163.1 41.95 162.934 42.3333 162.6 42.65C162.284 42.9667 161.9 43.125 161.45 43.125H161.15C160.884 43.125 160.634 43.0667 160.4 42.95C160.167 42.8167 159.975 42.65 159.825 42.45L150.15 28.475V42C150.15 42.3167 150.034 42.5833 149.8 42.8C149.584 43.0167 149.317 43.125 149 43.125ZM169.069 43.125C168.752 43.125 168.485 43.0167 168.269 42.8C168.052 42.5833 167.944 42.3167 167.944 42V26.575C167.944 26.2583 168.052 25.9917 168.269 25.775C168.485 25.5417 168.752 25.425 169.069 25.425C169.385 25.425 169.652 25.5417 169.869 25.775C170.102 25.9917 170.219 26.2583 170.219 26.575V34.525L178.769 25.825C179.002 25.5583 179.285 25.425 179.619 25.425C179.902 25.425 180.144 25.525 180.344 25.725C180.56 25.9083 180.669 26.1417 180.669 26.425C180.669 26.7583 180.577 27.0167 180.394 27.2L174.619 32.95L181.244 41.3C181.427 41.5333 181.519 41.775 181.519 42.025C181.535 42.325 181.435 42.5833 181.219 42.8C181.002 43.0167 180.735 43.125 180.419 43.125C180.035 43.125 179.735 42.975 179.519 42.675L173.069 34.45L170.219 37.325V42C170.219 42.3167 170.102 42.5833 169.869 42.8C169.652 43.0167 169.385 43.125 169.069 43.125ZM185.817 43.125C185.5 43.125 185.233 43.0167 185.017 42.8C184.8 42.5833 184.692 42.3167 184.692 42V26.575C184.692 26.2583 184.8 25.9917 185.017 25.775C185.233 25.5417 185.5 25.425 185.817 25.425C186.133 25.425 186.4 25.5417 186.617 25.775C186.85 25.9917 186.967 26.2583 186.967 26.575V42C186.967 42.3167 186.85 42.5833 186.617 42.8C186.4 43.0167 186.133 43.125 185.817 43.125ZM192.946 43.125C192.629 43.125 192.362 43.0167 192.146 42.8C191.929 42.5833 191.821 42.3167 191.821 42V27.075C191.821 26.625 191.979 26.2417 192.296 25.925C192.612 25.5917 192.996 25.425 193.446 25.425H193.771C194.304 25.425 194.762 25.675 195.146 26.175L204.771 40.075V26.575C204.771 26.2583 204.879 25.9917 205.096 25.775C205.312 25.5417 205.579 25.425 205.896 25.425C206.212 25.425 206.479 25.5417 206.696 25.775C206.929 25.9917 207.046 26.2583 207.046 26.575V41.5C207.046 41.95 206.879 42.3333 206.546 42.65C206.229 42.9667 205.846 43.125 205.396 43.125H205.096C204.829 43.125 204.579 43.0667 204.346 42.95C204.112 42.8167 203.921 42.65 203.771 42.45L194.096 28.475V42C194.096 42.3167 193.979 42.5833 193.746 42.8C193.529 43.0167 193.262 43.125 192.946 43.125ZM219.614 43.25C217.897 43.25 216.372 42.875 215.039 42.125C213.706 41.3583 212.672 40.3 211.939 38.95C211.206 37.5833 210.839 36.0333 210.839 34.3C210.839 32.5333 211.222 30.9667 211.989 29.6C212.756 28.2333 213.797 27.175 215.114 26.425C216.447 25.675 217.922 25.3 219.539 25.3C220.839 25.3 221.972 25.4583 222.939 25.775C223.922 26.0917 224.864 26.5333 225.764 27.1C225.897 27.1667 226.014 27.2833 226.114 27.45C226.214 27.6167 226.264 27.8 226.264 28C226.264 28.2833 226.164 28.525 225.964 28.725C225.781 28.925 225.531 29.025 225.214 29.025C225.031 29.025 224.856 28.9833 224.689 28.9C223.906 28.4333 223.122 28.0833 222.339 27.85C221.556 27.6167 220.706 27.5 219.789 27.5C218.522 27.5 217.381 27.7667 216.364 28.3C215.347 28.8333 214.547 29.6167 213.964 30.65C213.397 31.6667 213.114 32.8833 213.114 34.3C213.114 35.6 213.381 36.7667 213.914 37.8C214.464 38.8167 215.247 39.625 216.264 40.225C217.297 40.8083 218.514 41.1 219.914 41.1C221.481 41.1 222.939 40.7333 224.289 40V35.475H220.164C219.881 35.475 219.639 35.375 219.439 35.175C219.239 34.975 219.139 34.7333 219.139 34.45C219.139 34.1667 219.239 33.925 219.439 33.725C219.639 33.525 219.881 33.425 220.164 33.425H225.089C225.422 33.425 225.706 33.5417 225.939 33.775C226.172 34.0083 226.289 34.2917 226.289 34.625V40.3C226.289 40.65 226.197 40.9667 226.014 41.25C225.847 41.5167 225.622 41.7167 225.339 41.85C223.472 42.7833 221.564 43.25 219.614 43.25ZM245.029 43.25C243.312 43.25 241.787 42.875 240.454 42.125C239.121 41.3583 238.087 40.3 237.354 38.95C236.621 37.5833 236.254 36.0333 236.254 34.3C236.254 32.5333 236.637 30.9667 237.404 29.6C238.171 28.2333 239.212 27.175 240.529 26.425C241.862 25.675 243.337 25.3 244.954 25.3C246.254 25.3 247.387 25.4583 248.354 25.775C249.337 26.0917 250.279 26.5333 251.179 27.1C251.312 27.1667 251.429 27.2833 251.529 27.45C251.629 27.6167 251.679 27.8 251.679 28C251.679 28.2833 251.579 28.525 251.379 28.725C251.196 28.925 250.946 29.025 250.629 29.025C250.446 29.025 250.271 28.9833 250.104 28.9C249.321 28.4333 248.537 28.0833 247.754 27.85C246.971 27.6167 246.121 27.5 245.204 27.5C243.937 27.5 242.796 27.7667 241.779 28.3C240.762 28.8333 239.962 29.6167 239.379 30.65C238.812 31.6667 238.529 32.8833 238.529 34.3C238.529 35.6 238.796 36.7667 239.329 37.8C239.879 38.8167 240.662 39.625 241.679 40.225C242.712 40.8083 243.929 41.1 245.329 41.1C246.896 41.1 248.354 40.7333 249.704 40V35.475H245.579C245.296 35.475 245.054 35.375 244.854 35.175C244.654 34.975 244.554 34.7333 244.554 34.45C244.554 34.1667 244.654 33.925 244.854 33.725C245.054 33.525 245.296 33.425 245.579 33.425H250.504C250.837 33.425 251.121 33.5417 251.354 33.775C251.587 34.0083 251.704 34.2917 251.704 34.625V40.3C251.704 40.65 251.612 40.9667 251.429 41.25C251.262 41.5167 251.037 41.7167 250.754 41.85C248.887 42.7833 246.979 43.25 245.029 43.25ZM257.35 43C257.033 43 256.766 42.8917 256.55 42.675C256.333 42.4583 256.225 42.1917 256.225 41.875V26.7C256.225 26.3833 256.333 26.1167 256.55 25.9C256.766 25.6667 257.033 25.55 257.35 25.55H267.375C267.675 25.55 267.925 25.6583 268.125 25.875C268.341 26.075 268.45 26.325 268.45 26.625C268.45 26.925 268.341 27.175 268.125 27.375C267.925 27.575 267.675 27.675 267.375 27.675H258.5V33.2H266.475C266.775 33.2 267.025 33.3083 267.225 33.525C267.441 33.725 267.55 33.975 267.55 34.275C267.55 34.575 267.441 34.825 267.225 35.025C267.025 35.225 266.775 35.325 266.475 35.325H258.5V40.875H267.375C267.675 40.875 267.925 40.9833 268.125 41.2C268.341 41.4 268.45 41.65 268.45 41.95C268.45 42.25 268.341 42.5 268.125 42.7C267.925 42.9 267.675 43 267.375 43H257.35ZM273.292 43.125C272.976 43.125 272.709 43.0167 272.492 42.8C272.276 42.5833 272.167 42.3167 272.167 42V26.7C272.167 26.3833 272.276 26.1167 272.492 25.9C272.709 25.6667 272.976 25.55 273.292 25.55H279.117C281.384 25.55 283.084 26.0167 284.217 26.95C285.351 27.8833 285.917 29.1083 285.917 30.625C285.917 31.625 285.634 32.5417 285.067 33.375C284.517 34.1917 283.709 34.7833 282.642 35.15C283.842 35.4667 284.659 36.2167 285.092 37.4C285.542 38.5667 285.767 39.7167 285.767 40.85V42C285.767 42.3167 285.659 42.5833 285.442 42.8C285.226 43.0167 284.959 43.125 284.642 43.125C284.292 43.125 284.009 43.025 283.792 42.825C283.592 42.6083 283.492 42.3333 283.492 42V41.25C283.492 40.4167 283.417 39.65 283.267 38.95C283.117 38.2333 282.759 37.6 282.192 37.05C281.626 36.4833 280.767 36.2 279.617 36.2H274.442V42C274.442 42.3167 274.326 42.5833 274.092 42.8C273.876 43.0167 273.609 43.125 273.292 43.125ZM278.967 34.05C280.401 34.05 281.534 33.7667 282.367 33.2C283.217 32.6333 283.642 31.8333 283.642 30.8C283.642 29.8 283.276 29.0333 282.542 28.5C281.826 27.9667 280.592 27.7 278.842 27.7H274.442V34.05H278.967ZM289.915 43.125C289.582 43.125 289.307 43.0167 289.09 42.8C288.89 42.5833 288.79 42.3167 288.79 42C288.79 41.8667 288.832 41.7 288.915 41.5L295.29 26.45C295.423 26.15 295.607 25.9083 295.84 25.725C296.09 25.525 296.39 25.425 296.74 25.425H296.99C297.34 25.425 297.632 25.525 297.865 25.725C298.115 25.9083 298.307 26.15 298.44 26.45L304.815 41.5C304.898 41.7 304.94 41.8667 304.94 42C304.94 42.3167 304.832 42.5833 304.615 42.8C304.415 43.0167 304.148 43.125 303.815 43.125C303.582 43.125 303.365 43.0667 303.165 42.95C302.982 42.8167 302.84 42.6417 302.74 42.425L301.115 38.525H292.615L290.99 42.425C290.89 42.6417 290.74 42.8167 290.54 42.95C290.357 43.0667 290.148 43.125 289.915 43.125ZM293.49 36.45H300.24L296.865 28.325L293.49 36.45ZM310.192 43C309.759 43 309.384 42.85 309.067 42.55C308.767 42.2333 308.617 41.8583 308.617 41.425V26.575C308.617 26.2583 308.726 25.9917 308.942 25.775C309.159 25.5417 309.426 25.425 309.742 25.425C310.059 25.425 310.326 25.5417 310.542 25.775C310.776 25.9917 310.892 26.2583 310.892 26.575V40.725H319.067C319.384 40.725 319.651 40.8417 319.867 41.075C320.101 41.2917 320.217 41.5583 320.217 41.875C320.217 42.1917 320.101 42.4583 319.867 42.675C319.651 42.8917 319.384 43 319.067 43H310.192Z" fill="#37D200"/>
<path d="M241.13 91.075C240.94 91.075 240.78 91.01 240.65 90.88C240.52 90.75 240.455 90.59 240.455 90.4V81.22C240.455 81.03 240.52 80.87 240.65 80.74C240.78 80.6 240.94 80.53 241.13 80.53H244.55C245.5 80.53 246.275 80.69 246.875 81.01C247.475 81.33 247.905 81.74 248.165 82.24C248.425 82.74 248.555 83.28 248.555 83.86C248.555 84.44 248.425 84.98 248.165 85.48C247.905 85.98 247.475 86.39 246.875 86.71C246.275 87.03 245.5 87.19 244.55 87.19H241.82V90.4C241.82 90.59 241.75 90.75 241.61 90.88C241.48 91.01 241.32 91.075 241.13 91.075ZM244.415 85.9C245.435 85.9 246.15 85.705 246.56 85.315C246.98 84.925 247.19 84.44 247.19 83.86C247.19 83.28 246.98 82.795 246.56 82.405C246.15 82.015 245.435 81.82 244.415 81.82H241.82V85.9H244.415ZM253.433 91.15C252.663 91.15 251.988 90.985 251.408 90.655C250.828 90.325 250.378 89.86 250.058 89.26C249.748 88.65 249.593 87.955 249.593 87.175C249.593 86.395 249.748 85.705 250.058 85.105C250.378 84.495 250.828 84.025 251.408 83.695C251.988 83.365 252.663 83.2 253.433 83.2C254.193 83.2 254.863 83.365 255.443 83.695C256.023 84.025 256.473 84.495 256.793 85.105C257.113 85.705 257.273 86.395 257.273 87.175C257.273 87.955 257.113 88.65 256.793 89.26C256.473 89.86 256.023 90.325 255.443 90.655C254.863 90.985 254.193 91.15 253.433 91.15ZM253.433 89.905C253.843 89.905 254.233 89.81 254.603 89.62C254.983 89.43 255.293 89.13 255.533 88.72C255.783 88.31 255.908 87.79 255.908 87.16C255.908 86.54 255.783 86.025 255.533 85.615C255.293 85.205 254.983 84.91 254.603 84.73C254.233 84.54 253.843 84.445 253.433 84.445C253.013 84.445 252.613 84.54 252.233 84.73C251.863 84.91 251.558 85.205 251.318 85.615C251.078 86.025 250.958 86.54 250.958 87.16C250.958 87.79 251.078 88.31 251.318 88.72C251.558 89.13 251.863 89.43 252.233 89.62C252.613 89.81 253.013 89.905 253.433 89.905ZM259.859 91.075C259.669 91.075 259.509 91.01 259.379 90.88C259.249 90.75 259.184 90.59 259.184 90.4V83.965C259.184 83.775 259.249 83.615 259.379 83.485C259.509 83.345 259.669 83.275 259.859 83.275C260.049 83.275 260.209 83.345 260.339 83.485C260.479 83.615 260.549 83.775 260.549 83.965V84.58C260.929 84.16 261.339 83.825 261.779 83.575C262.219 83.325 262.739 83.2 263.339 83.2C263.889 83.2 264.364 83.33 264.764 83.59C265.174 83.85 265.484 84.205 265.694 84.655C265.914 85.105 266.024 85.6 266.024 86.14V90.4C266.024 90.59 265.954 90.75 265.814 90.88C265.684 91.01 265.524 91.075 265.334 91.075C265.144 91.075 264.984 91.01 264.854 90.88C264.724 90.75 264.659 90.59 264.659 90.4V86.29C264.659 85.07 264.109 84.46 263.009 84.46C262.509 84.46 262.059 84.59 261.659 84.85C261.269 85.11 260.899 85.46 260.549 85.9V90.4C260.549 90.59 260.479 90.75 260.339 90.88C260.209 91.01 260.049 91.075 259.859 91.075ZM270.789 91.15C269.329 91.15 268.599 90.49 268.599 89.17V84.52H267.534C267.454 84.52 267.384 84.495 267.324 84.445C267.274 84.385 267.249 84.315 267.249 84.235C267.249 84.135 267.294 84.05 267.384 83.98L269.424 81.985C269.514 81.895 269.599 81.85 269.679 81.85C269.759 81.85 269.824 81.88 269.874 81.94C269.934 82 269.964 82.07 269.964 82.15V83.35H271.659C271.829 83.35 271.969 83.405 272.079 83.515C272.189 83.625 272.244 83.765 272.244 83.935C272.244 84.095 272.189 84.235 272.079 84.355C271.969 84.465 271.829 84.52 271.659 84.52H269.964V89.05C269.964 89.44 270.054 89.69 270.234 89.8C270.424 89.9 270.659 89.95 270.939 89.95C271.139 89.95 271.339 89.92 271.539 89.86C271.579 89.85 271.619 89.84 271.659 89.83C271.709 89.82 271.769 89.815 271.839 89.815C271.979 89.815 272.104 89.87 272.214 89.98C272.324 90.08 272.379 90.205 272.379 90.355C272.379 90.585 272.264 90.76 272.034 90.88C271.644 91.06 271.229 91.15 270.789 91.15ZM276.486 91.15C275.936 91.15 275.456 91.02 275.046 90.76C274.646 90.5 274.336 90.145 274.116 89.695C273.906 89.245 273.801 88.75 273.801 88.21V83.95C273.801 83.76 273.866 83.6 273.996 83.47C274.136 83.34 274.301 83.275 274.491 83.275C274.681 83.275 274.841 83.34 274.971 83.47C275.101 83.6 275.166 83.76 275.166 83.95V88.06C275.166 89.28 275.716 89.89 276.816 89.89C277.316 89.89 277.761 89.76 278.151 89.5C278.551 89.24 278.926 88.89 279.276 88.45V83.95C279.276 83.76 279.341 83.6 279.471 83.47C279.611 83.34 279.776 83.275 279.966 83.275C280.156 83.275 280.316 83.34 280.446 83.47C280.576 83.6 280.641 83.76 280.641 83.95V90.385C280.641 90.575 280.576 90.74 280.446 90.88C280.316 91.01 280.156 91.075 279.966 91.075C279.776 91.075 279.611 91.01 279.471 90.88C279.341 90.74 279.276 90.575 279.276 90.385V89.77C278.896 90.19 278.486 90.525 278.046 90.775C277.606 91.025 277.086 91.15 276.486 91.15ZM284.967 91.15C284.527 91.15 284.117 91.06 283.737 90.88C283.367 90.7 283.072 90.44 282.852 90.1C282.632 89.75 282.522 89.35 282.522 88.9C282.522 88.16 282.812 87.57 283.392 87.13C283.982 86.69 284.842 86.47 285.972 86.47H287.787V86.35C287.787 85.69 287.622 85.215 287.292 84.925C286.972 84.635 286.467 84.49 285.777 84.49C285.397 84.49 285.057 84.52 284.757 84.58C284.467 84.64 284.142 84.73 283.782 84.85C283.702 84.87 283.637 84.88 283.587 84.88C283.437 84.88 283.307 84.825 283.197 84.715C283.087 84.605 283.032 84.47 283.032 84.31C283.032 84.04 283.162 83.85 283.422 83.74C284.272 83.38 285.137 83.2 286.017 83.2C286.707 83.2 287.287 83.34 287.757 83.62C288.237 83.9 288.587 84.265 288.807 84.715C289.037 85.155 289.152 85.635 289.152 86.155V90.4C289.152 90.59 289.082 90.75 288.942 90.88C288.812 91.01 288.652 91.075 288.462 91.075C288.272 91.075 288.112 91.01 287.982 90.88C287.852 90.75 287.787 90.59 287.787 90.4V90.01C287.047 90.77 286.107 91.15 284.967 91.15ZM285.477 89.95C285.917 89.95 286.342 89.845 286.752 89.635C287.162 89.415 287.507 89.145 287.787 88.825V87.565H286.152C284.642 87.565 283.887 87.96 283.887 88.75C283.887 89.11 284.007 89.4 284.247 89.62C284.497 89.84 284.907 89.95 285.477 89.95ZM297.155 89.305C297.305 89.305 297.435 89.37 297.545 89.5C297.665 89.62 297.725 89.755 297.725 89.905C297.725 90.125 297.625 90.3 297.425 90.43C297.095 90.64 296.735 90.815 296.345 90.955C295.965 91.085 295.51 91.15 294.98 91.15L294.53 91.945C294.69 91.905 294.86 91.885 295.04 91.885C295.38 91.885 295.655 91.98 295.865 92.17C296.085 92.37 296.195 92.625 296.195 92.935C296.195 93.395 296.05 93.74 295.76 93.97C295.48 94.2 295.07 94.315 294.53 94.315C294.05 94.315 293.6 94.185 293.18 93.925C293.14 93.895 293.1 93.855 293.06 93.805C293.03 93.765 293.015 93.72 293.015 93.67C293.015 93.59 293.04 93.52 293.09 93.46C293.14 93.4 293.21 93.37 293.3 93.37C293.34 93.37 293.39 93.385 293.45 93.415C293.76 93.585 294.055 93.67 294.335 93.67C294.905 93.67 295.19 93.44 295.19 92.98C295.19 92.83 295.14 92.715 295.04 92.635C294.94 92.555 294.81 92.515 294.65 92.515C294.43 92.515 294.21 92.57 293.99 92.68C293.93 92.71 293.88 92.725 293.84 92.725C293.77 92.725 293.705 92.7 293.645 92.65C293.595 92.61 293.57 92.555 293.57 92.485C293.57 92.405 293.59 92.335 293.63 92.275L294.365 91.105C293.735 91.015 293.16 90.805 292.64 90.475C292.13 90.135 291.725 89.685 291.425 89.125C291.125 88.555 290.975 87.905 290.975 87.175C290.975 86.365 291.155 85.66 291.515 85.06C291.885 84.46 292.375 84 292.985 83.68C293.595 83.36 294.26 83.2 294.98 83.2C295.51 83.2 295.965 83.27 296.345 83.41C296.735 83.54 297.095 83.71 297.425 83.92C297.625 84.05 297.725 84.225 297.725 84.445C297.725 84.595 297.665 84.735 297.545 84.865C297.435 84.985 297.305 85.045 297.155 85.045C297.045 85.045 296.935 85.015 296.825 84.955C296.495 84.785 296.21 84.665 295.97 84.595C295.74 84.515 295.45 84.475 295.1 84.475C294.24 84.475 293.565 84.725 293.075 85.225C292.585 85.715 292.34 86.365 292.34 87.175C292.34 87.985 292.585 88.64 293.075 89.14C293.565 89.63 294.24 89.875 295.1 89.875C295.45 89.875 295.74 89.84 295.97 89.77C296.21 89.69 296.495 89.565 296.825 89.395C296.935 89.335 297.045 89.305 297.155 89.305ZM301.388 91.15C300.948 91.15 300.538 91.06 300.158 90.88C299.788 90.7 299.493 90.44 299.273 90.1C299.053 89.75 298.943 89.35 298.943 88.9C298.943 88.16 299.233 87.57 299.813 87.13C300.403 86.69 301.263 86.47 302.393 86.47H304.208V86.35C304.208 85.69 304.043 85.215 303.713 84.925C303.393 84.635 302.888 84.49 302.198 84.49C301.818 84.49 301.478 84.52 301.178 84.58C300.888 84.64 300.563 84.73 300.203 84.85C300.123 84.87 300.058 84.88 300.008 84.88C299.858 84.88 299.728 84.825 299.618 84.715C299.508 84.605 299.453 84.47 299.453 84.31C299.453 84.04 299.583 83.85 299.843 83.74C300.693 83.38 301.558 83.2 302.438 83.2C303.128 83.2 303.708 83.34 304.178 83.62C304.658 83.9 305.008 84.265 305.228 84.715C305.458 85.155 305.573 85.635 305.573 86.155V90.4C305.573 90.59 305.503 90.75 305.363 90.88C305.233 91.01 305.073 91.075 304.883 91.075C304.693 91.075 304.533 91.01 304.403 90.88C304.273 90.75 304.208 90.59 304.208 90.4V90.01C303.468 90.77 302.528 91.15 301.388 91.15ZM301.898 89.95C302.338 89.95 302.763 89.845 303.173 89.635C303.583 89.415 303.928 89.145 304.208 88.825V87.565H302.573C301.063 87.565 300.308 87.96 300.308 88.75C300.308 89.11 300.428 89.4 300.668 89.62C300.918 89.84 301.328 89.95 301.898 89.95ZM300.368 82.435C300.278 82.435 300.198 82.405 300.128 82.345C300.058 82.275 300.023 82.19 300.023 82.09C300.023 81.88 300.073 81.665 300.173 81.445C300.283 81.225 300.433 81.04 300.623 80.89C300.813 80.74 301.033 80.665 301.283 80.665C301.483 80.665 301.668 80.695 301.838 80.755C302.018 80.815 302.233 80.905 302.483 81.025C302.713 81.135 302.908 81.22 303.068 81.28C303.238 81.34 303.413 81.37 303.593 81.37C303.743 81.37 303.858 81.335 303.938 81.265C304.028 81.195 304.098 81.095 304.148 80.965C304.228 80.755 304.353 80.65 304.523 80.65C304.623 80.65 304.703 80.685 304.763 80.755C304.823 80.815 304.858 80.89 304.868 80.98C304.868 81.33 304.748 81.655 304.508 81.955C304.268 82.255 303.968 82.405 303.608 82.405C303.408 82.405 303.218 82.375 303.038 82.315C302.858 82.245 302.638 82.15 302.378 82.03C302.148 81.92 301.953 81.835 301.793 81.775C301.633 81.715 301.468 81.685 301.298 81.685C301.038 81.685 300.843 81.845 300.713 82.165C300.653 82.345 300.538 82.435 300.368 82.435ZM311.236 91.15C310.466 91.15 309.791 90.985 309.211 90.655C308.631 90.325 308.181 89.86 307.861 89.26C307.551 88.65 307.396 87.955 307.396 87.175C307.396 86.395 307.551 85.705 307.861 85.105C308.181 84.495 308.631 84.025 309.211 83.695C309.791 83.365 310.466 83.2 311.236 83.2C311.996 83.2 312.666 83.365 313.246 83.695C313.826 84.025 314.276 84.495 314.596 85.105C314.916 85.705 315.076 86.395 315.076 87.175C315.076 87.955 314.916 88.65 314.596 89.26C314.276 89.86 313.826 90.325 313.246 90.655C312.666 90.985 311.996 91.15 311.236 91.15ZM311.236 89.905C311.646 89.905 312.036 89.81 312.406 89.62C312.786 89.43 313.096 89.13 313.336 88.72C313.586 88.31 313.711 87.79 313.711 87.16C313.711 86.54 313.586 86.025 313.336 85.615C313.096 85.205 312.786 84.91 312.406 84.73C312.036 84.54 311.646 84.445 311.236 84.445C310.816 84.445 310.416 84.54 310.036 84.73C309.666 84.91 309.361 85.205 309.121 85.615C308.881 86.025 308.761 86.54 308.761 87.16C308.761 87.79 308.881 88.31 309.121 88.72C309.361 89.13 309.666 89.43 310.036 89.62C310.416 89.81 310.816 89.905 311.236 89.905ZM321.558 94.525C321.368 94.525 321.208 94.455 321.078 94.315C320.948 94.185 320.883 94.025 320.883 93.835V83.95C320.883 83.76 320.948 83.6 321.078 83.47C321.208 83.34 321.368 83.275 321.558 83.275C321.748 83.275 321.908 83.34 322.038 83.47C322.178 83.6 322.248 83.76 322.248 83.95V84.34C322.978 83.58 323.833 83.2 324.813 83.2C325.433 83.2 326.018 83.36 326.568 83.68C327.128 83.99 327.578 84.45 327.918 85.06C328.268 85.66 328.443 86.365 328.443 87.175C328.443 87.985 328.268 88.695 327.918 89.305C327.578 89.905 327.128 90.365 326.568 90.685C326.018 90.995 325.433 91.15 324.813 91.15C323.833 91.15 322.978 90.77 322.248 90.01V93.835C322.248 94.035 322.183 94.2 322.053 94.33C321.923 94.46 321.758 94.525 321.558 94.525ZM324.618 89.875C325.358 89.875 325.953 89.64 326.403 89.17C326.853 88.7 327.078 88.035 327.078 87.175C327.078 86.315 326.853 85.65 326.403 85.18C325.953 84.71 325.358 84.475 324.618 84.475C324.158 84.475 323.723 84.58 323.313 84.79C322.913 84.99 322.558 85.26 322.248 85.6V88.75C322.558 89.09 322.913 89.365 323.313 89.575C323.723 89.775 324.158 89.875 324.618 89.875ZM333.721 91.15C332.951 91.15 332.276 90.985 331.696 90.655C331.116 90.325 330.666 89.86 330.346 89.26C330.036 88.65 329.881 87.955 329.881 87.175C329.881 86.395 330.036 85.705 330.346 85.105C330.666 84.495 331.116 84.025 331.696 83.695C332.276 83.365 332.951 83.2 333.721 83.2C334.481 83.2 335.151 83.365 335.731 83.695C336.311 84.025 336.761 84.495 337.081 85.105C337.401 85.705 337.561 86.395 337.561 87.175C337.561 87.955 337.401 88.65 337.081 89.26C336.761 89.86 336.311 90.325 335.731 90.655C335.151 90.985 334.481 91.15 333.721 91.15ZM333.721 89.905C334.131 89.905 334.521 89.81 334.891 89.62C335.271 89.43 335.581 89.13 335.821 88.72C336.071 88.31 336.196 87.79 336.196 87.16C336.196 86.54 336.071 86.025 335.821 85.615C335.581 85.205 335.271 84.91 334.891 84.73C334.521 84.54 334.131 84.445 333.721 84.445C333.301 84.445 332.901 84.54 332.521 84.73C332.151 84.91 331.846 85.205 331.606 85.615C331.366 86.025 331.246 86.54 331.246 87.16C331.246 87.79 331.366 88.31 331.606 88.72C331.846 89.13 332.151 89.43 332.521 89.62C332.901 89.81 333.301 89.905 333.721 89.905ZM340.147 91.075C339.957 91.075 339.797 91.01 339.667 90.88C339.537 90.75 339.472 90.59 339.472 90.4V83.965C339.472 83.775 339.537 83.615 339.667 83.485C339.797 83.345 339.957 83.275 340.147 83.275C340.337 83.275 340.497 83.345 340.627 83.485C340.767 83.615 340.837 83.775 340.837 83.965V84.61C341.537 83.67 342.322 83.2 343.192 83.2H343.267C343.457 83.2 343.612 83.265 343.732 83.395C343.862 83.525 343.927 83.685 343.927 83.875C343.927 84.065 343.862 84.22 343.732 84.34C343.602 84.46 343.437 84.52 343.237 84.52H343.162C342.682 84.52 342.242 84.64 341.842 84.88C341.442 85.11 341.107 85.43 340.837 85.84V90.4C340.837 90.59 340.767 90.75 340.627 90.88C340.497 91.01 340.337 91.075 340.147 91.075ZM350.056 91C349.866 91 349.706 90.935 349.576 90.805C349.446 90.675 349.381 90.515 349.381 90.325V81.22C349.381 81.03 349.446 80.87 349.576 80.74C349.706 80.6 349.866 80.53 350.056 80.53H353.071C354.211 80.53 355.176 80.785 355.966 81.295C356.766 81.795 357.366 82.445 357.766 83.245C358.166 84.045 358.366 84.885 358.366 85.765C358.366 86.645 358.166 87.485 357.766 88.285C357.366 89.085 356.766 89.74 355.966 90.25C355.176 90.75 354.211 91 353.071 91H350.056ZM352.906 89.725C353.726 89.725 354.446 89.56 355.066 89.23C355.686 88.89 356.166 88.425 356.506 87.835C356.846 87.235 357.016 86.545 357.016 85.765C357.016 84.985 356.846 84.3 356.506 83.71C356.166 83.11 355.686 82.645 355.066 82.315C354.446 81.975 353.726 81.805 352.906 81.805H350.746V89.725H352.906ZM363.517 91.15C362.297 91.15 361.342 90.805 360.652 90.115C359.972 89.415 359.632 88.435 359.632 87.175C359.632 86.465 359.762 85.81 360.022 85.21C360.282 84.61 360.682 84.125 361.222 83.755C361.762 83.385 362.427 83.2 363.217 83.2C363.957 83.2 364.597 83.375 365.137 83.725C365.677 84.065 366.087 84.525 366.367 85.105C366.647 85.675 366.787 86.3 366.787 86.98C366.787 87.17 366.722 87.33 366.592 87.46C366.472 87.59 366.307 87.655 366.097 87.655H361.012C361.092 88.355 361.352 88.9 361.792 89.29C362.232 89.68 362.847 89.875 363.637 89.875C364.057 89.875 364.422 89.835 364.732 89.755C365.052 89.675 365.362 89.56 365.662 89.41C365.742 89.37 365.832 89.35 365.932 89.35C366.092 89.35 366.232 89.405 366.352 89.515C366.472 89.625 366.532 89.765 366.532 89.935C366.532 90.155 366.402 90.34 366.142 90.49C365.752 90.71 365.367 90.875 364.987 90.985C364.607 91.095 364.117 91.15 363.517 91.15ZM365.437 86.545C365.407 86.055 365.277 85.645 365.047 85.315C364.827 84.985 364.552 84.745 364.222 84.595C363.892 84.435 363.557 84.355 363.217 84.355C362.877 84.355 362.542 84.435 362.212 84.595C361.882 84.745 361.607 84.985 361.387 85.315C361.167 85.645 361.042 86.055 361.012 86.545H365.437ZM371.068 91.15C370.068 91.15 369.158 90.925 368.338 90.475C368.168 90.355 368.083 90.19 368.083 89.98C368.083 89.82 368.138 89.68 368.248 89.56C368.358 89.44 368.498 89.38 368.668 89.38C368.758 89.38 368.848 89.4 368.938 89.44C369.258 89.58 369.578 89.69 369.898 89.77C370.218 89.85 370.578 89.89 370.978 89.89C372.088 89.89 372.643 89.535 372.643 88.825C372.643 88.595 372.513 88.42 372.253 88.3C372.003 88.18 371.588 88.045 371.008 87.895C370.418 87.755 369.928 87.61 369.538 87.46C369.158 87.31 368.828 87.085 368.548 86.785C368.278 86.475 368.143 86.07 368.143 85.57C368.143 84.87 368.393 84.3 368.893 83.86C369.403 83.42 370.128 83.2 371.068 83.2C371.838 83.2 372.563 83.325 373.243 83.575C373.383 83.615 373.488 83.69 373.558 83.8C373.638 83.91 373.678 84.025 373.678 84.145C373.678 84.305 373.618 84.445 373.498 84.565C373.388 84.685 373.248 84.745 373.078 84.745C373.028 84.745 372.963 84.735 372.883 84.715C372.303 84.535 371.733 84.445 371.173 84.445C370.633 84.445 370.208 84.545 369.898 84.745C369.598 84.935 369.448 85.185 369.448 85.495C369.448 85.795 369.588 86.015 369.868 86.155C370.148 86.295 370.583 86.43 371.173 86.56C371.763 86.71 372.243 86.86 372.613 87.01C372.983 87.15 373.298 87.375 373.558 87.685C373.828 87.995 373.963 88.41 373.963 88.93C373.963 89.57 373.708 90.1 373.198 90.52C372.698 90.94 371.988 91.15 371.068 91.15ZM377.75 91.15C377.31 91.15 376.9 91.06 376.52 90.88C376.15 90.7 375.855 90.44 375.635 90.1C375.415 89.75 375.305 89.35 375.305 88.9C375.305 88.16 375.595 87.57 376.175 87.13C376.765 86.69 377.625 86.47 378.755 86.47H380.57V86.35C380.57 85.69 380.405 85.215 380.075 84.925C379.755 84.635 379.25 84.49 378.56 84.49C378.18 84.49 377.84 84.52 377.54 84.58C377.25 84.64 376.925 84.73 376.565 84.85C376.485 84.87 376.42 84.88 376.37 84.88C376.22 84.88 376.09 84.825 375.98 84.715C375.87 84.605 375.815 84.47 375.815 84.31C375.815 84.04 375.945 83.85 376.205 83.74C377.055 83.38 377.92 83.2 378.8 83.2C379.49 83.2 380.07 83.34 380.54 83.62C381.02 83.9 381.37 84.265 381.59 84.715C381.82 85.155 381.935 85.635 381.935 86.155V90.4C381.935 90.59 381.865 90.75 381.725 90.88C381.595 91.01 381.435 91.075 381.245 91.075C381.055 91.075 380.895 91.01 380.765 90.88C380.635 90.75 380.57 90.59 380.57 90.4V90.01C379.83 90.77 378.89 91.15 377.75 91.15ZM378.26 89.95C378.7 89.95 379.125 89.845 379.535 89.635C379.945 89.415 380.29 89.145 380.57 88.825V87.565H378.935C377.425 87.565 376.67 87.96 376.67 88.75C376.67 89.11 376.79 89.4 377.03 89.62C377.28 89.84 377.69 89.95 378.26 89.95ZM385.278 91.075C385.088 91.075 384.928 91.01 384.798 90.88C384.668 90.75 384.603 90.59 384.603 90.4V84.52H383.718C383.558 84.52 383.418 84.465 383.298 84.355C383.188 84.235 383.133 84.095 383.133 83.935C383.133 83.765 383.188 83.625 383.298 83.515C383.418 83.405 383.558 83.35 383.718 83.35H384.603V82.48C384.603 81.88 384.708 81.39 384.918 81.01C385.138 80.62 385.418 80.34 385.758 80.17C386.108 79.99 386.473 79.9 386.853 79.9C387.323 79.9 387.758 80 388.158 80.2C388.258 80.25 388.338 80.325 388.398 80.425C388.468 80.515 388.503 80.615 388.503 80.725C388.503 80.875 388.448 81.01 388.338 81.13C388.228 81.24 388.098 81.295 387.948 81.295C387.838 81.295 387.723 81.28 387.603 81.25C387.363 81.22 387.228 81.205 387.198 81.205C386.788 81.205 386.478 81.3 386.268 81.49C386.068 81.68 385.968 82.025 385.968 82.525V83.35H390.573C390.763 83.37 390.918 83.445 391.038 83.575C391.158 83.695 391.218 83.85 391.218 84.04V90.4C391.218 90.59 391.148 90.75 391.008 90.88C390.878 91.01 390.718 91.075 390.528 91.075C390.338 91.075 390.178 91.01 390.048 90.88C389.918 90.75 389.853 90.59 389.853 90.4V84.52H385.968V90.4C385.968 90.59 385.898 90.75 385.758 90.88C385.628 91.01 385.468 91.075 385.278 91.075ZM390.498 81.79C390.288 81.79 390.108 81.715 389.958 81.565C389.808 81.415 389.733 81.235 389.733 81.025V80.965C389.733 80.755 389.808 80.575 389.958 80.425C390.108 80.275 390.288 80.2 390.498 80.2H390.588C390.798 80.2 390.978 80.275 391.128 80.425C391.278 80.575 391.353 80.755 391.353 80.965V81.025C391.353 81.235 391.278 81.415 391.128 81.565C390.978 81.715 390.798 81.79 390.588 81.79H390.498ZM396.958 91.15C396.188 91.15 395.513 90.985 394.933 90.655C394.353 90.325 393.903 89.86 393.583 89.26C393.273 88.65 393.118 87.955 393.118 87.175C393.118 86.395 393.273 85.705 393.583 85.105C393.903 84.495 394.353 84.025 394.933 83.695C395.513 83.365 396.188 83.2 396.958 83.2C397.718 83.2 398.388 83.365 398.968 83.695C399.548 84.025 399.998 84.495 400.318 85.105C400.638 85.705 400.798 86.395 400.798 87.175C400.798 87.955 400.638 88.65 400.318 89.26C399.998 89.86 399.548 90.325 398.968 90.655C398.388 90.985 397.718 91.15 396.958 91.15ZM396.958 89.905C397.368 89.905 397.758 89.81 398.128 89.62C398.508 89.43 398.818 89.13 399.058 88.72C399.308 88.31 399.433 87.79 399.433 87.16C399.433 86.54 399.308 86.025 399.058 85.615C398.818 85.205 398.508 84.91 398.128 84.73C397.758 84.54 397.368 84.445 396.958 84.445C396.538 84.445 396.138 84.54 395.758 84.73C395.388 84.91 395.083 85.205 394.843 85.615C394.603 86.025 394.483 86.54 394.483 87.16C394.483 87.79 394.603 88.31 394.843 88.72C395.083 89.13 395.388 89.43 395.758 89.62C396.138 89.81 396.538 89.905 396.958 89.905Z" fill="black"/>
<path d="M239 92.5H401.518V93.25H239V92.5Z" fill="black"/>
<g filter="url(#filter0_d_1023_2683)">
<rect x="21" y="67" width="145" height="38" rx="19" fill="#ECECEC"/>
</g>
<path d="M35.13 91.075C34.94 91.075 34.78 91.01 34.65 90.88C34.52 90.75 34.455 90.59 34.455 90.4V81.22C34.455 81.03 34.52 80.87 34.65 80.74C34.78 80.6 34.94 80.53 35.13 80.53H38.55C39.5 80.53 40.275 80.69 40.875 81.01C41.475 81.33 41.905 81.74 42.165 82.24C42.425 82.74 42.555 83.28 42.555 83.86C42.555 84.44 42.425 84.98 42.165 85.48C41.905 85.98 41.475 86.39 40.875 86.71C40.275 87.03 39.5 87.19 38.55 87.19H35.82V90.4C35.82 90.59 35.75 90.75 35.61 90.88C35.48 91.01 35.32 91.075 35.13 91.075ZM38.415 85.9C39.435 85.9 40.15 85.705 40.56 85.315C40.98 84.925 41.19 84.44 41.19 83.86C41.19 83.28 40.98 82.795 40.56 82.405C40.15 82.015 39.435 81.82 38.415 81.82H35.82V85.9H38.415ZM47.433 91.15C46.663 91.15 45.988 90.985 45.408 90.655C44.828 90.325 44.378 89.86 44.058 89.26C43.748 88.65 43.593 87.955 43.593 87.175C43.593 86.395 43.748 85.705 44.058 85.105C44.378 84.495 44.828 84.025 45.408 83.695C45.988 83.365 46.663 83.2 47.433 83.2C48.193 83.2 48.863 83.365 49.443 83.695C50.023 84.025 50.473 84.495 50.793 85.105C51.113 85.705 51.273 86.395 51.273 87.175C51.273 87.955 51.113 88.65 50.793 89.26C50.473 89.86 50.023 90.325 49.443 90.655C48.863 90.985 48.193 91.15 47.433 91.15ZM47.433 89.905C47.843 89.905 48.233 89.81 48.603 89.62C48.983 89.43 49.293 89.13 49.533 88.72C49.783 88.31 49.908 87.79 49.908 87.16C49.908 86.54 49.783 86.025 49.533 85.615C49.293 85.205 48.983 84.91 48.603 84.73C48.233 84.54 47.843 84.445 47.433 84.445C47.013 84.445 46.613 84.54 46.233 84.73C45.863 84.91 45.558 85.205 45.318 85.615C45.078 86.025 44.958 86.54 44.958 87.16C44.958 87.79 45.078 88.31 45.318 88.72C45.558 89.13 45.863 89.43 46.233 89.62C46.613 89.81 47.013 89.905 47.433 89.905ZM53.859 91.075C53.669 91.075 53.509 91.01 53.379 90.88C53.249 90.75 53.184 90.59 53.184 90.4V83.965C53.184 83.775 53.249 83.615 53.379 83.485C53.509 83.345 53.669 83.275 53.859 83.275C54.049 83.275 54.209 83.345 54.339 83.485C54.479 83.615 54.549 83.775 54.549 83.965V84.58C54.929 84.16 55.339 83.825 55.779 83.575C56.219 83.325 56.739 83.2 57.339 83.2C57.889 83.2 58.364 83.33 58.764 83.59C59.174 83.85 59.484 84.205 59.694 84.655C59.914 85.105 60.024 85.6 60.024 86.14V90.4C60.024 90.59 59.954 90.75 59.814 90.88C59.684 91.01 59.524 91.075 59.334 91.075C59.144 91.075 58.984 91.01 58.854 90.88C58.724 90.75 58.659 90.59 58.659 90.4V86.29C58.659 85.07 58.109 84.46 57.009 84.46C56.509 84.46 56.059 84.59 55.659 84.85C55.269 85.11 54.899 85.46 54.549 85.9V90.4C54.549 90.59 54.479 90.75 54.339 90.88C54.209 91.01 54.049 91.075 53.859 91.075ZM64.7889 91.15C63.3289 91.15 62.5989 90.49 62.5989 89.17V84.52H61.5339C61.4539 84.52 61.3839 84.495 61.3239 84.445C61.2739 84.385 61.2489 84.315 61.2489 84.235C61.2489 84.135 61.2939 84.05 61.3839 83.98L63.4239 81.985C63.5139 81.895 63.5989 81.85 63.6789 81.85C63.7589 81.85 63.8239 81.88 63.8739 81.94C63.9339 82 63.9639 82.07 63.9639 82.15V83.35H65.6589C65.8289 83.35 65.9689 83.405 66.0789 83.515C66.1889 83.625 66.2439 83.765 66.2439 83.935C66.2439 84.095 66.1889 84.235 66.0789 84.355C65.9689 84.465 65.8289 84.52 65.6589 84.52H63.9639V89.05C63.9639 89.44 64.0539 89.69 64.2339 89.8C64.4239 89.9 64.6589 89.95 64.9389 89.95C65.1389 89.95 65.3389 89.92 65.5389 89.86C65.5789 89.85 65.6189 89.84 65.6589 89.83C65.7089 89.82 65.7689 89.815 65.8389 89.815C65.9789 89.815 66.1039 89.87 66.2139 89.98C66.3239 90.08 66.3789 90.205 66.3789 90.355C66.3789 90.585 66.2639 90.76 66.0339 90.88C65.6439 91.06 65.2289 91.15 64.7889 91.15ZM70.4864 91.15C69.9364 91.15 69.4564 91.02 69.0464 90.76C68.6464 90.5 68.3364 90.145 68.1164 89.695C67.9064 89.245 67.8014 88.75 67.8014 88.21V83.95C67.8014 83.76 67.8664 83.6 67.9964 83.47C68.1364 83.34 68.3014 83.275 68.4914 83.275C68.6814 83.275 68.8414 83.34 68.9714 83.47C69.1014 83.6 69.1664 83.76 69.1664 83.95V88.06C69.1664 89.28 69.7164 89.89 70.8164 89.89C71.3164 89.89 71.7614 89.76 72.1514 89.5C72.5514 89.24 72.9264 88.89 73.2764 88.45V83.95C73.2764 83.76 73.3414 83.6 73.4714 83.47C73.6114 83.34 73.7764 83.275 73.9664 83.275C74.1564 83.275 74.3164 83.34 74.4464 83.47C74.5764 83.6 74.6414 83.76 74.6414 83.95V90.385C74.6414 90.575 74.5764 90.74 74.4464 90.88C74.3164 91.01 74.1564 91.075 73.9664 91.075C73.7764 91.075 73.6114 91.01 73.4714 90.88C73.3414 90.74 73.2764 90.575 73.2764 90.385V89.77C72.8964 90.19 72.4864 90.525 72.0464 90.775C71.6064 91.025 71.0864 91.15 70.4864 91.15ZM78.967 91.15C78.527 91.15 78.117 91.06 77.737 90.88C77.367 90.7 77.072 90.44 76.852 90.1C76.632 89.75 76.522 89.35 76.522 88.9C76.522 88.16 76.812 87.57 77.392 87.13C77.982 86.69 78.842 86.47 79.972 86.47H81.787V86.35C81.787 85.69 81.622 85.215 81.292 84.925C80.972 84.635 80.467 84.49 79.777 84.49C79.397 84.49 79.057 84.52 78.757 84.58C78.467 84.64 78.142 84.73 77.782 84.85C77.702 84.87 77.637 84.88 77.587 84.88C77.437 84.88 77.307 84.825 77.197 84.715C77.087 84.605 77.032 84.47 77.032 84.31C77.032 84.04 77.162 83.85 77.422 83.74C78.272 83.38 79.137 83.2 80.017 83.2C80.707 83.2 81.287 83.34 81.757 83.62C82.237 83.9 82.587 84.265 82.807 84.715C83.037 85.155 83.152 85.635 83.152 86.155V90.4C83.152 90.59 83.082 90.75 82.942 90.88C82.812 91.01 82.652 91.075 82.462 91.075C82.272 91.075 82.112 91.01 81.982 90.88C81.852 90.75 81.787 90.59 81.787 90.4V90.01C81.047 90.77 80.107 91.15 78.967 91.15ZM79.477 89.95C79.917 89.95 80.342 89.845 80.752 89.635C81.162 89.415 81.507 89.145 81.787 88.825V87.565H80.152C78.642 87.565 77.887 87.96 77.887 88.75C77.887 89.11 78.007 89.4 78.247 89.62C78.497 89.84 78.907 89.95 79.477 89.95ZM91.1549 89.305C91.3049 89.305 91.4349 89.37 91.5449 89.5C91.6649 89.62 91.7249 89.755 91.7249 89.905C91.7249 90.125 91.6249 90.3 91.4249 90.43C91.0949 90.64 90.7349 90.815 90.3449 90.955C89.9649 91.085 89.5099 91.15 88.9799 91.15L88.5299 91.945C88.6899 91.905 88.8599 91.885 89.0399 91.885C89.3799 91.885 89.6549 91.98 89.8649 92.17C90.0849 92.37 90.1949 92.625 90.1949 92.935C90.1949 93.395 90.0499 93.74 89.7599 93.97C89.4799 94.2 89.0699 94.315 88.5299 94.315C88.0499 94.315 87.5999 94.185 87.1799 93.925C87.1399 93.895 87.0999 93.855 87.0599 93.805C87.0299 93.765 87.0149 93.72 87.0149 93.67C87.0149 93.59 87.0399 93.52 87.0899 93.46C87.1399 93.4 87.2099 93.37 87.2999 93.37C87.3399 93.37 87.3899 93.385 87.4499 93.415C87.7599 93.585 88.0549 93.67 88.3349 93.67C88.9049 93.67 89.1899 93.44 89.1899 92.98C89.1899 92.83 89.1399 92.715 89.0399 92.635C88.9399 92.555 88.8099 92.515 88.6499 92.515C88.4299 92.515 88.2099 92.57 87.9899 92.68C87.9299 92.71 87.8799 92.725 87.8399 92.725C87.7699 92.725 87.7049 92.7 87.6449 92.65C87.5949 92.61 87.5699 92.555 87.5699 92.485C87.5699 92.405 87.5899 92.335 87.6299 92.275L88.3649 91.105C87.7349 91.015 87.1599 90.805 86.6399 90.475C86.1299 90.135 85.7249 89.685 85.4249 89.125C85.1249 88.555 84.9749 87.905 84.9749 87.175C84.9749 86.365 85.1549 85.66 85.5149 85.06C85.8849 84.46 86.3749 84 86.9849 83.68C87.5949 83.36 88.2599 83.2 88.9799 83.2C89.5099 83.2 89.9649 83.27 90.3449 83.41C90.7349 83.54 91.0949 83.71 91.4249 83.92C91.6249 84.05 91.7249 84.225 91.7249 84.445C91.7249 84.595 91.6649 84.735 91.5449 84.865C91.4349 84.985 91.3049 85.045 91.1549 85.045C91.0449 85.045 90.9349 85.015 90.8249 84.955C90.4949 84.785 90.2099 84.665 89.9699 84.595C89.7399 84.515 89.4499 84.475 89.0999 84.475C88.2399 84.475 87.5649 84.725 87.0749 85.225C86.5849 85.715 86.3399 86.365 86.3399 87.175C86.3399 87.985 86.5849 88.64 87.0749 89.14C87.5649 89.63 88.2399 89.875 89.0999 89.875C89.4499 89.875 89.7399 89.84 89.9699 89.77C90.2099 89.69 90.4949 89.565 90.8249 89.395C90.9349 89.335 91.0449 89.305 91.1549 89.305ZM95.3879 91.15C94.9479 91.15 94.5379 91.06 94.1579 90.88C93.7879 90.7 93.4929 90.44 93.2729 90.1C93.0529 89.75 92.9429 89.35 92.9429 88.9C92.9429 88.16 93.2329 87.57 93.8129 87.13C94.4029 86.69 95.2629 86.47 96.3929 86.47H98.2079V86.35C98.2079 85.69 98.0429 85.215 97.7129 84.925C97.3929 84.635 96.8879 84.49 96.1979 84.49C95.8179 84.49 95.4779 84.52 95.1779 84.58C94.8879 84.64 94.5629 84.73 94.2029 84.85C94.1229 84.87 94.0579 84.88 94.0079 84.88C93.8579 84.88 93.7279 84.825 93.6179 84.715C93.5079 84.605 93.4529 84.47 93.4529 84.31C93.4529 84.04 93.5829 83.85 93.8429 83.74C94.6929 83.38 95.5579 83.2 96.4379 83.2C97.1279 83.2 97.7079 83.34 98.1779 83.62C98.6579 83.9 99.0079 84.265 99.2279 84.715C99.4579 85.155 99.5729 85.635 99.5729 86.155V90.4C99.5729 90.59 99.5029 90.75 99.3629 90.88C99.2329 91.01 99.0729 91.075 98.8829 91.075C98.6929 91.075 98.5329 91.01 98.4029 90.88C98.2729 90.75 98.2079 90.59 98.2079 90.4V90.01C97.4679 90.77 96.5279 91.15 95.3879 91.15ZM95.8979 89.95C96.3379 89.95 96.7629 89.845 97.1729 89.635C97.5829 89.415 97.9279 89.145 98.2079 88.825V87.565H96.5729C95.0629 87.565 94.3079 87.96 94.3079 88.75C94.3079 89.11 94.4279 89.4 94.6679 89.62C94.9179 89.84 95.3279 89.95 95.8979 89.95ZM94.3679 82.435C94.2779 82.435 94.1979 82.405 94.1279 82.345C94.0579 82.275 94.0229 82.19 94.0229 82.09C94.0229 81.88 94.0729 81.665 94.1729 81.445C94.2829 81.225 94.4329 81.04 94.6229 80.89C94.8129 80.74 95.0329 80.665 95.2829 80.665C95.4829 80.665 95.6679 80.695 95.8379 80.755C96.0179 80.815 96.2329 80.905 96.4829 81.025C96.7129 81.135 96.9079 81.22 97.0679 81.28C97.2379 81.34 97.4129 81.37 97.5929 81.37C97.7429 81.37 97.8579 81.335 97.9379 81.265C98.0279 81.195 98.0979 81.095 98.1479 80.965C98.2279 80.755 98.3529 80.65 98.5229 80.65C98.6229 80.65 98.7029 80.685 98.7629 80.755C98.8229 80.815 98.8579 80.89 98.8679 80.98C98.8679 81.33 98.7479 81.655 98.5079 81.955C98.2679 82.255 97.9679 82.405 97.6079 82.405C97.4079 82.405 97.2179 82.375 97.0379 82.315C96.8579 82.245 96.6379 82.15 96.3779 82.03C96.1479 81.92 95.9529 81.835 95.7929 81.775C95.6329 81.715 95.4679 81.685 95.2979 81.685C95.0379 81.685 94.8429 81.845 94.7129 82.165C94.6529 82.345 94.5379 82.435 94.3679 82.435ZM105.236 91.15C104.466 91.15 103.791 90.985 103.211 90.655C102.631 90.325 102.181 89.86 101.861 89.26C101.551 88.65 101.396 87.955 101.396 87.175C101.396 86.395 101.551 85.705 101.861 85.105C102.181 84.495 102.631 84.025 103.211 83.695C103.791 83.365 104.466 83.2 105.236 83.2C105.996 83.2 106.666 83.365 107.246 83.695C107.826 84.025 108.276 84.495 108.596 85.105C108.916 85.705 109.076 86.395 109.076 87.175C109.076 87.955 108.916 88.65 108.596 89.26C108.276 89.86 107.826 90.325 107.246 90.655C106.666 90.985 105.996 91.15 105.236 91.15ZM105.236 89.905C105.646 89.905 106.036 89.81 106.406 89.62C106.786 89.43 107.096 89.13 107.336 88.72C107.586 88.31 107.711 87.79 107.711 87.16C107.711 86.54 107.586 86.025 107.336 85.615C107.096 85.205 106.786 84.91 106.406 84.73C106.036 84.54 105.646 84.445 105.236 84.445C104.816 84.445 104.416 84.54 104.036 84.73C103.666 84.91 103.361 85.205 103.121 85.615C102.881 86.025 102.761 86.54 102.761 87.16C102.761 87.79 102.881 88.31 103.121 88.72C103.361 89.13 103.666 89.43 104.036 89.62C104.416 89.81 104.816 89.905 105.236 89.905ZM119.788 91.15C118.758 91.15 117.843 90.925 117.043 90.475C116.243 90.015 115.623 89.38 115.183 88.57C114.743 87.75 114.523 86.82 114.523 85.78C114.523 84.72 114.753 83.78 115.213 82.96C115.673 82.14 116.298 81.505 117.088 81.055C117.888 80.605 118.773 80.38 119.743 80.38C120.523 80.38 121.203 80.475 121.783 80.665C122.373 80.855 122.938 81.12 123.478 81.46C123.558 81.5 123.628 81.57 123.688 81.67C123.748 81.77 123.778 81.88 123.778 82C123.778 82.17 123.718 82.315 123.598 82.435C123.488 82.555 123.338 82.615 123.148 82.615C123.038 82.615 122.933 82.59 122.833 82.54C122.363 82.26 121.893 82.05 121.423 81.91C120.953 81.77 120.443 81.7 119.893 81.7C119.133 81.7 118.448 81.86 117.838 82.18C117.228 82.5 116.748 82.97 116.398 83.59C116.058 84.2 115.888 84.93 115.888 85.78C115.888 86.56 116.048 87.26 116.368 87.88C116.698 88.49 117.168 88.975 117.778 89.335C118.398 89.685 119.128 89.86 119.968 89.86C120.908 89.86 121.783 89.64 122.593 89.2V86.485H120.118C119.948 86.485 119.803 86.425 119.683 86.305C119.563 86.185 119.503 86.04 119.503 85.87C119.503 85.7 119.563 85.555 119.683 85.435C119.803 85.315 119.948 85.255 120.118 85.255H123.073C123.273 85.255 123.443 85.325 123.583 85.465C123.723 85.605 123.793 85.775 123.793 85.975V89.38C123.793 89.59 123.738 89.78 123.628 89.95C123.528 90.11 123.393 90.23 123.223 90.31C122.103 90.87 120.958 91.15 119.788 91.15ZM129.656 91.15C128.436 91.15 127.481 90.805 126.791 90.115C126.111 89.415 125.771 88.435 125.771 87.175C125.771 86.465 125.901 85.81 126.161 85.21C126.421 84.61 126.821 84.125 127.361 83.755C127.901 83.385 128.566 83.2 129.356 83.2C130.096 83.2 130.736 83.375 131.276 83.725C131.816 84.065 132.226 84.525 132.506 85.105C132.786 85.675 132.926 86.3 132.926 86.98C132.926 87.17 132.861 87.33 132.731 87.46C132.611 87.59 132.446 87.655 132.236 87.655H127.151C127.231 88.355 127.491 88.9 127.931 89.29C128.371 89.68 128.986 89.875 129.776 89.875C130.196 89.875 130.561 89.835 130.871 89.755C131.191 89.675 131.501 89.56 131.801 89.41C131.881 89.37 131.971 89.35 132.071 89.35C132.231 89.35 132.371 89.405 132.491 89.515C132.611 89.625 132.671 89.765 132.671 89.935C132.671 90.155 132.541 90.34 132.281 90.49C131.891 90.71 131.506 90.875 131.126 90.985C130.746 91.095 130.256 91.15 129.656 91.15ZM131.576 86.545C131.546 86.055 131.416 85.645 131.186 85.315C130.966 84.985 130.691 84.745 130.361 84.595C130.031 84.435 129.696 84.355 129.356 84.355C129.016 84.355 128.681 84.435 128.351 84.595C128.021 84.745 127.746 84.985 127.526 85.315C127.306 85.645 127.181 86.055 127.151 86.545H131.576ZM135.407 91.075C135.217 91.075 135.057 91.01 134.927 90.88C134.797 90.75 134.732 90.59 134.732 90.4V83.965C134.732 83.775 134.797 83.615 134.927 83.485C135.057 83.345 135.217 83.275 135.407 83.275C135.597 83.275 135.757 83.345 135.887 83.485C136.027 83.615 136.097 83.775 136.097 83.965V84.61C136.797 83.67 137.582 83.2 138.452 83.2H138.527C138.717 83.2 138.872 83.265 138.992 83.395C139.122 83.525 139.187 83.685 139.187 83.875C139.187 84.065 139.122 84.22 138.992 84.34C138.862 84.46 138.697 84.52 138.497 84.52H138.422C137.942 84.52 137.502 84.64 137.102 84.88C136.702 85.11 136.367 85.43 136.097 85.84V90.4C136.097 90.59 136.027 90.75 135.887 90.88C135.757 91.01 135.597 91.075 135.407 91.075ZM142.424 91.15C141.984 91.15 141.574 91.06 141.194 90.88C140.824 90.7 140.529 90.44 140.309 90.1C140.089 89.75 139.979 89.35 139.979 88.9C139.979 88.16 140.269 87.57 140.849 87.13C141.439 86.69 142.299 86.47 143.429 86.47H145.244V86.35C145.244 85.69 145.079 85.215 144.749 84.925C144.429 84.635 143.924 84.49 143.234 84.49C142.854 84.49 142.514 84.52 142.214 84.58C141.924 84.64 141.599 84.73 141.239 84.85C141.159 84.87 141.094 84.88 141.044 84.88C140.894 84.88 140.764 84.825 140.654 84.715C140.544 84.605 140.489 84.47 140.489 84.31C140.489 84.04 140.619 83.85 140.879 83.74C141.729 83.38 142.594 83.2 143.474 83.2C144.164 83.2 144.744 83.34 145.214 83.62C145.694 83.9 146.044 84.265 146.264 84.715C146.494 85.155 146.609 85.635 146.609 86.155V90.4C146.609 90.59 146.539 90.75 146.399 90.88C146.269 91.01 146.109 91.075 145.919 91.075C145.729 91.075 145.569 91.01 145.439 90.88C145.309 90.75 145.244 90.59 145.244 90.4V90.01C144.504 90.77 143.564 91.15 142.424 91.15ZM142.934 89.95C143.374 89.95 143.799 89.845 144.209 89.635C144.619 89.415 144.964 89.145 145.244 88.825V87.565H143.609C142.099 87.565 141.344 87.96 141.344 88.75C141.344 89.11 141.464 89.4 141.704 89.62C141.954 89.84 142.364 89.95 142.934 89.95ZM149.572 91.075C149.382 91.075 149.222 91.01 149.092 90.88C148.962 90.75 148.897 90.59 148.897 90.4V80.665C148.897 80.475 148.962 80.315 149.092 80.185C149.222 80.045 149.382 79.975 149.572 79.975C149.772 79.975 149.937 80.04 150.067 80.17C150.197 80.3 150.262 80.465 150.262 80.665V90.4C150.262 90.59 150.192 90.75 150.052 90.88C149.922 91.01 149.762 91.075 149.572 91.075Z" fill="black"/>
</g>
<defs>
<filter id="filter0_d_1023_2683" x="17" y="67" width="153" height="46" filterUnits="userSpaceOnUse" color-interpolation-filters="sRGB">
<feFlood flood-opacity="0" result="BackgroundImageFix"/>
<feColorMatrix in="SourceAlpha" type="matrix" values="0 0 0 0 0 0 0 0 0 0 0 0 0 0 0 0 0 0 127 0" result="hardAlpha"/>
<feOffset dy="4"/>
<feGaussianBlur stdDeviation="2"/>
<feComposite in2="hardAlpha" operator="out"/>
<feColorMatrix type="matrix" values="0 0 0 0 0 0 0 0 0 0 0 0 0 0 0 0 0 0 0.25 0"/>
<feBlend mode="normal" in2="BackgroundImageFix" result="effect1_dropShadow_1023_2683"/>
<feBlend mode="normal" in="SourceGraphic" in2="effect1_dropShadow_1023_2683" result="shape"/>
</filter>
<clipPath id="clip0_1023_2683">
<rect width="430" height="127" fill="white"/>
</clipPath>
</defs>
</svg>
