<svg width="511" height="298" viewBox="0 0 511 298" fill="none" xmlns="http://www.w3.org/2000/svg">
<rect width="511" height="298" fill="white"/>
<rect width="468" height="278" rx="8" fill="white"/>
<path d="M23.712 27.432C23.5093 27.432 23.3387 27.3467 23.2 27.176L21.456 25.096C21.1893 25.1387 20.8693 25.16 20.496 25.16C19.376 25.16 18.3947 24.9147 17.552 24.424C16.7093 23.9333 16.0587 23.256 15.6 22.392C15.1413 21.528 14.9013 20.536 14.88 19.416C14.9013 18.296 15.1413 17.304 15.6 16.44C16.0587 15.576 16.7093 14.8987 17.552 14.408C18.3947 13.9173 19.376 13.672 20.496 13.672C21.616 13.672 22.592 13.9173 23.424 14.408C24.2667 14.8987 24.9173 15.5813 25.376 16.456C25.8453 17.32 26.0907 18.3067 26.112 19.416C26.0907 20.664 25.7867 21.7573 25.2 22.696C24.624 23.624 23.824 24.3013 22.8 24.728L24.208 26.28C24.336 26.408 24.4 26.5627 24.4 26.744C24.4107 26.9253 24.3467 27.0853 24.208 27.224C24.0693 27.3627 23.904 27.432 23.712 27.432ZM20.496 23.8C21.3493 23.8 22.0907 23.608 22.72 23.224C23.3493 22.84 23.8293 22.3173 24.16 21.656C24.4907 20.9947 24.656 20.248 24.656 19.416C24.656 18.584 24.4907 17.8373 24.16 17.176C23.8293 16.5147 23.3493 15.992 22.72 15.608C22.0907 15.224 21.3493 15.032 20.496 15.032C19.632 15.032 18.8853 15.224 18.256 15.608C17.6373 15.992 17.1627 16.5147 16.832 17.176C16.5013 17.8373 16.336 18.584 16.336 19.416C16.336 20.248 16.5013 20.9947 16.832 21.656C17.1627 22.3173 17.6373 22.84 18.256 23.224C18.8853 23.608 19.632 23.8 20.496 23.8ZM33.0484 25.16C32.291 25.16 31.5604 25 30.8564 24.68C30.1524 24.36 29.5764 23.8747 29.1284 23.224C28.6804 22.5627 28.4564 21.7573 28.4564 20.808V14.488C28.4564 14.2853 28.5257 14.1147 28.6644 13.976C28.803 13.8267 28.9737 13.752 29.1764 13.752C29.379 13.752 29.5497 13.8267 29.6884 13.976C29.8377 14.1147 29.9124 14.2853 29.9124 14.488V20.856C29.9124 21.496 30.0564 22.04 30.3444 22.488C30.643 22.936 31.0324 23.272 31.5124 23.496C31.9924 23.72 32.5044 23.832 33.0484 23.832C33.5924 23.832 34.1044 23.72 34.5844 23.496C35.0644 23.272 35.4484 22.936 35.7364 22.488C36.035 22.04 36.1844 21.496 36.1844 20.856V14.488C36.1844 14.2853 36.2537 14.1147 36.3924 13.976C36.531 13.8267 36.7017 13.752 36.9044 13.752C37.107 13.752 37.2777 13.8267 37.4164 13.976C37.5657 14.1147 37.6404 14.2853 37.6404 14.488V20.808C37.6404 21.7573 37.4164 22.5627 36.9684 23.224C36.5204 23.8747 35.9444 24.36 35.2404 24.68C34.5364 25 33.8057 25.16 33.0484 25.16ZM40.3169 25.08C40.1035 25.08 39.9275 25.0107 39.7889 24.872C39.6609 24.7333 39.5969 24.5627 39.5969 24.36C39.5969 24.2747 39.6235 24.168 39.6769 24.04L43.7569 14.408C43.8422 14.216 43.9595 14.0613 44.1089 13.944C44.2689 13.816 44.4609 13.752 44.6849 13.752H44.8449C45.0689 13.752 45.2555 13.816 45.4049 13.944C45.5649 14.0613 45.6875 14.216 45.7729 14.408L49.8529 24.04C49.9062 24.168 49.9329 24.2747 49.9329 24.36C49.9329 24.5627 49.8635 24.7333 49.7249 24.872C49.5969 25.0107 49.4262 25.08 49.2129 25.08C49.0635 25.08 48.9249 25.0427 48.7969 24.968C48.6795 24.8827 48.5889 24.7707 48.5249 24.632L47.4849 22.136H42.0449L41.0049 24.632C40.9409 24.7707 40.8449 24.8827 40.7169 24.968C40.5995 25.0427 40.4662 25.08 40.3169 25.08ZM42.6049 20.808H46.9249L44.7649 15.608L42.6049 20.808ZM53.0064 25.08C52.8037 25.08 52.633 25.0107 52.4944 24.872C52.3557 24.7333 52.2864 24.5627 52.2864 24.36V14.808C52.2864 14.52 52.3877 14.2747 52.5904 14.072C52.793 13.8587 53.0384 13.752 53.3264 13.752H53.5344C53.8757 13.752 54.169 13.912 54.4144 14.232L60.5744 23.128V14.488C60.5744 14.2853 60.6437 14.1147 60.7824 13.976C60.921 13.8267 61.0917 13.752 61.2944 13.752C61.497 13.752 61.6677 13.8267 61.8064 13.976C61.9557 14.1147 62.0304 14.2853 62.0304 14.488V24.04C62.0304 24.328 61.9237 24.5733 61.7104 24.776C61.5077 24.9787 61.2624 25.08 60.9744 25.08H60.7824C60.6117 25.08 60.4517 25.0427 60.3024 24.968C60.153 24.8827 60.0304 24.776 59.9344 24.648L53.7424 15.704V24.36C53.7424 24.5627 53.6677 24.7333 53.5184 24.872C53.3797 25.0107 53.209 25.08 53.0064 25.08ZM68.4421 25.08C68.2395 25.08 68.0688 25.0107 67.9301 24.872C67.7915 24.7333 67.7221 24.5627 67.7221 24.36V15.192H64.4581C64.2661 15.192 64.1061 15.128 63.9781 15C63.8501 14.872 63.7861 14.712 63.7861 14.52C63.7861 14.328 63.8501 14.168 63.9781 14.04C64.1061 13.9013 64.2661 13.832 64.4581 13.832H72.4261C72.6181 13.832 72.7781 13.9013 72.9061 14.04C73.0448 14.168 73.1141 14.328 73.1141 14.52C73.1141 14.712 73.0448 14.872 72.9061 15C72.7781 15.128 72.6181 15.192 72.4261 15.192H69.1781V24.36C69.1781 24.5627 69.1035 24.7333 68.9541 24.872C68.8155 25.0107 68.6448 25.08 68.4421 25.08ZM75.6001 25.08C75.3975 25.08 75.2268 25.0107 75.0881 24.872C74.9495 24.7333 74.8801 24.5627 74.8801 24.36V14.488C74.8801 14.2853 74.9495 14.1147 75.0881 13.976C75.2268 13.8267 75.3975 13.752 75.6001 13.752C75.8028 13.752 75.9735 13.8267 76.1121 13.976C76.2615 14.1147 76.3361 14.2853 76.3361 14.488V24.36C76.3361 24.5627 76.2615 24.7333 76.1121 24.872C75.9735 25.0107 75.8028 25.08 75.6001 25.08ZM80.1626 25C79.96 25 79.7893 24.9307 79.6506 24.792C79.512 24.6533 79.4426 24.4827 79.4426 24.28V14.568C79.4426 14.3653 79.512 14.1947 79.6506 14.056C79.7893 13.9067 79.96 13.832 80.1626 13.832H83.3786C84.5946 13.832 85.624 14.104 86.4666 14.648C87.32 15.1813 87.96 15.8747 88.3866 16.728C88.8133 17.5813 89.0266 18.4773 89.0266 19.416C89.0266 20.3547 88.8133 21.2507 88.3866 22.104C87.96 22.9573 87.32 23.656 86.4666 24.2C85.624 24.7333 84.5946 25 83.3786 25H80.1626ZM83.2026 23.64C84.0773 23.64 84.8453 23.464 85.5066 23.112C86.168 22.7493 86.68 22.2533 87.0426 21.624C87.4053 20.984 87.5866 20.248 87.5866 19.416C87.5866 18.584 87.4053 17.8533 87.0426 17.224C86.68 16.584 86.168 16.088 85.5066 15.736C84.8453 15.3733 84.0773 15.192 83.2026 15.192H80.8986V23.64H83.2026ZM91.1919 25.08C90.9785 25.08 90.8025 25.0107 90.6639 24.872C90.5359 24.7333 90.4719 24.5627 90.4719 24.36C90.4719 24.2747 90.4985 24.168 90.5519 24.04L94.6319 14.408C94.7172 14.216 94.8345 14.0613 94.9839 13.944C95.1439 13.816 95.3359 13.752 95.5599 13.752H95.7199C95.9439 13.752 96.1305 13.816 96.2799 13.944C96.4399 14.0613 96.5625 14.216 96.6479 14.408L100.728 24.04C100.781 24.168 100.808 24.2747 100.808 24.36C100.808 24.5627 100.739 24.7333 100.6 24.872C100.472 25.0107 100.301 25.08 100.088 25.08C99.9385 25.08 99.7999 25.0427 99.6719 24.968C99.5545 24.8827 99.4639 24.7707 99.3999 24.632L98.3599 22.136H92.9199L91.8799 24.632C91.8159 24.7707 91.7199 24.8827 91.5919 24.968C91.4745 25.0427 91.3412 25.08 91.1919 25.08ZM93.4799 20.808H97.7999L95.6399 15.608L93.4799 20.808ZM103.881 25C103.679 25 103.508 24.9307 103.369 24.792C103.231 24.6533 103.161 24.4827 103.161 24.28V14.568C103.161 14.3653 103.231 14.1947 103.369 14.056C103.508 13.9067 103.679 13.832 103.881 13.832H107.097C108.313 13.832 109.343 14.104 110.185 14.648C111.039 15.1813 111.679 15.8747 112.105 16.728C112.532 17.5813 112.745 18.4773 112.745 19.416C112.745 20.3547 112.532 21.2507 112.105 22.104C111.679 22.9573 111.039 23.656 110.185 24.2C109.343 24.7333 108.313 25 107.097 25H103.881ZM106.921 23.64C107.796 23.64 108.564 23.464 109.225 23.112C109.887 22.7493 110.399 22.2533 110.761 21.624C111.124 20.984 111.305 20.248 111.305 19.416C111.305 18.584 111.124 17.8533 110.761 17.224C110.399 16.584 109.887 16.088 109.225 15.736C108.564 15.3733 107.796 15.192 106.921 15.192H104.617V23.64H106.921ZM115.897 25C115.694 25 115.524 24.9307 115.385 24.792C115.246 24.6533 115.177 24.4827 115.177 24.28V14.568C115.177 14.3653 115.246 14.1947 115.385 14.056C115.524 13.9067 115.694 13.832 115.897 13.832H122.313C122.505 13.832 122.665 13.9013 122.793 14.04C122.932 14.168 123.001 14.328 123.001 14.52C123.001 14.712 122.932 14.872 122.793 15C122.665 15.128 122.505 15.192 122.313 15.192H116.633V18.728H121.737C121.929 18.728 122.089 18.7973 122.217 18.936C122.356 19.064 122.425 19.224 122.425 19.416C122.425 19.608 122.356 19.768 122.217 19.896C122.089 20.024 121.929 20.088 121.737 20.088H116.633V23.64H122.313C122.505 23.64 122.665 23.7093 122.793 23.848C122.932 23.976 123.001 24.136 123.001 24.328C123.001 24.52 122.932 24.68 122.793 24.808C122.665 24.936 122.505 25 122.313 25H115.897ZM130.256 25C130.054 25 129.883 24.9307 129.744 24.792C129.606 24.6533 129.536 24.4827 129.536 24.28V14.568C129.536 14.3653 129.606 14.1947 129.744 14.056C129.883 13.9067 130.054 13.832 130.256 13.832H133.472C134.688 13.832 135.718 14.104 136.56 14.648C137.414 15.1813 138.054 15.8747 138.48 16.728C138.907 17.5813 139.12 18.4773 139.12 19.416C139.12 20.3547 138.907 21.2507 138.48 22.104C138.054 22.9573 137.414 23.656 136.56 24.2C135.718 24.7333 134.688 25 133.472 25H130.256ZM133.296 23.64C134.171 23.64 134.939 23.464 135.6 23.112C136.262 22.7493 136.774 22.2533 137.136 21.624C137.499 20.984 137.68 20.248 137.68 19.416C137.68 18.584 137.499 17.8533 137.136 17.224C136.774 16.584 136.262 16.088 135.6 15.736C134.939 15.3733 134.171 15.192 133.296 15.192H130.992V23.64H133.296ZM142.272 25C142.069 25 141.899 24.9307 141.76 24.792C141.621 24.6533 141.552 24.4827 141.552 24.28V14.568C141.552 14.3653 141.621 14.1947 141.76 14.056C141.899 13.9067 142.069 13.832 142.272 13.832H148.688C148.88 13.832 149.04 13.9013 149.168 14.04C149.307 14.168 149.376 14.328 149.376 14.52C149.376 14.712 149.307 14.872 149.168 15C149.04 15.128 148.88 15.192 148.688 15.192H143.008V18.728H148.112C148.304 18.728 148.464 18.7973 148.592 18.936C148.731 19.064 148.8 19.224 148.8 19.416C148.8 19.608 148.731 19.768 148.592 19.896C148.464 20.024 148.304 20.088 148.112 20.088H143.008V23.64H148.688C148.88 23.64 149.04 23.7093 149.168 23.848C149.307 23.976 149.376 24.136 149.376 24.328C149.376 24.52 149.307 24.68 149.168 24.808C149.04 24.936 148.88 25 148.688 25H142.272ZM156.631 25.08C156.429 25.08 156.258 25.0107 156.119 24.872C155.981 24.7333 155.911 24.5627 155.911 24.36V14.488C155.911 14.2853 155.981 14.1147 156.119 13.976C156.258 13.8267 156.429 13.752 156.631 13.752C156.834 13.752 157.005 13.8267 157.143 13.976C157.293 14.1147 157.367 14.2853 157.367 14.488V24.36C157.367 24.5627 157.293 24.7333 157.143 24.872C157.005 25.0107 156.834 25.08 156.631 25.08ZM161.194 25.08C160.991 25.08 160.821 25.0107 160.682 24.872C160.543 24.7333 160.474 24.5627 160.474 24.36V14.808C160.474 14.52 160.575 14.2747 160.778 14.072C160.981 13.8587 161.226 13.752 161.514 13.752H161.722C162.063 13.752 162.357 13.912 162.602 14.232L168.762 23.128V14.488C168.762 14.2853 168.831 14.1147 168.97 13.976C169.109 13.8267 169.279 13.752 169.482 13.752C169.685 13.752 169.855 13.8267 169.994 13.976C170.143 14.1147 170.218 14.2853 170.218 14.488V24.04C170.218 24.328 170.111 24.5733 169.898 24.776C169.695 24.9787 169.45 25.08 169.162 25.08H168.97C168.799 25.08 168.639 25.0427 168.49 24.968C168.341 24.8827 168.218 24.776 168.122 24.648L161.93 15.704V24.36C161.93 24.5627 161.855 24.7333 161.706 24.872C161.567 25.0107 161.397 25.08 161.194 25.08ZM176.63 25.08C176.427 25.08 176.256 25.0107 176.118 24.872C175.979 24.7333 175.91 24.5627 175.91 24.36V15.192H172.646C172.454 15.192 172.294 15.128 172.166 15C172.038 14.872 171.974 14.712 171.974 14.52C171.974 14.328 172.038 14.168 172.166 14.04C172.294 13.9013 172.454 13.832 172.646 13.832H180.614C180.806 13.832 180.966 13.9013 181.094 14.04C181.232 14.168 181.302 14.328 181.302 14.52C181.302 14.712 181.232 14.872 181.094 15C180.966 15.128 180.806 15.192 180.614 15.192H177.366V24.36C177.366 24.5627 177.291 24.7333 177.142 24.872C177.003 25.0107 176.832 25.08 176.63 25.08ZM183.788 25C183.585 25 183.414 24.9307 183.276 24.792C183.137 24.6533 183.068 24.4827 183.068 24.28V14.568C183.068 14.3653 183.137 14.1947 183.276 14.056C183.414 13.9067 183.585 13.832 183.788 13.832H190.204C190.396 13.832 190.556 13.9013 190.684 14.04C190.822 14.168 190.892 14.328 190.892 14.52C190.892 14.712 190.822 14.872 190.684 15C190.556 15.128 190.396 15.192 190.204 15.192H184.524V18.728H189.628C189.82 18.728 189.98 18.7973 190.108 18.936C190.246 19.064 190.316 19.224 190.316 19.416C190.316 19.608 190.246 19.768 190.108 19.896C189.98 20.024 189.82 20.088 189.628 20.088H184.524V23.64H190.204C190.396 23.64 190.556 23.7093 190.684 23.848C190.822 23.976 190.892 24.136 190.892 24.328C190.892 24.52 190.822 24.68 190.684 24.808C190.556 24.936 190.396 25 190.204 25H183.788ZM193.991 25.08C193.788 25.08 193.617 25.0107 193.479 24.872C193.34 24.7333 193.271 24.5627 193.271 24.36V14.568C193.271 14.3653 193.34 14.1947 193.479 14.056C193.617 13.9067 193.788 13.832 193.991 13.832H197.719C199.169 13.832 200.257 14.1307 200.983 14.728C201.708 15.3253 202.071 16.1093 202.071 17.08C202.071 17.72 201.889 18.3067 201.527 18.84C201.175 19.3627 200.657 19.7413 199.975 19.976C200.743 20.1787 201.265 20.6587 201.543 21.416C201.831 22.1627 201.975 22.8987 201.975 23.624V24.36C201.975 24.5627 201.905 24.7333 201.767 24.872C201.628 25.0107 201.457 25.08 201.255 25.08C201.031 25.08 200.849 25.016 200.711 24.888C200.583 24.7493 200.519 24.5733 200.519 24.36V23.88C200.519 23.3467 200.471 22.856 200.375 22.408C200.279 21.9493 200.049 21.544 199.687 21.192C199.324 20.8293 198.775 20.648 198.039 20.648H194.727V24.36C194.727 24.5627 194.652 24.7333 194.503 24.872C194.364 25.0107 194.193 25.08 193.991 25.08ZM197.623 19.272C198.54 19.272 199.265 19.0907 199.799 18.728C200.343 18.3653 200.615 17.8533 200.615 17.192C200.615 16.552 200.38 16.0613 199.911 15.72C199.452 15.3787 198.663 15.208 197.543 15.208H194.727V19.272H197.623ZM204.629 25.08C204.416 25.08 204.24 25.0107 204.101 24.872C203.973 24.7333 203.909 24.5627 203.909 24.36C203.909 24.2747 203.936 24.168 203.989 24.04L208.069 14.408C208.155 14.216 208.272 14.0613 208.421 13.944C208.581 13.816 208.773 13.752 208.997 13.752H209.157C209.381 13.752 209.568 13.816 209.717 13.944C209.877 14.0613 210 14.216 210.085 14.408L214.165 24.04C214.219 24.168 214.245 24.2747 214.245 24.36C214.245 24.5627 214.176 24.7333 214.037 24.872C213.909 25.0107 213.739 25.08 213.525 25.08C213.376 25.08 213.237 25.0427 213.109 24.968C212.992 24.8827 212.901 24.7707 212.837 24.632L211.797 22.136H206.357L205.317 24.632C205.253 24.7707 205.157 24.8827 205.029 24.968C204.912 25.0427 204.779 25.08 204.629 25.08ZM206.917 20.808H211.237L209.077 15.608L206.917 20.808ZM224.668 22.952C224.86 22.952 225.015 23.0107 225.132 23.128C225.249 23.2453 225.308 23.3893 225.308 23.56C225.308 23.8373 225.191 24.04 224.956 24.168C224.412 24.4773 223.863 24.7173 223.308 24.888C222.753 25.0587 222.129 25.1493 221.436 25.16L220.94 26.008C221.111 25.9653 221.292 25.944 221.484 25.944C221.847 25.944 222.14 26.0453 222.364 26.248C222.599 26.4613 222.716 26.7333 222.716 27.064C222.716 27.5547 222.561 27.9227 222.252 28.168C221.953 28.4133 221.516 28.536 220.94 28.536C220.428 28.536 219.948 28.3973 219.5 28.12C219.457 28.088 219.415 28.0453 219.372 27.992C219.34 27.9493 219.324 27.9013 219.324 27.848C219.324 27.7627 219.351 27.688 219.404 27.624C219.457 27.56 219.532 27.528 219.628 27.528C219.671 27.528 219.724 27.544 219.788 27.576C220.119 27.7573 220.433 27.848 220.732 27.848C221.34 27.848 221.644 27.6027 221.644 27.112C221.644 26.952 221.591 26.8293 221.484 26.744C221.377 26.6587 221.239 26.616 221.068 26.616C220.833 26.616 220.599 26.6747 220.364 26.792C220.3 26.824 220.247 26.84 220.204 26.84C220.129 26.84 220.06 26.8133 219.996 26.76C219.943 26.7173 219.916 26.6587 219.916 26.584C219.916 26.4987 219.937 26.424 219.98 26.36L220.748 25.144C219.777 25.0587 218.908 24.776 218.14 24.296C217.383 23.8053 216.785 23.144 216.348 22.312C215.921 21.48 215.708 20.5147 215.708 19.416C215.708 18.2533 215.948 17.24 216.428 16.376C216.919 15.5013 217.585 14.8347 218.428 14.376C219.281 13.9067 220.241 13.672 221.308 13.672C222.033 13.672 222.679 13.7573 223.244 13.928C223.82 14.0987 224.391 14.344 224.956 14.664C225.191 14.792 225.308 14.9947 225.308 15.272C225.308 15.432 225.249 15.576 225.132 15.704C225.015 15.8213 224.86 15.88 224.668 15.88C224.561 15.88 224.465 15.8587 224.38 15.816C223.911 15.5707 223.452 15.384 223.004 15.256C222.556 15.128 222.039 15.064 221.452 15.064C220.535 15.064 219.751 15.256 219.1 15.64C218.46 16.0133 217.975 16.5307 217.644 17.192C217.324 17.8427 217.164 18.584 217.164 19.416C217.164 20.248 217.324 20.9947 217.644 21.656C217.975 22.3067 218.46 22.824 219.1 23.208C219.751 23.5813 220.535 23.768 221.452 23.768C222.039 23.768 222.556 23.704 223.004 23.576C223.452 23.448 223.911 23.2613 224.38 23.016C224.465 22.9733 224.561 22.952 224.668 22.952ZM232.137 25.16C231.017 25.16 230.035 24.9147 229.193 24.424C228.35 23.9333 227.699 23.256 227.241 22.392C226.782 21.528 226.542 20.536 226.521 19.416C226.542 18.296 226.782 17.304 227.241 16.44C227.699 15.576 228.35 14.8987 229.193 14.408C230.035 13.9173 231.017 13.672 232.137 13.672C233.257 13.672 234.233 13.9173 235.065 14.408C235.907 14.8987 236.558 15.5813 237.017 16.456C237.486 17.32 237.731 18.3067 237.753 19.416C237.731 20.5253 237.486 21.5173 237.017 22.392C236.558 23.256 235.907 23.9333 235.065 24.424C234.233 24.9147 233.257 25.16 232.137 25.16ZM232.137 23.8C232.99 23.8 233.731 23.608 234.361 23.224C234.99 22.84 235.47 22.3173 235.801 21.656C236.131 20.9947 236.297 20.248 236.297 19.416C236.297 18.584 236.131 17.8373 235.801 17.176C235.47 16.5147 234.99 15.992 234.361 15.608C233.731 15.224 232.99 15.032 232.137 15.032C231.273 15.032 230.526 15.224 229.897 15.608C229.278 15.992 228.803 16.5147 228.473 17.176C228.142 17.8373 227.977 18.584 227.977 19.416C227.977 20.248 228.142 20.9947 228.473 21.656C228.803 22.3173 229.278 22.84 229.897 23.224C230.526 23.608 231.273 23.8 232.137 23.8ZM229.929 13.112C229.833 13.112 229.747 13.08 229.673 13.016C229.598 12.9413 229.561 12.8507 229.561 12.744C229.561 12.52 229.614 12.2907 229.721 12.056C229.838 11.8213 229.998 11.624 230.201 11.464C230.403 11.304 230.638 11.224 230.905 11.224C231.118 11.224 231.315 11.256 231.497 11.32C231.689 11.384 231.918 11.48 232.185 11.608C232.43 11.7253 232.638 11.816 232.809 11.88C232.99 11.944 233.177 11.976 233.369 11.976C233.529 11.976 233.651 11.9387 233.737 11.864C233.833 11.7893 233.907 11.6827 233.961 11.544C234.046 11.32 234.179 11.208 234.361 11.208C234.467 11.208 234.553 11.2453 234.617 11.32C234.681 11.384 234.718 11.464 234.729 11.56C234.729 11.9333 234.601 12.28 234.345 12.6C234.089 12.92 233.769 13.08 233.385 13.08C233.171 13.08 232.969 13.048 232.777 12.984C232.585 12.9093 232.35 12.808 232.073 12.68C231.827 12.5627 231.619 12.472 231.449 12.408C231.278 12.344 231.102 12.312 230.921 12.312C230.643 12.312 230.435 12.4827 230.297 12.824C230.233 13.016 230.11 13.112 229.929 13.112ZM240.897 25C240.694 25 240.524 24.9307 240.385 24.792C240.246 24.6533 240.177 24.4827 240.177 24.28V14.568C240.177 14.3653 240.246 14.1947 240.385 14.056C240.524 13.9067 240.694 13.832 240.897 13.832H247.313C247.505 13.832 247.665 13.9013 247.793 14.04C247.932 14.168 248.001 14.328 248.001 14.52C248.001 14.712 247.932 14.872 247.793 15C247.665 15.128 247.505 15.192 247.313 15.192H241.633V18.728H246.737C246.929 18.728 247.089 18.7973 247.217 18.936C247.356 19.064 247.425 19.224 247.425 19.416C247.425 19.608 247.356 19.768 247.217 19.896C247.089 20.024 246.929 20.088 246.737 20.088H241.633V23.64H247.313C247.505 23.64 247.665 23.7093 247.793 23.848C247.932 23.976 248.001 24.136 248.001 24.328C248.001 24.52 247.932 24.68 247.793 24.808C247.665 24.936 247.505 25 247.313 25H240.897ZM253.9 25.16C252.545 25.16 251.276 24.904 250.092 24.392C249.964 24.3387 249.857 24.2533 249.772 24.136C249.687 24.008 249.644 23.8747 249.644 23.736C249.644 23.5547 249.703 23.4 249.82 23.272C249.948 23.1333 250.108 23.064 250.3 23.064C250.407 23.064 250.508 23.0853 250.604 23.128C251.585 23.5653 252.636 23.784 253.756 23.784C255.623 23.784 256.556 23.1707 256.556 21.944C256.556 21.624 256.433 21.3573 256.188 21.144C255.953 20.9307 255.66 20.7653 255.308 20.648C254.956 20.52 254.455 20.3707 253.804 20.2C252.94 19.976 252.241 19.7627 251.708 19.56C251.175 19.3467 250.716 19.032 250.332 18.616C249.948 18.2 249.756 17.6453 249.756 16.952C249.756 16.344 249.916 15.7947 250.236 15.304C250.556 14.8027 251.025 14.408 251.644 14.12C252.273 13.8213 253.025 13.672 253.9 13.672C255.073 13.672 256.135 13.848 257.084 14.2C257.383 14.3067 257.532 14.52 257.532 14.84C257.532 15.0107 257.473 15.1653 257.356 15.304C257.239 15.4427 257.084 15.512 256.892 15.512C256.828 15.512 256.743 15.4907 256.636 15.448C255.804 15.16 254.945 15.016 254.06 15.016C253.217 15.016 252.529 15.176 251.996 15.496C251.473 15.816 251.212 16.264 251.212 16.84C251.212 17.224 251.335 17.5387 251.58 17.784C251.836 18.0187 252.151 18.2053 252.524 18.344C252.908 18.472 253.425 18.6107 254.076 18.76C254.919 18.9627 255.596 19.1653 256.108 19.368C256.631 19.5707 257.073 19.8853 257.436 20.312C257.809 20.7387 257.996 21.3147 257.996 22.04C257.996 22.6373 257.825 23.176 257.484 23.656C257.143 24.1253 256.663 24.4933 256.044 24.76C255.425 25.0267 254.711 25.16 253.9 25.16Z" fill="black"/>
<g filter="url(#filter0_d_1032_2793)">
<rect x="368" y="10" width="91" height="22" rx="4" fill="url(#paint0_angular_1032_2793)" shape-rendering="crispEdges"/>
<path d="M378.244 25.12C377.444 25.12 376.716 24.94 376.06 24.58C375.924 24.484 375.856 24.352 375.856 24.184C375.856 24.056 375.9 23.944 375.988 23.848C376.076 23.752 376.188 23.704 376.324 23.704C376.396 23.704 376.468 23.72 376.54 23.752C376.796 23.864 377.052 23.952 377.308 24.016C377.564 24.08 377.852 24.112 378.172 24.112C379.06 24.112 379.504 23.828 379.504 23.26C379.504 23.076 379.4 22.936 379.192 22.84C378.992 22.744 378.66 22.636 378.196 22.516C377.724 22.404 377.332 22.288 377.02 22.168C376.716 22.048 376.452 21.868 376.228 21.628C376.012 21.38 375.904 21.056 375.904 20.656C375.904 20.096 376.104 19.64 376.504 19.288C376.912 18.936 377.492 18.76 378.244 18.76C378.86 18.76 379.44 18.86 379.984 19.06C380.096 19.092 380.18 19.152 380.236 19.24C380.3 19.328 380.332 19.42 380.332 19.516C380.332 19.644 380.284 19.756 380.188 19.852C380.1 19.948 379.988 19.996 379.852 19.996C379.812 19.996 379.76 19.988 379.696 19.972C379.232 19.828 378.776 19.756 378.328 19.756C377.896 19.756 377.556 19.836 377.308 19.996C377.068 20.148 376.948 20.348 376.948 20.596C376.948 20.836 377.06 21.012 377.284 21.124C377.508 21.236 377.856 21.344 378.328 21.448C378.8 21.568 379.184 21.688 379.48 21.808C379.776 21.92 380.028 22.1 380.236 22.348C380.452 22.596 380.56 22.928 380.56 23.344C380.56 23.856 380.356 24.28 379.948 24.616C379.548 24.952 378.98 25.12 378.244 25.12ZM384.766 25.12C383.79 25.12 383.026 24.844 382.474 24.292C381.93 23.732 381.658 22.948 381.658 21.94C381.658 21.372 381.762 20.848 381.97 20.368C382.178 19.888 382.498 19.5 382.93 19.204C383.362 18.908 383.894 18.76 384.526 18.76C385.118 18.76 385.63 18.9 386.062 19.18C386.494 19.452 386.822 19.82 387.046 20.284C387.27 20.74 387.382 21.24 387.382 21.784C387.382 21.936 387.33 22.064 387.226 22.168C387.13 22.272 386.998 22.324 386.83 22.324H382.762C382.826 22.884 383.034 23.32 383.386 23.632C383.738 23.944 384.23 24.1 384.862 24.1C385.198 24.1 385.49 24.068 385.738 24.004C385.994 23.94 386.242 23.848 386.482 23.728C386.546 23.696 386.618 23.68 386.698 23.68C386.826 23.68 386.938 23.724 387.034 23.812C387.13 23.9 387.178 24.012 387.178 24.148C387.178 24.324 387.074 24.472 386.866 24.592C386.554 24.768 386.246 24.9 385.942 24.988C385.638 25.076 385.246 25.12 384.766 25.12ZM386.302 21.436C386.278 21.044 386.174 20.716 385.99 20.452C385.814 20.188 385.594 19.996 385.33 19.876C385.066 19.748 384.798 19.684 384.526 19.684C384.254 19.684 383.986 19.748 383.722 19.876C383.458 19.996 383.238 20.188 383.062 20.452C382.886 20.716 382.786 21.044 382.762 21.436H386.302ZM389.367 25.06C389.215 25.06 389.087 25.008 388.983 24.904C388.879 24.8 388.827 24.672 388.827 24.52V19.372C388.827 19.22 388.879 19.092 388.983 18.988C389.087 18.876 389.215 18.82 389.367 18.82C389.519 18.82 389.647 18.876 389.751 18.988C389.863 19.092 389.919 19.22 389.919 19.372V19.864C390.143 19.544 390.411 19.28 390.723 19.072C391.043 18.864 391.455 18.76 391.959 18.76C392.407 18.76 392.791 18.88 393.111 19.12C393.431 19.36 393.659 19.652 393.795 19.996C394.291 19.172 395.027 18.76 396.003 18.76C396.451 18.76 396.823 18.872 397.119 19.096C397.423 19.32 397.647 19.608 397.791 19.96C397.935 20.312 398.007 20.68 398.007 21.064V24.52C398.007 24.672 397.951 24.8 397.839 24.904C397.735 25.008 397.607 25.06 397.455 25.06C397.303 25.06 397.175 25.008 397.071 24.904C396.967 24.8 396.915 24.672 396.915 24.52V21.28C396.915 20.76 396.823 20.38 396.639 20.14C396.455 19.892 396.139 19.768 395.691 19.768C395.283 19.768 394.943 19.876 394.671 20.092C394.407 20.3 394.171 20.576 393.963 20.92V24.52C393.963 24.672 393.907 24.8 393.795 24.904C393.691 25.008 393.563 25.06 393.411 25.06C393.259 25.06 393.131 25.008 393.027 24.904C392.923 24.8 392.871 24.672 392.871 24.52V21.28C392.871 20.76 392.779 20.38 392.595 20.14C392.411 19.892 392.095 19.768 391.647 19.768C391.239 19.768 390.899 19.876 390.627 20.092C390.363 20.3 390.127 20.576 389.919 20.92V24.52C389.919 24.672 389.863 24.8 389.751 24.904C389.647 25.008 389.519 25.06 389.367 25.06ZM401.403 25.12C401.051 25.12 400.723 25.048 400.419 24.904C400.123 24.76 399.887 24.552 399.711 24.28C399.535 24 399.447 23.68 399.447 23.32C399.447 22.728 399.679 22.256 400.143 21.904C400.615 21.552 401.303 21.376 402.207 21.376H403.659V21.28C403.659 20.752 403.527 20.372 403.263 20.14C403.007 19.908 402.603 19.792 402.051 19.792C401.747 19.792 401.475 19.816 401.235 19.864C401.003 19.912 400.743 19.984 400.455 20.08C400.391 20.096 400.339 20.104 400.299 20.104C400.179 20.104 400.075 20.06 399.987 19.972C399.899 19.884 399.855 19.776 399.855 19.648C399.855 19.432 399.959 19.28 400.167 19.192C400.847 18.904 401.539 18.76 402.243 18.76C402.795 18.76 403.259 18.872 403.635 19.096C404.019 19.32 404.299 19.612 404.475 19.972C404.659 20.324 404.751 20.708 404.751 21.124V24.52C404.751 24.672 404.695 24.8 404.583 24.904C404.479 25.008 404.351 25.06 404.199 25.06C404.047 25.06 403.919 25.008 403.815 24.904C403.711 24.8 403.659 24.672 403.659 24.52V24.208C403.067 24.816 402.315 25.12 401.403 25.12ZM401.811 24.16C402.163 24.16 402.503 24.076 402.831 23.908C403.159 23.732 403.435 23.516 403.659 23.26V22.252H402.351C401.143 22.252 400.539 22.568 400.539 23.2C400.539 23.488 400.635 23.72 400.827 23.896C401.027 24.072 401.355 24.16 401.811 24.16ZM407.121 25.06C406.969 25.06 406.841 25.008 406.737 24.904C406.633 24.8 406.581 24.672 406.581 24.52V19.372C406.581 19.22 406.633 19.092 406.737 18.988C406.841 18.876 406.969 18.82 407.121 18.82C407.273 18.82 407.401 18.876 407.505 18.988C407.617 19.092 407.673 19.22 407.673 19.372V19.864C407.977 19.528 408.305 19.26 408.657 19.06C409.009 18.86 409.425 18.76 409.905 18.76C410.345 18.76 410.725 18.864 411.045 19.072C411.373 19.28 411.621 19.564 411.789 19.924C411.965 20.284 412.053 20.68 412.053 21.112V24.52C412.053 24.672 411.997 24.8 411.885 24.904C411.781 25.008 411.653 25.06 411.501 25.06C411.349 25.06 411.221 25.008 411.117 24.904C411.013 24.8 410.961 24.672 410.961 24.52V21.232C410.961 20.256 410.521 19.768 409.641 19.768C409.241 19.768 408.881 19.872 408.561 20.08C408.249 20.288 407.953 20.568 407.673 20.92V24.52C407.673 24.672 407.617 24.8 407.505 24.904C407.401 25.008 407.273 25.06 407.121 25.06ZM415.453 25.12C415.101 25.12 414.773 25.048 414.469 24.904C414.173 24.76 413.937 24.552 413.761 24.28C413.585 24 413.497 23.68 413.497 23.32C413.497 22.728 413.729 22.256 414.193 21.904C414.665 21.552 415.353 21.376 416.257 21.376H417.709V21.28C417.709 20.752 417.577 20.372 417.313 20.14C417.057 19.908 416.653 19.792 416.101 19.792C415.797 19.792 415.525 19.816 415.285 19.864C415.053 19.912 414.793 19.984 414.505 20.08C414.441 20.096 414.389 20.104 414.349 20.104C414.229 20.104 414.125 20.06 414.037 19.972C413.949 19.884 413.905 19.776 413.905 19.648C413.905 19.432 414.009 19.28 414.217 19.192C414.897 18.904 415.589 18.76 416.293 18.76C416.845 18.76 417.309 18.872 417.685 19.096C418.069 19.32 418.349 19.612 418.525 19.972C418.709 20.324 418.801 20.708 418.801 21.124V24.52C418.801 24.672 418.745 24.8 418.633 24.904C418.529 25.008 418.401 25.06 418.249 25.06C418.097 25.06 417.969 25.008 417.865 24.904C417.761 24.8 417.709 24.672 417.709 24.52V24.208C417.117 24.816 416.365 25.12 415.453 25.12ZM415.861 24.16C416.213 24.16 416.553 24.076 416.881 23.908C417.209 23.732 417.485 23.516 417.709 23.26V22.252H416.401C415.193 22.252 414.589 22.568 414.589 23.2C414.589 23.488 414.685 23.72 414.877 23.896C415.077 24.072 415.405 24.16 415.861 24.16Z" fill="black"/>
<path d="M429.699 25.06C429.547 25.06 429.419 25.008 429.315 24.904C429.211 24.8 429.159 24.672 429.159 24.52V19.372C429.159 19.22 429.211 19.092 429.315 18.988C429.419 18.876 429.547 18.82 429.699 18.82C429.851 18.82 429.979 18.876 430.083 18.988C430.195 19.092 430.251 19.22 430.251 19.372V19.864C430.475 19.544 430.743 19.28 431.055 19.072C431.375 18.864 431.787 18.76 432.291 18.76C432.739 18.76 433.123 18.88 433.443 19.12C433.763 19.36 433.991 19.652 434.127 19.996C434.623 19.172 435.359 18.76 436.335 18.76C436.783 18.76 437.155 18.872 437.451 19.096C437.755 19.32 437.979 19.608 438.123 19.96C438.267 20.312 438.339 20.68 438.339 21.064V24.52C438.339 24.672 438.283 24.8 438.171 24.904C438.067 25.008 437.939 25.06 437.787 25.06C437.635 25.06 437.507 25.008 437.403 24.904C437.299 24.8 437.247 24.672 437.247 24.52V21.28C437.247 20.76 437.155 20.38 436.971 20.14C436.787 19.892 436.471 19.768 436.023 19.768C435.615 19.768 435.275 19.876 435.003 20.092C434.739 20.3 434.503 20.576 434.295 20.92V24.52C434.295 24.672 434.239 24.8 434.127 24.904C434.023 25.008 433.895 25.06 433.743 25.06C433.591 25.06 433.463 25.008 433.359 24.904C433.255 24.8 433.203 24.672 433.203 24.52V21.28C433.203 20.76 433.111 20.38 432.927 20.14C432.743 19.892 432.427 19.768 431.979 19.768C431.571 19.768 431.231 19.876 430.959 20.092C430.695 20.3 430.459 20.576 430.251 20.92V24.52C430.251 24.672 430.195 24.8 430.083 24.904C429.979 25.008 429.851 25.06 429.699 25.06ZM442.911 25.12C441.935 25.12 441.171 24.844 440.619 24.292C440.075 23.732 439.803 22.948 439.803 21.94C439.803 21.372 439.907 20.848 440.115 20.368C440.323 19.888 440.643 19.5 441.075 19.204C441.507 18.908 442.039 18.76 442.671 18.76C443.263 18.76 443.775 18.9 444.207 19.18C444.639 19.452 444.967 19.82 445.191 20.284C445.415 20.74 445.527 21.24 445.527 21.784C445.527 21.936 445.475 22.064 445.371 22.168C445.275 22.272 445.143 22.324 444.975 22.324H440.907C440.971 22.884 441.179 23.32 441.531 23.632C441.883 23.944 442.375 24.1 443.007 24.1C443.343 24.1 443.635 24.068 443.883 24.004C444.139 23.94 444.387 23.848 444.627 23.728C444.691 23.696 444.763 23.68 444.843 23.68C444.971 23.68 445.083 23.724 445.179 23.812C445.275 23.9 445.323 24.012 445.323 24.148C445.323 24.324 445.219 24.472 445.011 24.592C444.699 24.768 444.391 24.9 444.087 24.988C443.783 25.076 443.391 25.12 442.911 25.12ZM444.447 21.436C444.423 21.044 444.319 20.716 444.135 20.452C443.959 20.188 443.739 19.996 443.475 19.876C443.211 19.748 442.943 19.684 442.671 19.684C442.399 19.684 442.131 19.748 441.867 19.876C441.603 19.996 441.383 20.188 441.207 20.452C441.031 20.716 440.931 21.044 440.907 21.436H444.447ZM441.387 18.208C441.283 18.208 441.195 18.172 441.123 18.1C441.051 18.02 441.019 17.936 441.027 17.848C441.027 17.76 441.059 17.684 441.123 17.62L441.939 16.78C442.011 16.7 442.083 16.64 442.155 16.6C442.227 16.56 442.315 16.54 442.419 16.54H442.875C442.979 16.54 443.067 16.56 443.139 16.6C443.211 16.64 443.283 16.7 443.355 16.78L444.171 17.62C444.235 17.684 444.267 17.76 444.267 17.848C444.275 17.936 444.243 18.02 444.171 18.1C444.099 18.172 444.011 18.208 443.907 18.208C443.819 18.208 443.747 18.18 443.691 18.124L442.647 17.236L441.603 18.124C441.547 18.18 441.475 18.208 441.387 18.208ZM448.951 25.12C448.151 25.12 447.423 24.94 446.767 24.58C446.631 24.484 446.563 24.352 446.563 24.184C446.563 24.056 446.607 23.944 446.695 23.848C446.783 23.752 446.895 23.704 447.031 23.704C447.103 23.704 447.175 23.72 447.247 23.752C447.503 23.864 447.759 23.952 448.015 24.016C448.271 24.08 448.559 24.112 448.879 24.112C449.767 24.112 450.211 23.828 450.211 23.26C450.211 23.076 450.107 22.936 449.899 22.84C449.699 22.744 449.367 22.636 448.903 22.516C448.431 22.404 448.039 22.288 447.727 22.168C447.423 22.048 447.159 21.868 446.935 21.628C446.719 21.38 446.611 21.056 446.611 20.656C446.611 20.096 446.811 19.64 447.211 19.288C447.619 18.936 448.199 18.76 448.951 18.76C449.567 18.76 450.147 18.86 450.691 19.06C450.803 19.092 450.887 19.152 450.943 19.24C451.007 19.328 451.039 19.42 451.039 19.516C451.039 19.644 450.991 19.756 450.895 19.852C450.807 19.948 450.695 19.996 450.559 19.996C450.519 19.996 450.467 19.988 450.403 19.972C449.939 19.828 449.483 19.756 449.035 19.756C448.603 19.756 448.263 19.836 448.015 19.996C447.775 20.148 447.655 20.348 447.655 20.596C447.655 20.836 447.767 21.012 447.991 21.124C448.215 21.236 448.563 21.344 449.035 21.448C449.507 21.568 449.891 21.688 450.187 21.808C450.483 21.92 450.735 22.1 450.943 22.348C451.159 22.596 451.267 22.928 451.267 23.344C451.267 23.856 451.063 24.28 450.655 24.616C450.255 24.952 449.687 25.12 448.951 25.12Z" fill="black"/>
</g>
<path d="M54 215.592C54 213.383 55.7909 211.592 58 211.592H98C100.209 211.592 102 213.383 102 215.592V254.757H54V215.592Z" fill="#2DDB68" fill-opacity="0.6"/>
<path d="M120 118.194C120 115.985 121.791 114.194 124 114.194H164C166.209 114.194 168 115.985 168 118.194V254.757H120V118.194Z" fill="#199D27" fill-opacity="0.6"/>
<path d="M186 175.748C186 173.538 187.791 171.748 190 171.748H230C232.209 171.748 234 173.538 234 175.748V254.757H186V175.748Z" fill="#46BD76" fill-opacity="0.6"/>
<path d="M252 163.573C252 161.364 253.791 159.573 256 159.573H296C298.209 159.573 300 161.364 300 163.573V254.757H252V163.573Z" fill="#46BD76" fill-opacity="0.6"/>
<path d="M318 69.4951C318 67.286 319.791 65.4951 322 65.4951H362C364.209 65.4951 366 67.286 366 69.4951V254.757H318V69.4951Z" fill="#429A18" fill-opacity="0.9"/>
<path d="M384 151.398C384 149.189 385.791 147.398 388 147.398H428C430.209 147.398 432 149.189 432 151.398V254.757H384V151.398Z" fill="#46BD76" fill-opacity="0.25"/>
<path d="M450 153.612C450 151.402 451.791 149.612 454 149.612H494C496.209 149.612 498 151.402 498 153.612V254.757H450V153.612Z" fill="#46BD76" fill-opacity="0.25"/>
<path d="M69.47 287.101C68.454 287.101 67.502 286.909 66.614 286.525C66.518 286.485 66.438 286.421 66.374 286.333C66.31 286.237 66.278 286.137 66.278 286.033C66.278 285.897 66.322 285.781 66.41 285.685C66.506 285.581 66.626 285.529 66.77 285.529C66.85 285.529 66.926 285.545 66.998 285.577C67.734 285.905 68.522 286.069 69.362 286.069C70.762 286.069 71.462 285.609 71.462 284.689C71.462 284.449 71.37 284.249 71.186 284.089C71.01 283.929 70.79 283.805 70.526 283.717C70.262 283.621 69.886 283.509 69.398 283.381C68.75 283.213 68.226 283.053 67.826 282.901C67.426 282.741 67.082 282.505 66.794 282.193C66.506 281.881 66.362 281.465 66.362 280.945C66.362 280.489 66.482 280.077 66.722 279.709C66.962 279.333 67.314 279.037 67.778 278.821C68.25 278.597 68.814 278.485 69.47 278.485C70.35 278.485 71.146 278.617 71.858 278.881C72.082 278.961 72.194 279.121 72.194 279.361C72.194 279.489 72.15 279.605 72.062 279.709C71.974 279.813 71.858 279.865 71.714 279.865C71.666 279.865 71.602 279.849 71.522 279.817C70.898 279.601 70.254 279.493 69.59 279.493C68.958 279.493 68.442 279.613 68.042 279.853C67.65 280.093 67.454 280.429 67.454 280.861C67.454 281.149 67.546 281.385 67.73 281.569C67.922 281.745 68.158 281.885 68.438 281.989C68.726 282.085 69.114 282.189 69.602 282.301C70.234 282.453 70.742 282.605 71.126 282.757C71.518 282.909 71.85 283.145 72.122 283.465C72.402 283.785 72.542 284.217 72.542 284.761C72.542 285.209 72.414 285.613 72.158 285.973C71.902 286.325 71.542 286.601 71.078 286.801C70.614 287.001 70.078 287.101 69.47 287.101ZM74.2005 287.041C74.0405 287.041 73.9085 286.989 73.8045 286.885C73.7085 286.781 73.6605 286.653 73.6605 286.501C73.6605 286.437 73.6805 286.357 73.7205 286.261L76.7805 279.037C76.8445 278.893 76.9325 278.777 77.0445 278.689C77.1645 278.593 77.3085 278.545 77.4765 278.545H77.5965C77.7645 278.545 77.9045 278.593 78.0165 278.689C78.1365 278.777 78.2285 278.893 78.2925 279.037L81.3525 286.261C81.3925 286.357 81.4125 286.437 81.4125 286.501C81.4125 286.653 81.3605 286.781 81.2565 286.885C81.1605 286.989 81.0325 287.041 80.8725 287.041C80.7605 287.041 80.6565 287.013 80.5605 286.957C80.4725 286.893 80.4045 286.809 80.3565 286.705L79.5765 284.833H75.4965L74.7165 286.705C74.6685 286.809 74.5965 286.893 74.5005 286.957C74.4125 287.013 74.3125 287.041 74.2005 287.041ZM75.9165 283.837H79.1565L77.5365 279.937L75.9165 283.837ZM83.7177 286.981C83.5657 286.981 83.4377 286.929 83.3337 286.825C83.2297 286.721 83.1777 286.593 83.1777 286.441V279.157C83.1777 279.005 83.2297 278.877 83.3337 278.773C83.4377 278.661 83.5657 278.605 83.7177 278.605H86.5497C87.4057 278.605 88.0657 278.801 88.5297 279.193C89.0017 279.585 89.2377 280.113 89.2377 280.777C89.2377 281.241 89.1257 281.629 88.9017 281.941C88.6857 282.245 88.4057 282.473 88.0617 282.625C88.5417 282.777 88.9337 283.021 89.2377 283.357C89.5497 283.693 89.7057 284.117 89.7057 284.629C89.7057 285.365 89.4577 285.941 88.9617 286.357C88.4657 286.773 87.6857 286.981 86.6217 286.981H83.7177ZM86.2617 282.229C86.9737 282.229 87.4737 282.109 87.7617 281.869C88.0497 281.629 88.1937 281.293 88.1937 280.861C88.1937 280.485 88.0377 280.185 87.7257 279.961C87.4217 279.737 87.0017 279.625 86.4657 279.625H84.2697V282.229H86.2617ZM86.5137 285.961C87.2897 285.961 87.8377 285.841 88.1577 285.601C88.4857 285.361 88.6497 285.021 88.6497 284.581C88.6497 283.669 87.9417 283.213 86.5257 283.213H84.2697V285.961H86.5137Z" fill="black"/>
<path d="M135.781 287.101C134.765 287.101 133.813 286.909 132.925 286.525C132.829 286.485 132.749 286.421 132.685 286.333C132.621 286.237 132.589 286.137 132.589 286.033C132.589 285.897 132.633 285.781 132.721 285.685C132.817 285.581 132.937 285.529 133.081 285.529C133.161 285.529 133.237 285.545 133.309 285.577C134.045 285.905 134.833 286.069 135.673 286.069C137.073 286.069 137.773 285.609 137.773 284.689C137.773 284.449 137.681 284.249 137.497 284.089C137.321 283.929 137.101 283.805 136.837 283.717C136.573 283.621 136.197 283.509 135.709 283.381C135.061 283.213 134.537 283.053 134.137 282.901C133.737 282.741 133.393 282.505 133.105 282.193C132.817 281.881 132.673 281.465 132.673 280.945C132.673 280.489 132.793 280.077 133.033 279.709C133.273 279.333 133.625 279.037 134.089 278.821C134.561 278.597 135.125 278.485 135.781 278.485C136.661 278.485 137.457 278.617 138.169 278.881C138.393 278.961 138.505 279.121 138.505 279.361C138.505 279.489 138.461 279.605 138.373 279.709C138.285 279.813 138.169 279.865 138.025 279.865C137.977 279.865 137.913 279.849 137.833 279.817C137.209 279.601 136.565 279.493 135.901 279.493C135.269 279.493 134.753 279.613 134.353 279.853C133.961 280.093 133.765 280.429 133.765 280.861C133.765 281.149 133.857 281.385 134.041 281.569C134.233 281.745 134.469 281.885 134.749 281.989C135.037 282.085 135.425 282.189 135.913 282.301C136.545 282.453 137.053 282.605 137.437 282.757C137.829 282.909 138.161 283.145 138.433 283.465C138.713 283.785 138.853 284.217 138.853 284.761C138.853 285.209 138.725 285.613 138.469 285.973C138.213 286.325 137.853 286.601 137.389 286.801C136.925 287.001 136.389 287.101 135.781 287.101ZM141.075 286.981C140.923 286.981 140.795 286.929 140.691 286.825C140.587 286.721 140.535 286.593 140.535 286.441V279.157C140.535 279.005 140.587 278.877 140.691 278.773C140.795 278.661 140.923 278.605 141.075 278.605H145.887C146.031 278.605 146.151 278.657 146.247 278.761C146.351 278.857 146.403 278.977 146.403 279.121C146.403 279.265 146.351 279.385 146.247 279.481C146.151 279.577 146.031 279.625 145.887 279.625H141.627V282.277H145.455C145.599 282.277 145.719 282.329 145.815 282.433C145.919 282.529 145.971 282.649 145.971 282.793C145.971 282.937 145.919 283.057 145.815 283.153C145.719 283.249 145.599 283.297 145.455 283.297H141.627V285.961H145.887C146.031 285.961 146.151 286.013 146.247 286.117C146.351 286.213 146.403 286.333 146.403 286.477C146.403 286.621 146.351 286.741 146.247 286.837C146.151 286.933 146.031 286.981 145.887 286.981H141.075ZM151.813 287.101C150.989 287.101 150.257 286.921 149.617 286.561C148.977 286.193 148.481 285.685 148.129 285.037C147.777 284.381 147.601 283.637 147.601 282.805C147.601 281.957 147.785 281.205 148.153 280.549C148.521 279.893 149.021 279.385 149.653 279.025C150.293 278.665 151.001 278.485 151.777 278.485C152.401 278.485 152.945 278.561 153.409 278.713C153.881 278.865 154.333 279.077 154.765 279.349C154.829 279.381 154.885 279.437 154.933 279.517C154.981 279.597 155.005 279.685 155.005 279.781C155.005 279.917 154.957 280.033 154.861 280.129C154.773 280.225 154.653 280.273 154.501 280.273C154.413 280.273 154.329 280.253 154.249 280.213C153.873 279.989 153.497 279.821 153.121 279.709C152.745 279.597 152.337 279.541 151.897 279.541C151.289 279.541 150.741 279.669 150.253 279.925C149.765 280.181 149.381 280.557 149.101 281.053C148.829 281.541 148.693 282.125 148.693 282.805C148.693 283.429 148.821 283.989 149.077 284.485C149.341 284.973 149.717 285.361 150.205 285.649C150.701 285.929 151.285 286.069 151.957 286.069C152.709 286.069 153.409 285.893 154.057 285.541V283.369H152.077C151.941 283.369 151.825 283.321 151.729 283.225C151.633 283.129 151.585 283.013 151.585 282.877C151.585 282.741 151.633 282.625 151.729 282.529C151.825 282.433 151.941 282.385 152.077 282.385H154.441C154.601 282.385 154.737 282.441 154.849 282.553C154.961 282.665 155.017 282.801 155.017 282.961V285.685C155.017 285.853 154.973 286.005 154.885 286.141C154.805 286.269 154.697 286.365 154.561 286.429C153.665 286.877 152.749 287.101 151.813 287.101Z" fill="black"/>
<path d="M201.894 287.041C201.742 287.041 201.614 286.989 201.51 286.885C201.406 286.781 201.354 286.653 201.354 286.501V279.625H198.906C198.762 279.625 198.642 279.577 198.546 279.481C198.45 279.385 198.402 279.265 198.402 279.121C198.402 278.977 198.45 278.857 198.546 278.761C198.642 278.657 198.762 278.605 198.906 278.605H204.882C205.026 278.605 205.146 278.657 205.242 278.761C205.346 278.857 205.398 278.977 205.398 279.121C205.398 279.265 205.346 279.385 205.242 279.481C205.146 279.577 205.026 279.625 204.882 279.625H202.446V286.501C202.446 286.653 202.39 286.781 202.278 286.885C202.174 286.989 202.046 287.041 201.894 287.041ZM207.263 286.981C207.111 286.981 206.983 286.929 206.879 286.825C206.775 286.721 206.723 286.593 206.723 286.441V279.157C206.723 279.005 206.775 278.877 206.879 278.773C206.983 278.661 207.111 278.605 207.263 278.605H212.075C212.219 278.605 212.339 278.657 212.435 278.761C212.539 278.857 212.591 278.977 212.591 279.121C212.591 279.265 212.539 279.385 212.435 279.481C212.339 279.577 212.219 279.625 212.075 279.625H207.815V282.277H211.643C211.787 282.277 211.907 282.329 212.003 282.433C212.107 282.529 212.159 282.649 212.159 282.793C212.159 282.937 212.107 283.057 212.003 283.153C211.907 283.249 211.787 283.297 211.643 283.297H207.815V285.961H212.075C212.219 285.961 212.339 286.013 212.435 286.117C212.539 286.213 212.591 286.333 212.591 286.477C212.591 286.621 212.539 286.741 212.435 286.837C212.339 286.933 212.219 286.981 212.075 286.981H207.263ZM214.915 287.041C214.763 287.041 214.635 286.989 214.531 286.885C214.427 286.781 214.375 286.653 214.375 286.501V279.157C214.375 279.005 214.427 278.877 214.531 278.773C214.635 278.661 214.763 278.605 214.915 278.605H217.711C218.799 278.605 219.615 278.829 220.159 279.277C220.703 279.725 220.975 280.313 220.975 281.041C220.975 281.521 220.839 281.961 220.567 282.361C220.303 282.753 219.915 283.037 219.403 283.213C219.979 283.365 220.371 283.725 220.579 284.293C220.795 284.853 220.903 285.405 220.903 285.949V286.501C220.903 286.653 220.851 286.781 220.747 286.885C220.643 286.989 220.515 287.041 220.363 287.041C220.195 287.041 220.059 286.993 219.955 286.897C219.859 286.793 219.811 286.661 219.811 286.501V286.141C219.811 285.741 219.775 285.373 219.703 285.037C219.631 284.693 219.459 284.389 219.187 284.125C218.915 283.853 218.503 283.717 217.951 283.717H215.467V286.501C215.467 286.653 215.411 286.781 215.299 286.885C215.195 286.989 215.067 287.041 214.915 287.041ZM217.639 282.685C218.327 282.685 218.871 282.549 219.271 282.277C219.679 282.005 219.883 281.621 219.883 281.125C219.883 280.645 219.707 280.277 219.355 280.021C219.011 279.765 218.419 279.637 217.579 279.637H215.467V282.685H217.639Z" fill="black"/>
<path d="M269.509 288.805C269.357 288.805 269.229 288.741 269.125 288.613L267.817 287.053C267.617 287.085 267.377 287.101 267.097 287.101C266.257 287.101 265.521 286.917 264.889 286.549C264.257 286.181 263.769 285.673 263.425 285.025C263.081 284.377 262.901 283.633 262.885 282.793C262.901 281.953 263.081 281.209 263.425 280.561C263.769 279.913 264.257 279.405 264.889 279.037C265.521 278.669 266.257 278.485 267.097 278.485C267.937 278.485 268.669 278.669 269.293 279.037C269.925 279.405 270.413 279.917 270.757 280.573C271.109 281.221 271.293 281.961 271.309 282.793C271.293 283.729 271.065 284.549 270.625 285.253C270.193 285.949 269.593 286.457 268.825 286.777L269.881 287.941C269.977 288.037 270.025 288.153 270.025 288.289C270.033 288.425 269.985 288.545 269.881 288.649C269.777 288.753 269.653 288.805 269.509 288.805ZM267.097 286.081C267.737 286.081 268.293 285.937 268.765 285.649C269.237 285.361 269.597 284.969 269.845 284.473C270.093 283.977 270.217 283.417 270.217 282.793C270.217 282.169 270.093 281.609 269.845 281.113C269.597 280.617 269.237 280.225 268.765 279.937C268.293 279.649 267.737 279.505 267.097 279.505C266.449 279.505 265.889 279.649 265.417 279.937C264.953 280.225 264.597 280.617 264.349 281.113C264.101 281.609 263.977 282.169 263.977 282.793C263.977 283.417 264.101 283.977 264.349 284.473C264.597 284.969 264.953 285.361 265.417 285.649C265.889 285.937 266.449 286.081 267.097 286.081ZM276.511 287.101C275.943 287.101 275.395 286.981 274.867 286.741C274.339 286.501 273.907 286.137 273.571 285.649C273.235 285.153 273.067 284.549 273.067 283.837V279.097C273.067 278.945 273.119 278.817 273.223 278.713C273.327 278.601 273.455 278.545 273.607 278.545C273.759 278.545 273.887 278.601 273.991 278.713C274.103 278.817 274.159 278.945 274.159 279.097V283.873C274.159 284.353 274.267 284.761 274.483 285.097C274.707 285.433 274.999 285.685 275.359 285.853C275.719 286.021 276.103 286.105 276.511 286.105C276.919 286.105 277.303 286.021 277.663 285.853C278.023 285.685 278.311 285.433 278.527 285.097C278.751 284.761 278.863 284.353 278.863 283.873V279.097C278.863 278.945 278.915 278.817 279.019 278.713C279.123 278.601 279.251 278.545 279.403 278.545C279.555 278.545 279.683 278.601 279.787 278.713C279.899 278.817 279.955 278.945 279.955 279.097V283.837C279.955 284.549 279.787 285.153 279.451 285.649C279.115 286.137 278.683 286.501 278.155 286.741C277.627 286.981 277.079 287.101 276.511 287.101ZM281.962 287.041C281.802 287.041 281.67 286.989 281.566 286.885C281.47 286.781 281.422 286.653 281.422 286.501C281.422 286.437 281.442 286.357 281.482 286.261L284.542 279.037C284.606 278.893 284.694 278.777 284.806 278.689C284.926 278.593 285.07 278.545 285.238 278.545H285.358C285.526 278.545 285.666 278.593 285.778 278.689C285.898 278.777 285.99 278.893 286.054 279.037L289.114 286.261C289.154 286.357 289.174 286.437 289.174 286.501C289.174 286.653 289.122 286.781 289.018 286.885C288.922 286.989 288.794 287.041 288.634 287.041C288.522 287.041 288.418 287.013 288.322 286.957C288.234 286.893 288.166 286.809 288.118 286.705L287.338 284.833H283.258L282.478 286.705C282.43 286.809 282.358 286.893 282.262 286.957C282.174 287.013 282.074 287.041 281.962 287.041ZM283.678 283.837H286.918L285.298 279.937L283.678 283.837Z" fill="black"/>
<path d="M338.157 288.805C338.005 288.805 337.877 288.741 337.773 288.613L336.465 287.053C336.265 287.085 336.025 287.101 335.745 287.101C334.905 287.101 334.169 286.917 333.537 286.549C332.905 286.181 332.417 285.673 332.073 285.025C331.729 284.377 331.549 283.633 331.533 282.793C331.549 281.953 331.729 281.209 332.073 280.561C332.417 279.913 332.905 279.405 333.537 279.037C334.169 278.669 334.905 278.485 335.745 278.485C336.585 278.485 337.317 278.669 337.941 279.037C338.573 279.405 339.061 279.917 339.405 280.573C339.757 281.221 339.941 281.961 339.957 282.793C339.941 283.729 339.713 284.549 339.273 285.253C338.841 285.949 338.241 286.457 337.473 286.777L338.529 287.941C338.625 288.037 338.673 288.153 338.673 288.289C338.681 288.425 338.633 288.545 338.529 288.649C338.425 288.753 338.301 288.805 338.157 288.805ZM335.745 286.081C336.385 286.081 336.941 285.937 337.413 285.649C337.885 285.361 338.245 284.969 338.493 284.473C338.741 283.977 338.865 283.417 338.865 282.793C338.865 282.169 338.741 281.609 338.493 281.113C338.245 280.617 337.885 280.225 337.413 279.937C336.941 279.649 336.385 279.505 335.745 279.505C335.097 279.505 334.537 279.649 334.065 279.937C333.601 280.225 333.245 280.617 332.997 281.113C332.749 281.609 332.625 282.169 332.625 282.793C332.625 283.417 332.749 283.977 332.997 284.473C333.245 284.969 333.601 285.361 334.065 285.649C334.537 285.937 335.097 286.081 335.745 286.081ZM345.159 287.101C344.591 287.101 344.043 286.981 343.515 286.741C342.987 286.501 342.555 286.137 342.219 285.649C341.883 285.153 341.715 284.549 341.715 283.837V279.097C341.715 278.945 341.767 278.817 341.871 278.713C341.975 278.601 342.103 278.545 342.255 278.545C342.407 278.545 342.535 278.601 342.639 278.713C342.751 278.817 342.807 278.945 342.807 279.097V283.873C342.807 284.353 342.915 284.761 343.131 285.097C343.355 285.433 343.647 285.685 344.007 285.853C344.367 286.021 344.751 286.105 345.159 286.105C345.567 286.105 345.951 286.021 346.311 285.853C346.671 285.685 346.959 285.433 347.175 285.097C347.399 284.761 347.511 284.353 347.511 283.873V279.097C347.511 278.945 347.563 278.817 347.667 278.713C347.771 278.601 347.899 278.545 348.051 278.545C348.203 278.545 348.331 278.601 348.435 278.713C348.547 278.817 348.603 278.945 348.603 279.097V283.837C348.603 284.549 348.435 285.153 348.099 285.649C347.763 286.137 347.331 286.501 346.803 286.741C346.275 286.981 345.727 287.101 345.159 287.101ZM351.409 287.041C351.257 287.041 351.129 286.989 351.025 286.885C350.921 286.781 350.869 286.653 350.869 286.501V279.097C350.869 278.945 350.921 278.817 351.025 278.713C351.129 278.601 351.257 278.545 351.409 278.545C351.561 278.545 351.689 278.601 351.793 278.713C351.905 278.817 351.961 278.945 351.961 279.097V286.501C351.961 286.653 351.905 286.781 351.793 286.885C351.689 286.989 351.561 287.041 351.409 287.041Z" fill="black"/>
<path d="M400.255 287.101C399.239 287.101 398.287 286.909 397.399 286.525C397.303 286.485 397.223 286.421 397.159 286.333C397.095 286.237 397.063 286.137 397.063 286.033C397.063 285.897 397.107 285.781 397.195 285.685C397.291 285.581 397.411 285.529 397.555 285.529C397.635 285.529 397.711 285.545 397.783 285.577C398.519 285.905 399.307 286.069 400.147 286.069C401.547 286.069 402.247 285.609 402.247 284.689C402.247 284.449 402.155 284.249 401.971 284.089C401.795 283.929 401.575 283.805 401.311 283.717C401.047 283.621 400.671 283.509 400.183 283.381C399.535 283.213 399.011 283.053 398.611 282.901C398.211 282.741 397.867 282.505 397.579 282.193C397.291 281.881 397.147 281.465 397.147 280.945C397.147 280.489 397.267 280.077 397.507 279.709C397.747 279.333 398.099 279.037 398.563 278.821C399.035 278.597 399.599 278.485 400.255 278.485C401.135 278.485 401.931 278.617 402.643 278.881C402.867 278.961 402.979 279.121 402.979 279.361C402.979 279.489 402.935 279.605 402.847 279.709C402.759 279.813 402.643 279.865 402.499 279.865C402.451 279.865 402.387 279.849 402.307 279.817C401.683 279.601 401.039 279.493 400.375 279.493C399.743 279.493 399.227 279.613 398.827 279.853C398.435 280.093 398.239 280.429 398.239 280.861C398.239 281.149 398.331 281.385 398.515 281.569C398.707 281.745 398.943 281.885 399.223 281.989C399.511 282.085 399.899 282.189 400.387 282.301C401.019 282.453 401.527 282.605 401.911 282.757C402.303 282.909 402.635 283.145 402.907 283.465C403.187 283.785 403.327 284.217 403.327 284.761C403.327 285.209 403.199 285.613 402.943 285.973C402.687 286.325 402.327 286.601 401.863 286.801C401.399 287.001 400.863 287.101 400.255 287.101ZM405.55 286.981C405.398 286.981 405.27 286.929 405.166 286.825C405.062 286.721 405.01 286.593 405.01 286.441V279.157C405.01 279.005 405.062 278.877 405.166 278.773C405.27 278.661 405.398 278.605 405.55 278.605H410.362C410.506 278.605 410.626 278.657 410.722 278.761C410.826 278.857 410.878 278.977 410.878 279.121C410.878 279.265 410.826 279.385 410.722 279.481C410.626 279.577 410.506 279.625 410.362 279.625H406.102V282.277H409.93C410.074 282.277 410.194 282.329 410.29 282.433C410.394 282.529 410.446 282.649 410.446 282.793C410.446 282.937 410.394 283.057 410.29 283.153C410.194 283.249 410.074 283.297 409.93 283.297H406.102V285.961H410.362C410.506 285.961 410.626 286.013 410.722 286.117C410.826 286.213 410.878 286.333 410.878 286.477C410.878 286.621 410.826 286.741 410.722 286.837C410.626 286.933 410.506 286.981 410.362 286.981H405.55ZM412.53 287.041C412.394 287.041 412.274 286.993 412.17 286.897C412.074 286.793 412.026 286.673 412.026 286.537C412.026 286.409 412.062 286.297 412.134 286.201L414.906 282.793L412.158 279.409C412.086 279.313 412.05 279.201 412.05 279.073C412.05 278.921 412.098 278.797 412.194 278.701C412.298 278.597 412.426 278.545 412.578 278.545C412.666 278.545 412.75 278.565 412.83 278.605C412.91 278.645 412.974 278.697 413.022 278.761L415.554 281.977L418.086 278.737C418.174 278.609 418.306 278.545 418.482 278.545C418.626 278.545 418.75 278.597 418.854 278.701C418.958 278.797 419.01 278.917 419.01 279.061C419.01 279.173 418.978 279.273 418.914 279.361L416.142 282.781L418.914 286.189C418.986 286.269 419.022 286.373 419.022 286.501C419.022 286.653 418.97 286.781 418.866 286.885C418.77 286.989 418.642 287.041 418.482 287.041C418.306 287.041 418.162 286.965 418.05 286.813L415.482 283.585L412.95 286.825C412.83 286.969 412.69 287.041 412.53 287.041Z" fill="black"/>
<path d="M465.47 287.101C464.454 287.101 463.502 286.909 462.614 286.525C462.518 286.485 462.438 286.421 462.374 286.333C462.31 286.237 462.278 286.137 462.278 286.033C462.278 285.897 462.322 285.781 462.41 285.685C462.506 285.581 462.626 285.529 462.77 285.529C462.85 285.529 462.926 285.545 462.998 285.577C463.734 285.905 464.522 286.069 465.362 286.069C466.762 286.069 467.462 285.609 467.462 284.689C467.462 284.449 467.37 284.249 467.186 284.089C467.01 283.929 466.79 283.805 466.526 283.717C466.262 283.621 465.886 283.509 465.398 283.381C464.75 283.213 464.226 283.053 463.826 282.901C463.426 282.741 463.082 282.505 462.794 282.193C462.506 281.881 462.362 281.465 462.362 280.945C462.362 280.489 462.482 280.077 462.722 279.709C462.962 279.333 463.314 279.037 463.778 278.821C464.25 278.597 464.814 278.485 465.47 278.485C466.35 278.485 467.146 278.617 467.858 278.881C468.082 278.961 468.194 279.121 468.194 279.361C468.194 279.489 468.15 279.605 468.062 279.709C467.974 279.813 467.858 279.865 467.714 279.865C467.666 279.865 467.602 279.849 467.522 279.817C466.898 279.601 466.254 279.493 465.59 279.493C464.958 279.493 464.442 279.613 464.042 279.853C463.65 280.093 463.454 280.429 463.454 280.861C463.454 281.149 463.546 281.385 463.73 281.569C463.922 281.745 464.158 281.885 464.438 281.989C464.726 282.085 465.114 282.189 465.602 282.301C466.234 282.453 466.742 282.605 467.126 282.757C467.518 282.909 467.85 283.145 468.122 283.465C468.402 283.785 468.542 284.217 468.542 284.761C468.542 285.209 468.414 285.613 468.158 285.973C467.902 286.325 467.542 286.601 467.078 286.801C466.614 287.001 466.078 287.101 465.47 287.101ZM470.201 287.041C470.041 287.041 469.909 286.989 469.805 286.885C469.709 286.781 469.661 286.653 469.661 286.501C469.661 286.437 469.681 286.357 469.721 286.261L472.781 279.037C472.845 278.893 472.933 278.777 473.045 278.689C473.165 278.593 473.309 278.545 473.477 278.545H473.597C473.765 278.545 473.905 278.593 474.017 278.689C474.137 278.777 474.229 278.893 474.293 279.037L477.353 286.261C477.393 286.357 477.413 286.437 477.413 286.501C477.413 286.653 477.361 286.781 477.257 286.885C477.161 286.989 477.033 287.041 476.873 287.041C476.761 287.041 476.657 287.013 476.561 286.957C476.473 286.893 476.405 286.809 476.357 286.705L475.577 284.833H471.497L470.717 286.705C470.669 286.809 470.597 286.893 470.501 286.957C470.413 287.013 470.313 287.041 470.201 287.041ZM471.917 283.837H475.157L473.537 279.937L471.917 283.837ZM479.718 286.981C479.566 286.981 479.438 286.929 479.334 286.825C479.23 286.721 479.178 286.593 479.178 286.441V279.157C479.178 279.005 479.23 278.877 479.334 278.773C479.438 278.661 479.566 278.605 479.718 278.605H482.55C483.406 278.605 484.066 278.801 484.53 279.193C485.002 279.585 485.238 280.113 485.238 280.777C485.238 281.241 485.126 281.629 484.902 281.941C484.686 282.245 484.406 282.473 484.062 282.625C484.542 282.777 484.934 283.021 485.238 283.357C485.55 283.693 485.706 284.117 485.706 284.629C485.706 285.365 485.458 285.941 484.962 286.357C484.466 286.773 483.686 286.981 482.622 286.981H479.718ZM482.262 282.229C482.974 282.229 483.474 282.109 483.762 281.869C484.05 281.629 484.194 281.293 484.194 280.861C484.194 280.485 484.038 280.185 483.726 279.961C483.422 279.737 483.002 279.625 482.466 279.625H480.27V282.229H482.262ZM482.514 285.961C483.29 285.961 483.838 285.841 484.158 285.601C484.486 285.361 484.65 285.021 484.65 284.581C484.65 283.669 483.942 283.213 482.526 283.213H480.27V285.961H482.514Z" fill="black"/>
<path d="M17.024 75.16C16.0213 75.16 15.2 75.0053 14.56 74.696C13.9307 74.3867 13.472 73.9973 13.184 73.528C12.896 73.0587 12.752 72.5627 12.752 72.04C12.752 70.5573 13.5467 69.5493 15.136 69.016C14.592 68.8347 14.144 68.5413 13.792 68.136C13.4507 67.72 13.28 67.2027 13.28 66.584C13.28 66.1253 13.4027 65.672 13.648 65.224C13.904 64.776 14.3093 64.408 14.864 64.12C15.4293 63.8213 16.1493 63.672 17.024 63.672C17.8987 63.672 18.6133 63.8213 19.168 64.12C19.7333 64.408 20.1387 64.776 20.384 65.224C20.64 65.672 20.768 66.1253 20.768 66.584C20.768 67.2027 20.592 67.72 20.24 68.136C19.8987 68.5413 19.456 68.8347 18.912 69.016C20.5013 69.5493 21.296 70.5573 21.296 72.04C21.296 72.5627 21.152 73.0587 20.864 73.528C20.576 73.9973 20.112 74.3867 19.472 74.696C18.8427 75.0053 18.0267 75.16 17.024 75.16ZM17.024 68.408C17.8133 68.408 18.3893 68.232 18.752 67.88C19.1253 67.528 19.312 67.128 19.312 66.68C19.312 66.1787 19.1147 65.768 18.72 65.448C18.336 65.1173 17.7707 64.952 17.024 64.952C16.2773 64.952 15.7067 65.1173 15.312 65.448C14.928 65.768 14.736 66.1787 14.736 66.68C14.736 67.128 14.9173 67.528 15.28 67.88C15.6533 68.232 16.2347 68.408 17.024 68.408ZM17.024 73.88C17.6853 73.88 18.224 73.7733 18.64 73.56C19.0667 73.336 19.3707 73.0693 19.552 72.76C19.744 72.4507 19.84 72.1573 19.84 71.88C19.84 71.1973 19.568 70.6693 19.024 70.296C18.48 69.912 17.8133 69.72 17.024 69.72C16.2347 69.72 15.568 69.912 15.024 70.296C14.48 70.6693 14.208 71.1973 14.208 71.88C14.208 72.1573 14.2987 72.4507 14.48 72.76C14.672 73.0693 14.976 73.336 15.392 73.56C15.8187 73.7733 16.3627 73.88 17.024 73.88ZM17.328 119.16C14.4053 119.16 12.944 117.251 12.944 113.432C12.944 112.504 13.0933 111.603 13.392 110.728C13.7013 109.853 14.2027 109.128 14.896 108.552C15.5893 107.965 16.4853 107.672 17.584 107.672C18.1813 107.672 18.704 107.736 19.152 107.864C19.6 107.992 20.0213 108.157 20.416 108.36C20.512 108.413 20.592 108.493 20.656 108.6C20.72 108.707 20.752 108.819 20.752 108.936C20.752 109.107 20.688 109.261 20.56 109.4C20.4427 109.528 20.288 109.592 20.096 109.592C20 109.592 19.9093 109.576 19.824 109.544C19.1627 109.235 18.4533 109.08 17.696 109.08C16.4907 109.08 15.6427 109.501 15.152 110.344C14.6613 111.187 14.3893 112.131 14.336 113.176C14.656 112.771 15.0827 112.435 15.616 112.168C16.1493 111.901 16.816 111.768 17.616 111.768C18.3413 111.768 18.976 111.923 19.52 112.232C20.0747 112.541 20.5067 112.979 20.816 113.544C21.1253 114.109 21.28 114.771 21.28 115.528C21.28 116.2 21.12 116.813 20.8 117.368C20.48 117.923 20.0213 118.36 19.424 118.68C18.8267 119 18.128 119.16 17.328 119.16ZM17.344 117.8C17.8347 117.8 18.2667 117.699 18.64 117.496C19.024 117.283 19.3173 117 19.52 116.648C19.7227 116.296 19.824 115.912 19.824 115.496C19.824 114.771 19.6213 114.189 19.216 113.752C18.8107 113.315 18.2187 113.096 17.44 113.096C16.0533 113.096 15.0453 113.683 14.416 114.856C14.704 116.819 15.68 117.8 17.344 117.8ZM18.928 163.08C18.7253 163.08 18.5547 163.011 18.416 162.872C18.2773 162.733 18.208 162.563 18.208 162.36V160.184H13.328C13.072 160.184 12.8533 160.099 12.672 159.928C12.4907 159.747 12.4 159.528 12.4 159.272V159.128C12.4 158.904 12.464 158.712 12.592 158.552L17.616 152.136C17.7013 152.019 17.8133 151.928 17.952 151.864C18.1013 151.789 18.256 151.752 18.416 151.752H18.736C19.0133 151.752 19.2373 151.843 19.408 152.024C19.5787 152.195 19.664 152.413 19.664 152.68V158.888H20.88C21.0613 158.888 21.216 158.952 21.344 159.08C21.472 159.208 21.536 159.363 21.536 159.544C21.536 159.725 21.472 159.88 21.344 160.008C21.216 160.125 21.0613 160.184 20.88 160.184H19.664V162.36C19.664 162.563 19.5893 162.733 19.44 162.872C19.3013 163.011 19.1307 163.08 18.928 163.08ZM13.952 158.888H18.208V153.4L13.952 158.888ZM13.888 207C13.6427 207 13.44 206.925 13.28 206.776C13.12 206.616 13.04 206.413 13.04 206.168C13.04 205.613 13.2 205.101 13.52 204.632C13.8507 204.163 14.2453 203.752 14.704 203.4C15.1733 203.037 15.7867 202.611 16.544 202.12C17.1947 201.704 17.712 201.352 18.096 201.064C18.48 200.776 18.8 200.461 19.056 200.12C19.312 199.779 19.44 199.416 19.44 199.032C19.44 198.424 19.2373 197.944 18.832 197.592C18.4373 197.229 17.7973 197.048 16.912 197.048C15.952 197.048 15.04 197.24 14.176 197.624C14.0693 197.677 13.968 197.704 13.872 197.704C13.7013 197.704 13.5573 197.645 13.44 197.528C13.3227 197.411 13.264 197.261 13.264 197.08C13.264 196.813 13.3813 196.616 13.616 196.488C14.704 195.944 15.888 195.672 17.168 195.672C17.8507 195.672 18.4693 195.811 19.024 196.088C19.5893 196.355 20.032 196.733 20.352 197.224C20.6827 197.715 20.848 198.28 20.848 198.92C20.848 199.549 20.6613 200.136 20.288 200.68C19.9253 201.213 19.488 201.683 18.976 202.088C18.464 202.493 17.7973 202.963 16.976 203.496C16.2293 203.997 15.664 204.403 15.28 204.712C14.9067 205.011 14.6453 205.32 14.496 205.64H20.064C20.256 205.64 20.416 205.709 20.544 205.848C20.6827 205.976 20.752 206.136 20.752 206.328C20.752 206.52 20.6827 206.68 20.544 206.808C20.416 206.936 20.256 207 20.064 207H13.888ZM17.024 251.16C15.616 251.16 14.5387 250.643 13.792 249.608C13.056 248.573 12.688 247.176 12.688 245.416C12.688 243.656 13.056 242.259 13.792 241.224C14.5387 240.189 15.616 239.672 17.024 239.672C18.4213 239.672 19.4933 240.189 20.24 241.224C20.9867 242.259 21.36 243.656 21.36 245.416C21.36 247.176 20.9867 248.573 20.24 249.608C19.4933 250.643 18.4213 251.16 17.024 251.16ZM17.024 249.816C17.952 249.816 18.6613 249.427 19.152 248.648C19.6533 247.869 19.904 246.792 19.904 245.416C19.904 244.051 19.6533 242.979 19.152 242.2C18.6613 241.421 17.952 241.032 17.024 241.032C16.096 241.032 15.3813 241.421 14.88 242.2C14.3893 242.979 14.144 244.051 14.144 245.416C14.144 246.792 14.3893 247.869 14.88 248.648C15.3813 249.427 16.096 249.816 17.024 249.816Z" fill="#828282"/>
<line x1="54" y1="254.257" x2="500" y2="254.257" stroke="#F2F2F2"/>
<defs>
<filter id="filter0_d_1032_2793" x="366" y="9" width="95" height="26" filterUnits="userSpaceOnUse" color-interpolation-filters="sRGB">
<feFlood flood-opacity="0" result="BackgroundImageFix"/>
<feColorMatrix in="SourceAlpha" type="matrix" values="0 0 0 0 0 0 0 0 0 0 0 0 0 0 0 0 0 0 127 0" result="hardAlpha"/>
<feOffset dy="1"/>
<feGaussianBlur stdDeviation="1"/>
<feComposite in2="hardAlpha" operator="out"/>
<feColorMatrix type="matrix" values="0 0 0 0 0 0 0 0 0 0 0 0 0 0 0 0 0 0 0.25 0"/>
<feBlend mode="normal" in2="BackgroundImageFix" result="effect1_dropShadow_1032_2793"/>
<feBlend mode="normal" in="SourceGraphic" in2="effect1_dropShadow_1032_2793" result="shape"/>
</filter>
<radialGradient id="paint0_angular_1032_2793" cx="0" cy="0" r="1" gradientUnits="userSpaceOnUse" gradientTransform="translate(413.5 -7.11111) rotate(90) scale(55.6111 230.028)">
<stop stop-color="#F5F5F5"/>
<stop offset="1" stop-color="#F5F5F5" stop-opacity="0"/>
</radialGradient>
</defs>
</svg>
