<svg width="843" height="127" viewBox="0 0 843 127" fill="none" xmlns="http://www.w3.org/2000/svg">
<g clip-path="url(#clip0_1036_2922)">
<rect width="843" height="127" fill="white"/>
<path d="M347.125 42.25C345.458 42.25 343.958 41.8917 342.625 41.175C341.308 40.4417 340.267 39.4 339.5 38.05C338.75 36.6833 338.375 35.0917 338.375 33.275C338.375 31.4583 338.75 29.875 339.5 28.525C340.267 27.1583 341.308 26.1167 342.625 25.4C343.958 24.6667 345.458 24.3 347.125 24.3C348.258 24.3 349.267 24.4333 350.15 24.7C351.05 24.9667 351.942 25.35 352.825 25.85C353.192 26.05 353.375 26.3667 353.375 26.8C353.375 27.05 353.283 27.275 353.1 27.475C352.917 27.6583 352.675 27.75 352.375 27.75C352.208 27.75 352.058 27.7167 351.925 27.65C351.192 27.2667 350.475 26.975 349.775 26.775C349.075 26.575 348.267 26.475 347.35 26.475C345.917 26.475 344.692 26.775 343.675 27.375C342.675 27.9583 341.917 28.7667 341.4 29.8C340.9 30.8167 340.65 31.975 340.65 33.275C340.65 34.575 340.9 35.7417 341.4 36.775C341.917 37.7917 342.675 38.6 343.675 39.2C344.692 39.7833 345.917 40.075 347.35 40.075C348.267 40.075 349.075 39.975 349.775 39.775C350.475 39.575 351.192 39.2833 351.925 38.9C352.058 38.8333 352.208 38.8 352.375 38.8C352.675 38.8 352.917 38.8917 353.1 39.075C353.283 39.2583 353.375 39.4833 353.375 39.75C353.375 40.1833 353.192 40.5 352.825 40.7C351.942 41.2 351.05 41.5833 350.15 41.85C349.267 42.1167 348.258 42.25 347.125 42.25ZM357.933 42.125C357.616 42.125 357.349 42.0167 357.133 41.8C356.916 41.5833 356.808 41.3167 356.808 41V25.575C356.808 25.2583 356.916 24.9917 357.133 24.775C357.349 24.5417 357.616 24.425 357.933 24.425C358.249 24.425 358.516 24.5417 358.733 24.775C358.966 24.9917 359.083 25.2583 359.083 25.575V32.225H368.558V25.575C368.558 25.2583 368.666 24.9917 368.883 24.775C369.099 24.5417 369.366 24.425 369.683 24.425C369.999 24.425 370.266 24.5417 370.483 24.775C370.716 24.9917 370.833 25.2583 370.833 25.575V41C370.833 41.3167 370.716 41.5833 370.483 41.8C370.266 42.0167 369.999 42.125 369.683 42.125C369.366 42.125 369.099 42.0167 368.883 41.8C368.666 41.5833 368.558 41.3167 368.558 41V34.35H359.083V41C359.083 41.3167 358.966 41.5833 358.733 41.8C358.516 42.0167 358.249 42.125 357.933 42.125ZM375.63 42.125C375.297 42.125 375.022 42.0167 374.805 41.8C374.605 41.5833 374.505 41.3167 374.505 41C374.505 40.8667 374.547 40.7 374.63 40.5L381.005 25.45C381.138 25.15 381.322 24.9083 381.555 24.725C381.805 24.525 382.105 24.425 382.455 24.425H382.705C383.055 24.425 383.347 24.525 383.58 24.725C383.83 24.9083 384.022 25.15 384.155 25.45L390.53 40.5C390.613 40.7 390.655 40.8667 390.655 41C390.655 41.3167 390.547 41.5833 390.33 41.8C390.13 42.0167 389.863 42.125 389.53 42.125C389.297 42.125 389.08 42.0667 388.88 41.95C388.697 41.8167 388.555 41.6417 388.455 41.425L386.83 37.525H378.33L376.705 41.425C376.605 41.6417 376.455 41.8167 376.255 41.95C376.072 42.0667 375.863 42.125 375.63 42.125ZM379.205 35.45H385.955L382.58 27.325L379.205 35.45ZM395.907 42C395.474 42 395.099 41.85 394.782 41.55C394.482 41.2333 394.332 40.8583 394.332 40.425V25.575C394.332 25.2583 394.441 24.9917 394.657 24.775C394.874 24.5417 395.141 24.425 395.457 24.425C395.774 24.425 396.041 24.5417 396.257 24.775C396.491 24.9917 396.607 25.2583 396.607 25.575V39.725H404.782C405.099 39.725 405.366 39.8417 405.582 40.075C405.816 40.2917 405.932 40.5583 405.932 40.875C405.932 41.1917 405.816 41.4583 405.582 41.675C405.366 41.8917 405.099 42 404.782 42H395.907ZM410.312 42C409.878 42 409.503 41.85 409.187 41.55C408.887 41.2333 408.737 40.8583 408.737 40.425V25.575C408.737 25.2583 408.845 24.9917 409.062 24.775C409.278 24.5417 409.545 24.425 409.862 24.425C410.178 24.425 410.445 24.5417 410.662 24.775C410.895 24.9917 411.012 25.2583 411.012 25.575V39.725H419.187C419.503 39.725 419.77 39.8417 419.987 40.075C420.22 40.2917 420.337 40.5583 420.337 40.875C420.337 41.1917 420.22 41.4583 419.987 41.675C419.77 41.8917 419.503 42 419.187 42H410.312ZM424.266 42C423.949 42 423.682 41.8917 423.466 41.675C423.249 41.4583 423.141 41.1917 423.141 40.875V25.7C423.141 25.3833 423.249 25.1167 423.466 24.9C423.682 24.6667 423.949 24.55 424.266 24.55H434.291C434.591 24.55 434.841 24.6583 435.041 24.875C435.257 25.075 435.366 25.325 435.366 25.625C435.366 25.925 435.257 26.175 435.041 26.375C434.841 26.575 434.591 26.675 434.291 26.675H425.416V32.2H433.391C433.691 32.2 433.941 32.3083 434.141 32.525C434.357 32.725 434.466 32.975 434.466 33.275C434.466 33.575 434.357 33.825 434.141 34.025C433.941 34.225 433.691 34.325 433.391 34.325H425.416V39.875H434.291C434.591 39.875 434.841 39.9833 435.041 40.2C435.257 40.4 435.366 40.65 435.366 40.95C435.366 41.25 435.257 41.5 435.041 41.7C434.841 41.9 434.591 42 434.291 42H424.266ZM440.208 42.125C439.892 42.125 439.625 42.0167 439.408 41.8C439.192 41.5833 439.083 41.3167 439.083 41V26.075C439.083 25.625 439.242 25.2417 439.558 24.925C439.875 24.5917 440.258 24.425 440.708 24.425H441.033C441.567 24.425 442.025 24.675 442.408 25.175L452.033 39.075V25.575C452.033 25.2583 452.142 24.9917 452.358 24.775C452.575 24.5417 452.842 24.425 453.158 24.425C453.475 24.425 453.742 24.5417 453.958 24.775C454.192 24.9917 454.308 25.2583 454.308 25.575V40.5C454.308 40.95 454.142 41.3333 453.808 41.65C453.492 41.9667 453.108 42.125 452.658 42.125H452.358C452.092 42.125 451.842 42.0667 451.608 41.95C451.375 41.8167 451.183 41.65 451.033 41.45L441.358 27.475V41C441.358 41.3167 441.242 41.5833 441.008 41.8C440.792 42.0167 440.525 42.125 440.208 42.125ZM466.877 42.25C465.16 42.25 463.635 41.875 462.302 41.125C460.968 40.3583 459.935 39.3 459.202 37.95C458.468 36.5833 458.102 35.0333 458.102 33.3C458.102 31.5333 458.485 29.9667 459.252 28.6C460.018 27.2333 461.06 26.175 462.377 25.425C463.71 24.675 465.185 24.3 466.802 24.3C468.102 24.3 469.235 24.4583 470.202 24.775C471.185 25.0917 472.127 25.5333 473.027 26.1C473.16 26.1667 473.277 26.2833 473.377 26.45C473.477 26.6167 473.527 26.8 473.527 27C473.527 27.2833 473.427 27.525 473.227 27.725C473.043 27.925 472.793 28.025 472.477 28.025C472.293 28.025 472.118 27.9833 471.952 27.9C471.168 27.4333 470.385 27.0833 469.602 26.85C468.818 26.6167 467.968 26.5 467.052 26.5C465.785 26.5 464.643 26.7667 463.627 27.3C462.61 27.8333 461.81 28.6167 461.227 29.65C460.66 30.6667 460.377 31.8833 460.377 33.3C460.377 34.6 460.643 35.7667 461.177 36.8C461.727 37.8167 462.51 38.625 463.527 39.225C464.56 39.8083 465.777 40.1 467.177 40.1C468.743 40.1 470.202 39.7333 471.552 39V34.475H467.427C467.143 34.475 466.902 34.375 466.702 34.175C466.502 33.975 466.402 33.7333 466.402 33.45C466.402 33.1667 466.502 32.925 466.702 32.725C466.902 32.525 467.143 32.425 467.427 32.425H472.352C472.685 32.425 472.968 32.5417 473.202 32.775C473.435 33.0083 473.552 33.2917 473.552 33.625V39.3C473.552 39.65 473.46 39.9667 473.277 40.25C473.11 40.5167 472.885 40.7167 472.602 40.85C470.735 41.7833 468.827 42.25 466.877 42.25ZM479.197 42C478.881 42 478.614 41.8917 478.397 41.675C478.181 41.4583 478.072 41.1917 478.072 40.875V25.7C478.072 25.3833 478.181 25.1167 478.397 24.9C478.614 24.6667 478.881 24.55 479.197 24.55H489.222C489.522 24.55 489.772 24.6583 489.972 24.875C490.189 25.075 490.297 25.325 490.297 25.625C490.297 25.925 490.189 26.175 489.972 26.375C489.772 26.575 489.522 26.675 489.222 26.675H480.347V32.2H488.322C488.622 32.2 488.872 32.3083 489.072 32.525C489.289 32.725 489.397 32.975 489.397 33.275C489.397 33.575 489.289 33.825 489.072 34.025C488.872 34.225 488.622 34.325 488.322 34.325H480.347V39.875H489.222C489.522 39.875 489.772 39.9833 489.972 40.2C490.189 40.4 490.297 40.65 490.297 40.95C490.297 41.25 490.189 41.5 489.972 41.7C489.772 41.9 489.522 42 489.222 42H479.197ZM499.515 42.25C497.398 42.25 495.415 41.85 493.565 41.05C493.365 40.9667 493.198 40.8333 493.065 40.65C492.932 40.45 492.865 40.2417 492.865 40.025C492.865 39.7417 492.957 39.5 493.14 39.3C493.34 39.0833 493.59 38.975 493.89 38.975C494.057 38.975 494.215 39.0083 494.365 39.075C495.898 39.7583 497.54 40.1 499.29 40.1C502.207 40.1 503.665 39.1417 503.665 37.225C503.665 36.725 503.473 36.3083 503.09 35.975C502.723 35.6417 502.265 35.3833 501.715 35.2C501.165 35 500.382 34.7667 499.365 34.5C498.015 34.15 496.923 33.8167 496.09 33.5C495.257 33.1667 494.54 32.675 493.94 32.025C493.34 31.375 493.04 30.5083 493.04 29.425C493.04 28.475 493.29 27.6167 493.79 26.85C494.29 26.0667 495.023 25.45 495.99 25C496.973 24.5333 498.148 24.3 499.515 24.3C501.348 24.3 503.007 24.575 504.49 25.125C504.957 25.2917 505.19 25.625 505.19 26.125C505.19 26.3917 505.098 26.6333 504.915 26.85C504.732 27.0667 504.49 27.175 504.19 27.175C504.09 27.175 503.957 27.1417 503.79 27.075C502.49 26.625 501.148 26.4 499.765 26.4C498.448 26.4 497.373 26.65 496.54 27.15C495.723 27.65 495.315 28.35 495.315 29.25C495.315 29.85 495.507 30.3417 495.89 30.725C496.29 31.0917 496.782 31.3833 497.365 31.6C497.965 31.8 498.773 32.0167 499.79 32.25C501.107 32.5667 502.165 32.8833 502.965 33.2C503.782 33.5167 504.473 34.0083 505.04 34.675C505.623 35.3417 505.915 36.2417 505.915 37.375C505.915 38.3083 505.648 39.15 505.115 39.9C504.582 40.6333 503.832 41.2083 502.865 41.625C501.898 42.0417 500.782 42.25 499.515 42.25Z" fill="#37D200"/>
</g>
<defs>
<clipPath id="clip0_1036_2922">
<rect width="843" height="127" fill="white"/>
</clipPath>
</defs>
</svg>
