<svg width="95" height="41" viewBox="0 0 95 41" fill="none" xmlns="http://www.w3.org/2000/svg">
<path d="M3.906 37.14C3.38333 37.14 2.926 37.084 2.534 36.972C2.142 36.86 1.77333 36.7153 1.428 36.538C1.344 36.4913 1.274 36.4213 1.218 36.328C1.162 36.2347 1.134 36.1367 1.134 36.034C1.134 35.8847 1.18533 35.754 1.288 35.642C1.4 35.5207 1.54 35.46 1.708 35.46C1.792 35.46 1.87133 35.474 1.946 35.502C2.52467 35.7727 3.14533 35.908 3.808 35.908C4.86267 35.908 5.60467 35.5393 6.034 34.802C6.46333 34.0647 6.70133 33.2387 6.748 32.324C6.468 32.6787 6.09467 32.9727 5.628 33.206C5.16133 33.4393 4.578 33.556 3.878 33.556C3.24333 33.556 2.68333 33.4207 2.198 33.15C1.722 32.8793 1.34867 32.4967 1.078 32.002C0.807333 31.5073 0.672 30.9287 0.672 30.266C0.672 29.678 0.812 29.1413 1.092 28.656C1.372 28.1707 1.77333 27.788 2.296 27.508C2.81867 27.228 3.43 27.088 4.13 27.088C6.68733 27.088 7.966 28.7587 7.966 32.1C7.966 32.912 7.83067 33.7007 7.56 34.466C7.29867 35.2313 6.86467 35.8707 6.258 36.384C5.65133 36.888 4.86733 37.14 3.906 37.14ZM4.032 32.394C5.24533 32.394 6.12733 31.8807 6.678 30.854C6.426 29.1367 5.572 28.278 4.116 28.278C3.68667 28.278 3.304 28.3713 2.968 28.558C2.64133 28.7353 2.38933 28.978 2.212 29.286C2.03467 29.594 1.946 29.93 1.946 30.294C1.946 30.9287 2.12333 31.4373 2.478 31.82C2.83267 32.2027 3.35067 32.394 4.032 32.394ZM16.8377 37.14C16.1657 37.14 15.5451 36.9907 14.9757 36.692C14.4064 36.3933 13.9491 35.964 13.6037 35.404C13.2677 34.844 13.0997 34.186 13.0997 33.43C13.0997 32.674 13.2677 32.016 13.6037 31.456C13.9491 30.896 14.4064 30.4667 14.9757 30.168C15.5451 29.8693 16.1657 29.72 16.8377 29.72C17.3324 29.72 17.7571 29.7853 18.1117 29.916C18.4757 30.0373 18.8117 30.196 19.1197 30.392C19.3064 30.5133 19.3997 30.6767 19.3997 30.882C19.3997 31.022 19.3437 31.1527 19.2317 31.274C19.1291 31.386 19.0077 31.442 18.8677 31.442C18.7651 31.442 18.6624 31.414 18.5597 31.358C18.2517 31.1993 17.9857 31.0873 17.7617 31.022C17.5471 30.9473 17.2764 30.91 16.9497 30.91C16.1471 30.91 15.5171 31.1433 15.0597 31.61C14.6024 32.0673 14.3737 32.674 14.3737 33.43C14.3737 34.186 14.6024 34.7973 15.0597 35.264C15.5171 35.7213 16.1471 35.95 16.9497 35.95C17.2764 35.95 17.5471 35.9173 17.7617 35.852C17.9857 35.7773 18.2517 35.6607 18.5597 35.502C18.6624 35.446 18.7651 35.418 18.8677 35.418C19.0077 35.418 19.1291 35.4787 19.2317 35.6C19.3437 35.712 19.3997 35.838 19.3997 35.978C19.3997 36.1833 19.3064 36.3467 19.1197 36.468C18.8117 36.664 18.4757 36.8273 18.1117 36.958C17.7571 37.0793 17.3324 37.14 16.8377 37.14ZM24.0939 37.14C23.3752 37.14 22.7452 36.986 22.2039 36.678C21.6626 36.37 21.2426 35.936 20.9439 35.376C20.6546 34.8067 20.5099 34.158 20.5099 33.43C20.5099 32.702 20.6546 32.058 20.9439 31.498C21.2426 30.9287 21.6626 30.49 22.2039 30.182C22.7452 29.874 23.3752 29.72 24.0939 29.72C24.8032 29.72 25.4286 29.874 25.9699 30.182C26.5112 30.49 26.9312 30.9287 27.2299 31.498C27.5286 32.058 27.6779 32.702 27.6779 33.43C27.6779 34.158 27.5286 34.8067 27.2299 35.376C26.9312 35.936 26.5112 36.37 25.9699 36.678C25.4286 36.986 24.8032 37.14 24.0939 37.14ZM24.0939 35.978C24.4766 35.978 24.8406 35.8893 25.1859 35.712C25.5406 35.5347 25.8299 35.2547 26.0539 34.872C26.2872 34.4893 26.4039 34.004 26.4039 33.416C26.4039 32.8373 26.2872 32.3567 26.0539 31.974C25.8299 31.5913 25.5406 31.316 25.1859 31.148C24.8406 30.9707 24.4766 30.882 24.0939 30.882C23.7019 30.882 23.3286 30.9707 22.9739 31.148C22.6286 31.316 22.3439 31.5913 22.1199 31.974C21.8959 32.3567 21.7839 32.8373 21.7839 33.416C21.7839 34.004 21.8959 34.4893 22.1199 34.872C22.3439 35.2547 22.6286 35.5347 22.9739 35.712C23.3286 35.8893 23.7019 35.978 24.0939 35.978ZM30.0915 37.07C29.9141 37.07 29.7648 37.0093 29.6435 36.888C29.5221 36.7667 29.4615 36.6173 29.4615 36.44V30.434C29.4615 30.2567 29.5221 30.1073 29.6435 29.986C29.7648 29.8553 29.9141 29.79 30.0915 29.79C30.2688 29.79 30.4181 29.8553 30.5395 29.986C30.6701 30.1073 30.7355 30.2567 30.7355 30.434V31.008C30.9968 30.6347 31.3095 30.3267 31.6735 30.084C32.0468 29.8413 32.5275 29.72 33.1155 29.72C33.6381 29.72 34.0861 29.86 34.4595 30.14C34.8328 30.42 35.0988 30.7607 35.2575 31.162C35.8361 30.2007 36.6948 29.72 37.8335 29.72C38.3561 29.72 38.7901 29.8507 39.1355 30.112C39.4901 30.3733 39.7515 30.7093 39.9195 31.12C40.0875 31.5307 40.1715 31.96 40.1715 32.408V36.44C40.1715 36.6173 40.1061 36.7667 39.9755 36.888C39.8541 37.0093 39.7048 37.07 39.5275 37.07C39.3501 37.07 39.2008 37.0093 39.0795 36.888C38.9581 36.7667 38.8975 36.6173 38.8975 36.44V32.66C38.8975 32.0533 38.7901 31.61 38.5755 31.33C38.3608 31.0407 37.9921 30.896 37.4695 30.896C36.9935 30.896 36.5968 31.022 36.2795 31.274C35.9715 31.5167 35.6961 31.8387 35.4535 32.24V36.44C35.4535 36.6173 35.3881 36.7667 35.2575 36.888C35.1361 37.0093 34.9868 37.07 34.8095 37.07C34.6321 37.07 34.4828 37.0093 34.3615 36.888C34.2401 36.7667 34.1795 36.6173 34.1795 36.44V32.66C34.1795 32.0533 34.0721 31.61 33.8575 31.33C33.6428 31.0407 33.2741 30.896 32.7515 30.896C32.2755 30.896 31.8788 31.022 31.5615 31.274C31.2535 31.5167 30.9781 31.8387 30.7355 32.24V36.44C30.7355 36.6173 30.6701 36.7667 30.5395 36.888C30.4181 37.0093 30.2688 37.07 30.0915 37.07ZM45.505 37.14C44.3664 37.14 43.475 36.818 42.831 36.174C42.1964 35.5207 41.879 34.606 41.879 33.43C41.879 32.7673 42.0004 32.156 42.243 31.596C42.4857 31.036 42.859 30.5833 43.363 30.238C43.867 29.8927 44.4877 29.72 45.225 29.72C45.9157 29.72 46.513 29.8833 47.017 30.21C47.521 30.5273 47.9037 30.9567 48.165 31.498C48.4264 32.03 48.557 32.6133 48.557 33.248C48.557 33.4253 48.4964 33.5747 48.375 33.696C48.263 33.8173 48.109 33.878 47.913 33.878H43.167C43.2417 34.5313 43.4844 35.04 43.895 35.404C44.3057 35.768 44.8797 35.95 45.617 35.95C46.009 35.95 46.3497 35.9127 46.639 35.838C46.9377 35.7633 47.227 35.656 47.507 35.516C47.5817 35.4787 47.6657 35.46 47.759 35.46C47.9084 35.46 48.039 35.5113 48.151 35.614C48.263 35.7167 48.319 35.8473 48.319 36.006C48.319 36.2113 48.1977 36.384 47.955 36.524C47.591 36.7293 47.2317 36.8833 46.877 36.986C46.5224 37.0887 46.065 37.14 45.505 37.14ZM47.297 32.842C47.269 32.3847 47.1477 32.002 46.933 31.694C46.7277 31.386 46.471 31.162 46.163 31.022C45.855 30.8727 45.5424 30.798 45.225 30.798C44.9077 30.798 44.595 30.8727 44.287 31.022C43.979 31.162 43.7224 31.386 43.517 31.694C43.3117 32.002 43.195 32.3847 43.167 32.842H47.297ZM50.8727 37.07C50.6954 37.07 50.5461 37.0093 50.4247 36.888C50.3034 36.7667 50.2427 36.6173 50.2427 36.44V30.434C50.2427 30.2567 50.3034 30.1073 50.4247 29.986C50.5461 29.8553 50.6954 29.79 50.8727 29.79C51.0501 29.79 51.1994 29.8553 51.3207 29.986C51.4514 30.1073 51.5167 30.2567 51.5167 30.434V31.008C51.8714 30.616 52.2541 30.3033 52.6647 30.07C53.0754 29.8367 53.5607 29.72 54.1207 29.72C54.6341 29.72 55.0774 29.8413 55.4507 30.084C55.8334 30.3267 56.1227 30.658 56.3187 31.078C56.5241 31.498 56.6267 31.96 56.6267 32.464V36.44C56.6267 36.6173 56.5614 36.7667 56.4307 36.888C56.3094 37.0093 56.1601 37.07 55.9827 37.07C55.8054 37.07 55.6561 37.0093 55.5347 36.888C55.4134 36.7667 55.3527 36.6173 55.3527 36.44V32.604C55.3527 31.4653 54.8394 30.896 53.8127 30.896C53.3461 30.896 52.9261 31.0173 52.5527 31.26C52.1887 31.5027 51.8434 31.8293 51.5167 32.24V36.44C51.5167 36.6173 51.4514 36.7667 51.3207 36.888C51.1994 37.0093 51.0501 37.07 50.8727 37.07ZM61.0739 37.14C59.7112 37.14 59.0299 36.524 59.0299 35.292V30.952H58.0359C57.9612 30.952 57.8959 30.9287 57.8399 30.882C57.7932 30.826 57.7699 30.7607 57.7699 30.686C57.7699 30.5927 57.8119 30.5133 57.8959 30.448L59.7999 28.586C59.8839 28.502 59.9632 28.46 60.0379 28.46C60.1126 28.46 60.1732 28.488 60.2199 28.544C60.2759 28.6 60.3039 28.6653 60.3039 28.74V29.86H61.8859C62.0446 29.86 62.1752 29.9113 62.2779 30.014C62.3806 30.1167 62.4319 30.2473 62.4319 30.406C62.4319 30.5553 62.3806 30.686 62.2779 30.798C62.1752 30.9007 62.0446 30.952 61.8859 30.952H60.3039V35.18C60.3039 35.544 60.3879 35.7773 60.5559 35.88C60.7332 35.9733 60.9526 36.02 61.2139 36.02C61.4006 36.02 61.5872 35.992 61.7739 35.936C61.8112 35.9267 61.8486 35.9173 61.8859 35.908C61.9326 35.8987 61.9886 35.894 62.0539 35.894C62.1846 35.894 62.3012 35.9453 62.4039 36.048C62.5066 36.1413 62.5579 36.258 62.5579 36.398C62.5579 36.6127 62.4506 36.776 62.2359 36.888C61.8719 37.056 61.4846 37.14 61.0739 37.14ZM65.7756 37.14C65.3649 37.14 64.9823 37.056 64.6276 36.888C64.2823 36.72 64.0069 36.4773 63.8016 36.16C63.5963 35.8333 63.4936 35.46 63.4936 35.04C63.4936 34.3493 63.7643 33.7987 64.3056 33.388C64.8563 32.9773 65.6589 32.772 66.7136 32.772H68.4076V32.66C68.4076 32.044 68.2536 31.6007 67.9456 31.33C67.6469 31.0593 67.1756 30.924 66.5316 30.924C66.1769 30.924 65.8596 30.952 65.5796 31.008C65.3089 31.064 65.0056 31.148 64.6696 31.26C64.5949 31.2787 64.5343 31.288 64.4876 31.288C64.3476 31.288 64.2263 31.2367 64.1236 31.134C64.0209 31.0313 63.9696 30.9053 63.9696 30.756C63.9696 30.504 64.0909 30.3267 64.3336 30.224C65.1269 29.888 65.9343 29.72 66.7556 29.72C67.3996 29.72 67.9409 29.8507 68.3796 30.112C68.8276 30.3733 69.1543 30.714 69.3596 31.134C69.5743 31.5447 69.6816 31.9927 69.6816 32.478V36.44C69.6816 36.6173 69.6163 36.7667 69.4856 36.888C69.3643 37.0093 69.2149 37.07 69.0376 37.07C68.8603 37.07 68.7109 37.0093 68.5896 36.888C68.4683 36.7667 68.4076 36.6173 68.4076 36.44V36.076C67.7169 36.7853 66.8396 37.14 65.7756 37.14ZM66.2516 36.02C66.6623 36.02 67.0589 35.922 67.4416 35.726C67.8243 35.5207 68.1463 35.2687 68.4076 34.97V33.794H66.8816C65.4723 33.794 64.7676 34.1627 64.7676 34.9C64.7676 35.236 64.8796 35.5067 65.1036 35.712C65.3369 35.9173 65.7196 36.02 66.2516 36.02ZM66.7556 29.062C66.6436 29.062 66.5503 29.0293 66.4756 28.964C66.4103 28.8893 66.3776 28.796 66.3776 28.684C66.3776 28.6 66.4103 28.5113 66.4756 28.418L67.1896 27.158C67.2829 26.9807 67.4369 26.892 67.6516 26.892C67.8009 26.892 67.9223 26.9387 68.0156 27.032C68.1183 27.1253 68.1696 27.2513 68.1696 27.41C68.1696 27.5407 68.1229 27.6573 68.0296 27.76L67.0636 28.908C66.9796 29.0107 66.8769 29.062 66.7556 29.062ZM72.4469 37.07C72.2696 37.07 72.1203 37.0093 71.9989 36.888C71.8776 36.7667 71.8169 36.6173 71.8169 36.44V30.434C71.8169 30.2567 71.8776 30.1073 71.9989 29.986C72.1203 29.8553 72.2696 29.79 72.4469 29.79C72.6243 29.79 72.7736 29.8553 72.8949 29.986C73.0256 30.1073 73.0909 30.2567 73.0909 30.434V31.036C73.7443 30.1587 74.4769 29.72 75.2889 29.72H75.3589C75.5363 29.72 75.6809 29.7807 75.7929 29.902C75.9143 30.0233 75.9749 30.1727 75.9749 30.35C75.9749 30.5273 75.9143 30.672 75.7929 30.784C75.6716 30.896 75.5176 30.952 75.3309 30.952H75.2609C74.8129 30.952 74.4023 31.064 74.0289 31.288C73.6556 31.5027 73.3429 31.8013 73.0909 32.184V36.44C73.0909 36.6173 73.0256 36.7667 72.8949 36.888C72.7736 37.0093 72.6243 37.07 72.4469 37.07ZM77.7783 28.404C77.5823 28.404 77.4143 28.334 77.2743 28.194C77.1343 28.054 77.0643 27.886 77.0643 27.69V27.634C77.0643 27.438 77.1343 27.27 77.2743 27.13C77.4143 26.99 77.5823 26.92 77.7783 26.92H77.8623C78.0583 26.92 78.2263 26.99 78.3663 27.13C78.5063 27.27 78.5763 27.438 78.5763 27.634V27.69C78.5763 27.886 78.5063 28.054 78.3663 28.194C78.2263 28.334 78.0583 28.404 77.8623 28.404H77.7783ZM77.8063 37.07C77.629 37.07 77.4796 37.0093 77.3583 36.888C77.237 36.7667 77.1763 36.6173 77.1763 36.44V30.434C77.1763 30.2567 77.237 30.1073 77.3583 29.986C77.4796 29.8553 77.629 29.79 77.8063 29.79C77.993 29.79 78.147 29.8507 78.2683 29.972C78.3896 30.0933 78.4503 30.2473 78.4503 30.434V36.44C78.4503 36.6173 78.385 36.7667 78.2543 36.888C78.133 37.0093 77.9836 37.07 77.8063 37.07ZM83.8126 37.14C83.094 37.14 82.464 36.986 81.9226 36.678C81.3813 36.37 80.9613 35.936 80.6626 35.376C80.3733 34.8067 80.2286 34.158 80.2286 33.43C80.2286 32.702 80.3733 32.058 80.6626 31.498C80.9613 30.9287 81.3813 30.49 81.9226 30.182C82.464 29.874 83.094 29.72 83.8126 29.72C84.522 29.72 85.1473 29.874 85.6886 30.182C86.23 30.49 86.65 30.9287 86.9486 31.498C87.2473 32.058 87.3966 32.702 87.3966 33.43C87.3966 34.158 87.2473 34.8067 86.9486 35.376C86.65 35.936 86.23 36.37 85.6886 36.678C85.1473 36.986 84.522 37.14 83.8126 37.14ZM83.8126 35.978C84.1953 35.978 84.5593 35.8893 84.9046 35.712C85.2593 35.5347 85.5486 35.2547 85.7726 34.872C86.006 34.4893 86.1226 34.004 86.1226 33.416C86.1226 32.8373 86.006 32.3567 85.7726 31.974C85.5486 31.5913 85.2593 31.316 84.9046 31.148C84.5593 30.9707 84.1953 30.882 83.8126 30.882C83.4206 30.882 83.0473 30.9707 82.6926 31.148C82.3473 31.316 82.0626 31.5913 81.8386 31.974C81.6146 32.3567 81.5026 32.8373 81.5026 33.416C81.5026 34.004 81.6146 34.4893 81.8386 34.872C82.0626 35.2547 82.3473 35.5347 82.6926 35.712C83.0473 35.8893 83.4206 35.978 83.8126 35.978ZM91.4902 37.14C90.5569 37.14 89.7076 36.93 88.9422 36.51C88.7836 36.398 88.7042 36.244 88.7042 36.048C88.7042 35.8987 88.7556 35.768 88.8582 35.656C88.9609 35.544 89.0916 35.488 89.2502 35.488C89.3342 35.488 89.4182 35.5067 89.5022 35.544C89.8009 35.6747 90.0996 35.7773 90.3982 35.852C90.6969 35.9267 91.0329 35.964 91.4062 35.964C92.4422 35.964 92.9602 35.6327 92.9602 34.97C92.9602 34.7553 92.8389 34.592 92.5962 34.48C92.3629 34.368 91.9756 34.242 91.4342 34.102C90.8836 33.9713 90.4262 33.836 90.0622 33.696C89.7076 33.556 89.3996 33.346 89.1382 33.066C88.8862 32.7767 88.7602 32.3987 88.7602 31.932C88.7602 31.2787 88.9936 30.7467 89.4602 30.336C89.9362 29.9253 90.6129 29.72 91.4902 29.72C92.2089 29.72 92.8856 29.8367 93.5202 30.07C93.6509 30.1073 93.7489 30.1773 93.8142 30.28C93.8889 30.3827 93.9262 30.49 93.9262 30.602C93.9262 30.7513 93.8702 30.882 93.7582 30.994C93.6556 31.106 93.5249 31.162 93.3662 31.162C93.3196 31.162 93.2589 31.1527 93.1842 31.134C92.6429 30.966 92.1109 30.882 91.5882 30.882C91.0842 30.882 90.6876 30.9753 90.3982 31.162C90.1182 31.3393 89.9782 31.5727 89.9782 31.862C89.9782 32.142 90.1089 32.3473 90.3702 32.478C90.6316 32.6087 91.0376 32.7347 91.5882 32.856C92.1389 32.996 92.5869 33.136 92.9322 33.276C93.2776 33.4067 93.5716 33.6167 93.8142 33.906C94.0662 34.1953 94.1922 34.5827 94.1922 35.068C94.1922 35.6653 93.9542 36.16 93.4782 36.552C93.0116 36.944 92.3489 37.14 91.4902 37.14Z" fill="#828282"/>
<path d="M20.25 10.5C20.25 4.83908 24.8391 0.25 30.5 0.25H47.75V20.75H30.5C24.8391 20.75 20.25 16.1609 20.25 10.5Z" fill="white"/>
<mask id="mask0_1051_3005" style="mask-type:alpha" maskUnits="userSpaceOnUse" x="27" y="2" width="16" height="17">
<rect x="27" y="2.5" width="16" height="16" fill="#D9D9D9"/>
</mask>
<g mask="url(#mask0_1051_3005)">
<path d="M31.6665 11.8333L34.9998 8.5L38.3332 11.8333H31.6665Z" fill="#1C1B1F"/>
</g>
<path d="M20.25 10.5C20.25 4.83908 24.8391 0.25 30.5 0.25H47.75V20.75H30.5C24.8391 20.75 20.25 16.1609 20.25 10.5Z" stroke="#828282" stroke-width="0.5"/>
<path d="M74.75 10.5C74.75 4.83908 70.1609 0.25 64.5 0.25H47.25V20.75H64.5C70.1609 20.75 74.75 16.1609 74.75 10.5Z" fill="white"/>
<path d="M57.124 14C56.98 14 56.86 13.952 56.764 13.856C56.668 13.76 56.62 13.64 56.62 13.496C56.62 13.352 56.668 13.232 56.764 13.136C56.86 13.032 56.98 12.98 57.124 12.98H58.552V6.896L57.328 7.496C57.216 7.544 57.124 7.568 57.052 7.568C56.9 7.568 56.776 7.52 56.68 7.424C56.584 7.328 56.536 7.204 56.536 7.052C56.536 6.828 56.64 6.664 56.848 6.56L58.48 5.708C58.592 5.652 58.704 5.624 58.816 5.624H59.068C59.228 5.624 59.364 5.68 59.476 5.792C59.588 5.904 59.644 6.04 59.644 6.2V12.98H60.832C60.976 12.98 61.096 13.032 61.192 13.136C61.296 13.232 61.348 13.352 61.348 13.496C61.348 13.64 61.296 13.76 61.192 13.856C61.096 13.952 60.976 14 60.832 14H57.124ZM66.0992 14.12C65.1232 14.12 64.2712 13.888 63.5432 13.424C63.4632 13.368 63.4032 13.312 63.3632 13.256C63.3232 13.192 63.3032 13.104 63.3032 12.992C63.3032 12.848 63.3472 12.728 63.4352 12.632C63.5232 12.528 63.6392 12.476 63.7832 12.476C63.8712 12.476 63.9552 12.496 64.0352 12.536C64.6672 12.872 65.3072 13.04 65.9552 13.04C66.7152 13.04 67.2952 12.912 67.6952 12.656C68.0952 12.4 68.2952 11.964 68.2952 11.348C68.2952 10.852 68.1272 10.46 67.7912 10.172C67.4632 9.884 67.0112 9.74 66.4352 9.74C65.7712 9.74 65.1552 9.912 64.5872 10.256C64.5712 10.264 64.5232 10.292 64.4432 10.34C64.3712 10.38 64.2792 10.4 64.1672 10.4C63.9432 10.4 63.7552 10.336 63.6032 10.208C63.4512 10.08 63.3752 9.912 63.3752 9.704C63.3752 9.608 63.3832 9.512 63.3992 9.416L63.9392 6.224C63.9632 6.04 64.0312 5.896 64.1432 5.792C64.2632 5.68 64.4072 5.624 64.5752 5.624H68.4272C68.5712 5.624 68.6912 5.676 68.7872 5.78C68.8912 5.876 68.9432 5.996 68.9432 6.14C68.9432 6.284 68.8912 6.404 68.7872 6.5C68.6912 6.596 68.5712 6.644 68.4272 6.644H64.9472L64.5632 9.188C65.1712 8.86 65.8472 8.696 66.5912 8.696C67.1832 8.696 67.6872 8.812 68.1032 9.044C68.5272 9.276 68.8472 9.596 69.0632 10.004C69.2792 10.412 69.3872 10.88 69.3872 11.408C69.3872 12.216 69.1112 12.872 68.5592 13.376C68.0072 13.872 67.1872 14.12 66.0992 14.12Z" fill="black"/>
<path d="M74.75 10.5C74.75 4.83908 70.1609 0.25 64.5 0.25H47.25V20.75H64.5C70.1609 20.75 74.75 16.1609 74.75 10.5Z" stroke="#828282" stroke-width="0.5"/>
</svg>
