<svg width="104" height="38" viewBox="0 0 104 38" fill="none" xmlns="http://www.w3.org/2000/svg">
<path d="M4.662 34.14C2.10467 34.14 0.826 32.4693 0.826 29.128C0.826 28.316 0.956667 27.5273 1.218 26.762C1.48867 25.9967 1.92733 25.362 2.534 24.858C3.14067 24.3447 3.92467 24.088 4.886 24.088C5.40867 24.088 5.866 24.144 6.258 24.256C6.65 24.368 7.01867 24.5127 7.364 24.69C7.448 24.7367 7.518 24.8067 7.574 24.9C7.63 24.9933 7.658 25.0913 7.658 25.194C7.658 25.3433 7.602 25.4787 7.49 25.6C7.38733 25.712 7.252 25.768 7.084 25.768C7 25.768 6.92067 25.754 6.846 25.726C6.26733 25.4553 5.64667 25.32 4.984 25.32C3.92933 25.32 3.18733 25.6887 2.758 26.426C2.32867 27.1633 2.09067 27.9893 2.044 28.904C2.324 28.5493 2.69733 28.2553 3.164 28.022C3.63067 27.7887 4.214 27.672 4.914 27.672C5.54867 27.672 6.104 27.8073 6.58 28.078C7.06533 28.3487 7.44333 28.7313 7.714 29.226C7.98467 29.7207 8.12 30.2993 8.12 30.962C8.12 31.55 7.98 32.0867 7.7 32.572C7.42 33.0573 7.01867 33.44 6.496 33.72C5.97333 34 5.362 34.14 4.662 34.14ZM4.676 32.95C5.10533 32.95 5.48333 32.8613 5.81 32.684C6.146 32.4973 6.40267 32.25 6.58 31.942C6.75733 31.634 6.846 31.298 6.846 30.934C6.846 30.2993 6.66867 29.7907 6.314 29.408C5.95933 29.0253 5.44133 28.834 4.76 28.834C3.54667 28.834 2.66467 29.3473 2.114 30.374C2.366 32.0913 3.22 32.95 4.676 32.95ZM10.443 34C10.2283 34 10.051 33.9347 9.91102 33.804C9.77102 33.664 9.70102 33.4867 9.70102 33.272C9.70102 32.7867 9.84102 32.3387 10.121 31.928C10.4103 31.5173 10.7557 31.158 11.157 30.85C11.5677 30.5327 12.1043 30.1593 12.767 29.73C13.3363 29.366 13.789 29.058 14.125 28.806C14.461 28.554 14.741 28.2787 14.965 27.98C15.189 27.6813 15.301 27.364 15.301 27.028C15.301 26.496 15.1237 26.076 14.769 25.768C14.4237 25.4507 13.8637 25.292 13.089 25.292C12.249 25.292 11.451 25.46 10.695 25.796C10.6017 25.8427 10.513 25.866 10.429 25.866C10.2797 25.866 10.1537 25.8147 10.051 25.712C9.94835 25.6093 9.89702 25.4787 9.89702 25.32C9.89702 25.0867 9.99968 24.914 10.205 24.802C11.157 24.326 12.193 24.088 13.313 24.088C13.9103 24.088 14.4517 24.2093 14.937 24.452C15.4317 24.6853 15.819 25.0167 16.099 25.446C16.3883 25.8753 16.533 26.37 16.533 26.93C16.533 27.4807 16.3697 27.994 16.043 28.47C15.7257 28.9367 15.343 29.3473 14.895 29.702C14.447 30.0567 13.8637 30.4673 13.145 30.934C12.4917 31.3727 11.997 31.7273 11.661 31.998C11.3343 32.2593 11.1057 32.53 10.975 32.81H15.847C16.015 32.81 16.155 32.8707 16.267 32.992C16.3883 33.104 16.449 33.244 16.449 33.412C16.449 33.58 16.3883 33.72 16.267 33.832C16.155 33.944 16.015 34 15.847 34H10.443ZM25.6288 34.14C24.9568 34.14 24.3361 33.9907 23.7668 33.692C23.1974 33.3933 22.7401 32.964 22.3948 32.404C22.0588 31.844 21.8908 31.186 21.8908 30.43C21.8908 29.674 22.0588 29.016 22.3948 28.456C22.7401 27.896 23.1974 27.4667 23.7668 27.168C24.3361 26.8693 24.9568 26.72 25.6288 26.72C26.1234 26.72 26.5481 26.7853 26.9028 26.916C27.2668 27.0373 27.6028 27.196 27.9108 27.392C28.0974 27.5133 28.1908 27.6767 28.1908 27.882C28.1908 28.022 28.1348 28.1527 28.0228 28.274C27.9201 28.386 27.7988 28.442 27.6588 28.442C27.5561 28.442 27.4534 28.414 27.3508 28.358C27.0428 28.1993 26.7768 28.0873 26.5528 28.022C26.3381 27.9473 26.0674 27.91 25.7408 27.91C24.9381 27.91 24.3081 28.1433 23.8508 28.61C23.3934 29.0673 23.1648 29.674 23.1648 30.43C23.1648 31.186 23.3934 31.7973 23.8508 32.264C24.3081 32.7213 24.9381 32.95 25.7408 32.95C26.0674 32.95 26.3381 32.9173 26.5528 32.852C26.7768 32.7773 27.0428 32.6607 27.3508 32.502C27.4534 32.446 27.5561 32.418 27.6588 32.418C27.7988 32.418 27.9201 32.4787 28.0228 32.6C28.1348 32.712 28.1908 32.838 28.1908 32.978C28.1908 33.1833 28.0974 33.3467 27.9108 33.468C27.6028 33.664 27.2668 33.8273 26.9028 33.958C26.5481 34.0793 26.1234 34.14 25.6288 34.14ZM32.8849 34.14C32.1662 34.14 31.5362 33.986 30.9949 33.678C30.4536 33.37 30.0336 32.936 29.7349 32.376C29.4456 31.8067 29.3009 31.158 29.3009 30.43C29.3009 29.702 29.4456 29.058 29.7349 28.498C30.0336 27.9287 30.4536 27.49 30.9949 27.182C31.5362 26.874 32.1662 26.72 32.8849 26.72C33.5942 26.72 34.2196 26.874 34.7609 27.182C35.3022 27.49 35.7222 27.9287 36.0209 28.498C36.3196 29.058 36.4689 29.702 36.4689 30.43C36.4689 31.158 36.3196 31.8067 36.0209 32.376C35.7222 32.936 35.3022 33.37 34.7609 33.678C34.2196 33.986 33.5942 34.14 32.8849 34.14ZM32.8849 32.978C33.2676 32.978 33.6316 32.8893 33.9769 32.712C34.3316 32.5347 34.6209 32.2547 34.8449 31.872C35.0782 31.4893 35.1949 31.004 35.1949 30.416C35.1949 29.8373 35.0782 29.3567 34.8449 28.974C34.6209 28.5913 34.3316 28.316 33.9769 28.148C33.6316 27.9707 33.2676 27.882 32.8849 27.882C32.4929 27.882 32.1196 27.9707 31.7649 28.148C31.4196 28.316 31.1349 28.5913 30.9109 28.974C30.6869 29.3567 30.5749 29.8373 30.5749 30.416C30.5749 31.004 30.6869 31.4893 30.9109 31.872C31.1349 32.2547 31.4196 32.5347 31.7649 32.712C32.1196 32.8893 32.4929 32.978 32.8849 32.978ZM38.8825 34.07C38.7052 34.07 38.5558 34.0093 38.4345 33.888C38.3132 33.7667 38.2525 33.6173 38.2525 33.44V27.434C38.2525 27.2567 38.3132 27.1073 38.4345 26.986C38.5558 26.8553 38.7052 26.79 38.8825 26.79C39.0598 26.79 39.2092 26.8553 39.3305 26.986C39.4612 27.1073 39.5265 27.2567 39.5265 27.434V28.008C39.7878 27.6347 40.1005 27.3267 40.4645 27.084C40.8378 26.8413 41.3185 26.72 41.9065 26.72C42.4292 26.72 42.8772 26.86 43.2505 27.14C43.6238 27.42 43.8898 27.7607 44.0485 28.162C44.6272 27.2007 45.4858 26.72 46.6245 26.72C47.1472 26.72 47.5812 26.8507 47.9265 27.112C48.2812 27.3733 48.5425 27.7093 48.7105 28.12C48.8785 28.5307 48.9625 28.96 48.9625 29.408V33.44C48.9625 33.6173 48.8972 33.7667 48.7665 33.888C48.6452 34.0093 48.4958 34.07 48.3185 34.07C48.1412 34.07 47.9918 34.0093 47.8705 33.888C47.7492 33.7667 47.6885 33.6173 47.6885 33.44V29.66C47.6885 29.0533 47.5812 28.61 47.3665 28.33C47.1518 28.0407 46.7832 27.896 46.2605 27.896C45.7845 27.896 45.3878 28.022 45.0705 28.274C44.7625 28.5167 44.4872 28.8387 44.2445 29.24V33.44C44.2445 33.6173 44.1792 33.7667 44.0485 33.888C43.9272 34.0093 43.7778 34.07 43.6005 34.07C43.4232 34.07 43.2738 34.0093 43.1525 33.888C43.0312 33.7667 42.9705 33.6173 42.9705 33.44V29.66C42.9705 29.0533 42.8632 28.61 42.6485 28.33C42.4338 28.0407 42.0652 27.896 41.5425 27.896C41.0665 27.896 40.6698 28.022 40.3525 28.274C40.0445 28.5167 39.7692 28.8387 39.5265 29.24V33.44C39.5265 33.6173 39.4612 33.7667 39.3305 33.888C39.2092 34.0093 39.0598 34.07 38.8825 34.07ZM54.296 34.14C53.1574 34.14 52.266 33.818 51.622 33.174C50.9874 32.5207 50.67 31.606 50.67 30.43C50.67 29.7673 50.7914 29.156 51.034 28.596C51.2767 28.036 51.65 27.5833 52.154 27.238C52.658 26.8927 53.2787 26.72 54.016 26.72C54.7067 26.72 55.304 26.8833 55.808 27.21C56.312 27.5273 56.6947 27.9567 56.956 28.498C57.2174 29.03 57.348 29.6133 57.348 30.248C57.348 30.4253 57.2874 30.5747 57.166 30.696C57.054 30.8173 56.9 30.878 56.704 30.878H51.958C52.0327 31.5313 52.2754 32.04 52.686 32.404C53.0967 32.768 53.6707 32.95 54.408 32.95C54.8 32.95 55.1407 32.9127 55.43 32.838C55.7287 32.7633 56.018 32.656 56.298 32.516C56.3727 32.4787 56.4567 32.46 56.55 32.46C56.6994 32.46 56.83 32.5113 56.942 32.614C57.054 32.7167 57.11 32.8473 57.11 33.006C57.11 33.2113 56.9887 33.384 56.746 33.524C56.382 33.7293 56.0227 33.8833 55.668 33.986C55.3134 34.0887 54.856 34.14 54.296 34.14ZM56.088 29.842C56.06 29.3847 55.9387 29.002 55.724 28.694C55.5187 28.386 55.262 28.162 54.954 28.022C54.646 27.8727 54.3334 27.798 54.016 27.798C53.6987 27.798 53.386 27.8727 53.078 28.022C52.77 28.162 52.5134 28.386 52.308 28.694C52.1027 29.002 51.986 29.3847 51.958 29.842H56.088ZM59.6637 34.07C59.4864 34.07 59.3371 34.0093 59.2157 33.888C59.0944 33.7667 59.0337 33.6173 59.0337 33.44V27.434C59.0337 27.2567 59.0944 27.1073 59.2157 26.986C59.3371 26.8553 59.4864 26.79 59.6637 26.79C59.8411 26.79 59.9904 26.8553 60.1117 26.986C60.2424 27.1073 60.3077 27.2567 60.3077 27.434V28.008C60.6624 27.616 61.0451 27.3033 61.4557 27.07C61.8664 26.8367 62.3517 26.72 62.9117 26.72C63.4251 26.72 63.8684 26.8413 64.2417 27.084C64.6244 27.3267 64.9137 27.658 65.1097 28.078C65.3151 28.498 65.4177 28.96 65.4177 29.464V33.44C65.4177 33.6173 65.3524 33.7667 65.2217 33.888C65.1004 34.0093 64.9511 34.07 64.7737 34.07C64.5964 34.07 64.4471 34.0093 64.3257 33.888C64.2044 33.7667 64.1437 33.6173 64.1437 33.44V29.604C64.1437 28.4653 63.6304 27.896 62.6037 27.896C62.1371 27.896 61.7171 28.0173 61.3437 28.26C60.9797 28.5027 60.6344 28.8293 60.3077 29.24V33.44C60.3077 33.6173 60.2424 33.7667 60.1117 33.888C59.9904 34.0093 59.8411 34.07 59.6637 34.07ZM69.8649 34.14C68.5023 34.14 67.8209 33.524 67.8209 32.292V27.952H66.8269C66.7523 27.952 66.6869 27.9287 66.6309 27.882C66.5843 27.826 66.5609 27.7607 66.5609 27.686C66.5609 27.5927 66.6029 27.5133 66.6869 27.448L68.5909 25.586C68.6749 25.502 68.7543 25.46 68.8289 25.46C68.9036 25.46 68.9643 25.488 69.0109 25.544C69.0669 25.6 69.0949 25.6653 69.0949 25.74V26.86H70.6769C70.8356 26.86 70.9663 26.9113 71.0689 27.014C71.1716 27.1167 71.2229 27.2473 71.2229 27.406C71.2229 27.5553 71.1716 27.686 71.0689 27.798C70.9663 27.9007 70.8356 27.952 70.6769 27.952H69.0949V32.18C69.0949 32.544 69.1789 32.7773 69.3469 32.88C69.5243 32.9733 69.7436 33.02 70.0049 33.02C70.1916 33.02 70.3783 32.992 70.5649 32.936C70.6023 32.9267 70.6396 32.9173 70.6769 32.908C70.7236 32.8987 70.7796 32.894 70.8449 32.894C70.9756 32.894 71.0923 32.9453 71.1949 33.048C71.2976 33.1413 71.3489 33.258 71.3489 33.398C71.3489 33.6127 71.2416 33.776 71.0269 33.888C70.6629 34.056 70.2756 34.14 69.8649 34.14ZM74.5666 34.14C74.156 34.14 73.7733 34.056 73.4186 33.888C73.0733 33.72 72.798 33.4773 72.5926 33.16C72.3873 32.8333 72.2846 32.46 72.2846 32.04C72.2846 31.3493 72.5553 30.7987 73.0966 30.388C73.6473 29.9773 74.45 29.772 75.5046 29.772H77.1986V29.66C77.1986 29.044 77.0446 28.6007 76.7366 28.33C76.438 28.0593 75.9666 27.924 75.3226 27.924C74.968 27.924 74.6506 27.952 74.3706 28.008C74.1 28.064 73.7966 28.148 73.4606 28.26C73.386 28.2787 73.3253 28.288 73.2786 28.288C73.1386 28.288 73.0173 28.2367 72.9146 28.134C72.812 28.0313 72.7606 27.9053 72.7606 27.756C72.7606 27.504 72.882 27.3267 73.1246 27.224C73.918 26.888 74.7253 26.72 75.5466 26.72C76.1906 26.72 76.732 26.8507 77.1706 27.112C77.6186 27.3733 77.9453 27.714 78.1506 28.134C78.3653 28.5447 78.4726 28.9927 78.4726 29.478V33.44C78.4726 33.6173 78.4073 33.7667 78.2766 33.888C78.1553 34.0093 78.006 34.07 77.8286 34.07C77.6513 34.07 77.502 34.0093 77.3806 33.888C77.2593 33.7667 77.1986 33.6173 77.1986 33.44V33.076C76.508 33.7853 75.6306 34.14 74.5666 34.14ZM75.0426 33.02C75.4533 33.02 75.85 32.922 76.2326 32.726C76.6153 32.5207 76.9373 32.2687 77.1986 31.97V30.794H75.6726C74.2633 30.794 73.5586 31.1627 73.5586 31.9C73.5586 32.236 73.6706 32.5067 73.8946 32.712C74.128 32.9173 74.5106 33.02 75.0426 33.02ZM75.5466 26.062C75.4346 26.062 75.3413 26.0293 75.2666 25.964C75.2013 25.8893 75.1686 25.796 75.1686 25.684C75.1686 25.6 75.2013 25.5113 75.2666 25.418L75.9806 24.158C76.074 23.9807 76.228 23.892 76.4426 23.892C76.592 23.892 76.7133 23.9387 76.8066 24.032C76.9093 24.1253 76.9606 24.2513 76.9606 24.41C76.9606 24.5407 76.914 24.6573 76.8206 24.76L75.8546 25.908C75.7706 26.0107 75.668 26.062 75.5466 26.062ZM81.238 34.07C81.0606 34.07 80.9113 34.0093 80.79 33.888C80.6686 33.7667 80.608 33.6173 80.608 33.44V27.434C80.608 27.2567 80.6686 27.1073 80.79 26.986C80.9113 26.8553 81.0606 26.79 81.238 26.79C81.4153 26.79 81.5646 26.8553 81.686 26.986C81.8166 27.1073 81.882 27.2567 81.882 27.434V28.036C82.5353 27.1587 83.268 26.72 84.08 26.72H84.15C84.3273 26.72 84.472 26.7807 84.584 26.902C84.7053 27.0233 84.766 27.1727 84.766 27.35C84.766 27.5273 84.7053 27.672 84.584 27.784C84.4626 27.896 84.3086 27.952 84.122 27.952H84.052C83.604 27.952 83.1933 28.064 82.82 28.288C82.4466 28.5027 82.134 28.8013 81.882 29.184V33.44C81.882 33.6173 81.8166 33.7667 81.686 33.888C81.5646 34.0093 81.4153 34.07 81.238 34.07ZM86.5693 25.404C86.3733 25.404 86.2053 25.334 86.0653 25.194C85.9253 25.054 85.8553 24.886 85.8553 24.69V24.634C85.8553 24.438 85.9253 24.27 86.0653 24.13C86.2053 23.99 86.3733 23.92 86.5693 23.92H86.6533C86.8493 23.92 87.0173 23.99 87.1573 24.13C87.2973 24.27 87.3673 24.438 87.3673 24.634V24.69C87.3673 24.886 87.2973 25.054 87.1573 25.194C87.0173 25.334 86.8493 25.404 86.6533 25.404H86.5693ZM86.5973 34.07C86.42 34.07 86.2707 34.0093 86.1493 33.888C86.028 33.7667 85.9673 33.6173 85.9673 33.44V27.434C85.9673 27.2567 86.028 27.1073 86.1493 26.986C86.2707 26.8553 86.42 26.79 86.5973 26.79C86.784 26.79 86.938 26.8507 87.0593 26.972C87.1807 27.0933 87.2413 27.2473 87.2413 27.434V33.44C87.2413 33.6173 87.176 33.7667 87.0453 33.888C86.924 34.0093 86.7747 34.07 86.5973 34.07ZM92.6037 34.14C91.885 34.14 91.255 33.986 90.7137 33.678C90.1723 33.37 89.7523 32.936 89.4537 32.376C89.1643 31.8067 89.0197 31.158 89.0197 30.43C89.0197 29.702 89.1643 29.058 89.4537 28.498C89.7523 27.9287 90.1723 27.49 90.7137 27.182C91.255 26.874 91.885 26.72 92.6037 26.72C93.313 26.72 93.9383 26.874 94.4797 27.182C95.021 27.49 95.441 27.9287 95.7397 28.498C96.0383 29.058 96.1877 29.702 96.1877 30.43C96.1877 31.158 96.0383 31.8067 95.7397 32.376C95.441 32.936 95.021 33.37 94.4797 33.678C93.9383 33.986 93.313 34.14 92.6037 34.14ZM92.6037 32.978C92.9863 32.978 93.3503 32.8893 93.6957 32.712C94.0503 32.5347 94.3397 32.2547 94.5637 31.872C94.797 31.4893 94.9137 31.004 94.9137 30.416C94.9137 29.8373 94.797 29.3567 94.5637 28.974C94.3397 28.5913 94.0503 28.316 93.6957 28.148C93.3503 27.9707 92.9863 27.882 92.6037 27.882C92.2117 27.882 91.8383 27.9707 91.4837 28.148C91.1383 28.316 90.8537 28.5913 90.6297 28.974C90.4057 29.3567 90.2937 29.8373 90.2937 30.416C90.2937 31.004 90.4057 31.4893 90.6297 31.872C90.8537 32.2547 91.1383 32.5347 91.4837 32.712C91.8383 32.8893 92.2117 32.978 92.6037 32.978ZM100.281 34.14C99.3479 34.14 98.4986 33.93 97.7332 33.51C97.5746 33.398 97.4952 33.244 97.4952 33.048C97.4952 32.8987 97.5466 32.768 97.6492 32.656C97.7519 32.544 97.8826 32.488 98.0412 32.488C98.1252 32.488 98.2092 32.5067 98.2932 32.544C98.5919 32.6747 98.8906 32.7773 99.1892 32.852C99.4879 32.9267 99.8239 32.964 100.197 32.964C101.233 32.964 101.751 32.6327 101.751 31.97C101.751 31.7553 101.63 31.592 101.387 31.48C101.154 31.368 100.767 31.242 100.225 31.102C99.6746 30.9713 99.2172 30.836 98.8532 30.696C98.4986 30.556 98.1906 30.346 97.9292 30.066C97.6772 29.7767 97.5512 29.3987 97.5512 28.932C97.5512 28.2787 97.7846 27.7467 98.2512 27.336C98.7272 26.9253 99.4039 26.72 100.281 26.72C101 26.72 101.677 26.8367 102.311 27.07C102.442 27.1073 102.54 27.1773 102.605 27.28C102.68 27.3827 102.717 27.49 102.717 27.602C102.717 27.7513 102.661 27.882 102.549 27.994C102.447 28.106 102.316 28.162 102.157 28.162C102.111 28.162 102.05 28.1527 101.975 28.134C101.434 27.966 100.902 27.882 100.379 27.882C99.8752 27.882 99.4786 27.9753 99.1892 28.162C98.9092 28.3393 98.7692 28.5727 98.7692 28.862C98.7692 29.142 98.8999 29.3473 99.1612 29.478C99.4226 29.6087 99.8286 29.7347 100.379 29.856C100.93 29.996 101.378 30.136 101.723 30.276C102.069 30.4067 102.363 30.6167 102.605 30.906C102.857 31.1953 102.983 31.5827 102.983 32.068C102.983 32.6653 102.745 33.16 102.269 33.552C101.803 33.944 101.14 34.14 100.281 34.14Z" fill="#828282"/>
<path d="M30.5 0.25H47.75V20.75H30.5C24.8391 20.75 20.25 16.1609 20.25 10.5C20.25 4.83908 24.8391 0.25 30.5 0.25Z" fill="white"/>
<mask id="mask0_1066_3240" style="mask-type:alpha" maskUnits="userSpaceOnUse" x="27" y="2" width="16" height="17">
<rect x="27" y="2.5" width="16" height="16" fill="#D9D9D9"/>
</mask>
<g mask="url(#mask0_1066_3240)">
<path d="M31.6665 11.8333L34.9998 8.5L38.3332 11.8333H31.6665Z" fill="#1C1B1F"/>
</g>
<path d="M30.5 0.25H47.75V20.75H30.5C24.8391 20.75 20.25 16.1609 20.25 10.5C20.25 4.83908 24.8391 0.25 30.5 0.25Z" stroke="#828282" stroke-width="0.5"/>
<path d="M64.5 0.25H47.25V20.75H64.5C70.1609 20.75 74.75 16.1609 74.75 10.5C74.75 4.83908 70.1609 0.25 64.5 0.25Z" fill="white"/>
<path d="M56.416 14C56.232 14 56.08 13.944 55.96 13.832C55.84 13.712 55.78 13.56 55.78 13.376C55.78 12.96 55.9 12.576 56.14 12.224C56.388 11.872 56.684 11.564 57.028 11.3C57.38 11.028 57.84 10.708 58.408 10.34C58.896 10.028 59.284 9.764 59.572 9.548C59.86 9.332 60.1 9.096 60.292 8.84C60.484 8.584 60.58 8.312 60.58 8.024C60.58 7.568 60.428 7.208 60.124 6.944C59.828 6.672 59.348 6.536 58.684 6.536C57.964 6.536 57.28 6.68 56.632 6.968C56.552 7.008 56.476 7.028 56.404 7.028C56.276 7.028 56.168 6.984 56.08 6.896C55.992 6.808 55.948 6.696 55.948 6.56C55.948 6.36 56.036 6.212 56.212 6.116C57.028 5.708 57.916 5.504 58.876 5.504C59.388 5.504 59.852 5.608 60.268 5.816C60.692 6.016 61.024 6.3 61.264 6.668C61.512 7.036 61.636 7.46 61.636 7.94C61.636 8.412 61.496 8.852 61.216 9.26C60.944 9.66 60.616 10.012 60.232 10.316C59.848 10.62 59.348 10.972 58.732 11.372C58.172 11.748 57.748 12.052 57.46 12.284C57.18 12.508 56.984 12.74 56.872 12.98H61.048C61.192 12.98 61.312 13.032 61.408 13.136C61.512 13.232 61.564 13.352 61.564 13.496C61.564 13.64 61.512 13.76 61.408 13.856C61.312 13.952 61.192 14 61.048 14H56.416ZM63.9512 14C63.7672 14 63.6152 13.944 63.4952 13.832C63.3752 13.712 63.3152 13.56 63.3152 13.376C63.3152 12.96 63.4352 12.576 63.6752 12.224C63.9232 11.872 64.2192 11.564 64.5632 11.3C64.9152 11.028 65.3752 10.708 65.9432 10.34C66.4312 10.028 66.8192 9.764 67.1072 9.548C67.3952 9.332 67.6352 9.096 67.8272 8.84C68.0192 8.584 68.1152 8.312 68.1152 8.024C68.1152 7.568 67.9632 7.208 67.6592 6.944C67.3632 6.672 66.8832 6.536 66.2192 6.536C65.4992 6.536 64.8152 6.68 64.1672 6.968C64.0872 7.008 64.0112 7.028 63.9392 7.028C63.8112 7.028 63.7032 6.984 63.6152 6.896C63.5272 6.808 63.4832 6.696 63.4832 6.56C63.4832 6.36 63.5712 6.212 63.7472 6.116C64.5632 5.708 65.4512 5.504 66.4112 5.504C66.9232 5.504 67.3872 5.608 67.8032 5.816C68.2272 6.016 68.5592 6.3 68.7992 6.668C69.0472 7.036 69.1712 7.46 69.1712 7.94C69.1712 8.412 69.0312 8.852 68.7512 9.26C68.4792 9.66 68.1512 10.012 67.7672 10.316C67.3832 10.62 66.8832 10.972 66.2672 11.372C65.7072 11.748 65.2832 12.052 64.9952 12.284C64.7152 12.508 64.5192 12.74 64.4072 12.98H68.5832C68.7272 12.98 68.8472 13.032 68.9432 13.136C69.0472 13.232 69.0992 13.352 69.0992 13.496C69.0992 13.64 69.0472 13.76 68.9432 13.856C68.8472 13.952 68.7272 14 68.5832 14H63.9512Z" fill="black"/>
<path d="M64.5 0.25H47.25V20.75H64.5C70.1609 20.75 74.75 16.1609 74.75 10.5C74.75 4.83908 70.1609 0.25 64.5 0.25Z" stroke="#828282" stroke-width="0.5"/>
</svg>
