<svg width="95" height="38" viewBox="0 0 95 38" fill="none" xmlns="http://www.w3.org/2000/svg">
<path d="M3.22 34.07C3.04267 34.07 2.89333 34.0093 2.772 33.888C2.65067 33.7667 2.59 33.6173 2.59 33.44C2.59 33.328 2.618 33.216 2.674 33.104L6.524 25.446H1.442C1.274 25.446 1.12933 25.39 1.008 25.278C0.896 25.1567 0.84 25.012 0.84 24.844C0.84 24.676 0.896 24.5313 1.008 24.41C1.12933 24.2887 1.274 24.228 1.442 24.228H7.154C7.378 24.228 7.56467 24.298 7.714 24.438C7.86333 24.578 7.938 24.7553 7.938 24.97C7.938 25.1753 7.89133 25.3807 7.798 25.586L3.822 33.72C3.766 33.8227 3.682 33.9067 3.57 33.972C3.458 34.0373 3.34133 34.07 3.22 34.07ZM16.8377 34.14C16.1657 34.14 15.5451 33.9907 14.9757 33.692C14.4064 33.3933 13.9491 32.964 13.6037 32.404C13.2677 31.844 13.0997 31.186 13.0997 30.43C13.0997 29.674 13.2677 29.016 13.6037 28.456C13.9491 27.896 14.4064 27.4667 14.9757 27.168C15.5451 26.8693 16.1657 26.72 16.8377 26.72C17.3324 26.72 17.7571 26.7853 18.1117 26.916C18.4757 27.0373 18.8117 27.196 19.1197 27.392C19.3064 27.5133 19.3997 27.6767 19.3997 27.882C19.3997 28.022 19.3437 28.1527 19.2317 28.274C19.1291 28.386 19.0077 28.442 18.8677 28.442C18.7651 28.442 18.6624 28.414 18.5597 28.358C18.2517 28.1993 17.9857 28.0873 17.7617 28.022C17.5471 27.9473 17.2764 27.91 16.9497 27.91C16.1471 27.91 15.5171 28.1433 15.0597 28.61C14.6024 29.0673 14.3737 29.674 14.3737 30.43C14.3737 31.186 14.6024 31.7973 15.0597 32.264C15.5171 32.7213 16.1471 32.95 16.9497 32.95C17.2764 32.95 17.5471 32.9173 17.7617 32.852C17.9857 32.7773 18.2517 32.6607 18.5597 32.502C18.6624 32.446 18.7651 32.418 18.8677 32.418C19.0077 32.418 19.1291 32.4787 19.2317 32.6C19.3437 32.712 19.3997 32.838 19.3997 32.978C19.3997 33.1833 19.3064 33.3467 19.1197 33.468C18.8117 33.664 18.4757 33.8273 18.1117 33.958C17.7571 34.0793 17.3324 34.14 16.8377 34.14ZM24.0939 34.14C23.3752 34.14 22.7452 33.986 22.2039 33.678C21.6626 33.37 21.2426 32.936 20.9439 32.376C20.6546 31.8067 20.5099 31.158 20.5099 30.43C20.5099 29.702 20.6546 29.058 20.9439 28.498C21.2426 27.9287 21.6626 27.49 22.2039 27.182C22.7452 26.874 23.3752 26.72 24.0939 26.72C24.8032 26.72 25.4286 26.874 25.9699 27.182C26.5112 27.49 26.9312 27.9287 27.2299 28.498C27.5286 29.058 27.6779 29.702 27.6779 30.43C27.6779 31.158 27.5286 31.8067 27.2299 32.376C26.9312 32.936 26.5112 33.37 25.9699 33.678C25.4286 33.986 24.8032 34.14 24.0939 34.14ZM24.0939 32.978C24.4766 32.978 24.8406 32.8893 25.1859 32.712C25.5406 32.5347 25.8299 32.2547 26.0539 31.872C26.2872 31.4893 26.4039 31.004 26.4039 30.416C26.4039 29.8373 26.2872 29.3567 26.0539 28.974C25.8299 28.5913 25.5406 28.316 25.1859 28.148C24.8406 27.9707 24.4766 27.882 24.0939 27.882C23.7019 27.882 23.3286 27.9707 22.9739 28.148C22.6286 28.316 22.3439 28.5913 22.1199 28.974C21.8959 29.3567 21.7839 29.8373 21.7839 30.416C21.7839 31.004 21.8959 31.4893 22.1199 31.872C22.3439 32.2547 22.6286 32.5347 22.9739 32.712C23.3286 32.8893 23.7019 32.978 24.0939 32.978ZM30.0915 34.07C29.9141 34.07 29.7648 34.0093 29.6435 33.888C29.5221 33.7667 29.4615 33.6173 29.4615 33.44V27.434C29.4615 27.2567 29.5221 27.1073 29.6435 26.986C29.7648 26.8553 29.9141 26.79 30.0915 26.79C30.2688 26.79 30.4181 26.8553 30.5395 26.986C30.6701 27.1073 30.7355 27.2567 30.7355 27.434V28.008C30.9968 27.6347 31.3095 27.3267 31.6735 27.084C32.0468 26.8413 32.5275 26.72 33.1155 26.72C33.6381 26.72 34.0861 26.86 34.4595 27.14C34.8328 27.42 35.0988 27.7607 35.2575 28.162C35.8361 27.2007 36.6948 26.72 37.8335 26.72C38.3561 26.72 38.7901 26.8507 39.1355 27.112C39.4901 27.3733 39.7515 27.7093 39.9195 28.12C40.0875 28.5307 40.1715 28.96 40.1715 29.408V33.44C40.1715 33.6173 40.1061 33.7667 39.9755 33.888C39.8541 34.0093 39.7048 34.07 39.5275 34.07C39.3501 34.07 39.2008 34.0093 39.0795 33.888C38.9581 33.7667 38.8975 33.6173 38.8975 33.44V29.66C38.8975 29.0533 38.7901 28.61 38.5755 28.33C38.3608 28.0407 37.9921 27.896 37.4695 27.896C36.9935 27.896 36.5968 28.022 36.2795 28.274C35.9715 28.5167 35.6961 28.8387 35.4535 29.24V33.44C35.4535 33.6173 35.3881 33.7667 35.2575 33.888C35.1361 34.0093 34.9868 34.07 34.8095 34.07C34.6321 34.07 34.4828 34.0093 34.3615 33.888C34.2401 33.7667 34.1795 33.6173 34.1795 33.44V29.66C34.1795 29.0533 34.0721 28.61 33.8575 28.33C33.6428 28.0407 33.2741 27.896 32.7515 27.896C32.2755 27.896 31.8788 28.022 31.5615 28.274C31.2535 28.5167 30.9781 28.8387 30.7355 29.24V33.44C30.7355 33.6173 30.6701 33.7667 30.5395 33.888C30.4181 34.0093 30.2688 34.07 30.0915 34.07ZM45.505 34.14C44.3664 34.14 43.475 33.818 42.831 33.174C42.1964 32.5207 41.879 31.606 41.879 30.43C41.879 29.7673 42.0004 29.156 42.243 28.596C42.4857 28.036 42.859 27.5833 43.363 27.238C43.867 26.8927 44.4877 26.72 45.225 26.72C45.9157 26.72 46.513 26.8833 47.017 27.21C47.521 27.5273 47.9037 27.9567 48.165 28.498C48.4264 29.03 48.557 29.6133 48.557 30.248C48.557 30.4253 48.4964 30.5747 48.375 30.696C48.263 30.8173 48.109 30.878 47.913 30.878H43.167C43.2417 31.5313 43.4844 32.04 43.895 32.404C44.3057 32.768 44.8797 32.95 45.617 32.95C46.009 32.95 46.3497 32.9127 46.639 32.838C46.9377 32.7633 47.227 32.656 47.507 32.516C47.5817 32.4787 47.6657 32.46 47.759 32.46C47.9084 32.46 48.039 32.5113 48.151 32.614C48.263 32.7167 48.319 32.8473 48.319 33.006C48.319 33.2113 48.1977 33.384 47.955 33.524C47.591 33.7293 47.2317 33.8833 46.877 33.986C46.5224 34.0887 46.065 34.14 45.505 34.14ZM47.297 29.842C47.269 29.3847 47.1477 29.002 46.933 28.694C46.7277 28.386 46.471 28.162 46.163 28.022C45.855 27.8727 45.5424 27.798 45.225 27.798C44.9077 27.798 44.595 27.8727 44.287 28.022C43.979 28.162 43.7224 28.386 43.517 28.694C43.3117 29.002 43.195 29.3847 43.167 29.842H47.297ZM50.8727 34.07C50.6954 34.07 50.5461 34.0093 50.4247 33.888C50.3034 33.7667 50.2427 33.6173 50.2427 33.44V27.434C50.2427 27.2567 50.3034 27.1073 50.4247 26.986C50.5461 26.8553 50.6954 26.79 50.8727 26.79C51.0501 26.79 51.1994 26.8553 51.3207 26.986C51.4514 27.1073 51.5167 27.2567 51.5167 27.434V28.008C51.8714 27.616 52.2541 27.3033 52.6647 27.07C53.0754 26.8367 53.5607 26.72 54.1207 26.72C54.6341 26.72 55.0774 26.8413 55.4507 27.084C55.8334 27.3267 56.1227 27.658 56.3187 28.078C56.5241 28.498 56.6267 28.96 56.6267 29.464V33.44C56.6267 33.6173 56.5614 33.7667 56.4307 33.888C56.3094 34.0093 56.1601 34.07 55.9827 34.07C55.8054 34.07 55.6561 34.0093 55.5347 33.888C55.4134 33.7667 55.3527 33.6173 55.3527 33.44V29.604C55.3527 28.4653 54.8394 27.896 53.8127 27.896C53.3461 27.896 52.9261 28.0173 52.5527 28.26C52.1887 28.5027 51.8434 28.8293 51.5167 29.24V33.44C51.5167 33.6173 51.4514 33.7667 51.3207 33.888C51.1994 34.0093 51.0501 34.07 50.8727 34.07ZM61.0739 34.14C59.7112 34.14 59.0299 33.524 59.0299 32.292V27.952H58.0359C57.9612 27.952 57.8959 27.9287 57.8399 27.882C57.7932 27.826 57.7699 27.7607 57.7699 27.686C57.7699 27.5927 57.8119 27.5133 57.8959 27.448L59.7999 25.586C59.8839 25.502 59.9632 25.46 60.0379 25.46C60.1126 25.46 60.1732 25.488 60.2199 25.544C60.2759 25.6 60.3039 25.6653 60.3039 25.74V26.86H61.8859C62.0446 26.86 62.1752 26.9113 62.2779 27.014C62.3806 27.1167 62.4319 27.2473 62.4319 27.406C62.4319 27.5553 62.3806 27.686 62.2779 27.798C62.1752 27.9007 62.0446 27.952 61.8859 27.952H60.3039V32.18C60.3039 32.544 60.3879 32.7773 60.5559 32.88C60.7332 32.9733 60.9526 33.02 61.2139 33.02C61.4006 33.02 61.5872 32.992 61.7739 32.936C61.8112 32.9267 61.8486 32.9173 61.8859 32.908C61.9326 32.8987 61.9886 32.894 62.0539 32.894C62.1846 32.894 62.3012 32.9453 62.4039 33.048C62.5066 33.1413 62.5579 33.258 62.5579 33.398C62.5579 33.6127 62.4506 33.776 62.2359 33.888C61.8719 34.056 61.4846 34.14 61.0739 34.14ZM65.7756 34.14C65.3649 34.14 64.9823 34.056 64.6276 33.888C64.2823 33.72 64.0069 33.4773 63.8016 33.16C63.5963 32.8333 63.4936 32.46 63.4936 32.04C63.4936 31.3493 63.7643 30.7987 64.3056 30.388C64.8563 29.9773 65.6589 29.772 66.7136 29.772H68.4076V29.66C68.4076 29.044 68.2536 28.6007 67.9456 28.33C67.6469 28.0593 67.1756 27.924 66.5316 27.924C66.1769 27.924 65.8596 27.952 65.5796 28.008C65.3089 28.064 65.0056 28.148 64.6696 28.26C64.5949 28.2787 64.5343 28.288 64.4876 28.288C64.3476 28.288 64.2263 28.2367 64.1236 28.134C64.0209 28.0313 63.9696 27.9053 63.9696 27.756C63.9696 27.504 64.0909 27.3267 64.3336 27.224C65.1269 26.888 65.9343 26.72 66.7556 26.72C67.3996 26.72 67.9409 26.8507 68.3796 27.112C68.8276 27.3733 69.1543 27.714 69.3596 28.134C69.5743 28.5447 69.6816 28.9927 69.6816 29.478V33.44C69.6816 33.6173 69.6163 33.7667 69.4856 33.888C69.3643 34.0093 69.2149 34.07 69.0376 34.07C68.8603 34.07 68.7109 34.0093 68.5896 33.888C68.4683 33.7667 68.4076 33.6173 68.4076 33.44V33.076C67.7169 33.7853 66.8396 34.14 65.7756 34.14ZM66.2516 33.02C66.6623 33.02 67.0589 32.922 67.4416 32.726C67.8243 32.5207 68.1463 32.2687 68.4076 31.97V30.794H66.8816C65.4723 30.794 64.7676 31.1627 64.7676 31.9C64.7676 32.236 64.8796 32.5067 65.1036 32.712C65.3369 32.9173 65.7196 33.02 66.2516 33.02ZM66.7556 26.062C66.6436 26.062 66.5503 26.0293 66.4756 25.964C66.4103 25.8893 66.3776 25.796 66.3776 25.684C66.3776 25.6 66.4103 25.5113 66.4756 25.418L67.1896 24.158C67.2829 23.9807 67.4369 23.892 67.6516 23.892C67.8009 23.892 67.9223 23.9387 68.0156 24.032C68.1183 24.1253 68.1696 24.2513 68.1696 24.41C68.1696 24.5407 68.1229 24.6573 68.0296 24.76L67.0636 25.908C66.9796 26.0107 66.8769 26.062 66.7556 26.062ZM72.4469 34.07C72.2696 34.07 72.1203 34.0093 71.9989 33.888C71.8776 33.7667 71.8169 33.6173 71.8169 33.44V27.434C71.8169 27.2567 71.8776 27.1073 71.9989 26.986C72.1203 26.8553 72.2696 26.79 72.4469 26.79C72.6243 26.79 72.7736 26.8553 72.8949 26.986C73.0256 27.1073 73.0909 27.2567 73.0909 27.434V28.036C73.7443 27.1587 74.4769 26.72 75.2889 26.72H75.3589C75.5363 26.72 75.6809 26.7807 75.7929 26.902C75.9143 27.0233 75.9749 27.1727 75.9749 27.35C75.9749 27.5273 75.9143 27.672 75.7929 27.784C75.6716 27.896 75.5176 27.952 75.3309 27.952H75.2609C74.8129 27.952 74.4023 28.064 74.0289 28.288C73.6556 28.5027 73.3429 28.8013 73.0909 29.184V33.44C73.0909 33.6173 73.0256 33.7667 72.8949 33.888C72.7736 34.0093 72.6243 34.07 72.4469 34.07ZM77.7783 25.404C77.5823 25.404 77.4143 25.334 77.2743 25.194C77.1343 25.054 77.0643 24.886 77.0643 24.69V24.634C77.0643 24.438 77.1343 24.27 77.2743 24.13C77.4143 23.99 77.5823 23.92 77.7783 23.92H77.8623C78.0583 23.92 78.2263 23.99 78.3663 24.13C78.5063 24.27 78.5763 24.438 78.5763 24.634V24.69C78.5763 24.886 78.5063 25.054 78.3663 25.194C78.2263 25.334 78.0583 25.404 77.8623 25.404H77.7783ZM77.8063 34.07C77.629 34.07 77.4796 34.0093 77.3583 33.888C77.237 33.7667 77.1763 33.6173 77.1763 33.44V27.434C77.1763 27.2567 77.237 27.1073 77.3583 26.986C77.4796 26.8553 77.629 26.79 77.8063 26.79C77.993 26.79 78.147 26.8507 78.2683 26.972C78.3896 27.0933 78.4503 27.2473 78.4503 27.434V33.44C78.4503 33.6173 78.385 33.7667 78.2543 33.888C78.133 34.0093 77.9836 34.07 77.8063 34.07ZM83.8126 34.14C83.094 34.14 82.464 33.986 81.9226 33.678C81.3813 33.37 80.9613 32.936 80.6626 32.376C80.3733 31.8067 80.2286 31.158 80.2286 30.43C80.2286 29.702 80.3733 29.058 80.6626 28.498C80.9613 27.9287 81.3813 27.49 81.9226 27.182C82.464 26.874 83.094 26.72 83.8126 26.72C84.522 26.72 85.1473 26.874 85.6886 27.182C86.23 27.49 86.65 27.9287 86.9486 28.498C87.2473 29.058 87.3966 29.702 87.3966 30.43C87.3966 31.158 87.2473 31.8067 86.9486 32.376C86.65 32.936 86.23 33.37 85.6886 33.678C85.1473 33.986 84.522 34.14 83.8126 34.14ZM83.8126 32.978C84.1953 32.978 84.5593 32.8893 84.9046 32.712C85.2593 32.5347 85.5486 32.2547 85.7726 31.872C86.006 31.4893 86.1226 31.004 86.1226 30.416C86.1226 29.8373 86.006 29.3567 85.7726 28.974C85.5486 28.5913 85.2593 28.316 84.9046 28.148C84.5593 27.9707 84.1953 27.882 83.8126 27.882C83.4206 27.882 83.0473 27.9707 82.6926 28.148C82.3473 28.316 82.0626 28.5913 81.8386 28.974C81.6146 29.3567 81.5026 29.8373 81.5026 30.416C81.5026 31.004 81.6146 31.4893 81.8386 31.872C82.0626 32.2547 82.3473 32.5347 82.6926 32.712C83.0473 32.8893 83.4206 32.978 83.8126 32.978ZM91.4902 34.14C90.5569 34.14 89.7076 33.93 88.9422 33.51C88.7836 33.398 88.7042 33.244 88.7042 33.048C88.7042 32.8987 88.7556 32.768 88.8582 32.656C88.9609 32.544 89.0916 32.488 89.2502 32.488C89.3342 32.488 89.4182 32.5067 89.5022 32.544C89.8009 32.6747 90.0996 32.7773 90.3982 32.852C90.6969 32.9267 91.0329 32.964 91.4062 32.964C92.4422 32.964 92.9602 32.6327 92.9602 31.97C92.9602 31.7553 92.8389 31.592 92.5962 31.48C92.3629 31.368 91.9756 31.242 91.4342 31.102C90.8836 30.9713 90.4262 30.836 90.0622 30.696C89.7076 30.556 89.3996 30.346 89.1382 30.066C88.8862 29.7767 88.7602 29.3987 88.7602 28.932C88.7602 28.2787 88.9936 27.7467 89.4602 27.336C89.9362 26.9253 90.6129 26.72 91.4902 26.72C92.2089 26.72 92.8856 26.8367 93.5202 27.07C93.6509 27.1073 93.7489 27.1773 93.8142 27.28C93.8889 27.3827 93.9262 27.49 93.9262 27.602C93.9262 27.7513 93.8702 27.882 93.7582 27.994C93.6556 28.106 93.5249 28.162 93.3662 28.162C93.3196 28.162 93.2589 28.1527 93.1842 28.134C92.6429 27.966 92.1109 27.882 91.5882 27.882C91.0842 27.882 90.6876 27.9753 90.3982 28.162C90.1182 28.3393 89.9782 28.5727 89.9782 28.862C89.9782 29.142 90.1089 29.3473 90.3702 29.478C90.6316 29.6087 91.0376 29.7347 91.5882 29.856C92.1389 29.996 92.5869 30.136 92.9322 30.276C93.2776 30.4067 93.5716 30.6167 93.8142 30.906C94.0662 31.1953 94.1922 31.5827 94.1922 32.068C94.1922 32.6653 93.9542 33.16 93.4782 33.552C93.0116 33.944 92.3489 34.14 91.4902 34.14Z" fill="#828282"/>
<path d="M30.5 0.25H47.75V20.75H30.5C24.8391 20.75 20.25 16.1609 20.25 10.5C20.25 4.83908 24.8391 0.25 30.5 0.25Z" fill="white"/>
<mask id="mask0_1066_3239" style="mask-type:alpha" maskUnits="userSpaceOnUse" x="27" y="2" width="16" height="17">
<rect x="27" y="2.5" width="16" height="16" fill="#D9D9D9"/>
</mask>
<g mask="url(#mask0_1066_3239)">
<path d="M31.6665 11.8333L34.9998 8.5L38.3332 11.8333H31.6665Z" fill="#1C1B1F"/>
</g>
<path d="M30.5 0.25H47.75V20.75H30.5C24.8391 20.75 20.25 16.1609 20.25 10.5C20.25 4.83908 24.8391 0.25 30.5 0.25Z" stroke="#828282" stroke-width="0.5"/>
<path d="M64.5 0.25H47.25V20.75H64.5C70.1609 20.75 74.75 16.1609 74.75 10.5C74.75 4.83908 70.1609 0.25 64.5 0.25Z" fill="white"/>
<path d="M57.124 14C56.98 14 56.86 13.952 56.764 13.856C56.668 13.76 56.62 13.64 56.62 13.496C56.62 13.352 56.668 13.232 56.764 13.136C56.86 13.032 56.98 12.98 57.124 12.98H58.552V6.896L57.328 7.496C57.216 7.544 57.124 7.568 57.052 7.568C56.9 7.568 56.776 7.52 56.68 7.424C56.584 7.328 56.536 7.204 56.536 7.052C56.536 6.828 56.64 6.664 56.848 6.56L58.48 5.708C58.592 5.652 58.704 5.624 58.816 5.624H59.068C59.228 5.624 59.364 5.68 59.476 5.792C59.588 5.904 59.644 6.04 59.644 6.2V12.98H60.832C60.976 12.98 61.096 13.032 61.192 13.136C61.296 13.232 61.348 13.352 61.348 13.496C61.348 13.64 61.296 13.76 61.192 13.856C61.096 13.952 60.976 14 60.832 14H57.124ZM66.0992 14.12C65.1232 14.12 64.2712 13.888 63.5432 13.424C63.4632 13.368 63.4032 13.312 63.3632 13.256C63.3232 13.192 63.3032 13.104 63.3032 12.992C63.3032 12.848 63.3472 12.728 63.4352 12.632C63.5232 12.528 63.6392 12.476 63.7832 12.476C63.8712 12.476 63.9552 12.496 64.0352 12.536C64.6672 12.872 65.3072 13.04 65.9552 13.04C66.7152 13.04 67.2952 12.912 67.6952 12.656C68.0952 12.4 68.2952 11.964 68.2952 11.348C68.2952 10.852 68.1272 10.46 67.7912 10.172C67.4632 9.884 67.0112 9.74 66.4352 9.74C65.7712 9.74 65.1552 9.912 64.5872 10.256C64.5712 10.264 64.5232 10.292 64.4432 10.34C64.3712 10.38 64.2792 10.4 64.1672 10.4C63.9432 10.4 63.7552 10.336 63.6032 10.208C63.4512 10.08 63.3752 9.912 63.3752 9.704C63.3752 9.608 63.3832 9.512 63.3992 9.416L63.9392 6.224C63.9632 6.04 64.0312 5.896 64.1432 5.792C64.2632 5.68 64.4072 5.624 64.5752 5.624H68.4272C68.5712 5.624 68.6912 5.676 68.7872 5.78C68.8912 5.876 68.9432 5.996 68.9432 6.14C68.9432 6.284 68.8912 6.404 68.7872 6.5C68.6912 6.596 68.5712 6.644 68.4272 6.644H64.9472L64.5632 9.188C65.1712 8.86 65.8472 8.696 66.5912 8.696C67.1832 8.696 67.6872 8.812 68.1032 9.044C68.5272 9.276 68.8472 9.596 69.0632 10.004C69.2792 10.412 69.3872 10.88 69.3872 11.408C69.3872 12.216 69.1112 12.872 68.5592 13.376C68.0072 13.872 67.1872 14.12 66.0992 14.12Z" fill="black"/>
<path d="M64.5 0.25H47.25V20.75H64.5C70.1609 20.75 74.75 16.1609 74.75 10.5C74.75 4.83908 70.1609 0.25 64.5 0.25Z" stroke="#828282" stroke-width="0.5"/>
</svg>
