<svg width="306" height="179" viewBox="0 0 306 179" fill="none" xmlns="http://www.w3.org/2000/svg">
<rect width="296" height="171" fill="white"/>
<mask id="path-1-inside-1_1020_2477" fill="white">
<path d="M0 0H296V171H0V0Z"/>
</mask>
<path d="M0 0H296V171H0V0Z" fill="white"/>
<rect x="13" y="11" width="42" height="41" rx="8" fill="#82ACF5" fill-opacity="0.46"/>
<mask id="mask0_1020_2477" style="mask-type:alpha" maskUnits="userSpaceOnUse" x="20" y="18" width="28" height="28">
<rect x="20" y="18" width="28" height="28" fill="#1C1B1F"/>
</mask>
<g mask="url(#mask0_1020_2477)">
<path d="M34 42.5C32.8 41.3667 31.425 40.5 29.875 39.9C28.325 39.3 26.7 39 25 39V28C26.6833 28 28.3 28.304 29.85 28.912C31.4 29.5207 32.7833 30.4 34 31.55C35.2167 30.4 36.6 29.5207 38.15 28.912C39.7 28.304 41.3167 28 43 28V39C41.2833 39 39.6543 39.3 38.113 39.9C36.571 40.5 35.2 41.3667 34 42.5ZM34 39.9C35.05 39.1167 36.1667 38.4917 37.35 38.025C38.5333 37.5583 39.75 37.25 41 37.1V30.2C39.7833 30.4167 38.5877 30.854 37.413 31.512C36.2377 32.1707 35.1 33.05 34 34.15C32.9 33.05 31.7627 32.1707 30.588 31.512C29.4127 30.854 28.2167 30.4167 27 30.2V37.1C28.25 37.25 29.4667 37.5583 30.65 38.025C31.8333 38.4917 32.95 39.1167 34 39.9ZM34 29C32.9 29 31.9583 28.6083 31.175 27.825C30.3917 27.0417 30 26.1 30 25C30 23.9 30.3917 22.9583 31.175 22.175C31.9583 21.3917 32.9 21 34 21C35.1 21 36.0417 21.3917 36.825 22.175C37.6083 22.9583 38 23.9 38 25C38 26.1 37.6083 27.0417 36.825 27.825C36.0417 28.6083 35.1 29 34 29ZM34 27C34.55 27 35.021 26.804 35.413 26.412C35.8043 26.0207 36 25.55 36 25C36 24.45 35.8043 23.979 35.413 23.587C35.021 23.1957 34.55 23 34 23C33.45 23 32.9793 23.1957 32.588 23.587C32.196 23.979 32 24.45 32 25C32 25.55 32.196 26.0207 32.588 26.412C32.9793 26.804 33.45 27 34 27Z" fill="#82ACF5"/>
</g>
<path d="M84.075 29.15C83.075 29.15 82.175 28.935 81.375 28.505C80.585 28.065 79.96 27.44 79.5 26.63C79.05 25.81 78.825 24.855 78.825 23.765C78.825 22.675 79.05 21.725 79.5 20.915C79.96 20.095 80.585 19.47 81.375 19.04C82.175 18.6 83.075 18.38 84.075 18.38C84.755 18.38 85.36 18.46 85.89 18.62C86.43 18.78 86.965 19.01 87.495 19.31C87.715 19.43 87.825 19.62 87.825 19.88C87.825 20.03 87.77 20.165 87.66 20.285C87.55 20.395 87.405 20.45 87.225 20.45C87.125 20.45 87.035 20.43 86.955 20.39C86.515 20.16 86.085 19.985 85.665 19.865C85.245 19.745 84.76 19.685 84.21 19.685C83.35 19.685 82.615 19.865 82.005 20.225C81.405 20.575 80.95 21.06 80.64 21.68C80.34 22.29 80.19 22.985 80.19 23.765C80.19 24.545 80.34 25.245 80.64 25.865C80.95 26.475 81.405 26.96 82.005 27.32C82.615 27.67 83.35 27.845 84.21 27.845C84.76 27.845 85.245 27.785 85.665 27.665C86.085 27.545 86.515 27.37 86.955 27.14C87.035 27.1 87.125 27.08 87.225 27.08C87.405 27.08 87.55 27.135 87.66 27.245C87.77 27.355 87.825 27.49 87.825 27.65C87.825 27.91 87.715 28.1 87.495 28.22C86.965 28.52 86.43 28.75 85.89 28.91C85.36 29.07 84.755 29.15 84.075 29.15ZM92.7553 29.15C91.9853 29.15 91.3103 28.985 90.7303 28.655C90.1503 28.325 89.7003 27.86 89.3803 27.26C89.0703 26.65 88.9153 25.955 88.9153 25.175C88.9153 24.395 89.0703 23.705 89.3803 23.105C89.7003 22.495 90.1503 22.025 90.7303 21.695C91.3103 21.365 91.9853 21.2 92.7553 21.2C93.5153 21.2 94.1853 21.365 94.7653 21.695C95.3453 22.025 95.7953 22.495 96.1153 23.105C96.4353 23.705 96.5953 24.395 96.5953 25.175C96.5953 25.955 96.4353 26.65 96.1153 27.26C95.7953 27.86 95.3453 28.325 94.7653 28.655C94.1853 28.985 93.5153 29.15 92.7553 29.15ZM92.7553 27.905C93.1653 27.905 93.5553 27.81 93.9253 27.62C94.3053 27.43 94.6153 27.13 94.8553 26.72C95.1053 26.31 95.2303 25.79 95.2303 25.16C95.2303 24.54 95.1053 24.025 94.8553 23.615C94.6153 23.205 94.3053 22.91 93.9253 22.73C93.5553 22.54 93.1653 22.445 92.7553 22.445C92.3353 22.445 91.9353 22.54 91.5553 22.73C91.1853 22.91 90.8803 23.205 90.6403 23.615C90.4003 24.025 90.2803 24.54 90.2803 25.16C90.2803 25.79 90.4003 26.31 90.6403 26.72C90.8803 27.13 91.1853 27.43 91.5553 27.62C91.9353 27.81 92.3353 27.905 92.7553 27.905ZM99.1813 29.075C98.9913 29.075 98.8313 29.01 98.7013 28.88C98.5713 28.75 98.5063 28.59 98.5063 28.4V21.965C98.5063 21.775 98.5713 21.615 98.7013 21.485C98.8313 21.345 98.9913 21.275 99.1813 21.275C99.3713 21.275 99.5313 21.345 99.6613 21.485C99.8013 21.615 99.8713 21.775 99.8713 21.965V22.58C100.151 22.18 100.486 21.85 100.876 21.59C101.276 21.33 101.791 21.2 102.421 21.2C102.981 21.2 103.461 21.35 103.861 21.65C104.261 21.95 104.546 22.315 104.716 22.745C105.336 21.715 106.256 21.2 107.476 21.2C108.036 21.2 108.501 21.34 108.871 21.62C109.251 21.9 109.531 22.26 109.711 22.7C109.891 23.14 109.981 23.6 109.981 24.08V28.4C109.981 28.59 109.911 28.75 109.771 28.88C109.641 29.01 109.481 29.075 109.291 29.075C109.101 29.075 108.941 29.01 108.811 28.88C108.681 28.75 108.616 28.59 108.616 28.4V24.35C108.616 23.7 108.501 23.225 108.271 22.925C108.041 22.615 107.646 22.46 107.086 22.46C106.576 22.46 106.151 22.595 105.811 22.865C105.481 23.125 105.186 23.47 104.926 23.9V28.4C104.926 28.59 104.856 28.75 104.716 28.88C104.586 29.01 104.426 29.075 104.236 29.075C104.046 29.075 103.886 29.01 103.756 28.88C103.626 28.75 103.561 28.59 103.561 28.4V24.35C103.561 23.7 103.446 23.225 103.216 22.925C102.986 22.615 102.591 22.46 102.031 22.46C101.521 22.46 101.096 22.595 100.756 22.865C100.426 23.125 100.131 23.47 99.8713 23.9V28.4C99.8713 28.59 99.8013 28.75 99.6613 28.88C99.5313 29.01 99.3713 29.075 99.1813 29.075ZM114.827 29.15C114.277 29.15 113.797 29.02 113.387 28.76C112.987 28.5 112.677 28.145 112.457 27.695C112.247 27.245 112.142 26.75 112.142 26.21V21.95C112.142 21.76 112.207 21.6 112.337 21.47C112.477 21.34 112.642 21.275 112.832 21.275C113.022 21.275 113.182 21.34 113.312 21.47C113.442 21.6 113.507 21.76 113.507 21.95V26.06C113.507 27.28 114.057 27.89 115.157 27.89C115.657 27.89 116.102 27.76 116.492 27.5C116.892 27.24 117.267 26.89 117.617 26.45V21.95C117.617 21.76 117.682 21.6 117.812 21.47C117.952 21.34 118.117 21.275 118.307 21.275C118.497 21.275 118.657 21.34 118.787 21.47C118.917 21.6 118.982 21.76 118.982 21.95V28.385C118.982 28.575 118.917 28.74 118.787 28.88C118.657 29.01 118.497 29.075 118.307 29.075C118.117 29.075 117.952 29.01 117.812 28.88C117.682 28.74 117.617 28.575 117.617 28.385V27.77C117.237 28.19 116.827 28.525 116.387 28.775C115.947 29.025 115.427 29.15 114.827 29.15ZM122.033 29.075C121.843 29.075 121.683 29.01 121.553 28.88C121.423 28.75 121.358 28.59 121.358 28.4V21.965C121.358 21.775 121.423 21.615 121.553 21.485C121.683 21.345 121.843 21.275 122.033 21.275C122.223 21.275 122.383 21.345 122.513 21.485C122.653 21.615 122.723 21.775 122.723 21.965V22.58C123.103 22.16 123.513 21.825 123.953 21.575C124.393 21.325 124.913 21.2 125.513 21.2C126.063 21.2 126.538 21.33 126.938 21.59C127.348 21.85 127.658 22.205 127.868 22.655C128.088 23.105 128.198 23.6 128.198 24.14V28.4C128.198 28.59 128.128 28.75 127.988 28.88C127.858 29.01 127.698 29.075 127.508 29.075C127.318 29.075 127.158 29.01 127.028 28.88C126.898 28.75 126.833 28.59 126.833 28.4V24.29C126.833 23.07 126.283 22.46 125.183 22.46C124.683 22.46 124.233 22.59 123.833 22.85C123.443 23.11 123.073 23.46 122.723 23.9V28.4C122.723 28.59 122.653 28.75 122.513 28.88C122.383 29.01 122.223 29.075 122.033 29.075ZM131.143 19.79C130.933 19.79 130.753 19.715 130.603 19.565C130.453 19.415 130.378 19.235 130.378 19.025V18.965C130.378 18.755 130.453 18.575 130.603 18.425C130.753 18.275 130.933 18.2 131.143 18.2H131.233C131.443 18.2 131.623 18.275 131.773 18.425C131.923 18.575 131.998 18.755 131.998 18.965V19.025C131.998 19.235 131.923 19.415 131.773 19.565C131.623 19.715 131.443 19.79 131.233 19.79H131.143ZM131.173 29.075C130.983 29.075 130.823 29.01 130.693 28.88C130.563 28.75 130.498 28.59 130.498 28.4V21.965C130.498 21.775 130.563 21.615 130.693 21.485C130.823 21.345 130.983 21.275 131.173 21.275C131.373 21.275 131.538 21.34 131.668 21.47C131.798 21.6 131.863 21.765 131.863 21.965V28.4C131.863 28.59 131.793 28.75 131.653 28.88C131.523 29.01 131.363 29.075 131.173 29.075ZM137.774 29.15C137.054 29.15 136.389 28.99 135.779 28.67C135.169 28.35 134.679 27.89 134.309 27.29C133.949 26.69 133.769 25.985 133.769 25.175C133.769 24.365 133.949 23.66 134.309 23.06C134.679 22.46 135.169 22 135.779 21.68C136.389 21.36 137.054 21.2 137.774 21.2C138.304 21.2 138.759 21.27 139.139 21.41C139.529 21.54 139.889 21.71 140.219 21.92C140.419 22.05 140.519 22.225 140.519 22.445C140.519 22.595 140.459 22.735 140.339 22.865C140.229 22.985 140.099 23.045 139.949 23.045C139.839 23.045 139.729 23.015 139.619 22.955C139.289 22.785 139.004 22.665 138.764 22.595C138.534 22.515 138.244 22.475 137.894 22.475C137.034 22.475 136.359 22.725 135.869 23.225C135.379 23.715 135.134 24.365 135.134 25.175C135.134 25.985 135.379 26.64 135.869 27.14C136.359 27.63 137.034 27.875 137.894 27.875C138.244 27.875 138.534 27.84 138.764 27.77C139.004 27.69 139.289 27.565 139.619 27.395C139.729 27.335 139.839 27.305 139.949 27.305C140.099 27.305 140.229 27.37 140.339 27.5C140.459 27.62 140.519 27.755 140.519 27.905C140.519 28.125 140.419 28.3 140.219 28.43C139.889 28.64 139.529 28.815 139.139 28.955C138.759 29.085 138.304 29.15 137.774 29.15ZM144.182 29.15C143.742 29.15 143.332 29.06 142.952 28.88C142.582 28.7 142.287 28.44 142.067 28.1C141.847 27.75 141.737 27.35 141.737 26.9C141.737 26.16 142.027 25.57 142.607 25.13C143.197 24.69 144.057 24.47 145.187 24.47H147.002V24.35C147.002 23.69 146.837 23.215 146.507 22.925C146.187 22.635 145.682 22.49 144.992 22.49C144.612 22.49 144.272 22.52 143.972 22.58C143.682 22.64 143.357 22.73 142.997 22.85C142.917 22.87 142.852 22.88 142.802 22.88C142.652 22.88 142.522 22.825 142.412 22.715C142.302 22.605 142.247 22.47 142.247 22.31C142.247 22.04 142.377 21.85 142.637 21.74C143.487 21.38 144.352 21.2 145.232 21.2C145.922 21.2 146.502 21.34 146.972 21.62C147.452 21.9 147.802 22.265 148.022 22.715C148.252 23.155 148.367 23.635 148.367 24.155V28.4C148.367 28.59 148.297 28.75 148.157 28.88C148.027 29.01 147.867 29.075 147.677 29.075C147.487 29.075 147.327 29.01 147.197 28.88C147.067 28.75 147.002 28.59 147.002 28.4V28.01C146.262 28.77 145.322 29.15 144.182 29.15ZM144.692 27.95C145.132 27.95 145.557 27.845 145.967 27.635C146.377 27.415 146.722 27.145 147.002 26.825V25.565H145.367C143.857 25.565 143.102 25.96 143.102 26.75C143.102 27.11 143.222 27.4 143.462 27.62C143.712 27.84 144.122 27.95 144.692 27.95ZM156.37 27.305C156.52 27.305 156.65 27.37 156.76 27.5C156.88 27.62 156.94 27.755 156.94 27.905C156.94 28.125 156.84 28.3 156.64 28.43C156.31 28.64 155.95 28.815 155.56 28.955C155.18 29.085 154.725 29.15 154.195 29.15L153.745 29.945C153.905 29.905 154.075 29.885 154.255 29.885C154.595 29.885 154.87 29.98 155.08 30.17C155.3 30.37 155.41 30.625 155.41 30.935C155.41 31.395 155.265 31.74 154.975 31.97C154.695 32.2 154.285 32.315 153.745 32.315C153.265 32.315 152.815 32.185 152.395 31.925C152.355 31.895 152.315 31.855 152.275 31.805C152.245 31.765 152.23 31.72 152.23 31.67C152.23 31.59 152.255 31.52 152.305 31.46C152.355 31.4 152.425 31.37 152.515 31.37C152.555 31.37 152.605 31.385 152.665 31.415C152.975 31.585 153.27 31.67 153.55 31.67C154.12 31.67 154.405 31.44 154.405 30.98C154.405 30.83 154.355 30.715 154.255 30.635C154.155 30.555 154.025 30.515 153.865 30.515C153.645 30.515 153.425 30.57 153.205 30.68C153.145 30.71 153.095 30.725 153.055 30.725C152.985 30.725 152.92 30.7 152.86 30.65C152.81 30.61 152.785 30.555 152.785 30.485C152.785 30.405 152.805 30.335 152.845 30.275L153.58 29.105C152.95 29.015 152.375 28.805 151.855 28.475C151.345 28.135 150.94 27.685 150.64 27.125C150.34 26.555 150.19 25.905 150.19 25.175C150.19 24.365 150.37 23.66 150.73 23.06C151.1 22.46 151.59 22 152.2 21.68C152.81 21.36 153.475 21.2 154.195 21.2C154.725 21.2 155.18 21.27 155.56 21.41C155.95 21.54 156.31 21.71 156.64 21.92C156.84 22.05 156.94 22.225 156.94 22.445C156.94 22.595 156.88 22.735 156.76 22.865C156.65 22.985 156.52 23.045 156.37 23.045C156.26 23.045 156.15 23.015 156.04 22.955C155.71 22.785 155.425 22.665 155.185 22.595C154.955 22.515 154.665 22.475 154.315 22.475C153.455 22.475 152.78 22.725 152.29 23.225C151.8 23.715 151.555 24.365 151.555 25.175C151.555 25.985 151.8 26.64 152.29 27.14C152.78 27.63 153.455 27.875 154.315 27.875C154.665 27.875 154.955 27.84 155.185 27.77C155.425 27.69 155.71 27.565 156.04 27.395C156.15 27.335 156.26 27.305 156.37 27.305ZM160.603 29.15C160.163 29.15 159.753 29.06 159.373 28.88C159.003 28.7 158.708 28.44 158.488 28.1C158.268 27.75 158.158 27.35 158.158 26.9C158.158 26.16 158.448 25.57 159.028 25.13C159.618 24.69 160.478 24.47 161.608 24.47H163.423V24.35C163.423 23.69 163.258 23.215 162.928 22.925C162.608 22.635 162.103 22.49 161.413 22.49C161.033 22.49 160.693 22.52 160.393 22.58C160.103 22.64 159.778 22.73 159.418 22.85C159.338 22.87 159.273 22.88 159.223 22.88C159.073 22.88 158.943 22.825 158.833 22.715C158.723 22.605 158.668 22.47 158.668 22.31C158.668 22.04 158.798 21.85 159.058 21.74C159.908 21.38 160.773 21.2 161.653 21.2C162.343 21.2 162.923 21.34 163.393 21.62C163.873 21.9 164.223 22.265 164.443 22.715C164.673 23.155 164.788 23.635 164.788 24.155V28.4C164.788 28.59 164.718 28.75 164.578 28.88C164.448 29.01 164.288 29.075 164.098 29.075C163.908 29.075 163.748 29.01 163.618 28.88C163.488 28.75 163.423 28.59 163.423 28.4V28.01C162.683 28.77 161.743 29.15 160.603 29.15ZM161.113 27.95C161.553 27.95 161.978 27.845 162.388 27.635C162.798 27.415 163.143 27.145 163.423 26.825V25.565H161.788C160.278 25.565 159.523 25.96 159.523 26.75C159.523 27.11 159.643 27.4 159.883 27.62C160.133 27.84 160.543 27.95 161.113 27.95ZM159.583 20.435C159.493 20.435 159.413 20.405 159.343 20.345C159.273 20.275 159.238 20.19 159.238 20.09C159.238 19.88 159.288 19.665 159.388 19.445C159.498 19.225 159.648 19.04 159.838 18.89C160.028 18.74 160.248 18.665 160.498 18.665C160.698 18.665 160.883 18.695 161.053 18.755C161.233 18.815 161.448 18.905 161.698 19.025C161.928 19.135 162.123 19.22 162.283 19.28C162.453 19.34 162.628 19.37 162.808 19.37C162.958 19.37 163.073 19.335 163.153 19.265C163.243 19.195 163.313 19.095 163.363 18.965C163.443 18.755 163.568 18.65 163.738 18.65C163.838 18.65 163.918 18.685 163.978 18.755C164.038 18.815 164.073 18.89 164.083 18.98C164.083 19.33 163.963 19.655 163.723 19.955C163.483 20.255 163.183 20.405 162.823 20.405C162.623 20.405 162.433 20.375 162.253 20.315C162.073 20.245 161.853 20.15 161.593 20.03C161.363 19.92 161.168 19.835 161.008 19.775C160.848 19.715 160.683 19.685 160.513 19.685C160.253 19.685 160.058 19.845 159.928 20.165C159.868 20.345 159.753 20.435 159.583 20.435ZM170.451 29.15C169.681 29.15 169.006 28.985 168.426 28.655C167.846 28.325 167.396 27.86 167.076 27.26C166.766 26.65 166.611 25.955 166.611 25.175C166.611 24.395 166.766 23.705 167.076 23.105C167.396 22.495 167.846 22.025 168.426 21.695C169.006 21.365 169.681 21.2 170.451 21.2C171.211 21.2 171.881 21.365 172.461 21.695C173.041 22.025 173.491 22.495 173.811 23.105C174.131 23.705 174.291 24.395 174.291 25.175C174.291 25.955 174.131 26.65 173.811 27.26C173.491 27.86 173.041 28.325 172.461 28.655C171.881 28.985 171.211 29.15 170.451 29.15ZM170.451 27.905C170.861 27.905 171.251 27.81 171.621 27.62C172.001 27.43 172.311 27.13 172.551 26.72C172.801 26.31 172.926 25.79 172.926 25.16C172.926 24.54 172.801 24.025 172.551 23.615C172.311 23.205 172.001 22.91 171.621 22.73C171.251 22.54 170.861 22.445 170.451 22.445C170.031 22.445 169.631 22.54 169.251 22.73C168.881 22.91 168.576 23.205 168.336 23.615C168.096 24.025 167.976 24.54 167.976 25.16C167.976 25.79 168.096 26.31 168.336 26.72C168.576 27.13 168.881 27.43 169.251 27.62C169.631 27.81 170.031 27.905 170.451 27.905ZM181.043 29C180.853 29 180.693 28.935 180.563 28.805C180.433 28.675 180.368 28.515 180.368 28.325V19.22C180.368 19.03 180.433 18.87 180.563 18.74C180.693 18.6 180.853 18.53 181.043 18.53H187.058C187.238 18.53 187.388 18.595 187.508 18.725C187.638 18.845 187.703 18.995 187.703 19.175C187.703 19.355 187.638 19.505 187.508 19.625C187.388 19.745 187.238 19.805 187.058 19.805H181.733V23.12H186.518C186.698 23.12 186.848 23.185 186.968 23.315C187.098 23.435 187.163 23.585 187.163 23.765C187.163 23.945 187.098 24.095 186.968 24.215C186.848 24.335 186.698 24.395 186.518 24.395H181.733V27.725H187.058C187.238 27.725 187.388 27.79 187.508 27.92C187.638 28.04 187.703 28.19 187.703 28.37C187.703 28.55 187.638 28.7 187.508 28.82C187.388 28.94 187.238 29 187.058 29H181.043ZM190.236 29.075C190.046 29.075 189.886 29.01 189.756 28.88C189.626 28.75 189.561 28.59 189.561 28.4V21.965C189.561 21.775 189.626 21.615 189.756 21.485C189.886 21.345 190.046 21.275 190.236 21.275C190.426 21.275 190.586 21.345 190.716 21.485C190.856 21.615 190.926 21.775 190.926 21.965V22.58C191.206 22.18 191.541 21.85 191.931 21.59C192.331 21.33 192.846 21.2 193.476 21.2C194.036 21.2 194.516 21.35 194.916 21.65C195.316 21.95 195.601 22.315 195.771 22.745C196.391 21.715 197.311 21.2 198.531 21.2C199.091 21.2 199.556 21.34 199.926 21.62C200.306 21.9 200.586 22.26 200.766 22.7C200.946 23.14 201.036 23.6 201.036 24.08V28.4C201.036 28.59 200.966 28.75 200.826 28.88C200.696 29.01 200.536 29.075 200.346 29.075C200.156 29.075 199.996 29.01 199.866 28.88C199.736 28.75 199.671 28.59 199.671 28.4V24.35C199.671 23.7 199.556 23.225 199.326 22.925C199.096 22.615 198.701 22.46 198.141 22.46C197.631 22.46 197.206 22.595 196.866 22.865C196.536 23.125 196.241 23.47 195.981 23.9V28.4C195.981 28.59 195.911 28.75 195.771 28.88C195.641 29.01 195.481 29.075 195.291 29.075C195.101 29.075 194.941 29.01 194.811 28.88C194.681 28.75 194.616 28.59 194.616 28.4V24.35C194.616 23.7 194.501 23.225 194.271 22.925C194.041 22.615 193.646 22.46 193.086 22.46C192.576 22.46 192.151 22.595 191.811 22.865C191.481 23.125 191.186 23.47 190.926 23.9V28.4C190.926 28.59 190.856 28.75 190.716 28.88C190.586 29.01 190.426 29.075 190.236 29.075ZM204.006 32.525C203.816 32.525 203.656 32.455 203.526 32.315C203.396 32.185 203.331 32.025 203.331 31.835V21.95C203.331 21.76 203.396 21.6 203.526 21.47C203.656 21.34 203.816 21.275 204.006 21.275C204.196 21.275 204.356 21.34 204.486 21.47C204.626 21.6 204.696 21.76 204.696 21.95V22.34C205.426 21.58 206.281 21.2 207.261 21.2C207.881 21.2 208.466 21.36 209.016 21.68C209.576 21.99 210.026 22.45 210.366 23.06C210.716 23.66 210.891 24.365 210.891 25.175C210.891 25.985 210.716 26.695 210.366 27.305C210.026 27.905 209.576 28.365 209.016 28.685C208.466 28.995 207.881 29.15 207.261 29.15C206.281 29.15 205.426 28.77 204.696 28.01V31.835C204.696 32.035 204.631 32.2 204.501 32.33C204.371 32.46 204.206 32.525 204.006 32.525ZM207.066 27.875C207.806 27.875 208.401 27.64 208.851 27.17C209.301 26.7 209.526 26.035 209.526 25.175C209.526 24.315 209.301 23.65 208.851 23.18C208.401 22.71 207.806 22.475 207.066 22.475C206.606 22.475 206.171 22.58 205.761 22.79C205.361 22.99 205.006 23.26 204.696 23.6V26.75C205.006 27.09 205.361 27.365 205.761 27.575C206.171 27.775 206.606 27.875 207.066 27.875ZM213.468 29.075C213.278 29.075 213.118 29.01 212.988 28.88C212.858 28.75 212.793 28.59 212.793 28.4V21.965C212.793 21.775 212.858 21.615 212.988 21.485C213.118 21.345 213.278 21.275 213.468 21.275C213.658 21.275 213.818 21.345 213.948 21.485C214.088 21.615 214.158 21.775 214.158 21.965V22.61C214.858 21.67 215.643 21.2 216.513 21.2H216.588C216.778 21.2 216.933 21.265 217.053 21.395C217.183 21.525 217.248 21.685 217.248 21.875C217.248 22.065 217.183 22.22 217.053 22.34C216.923 22.46 216.758 22.52 216.558 22.52H216.483C216.003 22.52 215.563 22.64 215.163 22.88C214.763 23.11 214.428 23.43 214.158 23.84V28.4C214.158 28.59 214.088 28.75 213.948 28.88C213.818 29.01 213.658 29.075 213.468 29.075ZM221.736 29.15C220.516 29.15 219.561 28.805 218.871 28.115C218.191 27.415 217.851 26.435 217.851 25.175C217.851 24.465 217.981 23.81 218.241 23.21C218.501 22.61 218.901 22.125 219.441 21.755C219.981 21.385 220.646 21.2 221.436 21.2C222.176 21.2 222.816 21.375 223.356 21.725C223.896 22.065 224.306 22.525 224.586 23.105C224.866 23.675 225.006 24.3 225.006 24.98C225.006 25.17 224.941 25.33 224.811 25.46C224.691 25.59 224.526 25.655 224.316 25.655H219.231C219.311 26.355 219.571 26.9 220.011 27.29C220.451 27.68 221.066 27.875 221.856 27.875C222.276 27.875 222.641 27.835 222.951 27.755C223.271 27.675 223.581 27.56 223.881 27.41C223.961 27.37 224.051 27.35 224.151 27.35C224.311 27.35 224.451 27.405 224.571 27.515C224.691 27.625 224.751 27.765 224.751 27.935C224.751 28.155 224.621 28.34 224.361 28.49C223.971 28.71 223.586 28.875 223.206 28.985C222.826 29.095 222.336 29.15 221.736 29.15ZM223.656 24.545C223.626 24.055 223.496 23.645 223.266 23.315C223.046 22.985 222.771 22.745 222.441 22.595C222.111 22.435 221.776 22.355 221.436 22.355C221.096 22.355 220.761 22.435 220.431 22.595C220.101 22.745 219.826 22.985 219.606 23.315C219.386 23.645 219.261 24.055 219.231 24.545H223.656ZM229.287 29.15C228.287 29.15 227.377 28.925 226.557 28.475C226.387 28.355 226.302 28.19 226.302 27.98C226.302 27.82 226.357 27.68 226.467 27.56C226.577 27.44 226.717 27.38 226.887 27.38C226.977 27.38 227.067 27.4 227.157 27.44C227.477 27.58 227.797 27.69 228.117 27.77C228.437 27.85 228.797 27.89 229.197 27.89C230.307 27.89 230.862 27.535 230.862 26.825C230.862 26.595 230.732 26.42 230.472 26.3C230.222 26.18 229.807 26.045 229.227 25.895C228.637 25.755 228.147 25.61 227.757 25.46C227.377 25.31 227.047 25.085 226.767 24.785C226.497 24.475 226.362 24.07 226.362 23.57C226.362 22.87 226.612 22.3 227.112 21.86C227.622 21.42 228.347 21.2 229.287 21.2C230.057 21.2 230.782 21.325 231.462 21.575C231.602 21.615 231.707 21.69 231.777 21.8C231.857 21.91 231.897 22.025 231.897 22.145C231.897 22.305 231.837 22.445 231.717 22.565C231.607 22.685 231.467 22.745 231.297 22.745C231.247 22.745 231.182 22.735 231.102 22.715C230.522 22.535 229.952 22.445 229.392 22.445C228.852 22.445 228.427 22.545 228.117 22.745C227.817 22.935 227.667 23.185 227.667 23.495C227.667 23.795 227.807 24.015 228.087 24.155C228.367 24.295 228.802 24.43 229.392 24.56C229.982 24.71 230.462 24.86 230.832 25.01C231.202 25.15 231.517 25.375 231.777 25.685C232.047 25.995 232.182 26.41 232.182 26.93C232.182 27.57 231.927 28.1 231.417 28.52C230.917 28.94 230.207 29.15 229.287 29.15ZM235.969 29.15C235.529 29.15 235.119 29.06 234.739 28.88C234.369 28.7 234.074 28.44 233.854 28.1C233.634 27.75 233.524 27.35 233.524 26.9C233.524 26.16 233.814 25.57 234.394 25.13C234.984 24.69 235.844 24.47 236.974 24.47H238.789V24.35C238.789 23.69 238.624 23.215 238.294 22.925C237.974 22.635 237.469 22.49 236.779 22.49C236.399 22.49 236.059 22.52 235.759 22.58C235.469 22.64 235.144 22.73 234.784 22.85C234.704 22.87 234.639 22.88 234.589 22.88C234.439 22.88 234.309 22.825 234.199 22.715C234.089 22.605 234.034 22.47 234.034 22.31C234.034 22.04 234.164 21.85 234.424 21.74C235.274 21.38 236.139 21.2 237.019 21.2C237.709 21.2 238.289 21.34 238.759 21.62C239.239 21.9 239.589 22.265 239.809 22.715C240.039 23.155 240.154 23.635 240.154 24.155V28.4C240.154 28.59 240.084 28.75 239.944 28.88C239.814 29.01 239.654 29.075 239.464 29.075C239.274 29.075 239.114 29.01 238.984 28.88C238.854 28.75 238.789 28.59 238.789 28.4V28.01C238.049 28.77 237.109 29.15 235.969 29.15ZM236.479 27.95C236.919 27.95 237.344 27.845 237.754 27.635C238.164 27.415 238.509 27.145 238.789 26.825V25.565H237.154C235.644 25.565 234.889 25.96 234.889 26.75C234.889 27.11 235.009 27.4 235.249 27.62C235.499 27.84 235.909 27.95 236.479 27.95ZM243.117 29.075C242.927 29.075 242.767 29.01 242.637 28.88C242.507 28.75 242.442 28.59 242.442 28.4V21.965C242.442 21.775 242.507 21.615 242.637 21.485C242.767 21.345 242.927 21.275 243.117 21.275C243.307 21.275 243.467 21.345 243.597 21.485C243.737 21.615 243.807 21.775 243.807 21.965V22.61C244.507 21.67 245.292 21.2 246.162 21.2H246.237C246.427 21.2 246.582 21.265 246.702 21.395C246.832 21.525 246.897 21.685 246.897 21.875C246.897 22.065 246.832 22.22 246.702 22.34C246.572 22.46 246.407 22.52 246.207 22.52H246.132C245.652 22.52 245.212 22.64 244.812 22.88C244.412 23.11 244.077 23.43 243.807 23.84V28.4C243.807 28.59 243.737 28.75 243.597 28.88C243.467 29.01 243.307 29.075 243.117 29.075ZM248.829 19.79C248.619 19.79 248.439 19.715 248.289 19.565C248.139 19.415 248.064 19.235 248.064 19.025V18.965C248.064 18.755 248.139 18.575 248.289 18.425C248.439 18.275 248.619 18.2 248.829 18.2H248.919C249.129 18.2 249.309 18.275 249.459 18.425C249.609 18.575 249.684 18.755 249.684 18.965V19.025C249.684 19.235 249.609 19.415 249.459 19.565C249.309 19.715 249.129 19.79 248.919 19.79H248.829ZM248.859 29.075C248.669 29.075 248.509 29.01 248.379 28.88C248.249 28.75 248.184 28.59 248.184 28.4V21.965C248.184 21.775 248.249 21.615 248.379 21.485C248.509 21.345 248.669 21.275 248.859 21.275C249.059 21.275 249.224 21.34 249.354 21.47C249.484 21.6 249.549 21.765 249.549 21.965V28.4C249.549 28.59 249.479 28.75 249.339 28.88C249.209 29.01 249.049 29.075 248.859 29.075ZM253.869 29.15C253.429 29.15 253.019 29.06 252.639 28.88C252.269 28.7 251.974 28.44 251.754 28.1C251.534 27.75 251.424 27.35 251.424 26.9C251.424 26.16 251.714 25.57 252.294 25.13C252.884 24.69 253.744 24.47 254.874 24.47H256.689V24.35C256.689 23.69 256.524 23.215 256.194 22.925C255.874 22.635 255.369 22.49 254.679 22.49C254.299 22.49 253.959 22.52 253.659 22.58C253.369 22.64 253.044 22.73 252.684 22.85C252.604 22.87 252.539 22.88 252.489 22.88C252.339 22.88 252.209 22.825 252.099 22.715C251.989 22.605 251.934 22.47 251.934 22.31C251.934 22.04 252.064 21.85 252.324 21.74C253.174 21.38 254.039 21.2 254.919 21.2C255.609 21.2 256.189 21.34 256.659 21.62C257.139 21.9 257.489 22.265 257.709 22.715C257.939 23.155 258.054 23.635 258.054 24.155V28.4C258.054 28.59 257.984 28.75 257.844 28.88C257.714 29.01 257.554 29.075 257.364 29.075C257.174 29.075 257.014 29.01 256.884 28.88C256.754 28.75 256.689 28.59 256.689 28.4V28.01C255.949 28.77 255.009 29.15 253.869 29.15ZM254.379 27.95C254.819 27.95 255.244 27.845 255.654 27.635C256.064 27.415 256.409 27.145 256.689 26.825V25.565H255.054C253.544 25.565 252.789 25.96 252.789 26.75C252.789 27.11 252.909 27.4 253.149 27.62C253.399 27.84 253.809 27.95 254.379 27.95ZM261.017 29.075C260.827 29.075 260.667 29.01 260.537 28.88C260.407 28.75 260.342 28.59 260.342 28.4V18.665C260.342 18.475 260.407 18.315 260.537 18.185C260.667 18.045 260.827 17.975 261.017 17.975C261.217 17.975 261.382 18.04 261.512 18.17C261.642 18.3 261.707 18.465 261.707 18.665V28.4C261.707 28.59 261.637 28.75 261.497 28.88C261.367 29.01 261.207 29.075 261.017 29.075Z" fill="#4F4F4F"/>
<path d="M81.22 52.07C81.0427 52.07 80.8933 52.0093 80.772 51.888C80.6507 51.7667 80.59 51.6173 80.59 51.44C80.59 51.328 80.618 51.216 80.674 51.104L84.524 43.446H79.442C79.274 43.446 79.1293 43.39 79.008 43.278C78.896 43.1567 78.84 43.012 78.84 42.844C78.84 42.676 78.896 42.5313 79.008 42.41C79.1293 42.2887 79.274 42.228 79.442 42.228H85.154C85.378 42.228 85.5647 42.298 85.714 42.438C85.8633 42.578 85.938 42.7553 85.938 42.97C85.938 43.1753 85.8913 43.3807 85.798 43.586L81.822 51.72C81.766 51.8227 81.682 51.9067 81.57 51.972C81.458 52.0373 81.3413 52.07 81.22 52.07ZM92.1637 52.07C91.9864 52.07 91.8371 52.0093 91.7157 51.888C91.5944 51.7667 91.5337 51.6173 91.5337 51.44V42.354C91.5337 42.1767 91.5944 42.0273 91.7157 41.906C91.8371 41.7753 91.9864 41.71 92.1637 41.71C92.3504 41.71 92.5044 41.7707 92.6257 41.892C92.7471 42.0133 92.8077 42.1673 92.8077 42.354V51.44C92.8077 51.6173 92.7424 51.7667 92.6117 51.888C92.4904 52.0093 92.3411 52.07 92.1637 52.07ZM95.6221 43.404C95.4261 43.404 95.2581 43.334 95.1181 43.194C94.9781 43.054 94.9081 42.886 94.9081 42.69V42.634C94.9081 42.438 94.9781 42.27 95.1181 42.13C95.2581 41.99 95.4261 41.92 95.6221 41.92H95.7061C95.9021 41.92 96.0701 41.99 96.2101 42.13C96.3501 42.27 96.4201 42.438 96.4201 42.634V42.69C96.4201 42.886 96.3501 43.054 96.2101 43.194C96.0701 43.334 95.9021 43.404 95.7061 43.404H95.6221ZM95.6501 52.07C95.4727 52.07 95.3234 52.0093 95.2021 51.888C95.0807 51.7667 95.0201 51.6173 95.0201 51.44V45.434C95.0201 45.2567 95.0807 45.1073 95.2021 44.986C95.3234 44.8553 95.4727 44.79 95.6501 44.79C95.8367 44.79 95.9907 44.8507 96.1121 44.972C96.2334 45.0933 96.2941 45.2473 96.2941 45.434V51.44C96.2941 51.6173 96.2287 51.7667 96.0981 51.888C95.9767 52.0093 95.8274 52.07 95.6501 52.07ZM103.84 50.418C103.98 50.418 104.102 50.4787 104.204 50.6C104.316 50.712 104.372 50.838 104.372 50.978C104.372 51.1833 104.279 51.3467 104.092 51.468C103.784 51.664 103.448 51.8273 103.084 51.958C102.73 52.0793 102.305 52.14 101.81 52.14L101.39 52.882C101.54 52.8447 101.698 52.826 101.866 52.826C102.184 52.826 102.44 52.9147 102.636 53.092C102.842 53.2787 102.944 53.5167 102.944 53.806C102.944 54.2353 102.809 54.5573 102.538 54.772C102.277 54.9867 101.894 55.094 101.39 55.094C100.942 55.094 100.522 54.9727 100.13 54.73C100.093 54.702 100.056 54.6647 100.018 54.618C99.9904 54.5807 99.9764 54.5387 99.9764 54.492C99.9764 54.4173 99.9997 54.352 100.046 54.296C100.093 54.24 100.158 54.212 100.242 54.212C100.28 54.212 100.326 54.226 100.382 54.254C100.672 54.4127 100.947 54.492 101.208 54.492C101.74 54.492 102.006 54.2773 102.006 53.848C102.006 53.708 101.96 53.6007 101.866 53.526C101.773 53.4513 101.652 53.414 101.502 53.414C101.297 53.414 101.092 53.4653 100.886 53.568C100.83 53.596 100.784 53.61 100.746 53.61C100.681 53.61 100.62 53.5867 100.564 53.54C100.518 53.5027 100.494 53.4513 100.494 53.386C100.494 53.3113 100.513 53.246 100.55 53.19L101.236 52.098C100.648 52.014 100.112 51.818 99.6264 51.51C99.1504 51.1927 98.7724 50.7727 98.4924 50.25C98.2124 49.718 98.0724 49.1113 98.0724 48.43C98.0724 47.674 98.2404 47.016 98.5764 46.456C98.9217 45.896 99.3791 45.4667 99.9484 45.168C100.518 44.8693 101.138 44.72 101.81 44.72C102.305 44.72 102.73 44.7853 103.084 44.916C103.448 45.0373 103.784 45.196 104.092 45.392C104.279 45.5133 104.372 45.6767 104.372 45.882C104.372 46.022 104.316 46.1527 104.204 46.274C104.102 46.386 103.98 46.442 103.84 46.442C103.738 46.442 103.635 46.414 103.532 46.358C103.224 46.1993 102.958 46.0873 102.734 46.022C102.52 45.9473 102.249 45.91 101.922 45.91C101.12 45.91 100.49 46.1433 100.032 46.61C99.5751 47.0673 99.3464 47.674 99.3464 48.43C99.3464 49.186 99.5751 49.7973 100.032 50.264C100.49 50.7213 101.12 50.95 101.922 50.95C102.249 50.95 102.52 50.9173 102.734 50.852C102.958 50.7773 103.224 50.6607 103.532 50.502C103.635 50.446 103.738 50.418 103.84 50.418ZM109.067 52.14C108.348 52.14 107.718 51.986 107.177 51.678C106.635 51.37 106.215 50.936 105.917 50.376C105.627 49.8067 105.483 49.158 105.483 48.43C105.483 47.702 105.627 47.058 105.917 46.498C106.215 45.9287 106.635 45.49 107.177 45.182C107.718 44.874 108.348 44.72 109.067 44.72C109.776 44.72 110.401 44.874 110.943 45.182C111.484 45.49 111.904 45.9287 112.203 46.498C112.501 47.058 112.651 47.702 112.651 48.43C112.651 49.158 112.501 49.8067 112.203 50.376C111.904 50.936 111.484 51.37 110.943 51.678C110.401 51.986 109.776 52.14 109.067 52.14ZM109.067 50.978C109.449 50.978 109.813 50.8893 110.159 50.712C110.513 50.5347 110.803 50.2547 111.027 49.872C111.26 49.4893 111.377 49.004 111.377 48.416C111.377 47.8373 111.26 47.3567 111.027 46.974C110.803 46.5913 110.513 46.316 110.159 46.148C109.813 45.9707 109.449 45.882 109.067 45.882C108.675 45.882 108.301 45.9707 107.947 46.148C107.601 46.316 107.317 46.5913 107.093 46.974C106.869 47.3567 106.757 47.8373 106.757 48.416C106.757 49.004 106.869 49.4893 107.093 49.872C107.317 50.2547 107.601 50.5347 107.947 50.712C108.301 50.8893 108.675 50.978 109.067 50.978ZM107.135 44.006C107.051 44.006 106.976 43.978 106.911 43.922C106.845 43.8567 106.813 43.7773 106.813 43.684C106.813 43.488 106.859 43.2873 106.953 43.082C107.055 42.8767 107.195 42.704 107.373 42.564C107.55 42.424 107.755 42.354 107.989 42.354C108.175 42.354 108.348 42.382 108.507 42.438C108.675 42.494 108.875 42.578 109.109 42.69C109.323 42.7927 109.505 42.872 109.655 42.928C109.813 42.984 109.977 43.012 110.145 43.012C110.285 43.012 110.392 42.9793 110.467 42.914C110.551 42.8487 110.616 42.7553 110.663 42.634C110.737 42.438 110.854 42.34 111.013 42.34C111.106 42.34 111.181 42.3727 111.237 42.438C111.293 42.494 111.325 42.564 111.335 42.648C111.335 42.9747 111.223 43.278 110.999 43.558C110.775 43.838 110.495 43.978 110.159 43.978C109.972 43.978 109.795 43.95 109.627 43.894C109.459 43.8287 109.253 43.74 109.011 43.628C108.796 43.5253 108.614 43.446 108.465 43.39C108.315 43.334 108.161 43.306 108.003 43.306C107.76 43.306 107.578 43.4553 107.457 43.754C107.401 43.922 107.293 44.006 107.135 44.006ZM117.626 52.14C116.487 52.14 115.596 51.818 114.952 51.174C114.317 50.5207 114 49.606 114 48.43C114 47.7673 114.121 47.156 114.364 46.596C114.607 46.036 114.98 45.5833 115.484 45.238C115.988 44.8927 116.609 44.72 117.346 44.72C118.037 44.72 118.634 44.8833 119.138 45.21C119.642 45.5273 120.025 45.9567 120.286 46.498C120.547 47.03 120.678 47.6133 120.678 48.248C120.678 48.4253 120.617 48.5747 120.496 48.696C120.384 48.8173 120.23 48.878 120.034 48.878H115.288C115.363 49.5313 115.605 50.04 116.016 50.404C116.427 50.768 117.001 50.95 117.738 50.95C118.13 50.95 118.471 50.9127 118.76 50.838C119.059 50.7633 119.348 50.656 119.628 50.516C119.703 50.4787 119.787 50.46 119.88 50.46C120.029 50.46 120.16 50.5113 120.272 50.614C120.384 50.7167 120.44 50.8473 120.44 51.006C120.44 51.2113 120.319 51.384 120.076 51.524C119.712 51.7293 119.353 51.8833 118.998 51.986C118.643 52.0887 118.186 52.14 117.626 52.14ZM119.418 47.842C119.39 47.3847 119.269 47.002 119.054 46.694C118.849 46.386 118.592 46.162 118.284 46.022C117.976 45.8727 117.663 45.798 117.346 45.798C117.029 45.798 116.716 45.8727 116.408 46.022C116.1 46.162 115.843 46.386 115.638 46.694C115.433 47.002 115.316 47.3847 115.288 47.842H119.418ZM124.674 52.14C123.74 52.14 122.891 51.93 122.126 51.51C121.967 51.398 121.888 51.244 121.888 51.048C121.888 50.8987 121.939 50.768 122.042 50.656C122.144 50.544 122.275 50.488 122.434 50.488C122.518 50.488 122.602 50.5067 122.686 50.544C122.984 50.6747 123.283 50.7773 123.582 50.852C123.88 50.9267 124.216 50.964 124.59 50.964C125.626 50.964 126.144 50.6327 126.144 49.97C126.144 49.7553 126.022 49.592 125.78 49.48C125.546 49.368 125.159 49.242 124.618 49.102C124.067 48.9713 123.61 48.836 123.246 48.696C122.891 48.556 122.583 48.346 122.322 48.066C122.07 47.7767 121.944 47.3987 121.944 46.932C121.944 46.2787 122.177 45.7467 122.644 45.336C123.12 44.9253 123.796 44.72 124.674 44.72C125.392 44.72 126.069 44.8367 126.704 45.07C126.834 45.1073 126.932 45.1773 126.998 45.28C127.072 45.3827 127.11 45.49 127.11 45.602C127.11 45.7513 127.054 45.882 126.942 45.994C126.839 46.106 126.708 46.162 126.55 46.162C126.503 46.162 126.442 46.1527 126.368 46.134C125.826 45.966 125.294 45.882 124.772 45.882C124.268 45.882 123.871 45.9753 123.582 46.162C123.302 46.3393 123.162 46.5727 123.162 46.862C123.162 47.142 123.292 47.3473 123.554 47.478C123.815 47.6087 124.221 47.7347 124.772 47.856C125.322 47.996 125.77 48.136 126.116 48.276C126.461 48.4067 126.755 48.6167 126.998 48.906C127.25 49.1953 127.376 49.5827 127.376 50.068C127.376 50.6653 127.138 51.16 126.662 51.552C126.195 51.944 125.532 52.14 124.674 52.14Z" fill="#828282"/>
<path d="M27.396 141.14C26.5187 141.14 25.8 141.005 25.24 140.734C24.6893 140.463 24.288 140.123 24.036 139.712C23.784 139.301 23.658 138.867 23.658 138.41C23.658 137.113 24.3533 136.231 25.744 135.764C25.268 135.605 24.876 135.349 24.568 134.994C24.2693 134.63 24.12 134.177 24.12 133.636C24.12 133.235 24.2273 132.838 24.442 132.446C24.666 132.054 25.0207 131.732 25.506 131.48C26.0007 131.219 26.6307 131.088 27.396 131.088C28.1613 131.088 28.7867 131.219 29.272 131.48C29.7667 131.732 30.1213 132.054 30.336 132.446C30.56 132.838 30.672 133.235 30.672 133.636C30.672 134.177 30.518 134.63 30.21 134.994C29.9113 135.349 29.524 135.605 29.048 135.764C30.4387 136.231 31.134 137.113 31.134 138.41C31.134 138.867 31.008 139.301 30.756 139.712C30.504 140.123 30.098 140.463 29.538 140.734C28.9873 141.005 28.2733 141.14 27.396 141.14ZM27.396 135.232C28.0867 135.232 28.5907 135.078 28.908 134.77C29.2347 134.462 29.398 134.112 29.398 133.72C29.398 133.281 29.2253 132.922 28.88 132.642C28.544 132.353 28.0493 132.208 27.396 132.208C26.7427 132.208 26.2433 132.353 25.898 132.642C25.562 132.922 25.394 133.281 25.394 133.72C25.394 134.112 25.5527 134.462 25.87 134.77C26.1967 135.078 26.7053 135.232 27.396 135.232ZM27.396 140.02C27.9747 140.02 28.446 139.927 28.81 139.74C29.1833 139.544 29.4493 139.311 29.608 139.04C29.776 138.769 29.86 138.513 29.86 138.27C29.86 137.673 29.622 137.211 29.146 136.884C28.67 136.548 28.0867 136.38 27.396 136.38C26.7053 136.38 26.122 136.548 25.646 136.884C25.17 137.211 24.932 137.673 24.932 138.27C24.932 138.513 25.0113 138.769 25.17 139.04C25.338 139.311 25.604 139.544 25.968 139.74C26.3413 139.927 26.8173 140.02 27.396 140.02ZM36.187 141.14C34.955 141.14 34.0123 140.687 33.359 139.782C32.715 138.877 32.393 137.654 32.393 136.114C32.393 134.574 32.715 133.351 33.359 132.446C34.0123 131.541 34.955 131.088 36.187 131.088C37.4097 131.088 38.3477 131.541 39.001 132.446C39.6543 133.351 39.981 134.574 39.981 136.114C39.981 137.654 39.6543 138.877 39.001 139.782C38.3477 140.687 37.4097 141.14 36.187 141.14ZM36.187 139.964C36.999 139.964 37.6197 139.623 38.049 138.942C38.4877 138.261 38.707 137.318 38.707 136.114C38.707 134.919 38.4877 133.981 38.049 133.3C37.6197 132.619 36.999 132.278 36.187 132.278C35.375 132.278 34.7497 132.619 34.311 133.3C33.8817 133.981 33.667 134.919 33.667 136.114C33.667 137.318 33.8817 138.261 34.311 138.942C34.7497 139.623 35.375 139.964 36.187 139.964ZM43.438 136.002C42.7194 136.002 42.164 135.769 41.772 135.302C41.38 134.826 41.184 134.224 41.184 133.496C41.184 132.768 41.38 132.171 41.772 131.704C42.164 131.228 42.7194 130.99 43.438 130.99C44.1567 130.99 44.712 131.228 45.104 131.704C45.496 132.171 45.692 132.768 45.692 133.496C45.692 134.224 45.496 134.826 45.104 135.302C44.712 135.769 44.1567 136.002 43.438 136.002ZM43.438 141.14C43.3167 141.14 43.2094 141.093 43.116 141C43.0227 140.916 42.976 140.809 42.976 140.678C42.976 140.594 42.9994 140.515 43.046 140.44L48.744 131.326C48.8374 131.177 48.968 131.102 49.136 131.102C49.276 131.102 49.388 131.139 49.472 131.214C49.5654 131.289 49.612 131.391 49.612 131.522C49.612 131.625 49.5794 131.727 49.514 131.83L43.858 140.888C43.8114 140.963 43.7507 141.023 43.676 141.07C43.6014 141.117 43.522 141.14 43.438 141.14ZM43.438 135.092C43.8394 135.092 44.152 134.943 44.376 134.644C44.6 134.345 44.712 133.963 44.712 133.496C44.712 133.029 44.6 132.647 44.376 132.348C44.152 132.049 43.8394 131.9 43.438 131.9C43.0367 131.9 42.724 132.049 42.5 132.348C42.276 132.647 42.164 133.029 42.164 133.496C42.164 133.963 42.276 134.345 42.5 134.644C42.724 134.943 43.0367 135.092 43.438 135.092ZM49.122 141.252C48.4034 141.252 47.848 141.019 47.456 140.552C47.064 140.076 46.868 139.474 46.868 138.746C46.868 138.018 47.064 137.421 47.456 136.954C47.848 136.478 48.4034 136.24 49.122 136.24C49.8407 136.24 50.396 136.478 50.788 136.954C51.18 137.421 51.376 138.018 51.376 138.746C51.376 139.474 51.18 140.076 50.788 140.552C50.396 141.019 49.8407 141.252 49.122 141.252ZM49.122 140.342C49.5234 140.342 49.836 140.193 50.06 139.894C50.284 139.595 50.396 139.213 50.396 138.746C50.396 138.279 50.284 137.897 50.06 137.598C49.836 137.299 49.5234 137.15 49.122 137.15C48.7207 137.15 48.408 137.299 48.184 137.598C47.96 137.897 47.848 138.279 47.848 138.746C47.848 139.213 47.96 139.595 48.184 139.894C48.408 140.193 48.7207 140.342 49.122 140.342ZM61.5258 141.07C61.3485 141.07 61.1991 141.009 61.0778 140.888C60.9565 140.767 60.8958 140.617 60.8958 140.44V134.952H60.0698C59.9205 134.952 59.7898 134.901 59.6778 134.798C59.5751 134.686 59.5238 134.555 59.5238 134.406C59.5238 134.247 59.5751 134.117 59.6778 134.014C59.7898 133.911 59.9205 133.86 60.0698 133.86H60.8958V133.048C60.8958 132.488 60.9938 132.031 61.1898 131.676C61.3951 131.312 61.6565 131.051 61.9738 130.892C62.3005 130.724 62.6411 130.64 62.9958 130.64C63.4345 130.64 63.8405 130.733 64.2138 130.92C64.3071 130.967 64.3818 131.037 64.4378 131.13C64.5031 131.214 64.5358 131.307 64.5358 131.41C64.5358 131.55 64.4845 131.676 64.3818 131.788C64.2791 131.891 64.1578 131.942 64.0178 131.942C63.9151 131.942 63.8078 131.928 63.6958 131.9C63.4718 131.872 63.3458 131.858 63.3178 131.858C62.9351 131.858 62.6458 131.947 62.4498 132.124C62.2631 132.301 62.1698 132.623 62.1698 133.09V133.86H63.9198C64.0785 133.86 64.2091 133.911 64.3118 134.014C64.4145 134.117 64.4658 134.247 64.4658 134.406C64.4658 134.555 64.4145 134.686 64.3118 134.798C64.2091 134.901 64.0785 134.952 63.9198 134.952H62.1698V140.44C62.1698 140.617 62.1045 140.767 61.9738 140.888C61.8525 141.009 61.7031 141.07 61.5258 141.07ZM68.4914 141.14C67.3527 141.14 66.4614 140.818 65.8174 140.174C65.1827 139.521 64.8654 138.606 64.8654 137.43C64.8654 136.767 64.9867 136.156 65.2294 135.596C65.472 135.036 65.8454 134.583 66.3494 134.238C66.8534 133.893 67.474 133.72 68.2114 133.72C68.902 133.72 69.4994 133.883 70.0034 134.21C70.5074 134.527 70.89 134.957 71.1514 135.498C71.4127 136.03 71.5434 136.613 71.5434 137.248C71.5434 137.425 71.4827 137.575 71.3614 137.696C71.2494 137.817 71.0954 137.878 70.8994 137.878H66.1534C66.228 138.531 66.4707 139.04 66.8814 139.404C67.292 139.768 67.866 139.95 68.6034 139.95C68.9954 139.95 69.336 139.913 69.6254 139.838C69.924 139.763 70.2134 139.656 70.4934 139.516C70.568 139.479 70.652 139.46 70.7454 139.46C70.8947 139.46 71.0254 139.511 71.1374 139.614C71.2494 139.717 71.3054 139.847 71.3054 140.006C71.3054 140.211 71.184 140.384 70.9414 140.524C70.5774 140.729 70.218 140.883 69.8634 140.986C69.5087 141.089 69.0514 141.14 68.4914 141.14ZM70.2834 136.842C70.2554 136.385 70.134 136.002 69.9194 135.694C69.714 135.386 69.4574 135.162 69.1494 135.022C68.8414 134.873 68.5287 134.798 68.2114 134.798C67.894 134.798 67.5814 134.873 67.2734 135.022C66.9654 135.162 66.7087 135.386 66.5034 135.694C66.298 136.002 66.1814 136.385 66.1534 136.842H70.2834ZM73.831 132.404C73.635 132.404 73.467 132.334 73.327 132.194C73.187 132.054 73.117 131.886 73.117 131.69V131.634C73.117 131.438 73.187 131.27 73.327 131.13C73.467 130.99 73.635 130.92 73.831 130.92H73.915C74.111 130.92 74.279 130.99 74.419 131.13C74.559 131.27 74.629 131.438 74.629 131.634V131.69C74.629 131.886 74.559 132.054 74.419 132.194C74.279 132.334 74.111 132.404 73.915 132.404H73.831ZM73.859 141.07C73.6817 141.07 73.5324 141.009 73.411 140.888C73.2897 140.767 73.229 140.617 73.229 140.44V134.434C73.229 134.257 73.2897 134.107 73.411 133.986C73.5324 133.855 73.6817 133.79 73.859 133.79C74.0457 133.79 74.1997 133.851 74.321 133.972C74.4424 134.093 74.503 134.247 74.503 134.434V140.44C74.503 140.617 74.4377 140.767 74.307 140.888C74.1857 141.009 74.0364 141.07 73.859 141.07ZM79.1794 141.14C77.8167 141.14 77.1354 140.524 77.1354 139.292V134.952H76.1414C76.0667 134.952 76.0014 134.929 75.9454 134.882C75.8987 134.826 75.8754 134.761 75.8754 134.686C75.8754 134.593 75.9174 134.513 76.0014 134.448L77.9054 132.586C77.9894 132.502 78.0687 132.46 78.1434 132.46C78.218 132.46 78.2787 132.488 78.3254 132.544C78.3814 132.6 78.4094 132.665 78.4094 132.74V133.86H79.9914C80.15 133.86 80.2807 133.911 80.3834 134.014C80.486 134.117 80.5374 134.247 80.5374 134.406C80.5374 134.555 80.486 134.686 80.3834 134.798C80.2807 134.901 80.15 134.952 79.9914 134.952H78.4094V139.18C78.4094 139.544 78.4934 139.777 78.6614 139.88C78.8387 139.973 79.058 140.02 79.3194 140.02C79.506 140.02 79.6927 139.992 79.8794 139.936C79.9167 139.927 79.954 139.917 79.9914 139.908C80.038 139.899 80.094 139.894 80.1594 139.894C80.29 139.894 80.4067 139.945 80.5094 140.048C80.612 140.141 80.6634 140.258 80.6634 140.398C80.6634 140.613 80.556 140.776 80.3414 140.888C79.9774 141.056 79.59 141.14 79.1794 141.14ZM85.1154 141.14C84.3967 141.14 83.7667 140.986 83.2254 140.678C82.684 140.37 82.264 139.936 81.9654 139.376C81.676 138.807 81.5314 138.158 81.5314 137.43C81.5314 136.702 81.676 136.058 81.9654 135.498C82.264 134.929 82.684 134.49 83.2254 134.182C83.7667 133.874 84.3967 133.72 85.1154 133.72C85.8247 133.72 86.45 133.874 86.9914 134.182C87.5327 134.49 87.9527 134.929 88.2514 135.498C88.55 136.058 88.6994 136.702 88.6994 137.43C88.6994 138.158 88.55 138.807 88.2514 139.376C87.9527 139.936 87.5327 140.37 86.9914 140.678C86.45 140.986 85.8247 141.14 85.1154 141.14ZM85.1154 139.978C85.498 139.978 85.862 139.889 86.2074 139.712C86.562 139.535 86.8514 139.255 87.0754 138.872C87.3087 138.489 87.4254 138.004 87.4254 137.416C87.4254 136.837 87.3087 136.357 87.0754 135.974C86.8514 135.591 86.562 135.316 86.2074 135.148C85.862 134.971 85.498 134.882 85.1154 134.882C84.7234 134.882 84.35 134.971 83.9954 135.148C83.65 135.316 83.3654 135.591 83.1414 135.974C82.9174 136.357 82.8054 136.837 82.8054 137.416C82.8054 138.004 82.9174 138.489 83.1414 138.872C83.3654 139.255 83.65 139.535 83.9954 139.712C84.35 139.889 84.7234 139.978 85.1154 139.978Z" fill="black"/>
<line x1="26" y1="149" x2="270" y2="149" stroke="#C7D4E0" stroke-width="6" stroke-linecap="round"/>
<path d="M26 149L229 149" stroke="#C7D4E0" stroke-width="6" stroke-linecap="round"/>
<path d="M26 149L229 149" stroke="#C7D4E0" stroke-width="6" stroke-linecap="round"/>
<path d="M26 149L229 149" stroke="#2DDB5E" stroke-width="6" stroke-linecap="round"/>
<mask id="mask1_1020_2477" style="mask-type:alpha" maskUnits="userSpaceOnUse" x="26" y="86" width="16" height="16">
<rect x="26" y="86" width="16" height="16" fill="#D9D9D9"/>
</mask>
<g mask="url(#mask1_1020_2477)">
<path fill-rule="evenodd" clip-rule="evenodd" d="M27 101.278V103.83H40.33V101.278C40.33 100.762 40.2084 100.287 39.9651 99.854C39.7224 99.4215 39.3997 99.0913 38.997 98.8635C38.1361 98.3927 37.2613 98.0394 36.3727 97.8037C35.484 97.5686 34.5814 97.4511 33.665 97.4511C32.7486 97.4511 31.846 97.5686 30.9573 97.8037C30.0687 98.0394 29.1939 98.3927 28.333 98.8635C27.9303 99.0913 27.6076 99.4215 27.3649 99.854C27.1216 100.287 27 100.762 27 101.278Z" fill="#4F4F4F"/>
<path d="M33.665 96.5398C32.7486 96.5398 31.964 96.1829 31.3114 95.4691C30.6588 94.7554 30.3325 93.8973 30.3325 92.8949C30.3325 91.8926 30.6588 91.0345 31.3114 90.3207C31.964 89.6069 32.7486 89.25 33.665 89.25C34.5814 89.25 35.366 89.6069 36.0186 90.3207C36.6712 91.0345 36.9975 91.8926 36.9975 92.8949C36.9975 93.8973 36.6712 94.7554 36.0186 95.4691C35.366 96.1829 34.5814 96.5398 33.665 96.5398Z" fill="#BDBDBD"/>
</g>
<path d="M49.704 99C49.552 99 49.424 98.948 49.32 98.844C49.216 98.74 49.164 98.612 49.164 98.46V91.176C49.164 91.024 49.216 90.896 49.32 90.792C49.424 90.68 49.552 90.624 49.704 90.624H52.116C53.028 90.624 53.8 90.828 54.432 91.236C55.072 91.636 55.552 92.156 55.872 92.796C56.192 93.436 56.352 94.108 56.352 94.812C56.352 95.516 56.192 96.188 55.872 96.828C55.552 97.468 55.072 97.992 54.432 98.4C53.8 98.8 53.028 99 52.116 99H49.704ZM51.984 97.98C52.64 97.98 53.216 97.848 53.712 97.584C54.208 97.312 54.592 96.94 54.864 96.468C55.136 95.988 55.272 95.436 55.272 94.812C55.272 94.188 55.136 93.64 54.864 93.168C54.592 92.688 54.208 92.316 53.712 92.052C53.216 91.78 52.64 91.644 51.984 91.644H50.256V97.98H51.984ZM59.4025 99.12C59.0505 99.12 58.7225 99.048 58.4185 98.904C58.1225 98.76 57.8865 98.552 57.7105 98.28C57.5345 98 57.4465 97.68 57.4465 97.32C57.4465 96.728 57.6785 96.256 58.1425 95.904C58.6145 95.552 59.3025 95.376 60.2065 95.376H61.6585V95.28C61.6585 94.752 61.5265 94.372 61.2625 94.14C61.0065 93.908 60.6025 93.792 60.0505 93.792C59.7465 93.792 59.4745 93.816 59.2345 93.864C59.0025 93.912 58.7425 93.984 58.4545 94.08C58.3905 94.096 58.3385 94.104 58.2985 94.104C58.1785 94.104 58.0745 94.06 57.9865 93.972C57.8985 93.884 57.8545 93.776 57.8545 93.648C57.8545 93.432 57.9585 93.28 58.1665 93.192C58.8465 92.904 59.5385 92.76 60.2425 92.76C60.7945 92.76 61.2585 92.872 61.6345 93.096C62.0185 93.32 62.2985 93.612 62.4745 93.972C62.6585 94.324 62.7505 94.708 62.7505 95.124V98.52C62.7505 98.672 62.6945 98.8 62.5825 98.904C62.4785 99.008 62.3505 99.06 62.1985 99.06C62.0465 99.06 61.9185 99.008 61.8145 98.904C61.7105 98.8 61.6585 98.672 61.6585 98.52V98.208C61.0665 98.816 60.3145 99.12 59.4025 99.12ZM59.8105 98.16C60.1625 98.16 60.5025 98.076 60.8305 97.908C61.1585 97.732 61.4345 97.516 61.6585 97.26V96.252H60.3505C59.1425 96.252 58.5385 96.568 58.5385 97.2C58.5385 97.488 58.6345 97.72 58.8265 97.896C59.0265 98.072 59.3545 98.16 59.8105 98.16ZM65.1208 99.06C64.9688 99.06 64.8408 99.008 64.7368 98.904C64.6328 98.8 64.5808 98.672 64.5808 98.52V93.372C64.5808 93.22 64.6328 93.092 64.7368 92.988C64.8408 92.876 64.9688 92.82 65.1208 92.82C65.2728 92.82 65.4008 92.876 65.5048 92.988C65.6168 93.092 65.6728 93.22 65.6728 93.372V93.864C65.9768 93.528 66.3048 93.26 66.6568 93.06C67.0088 92.86 67.4248 92.76 67.9048 92.76C68.3448 92.76 68.7248 92.864 69.0448 93.072C69.3728 93.28 69.6208 93.564 69.7888 93.924C69.9648 94.284 70.0528 94.68 70.0528 95.112V98.52C70.0528 98.672 69.9968 98.8 69.8848 98.904C69.7808 99.008 69.6528 99.06 69.5008 99.06C69.3488 99.06 69.2208 99.008 69.1168 98.904C69.0128 98.8 68.9608 98.672 68.9608 98.52V95.232C68.9608 94.256 68.5208 93.768 67.6408 93.768C67.2408 93.768 66.8808 93.872 66.5608 94.08C66.2488 94.288 65.9528 94.568 65.6728 94.92V98.52C65.6728 98.672 65.6168 98.8 65.5048 98.904C65.4008 99.008 65.2728 99.06 65.1208 99.06ZM72.4093 91.632C72.2413 91.632 72.0973 91.572 71.9773 91.452C71.8573 91.332 71.7973 91.188 71.7973 91.02V90.972C71.7973 90.804 71.8573 90.66 71.9773 90.54C72.0973 90.42 72.2413 90.36 72.4093 90.36H72.4813C72.6493 90.36 72.7933 90.42 72.9133 90.54C73.0333 90.66 73.0933 90.804 73.0933 90.972V91.02C73.0933 91.188 73.0333 91.332 72.9133 91.452C72.7933 91.572 72.6493 91.632 72.4813 91.632H72.4093ZM72.4333 99.06C72.2813 99.06 72.1533 99.008 72.0493 98.904C71.9453 98.8 71.8933 98.672 71.8933 98.52V93.372C71.8933 93.22 71.9453 93.092 72.0493 92.988C72.1533 92.876 72.2813 92.82 72.4333 92.82C72.5933 92.82 72.7253 92.872 72.8293 92.976C72.9333 93.08 72.9853 93.212 72.9853 93.372V98.52C72.9853 98.672 72.9293 98.8 72.8173 98.904C72.7133 99.008 72.5853 99.06 72.4333 99.06ZM77.6176 99.12C76.6416 99.12 75.8776 98.844 75.3256 98.292C74.7816 97.732 74.5096 96.948 74.5096 95.94C74.5096 95.372 74.6136 94.848 74.8216 94.368C75.0296 93.888 75.3496 93.5 75.7816 93.204C76.2136 92.908 76.7456 92.76 77.3776 92.76C77.9696 92.76 78.4816 92.9 78.9136 93.18C79.3456 93.452 79.6736 93.82 79.8976 94.284C80.1216 94.74 80.2336 95.24 80.2336 95.784C80.2336 95.936 80.1816 96.064 80.0776 96.168C79.9816 96.272 79.8496 96.324 79.6816 96.324H75.6136C75.6776 96.884 75.8856 97.32 76.2376 97.632C76.5896 97.944 77.0816 98.1 77.7136 98.1C78.0496 98.1 78.3416 98.068 78.5896 98.004C78.8456 97.94 79.0936 97.848 79.3336 97.728C79.3976 97.696 79.4696 97.68 79.5496 97.68C79.6776 97.68 79.7896 97.724 79.8856 97.812C79.9816 97.9 80.0296 98.012 80.0296 98.148C80.0296 98.324 79.9256 98.472 79.7176 98.592C79.4056 98.768 79.0976 98.9 78.7936 98.988C78.4896 99.076 78.0976 99.12 77.6176 99.12ZM79.1536 95.436C79.1296 95.044 79.0256 94.716 78.8416 94.452C78.6656 94.188 78.4456 93.996 78.1816 93.876C77.9176 93.748 77.6496 93.684 77.3776 93.684C77.1056 93.684 76.8376 93.748 76.5736 93.876C76.3096 93.996 76.0896 94.188 75.9136 94.452C75.7376 94.716 75.6376 95.044 75.6136 95.436H79.1536ZM82.2185 99.06C82.0665 99.06 81.9385 99.008 81.8345 98.904C81.7305 98.8 81.6785 98.672 81.6785 98.52V90.732C81.6785 90.58 81.7305 90.452 81.8345 90.348C81.9385 90.236 82.0665 90.18 82.2185 90.18C82.3785 90.18 82.5105 90.232 82.6145 90.336C82.7185 90.44 82.7705 90.572 82.7705 90.732V98.52C82.7705 98.672 82.7145 98.8 82.6025 98.904C82.4985 99.008 82.3705 99.06 82.2185 99.06ZM91.7079 99.12C90.8679 99.12 90.1319 98.936 89.4999 98.568C88.8679 98.2 88.3799 97.692 88.0359 97.044C87.6919 96.396 87.5119 95.652 87.4959 94.812C87.5119 93.972 87.6919 93.228 88.0359 92.58C88.3799 91.932 88.8679 91.424 89.4999 91.056C90.1319 90.688 90.8679 90.504 91.7079 90.504C92.5479 90.504 93.2799 90.688 93.9039 91.056C94.5359 91.424 95.0239 91.936 95.3679 92.592C95.7199 93.24 95.9039 93.98 95.9199 94.812C95.9039 95.644 95.7199 96.388 95.3679 97.044C95.0239 97.692 94.5359 98.2 93.9039 98.568C93.2799 98.936 92.5479 99.12 91.7079 99.12ZM91.7079 98.1C92.3479 98.1 92.9039 97.956 93.3759 97.668C93.8479 97.38 94.2079 96.988 94.4559 96.492C94.7039 95.996 94.8279 95.436 94.8279 94.812C94.8279 94.188 94.7039 93.628 94.4559 93.132C94.2079 92.636 93.8479 92.244 93.3759 91.956C92.9039 91.668 92.3479 91.524 91.7079 91.524C91.0599 91.524 90.4999 91.668 90.0279 91.956C89.5639 92.244 89.2079 92.636 88.9599 93.132C88.7119 93.628 88.5879 94.188 88.5879 94.812C88.5879 95.436 88.7119 95.996 88.9599 96.492C89.2079 96.988 89.5639 97.38 90.0279 97.668C90.4999 97.956 91.0599 98.1 91.7079 98.1ZM97.9568 99.06C97.8048 99.06 97.6768 99.008 97.5728 98.904C97.4688 98.8 97.4168 98.672 97.4168 98.52V90.732C97.4168 90.58 97.4688 90.452 97.5728 90.348C97.6768 90.236 97.8048 90.18 97.9568 90.18C98.1168 90.18 98.2488 90.232 98.3528 90.336C98.4568 90.44 98.5088 90.572 98.5088 90.732V98.52C98.5088 98.672 98.4528 98.8 98.3408 98.904C98.2368 99.008 98.1088 99.06 97.9568 99.06ZM100.921 91.632C100.753 91.632 100.609 91.572 100.489 91.452C100.369 91.332 100.309 91.188 100.309 91.02V90.972C100.309 90.804 100.369 90.66 100.489 90.54C100.609 90.42 100.753 90.36 100.921 90.36H100.993C101.161 90.36 101.305 90.42 101.425 90.54C101.545 90.66 101.605 90.804 101.605 90.972V91.02C101.605 91.188 101.545 91.332 101.425 91.452C101.305 91.572 101.161 91.632 100.993 91.632H100.921ZM100.945 99.06C100.793 99.06 100.665 99.008 100.561 98.904C100.457 98.8 100.405 98.672 100.405 98.52V93.372C100.405 93.22 100.457 93.092 100.561 92.988C100.665 92.876 100.793 92.82 100.945 92.82C101.105 92.82 101.237 92.872 101.341 92.976C101.445 93.08 101.497 93.212 101.497 93.372V98.52C101.497 98.672 101.441 98.8 101.329 98.904C101.225 99.008 101.097 99.06 100.945 99.06ZM105.565 99.06C105.421 99.06 105.289 99.02 105.169 98.94C105.049 98.852 104.961 98.744 104.905 98.616L102.817 93.624C102.777 93.528 102.757 93.444 102.757 93.372C102.757 93.22 102.809 93.092 102.913 92.988C103.017 92.876 103.145 92.82 103.297 92.82C103.401 92.82 103.497 92.852 103.585 92.916C103.681 92.972 103.749 93.044 103.789 93.132L105.625 97.788L107.461 93.132C107.501 93.044 107.565 92.972 107.653 92.916C107.749 92.852 107.849 92.82 107.953 92.82C108.105 92.82 108.233 92.876 108.337 92.988C108.441 93.092 108.493 93.22 108.493 93.372C108.493 93.444 108.473 93.528 108.433 93.624L106.345 98.616C106.289 98.744 106.201 98.852 106.081 98.94C105.961 99.02 105.829 99.06 105.685 99.06H105.565ZM112.411 99.12C111.435 99.12 110.671 98.844 110.119 98.292C109.575 97.732 109.303 96.948 109.303 95.94C109.303 95.372 109.407 94.848 109.615 94.368C109.823 93.888 110.143 93.5 110.575 93.204C111.007 92.908 111.539 92.76 112.171 92.76C112.763 92.76 113.275 92.9 113.707 93.18C114.139 93.452 114.467 93.82 114.691 94.284C114.915 94.74 115.027 95.24 115.027 95.784C115.027 95.936 114.975 96.064 114.871 96.168C114.775 96.272 114.643 96.324 114.475 96.324H110.407C110.471 96.884 110.679 97.32 111.031 97.632C111.383 97.944 111.875 98.1 112.507 98.1C112.843 98.1 113.135 98.068 113.383 98.004C113.639 97.94 113.887 97.848 114.127 97.728C114.191 97.696 114.263 97.68 114.343 97.68C114.471 97.68 114.583 97.724 114.679 97.812C114.775 97.9 114.823 98.012 114.823 98.148C114.823 98.324 114.719 98.472 114.511 98.592C114.199 98.768 113.891 98.9 113.587 98.988C113.283 99.076 112.891 99.12 112.411 99.12ZM113.947 95.436C113.923 95.044 113.819 94.716 113.635 94.452C113.459 94.188 113.239 93.996 112.975 93.876C112.711 93.748 112.443 93.684 112.171 93.684C111.899 93.684 111.631 93.748 111.367 93.876C111.103 93.996 110.883 94.188 110.707 94.452C110.531 94.716 110.431 95.044 110.407 95.436H113.947ZM116.987 91.632C116.819 91.632 116.675 91.572 116.555 91.452C116.435 91.332 116.375 91.188 116.375 91.02V90.972C116.375 90.804 116.435 90.66 116.555 90.54C116.675 90.42 116.819 90.36 116.987 90.36H117.059C117.227 90.36 117.371 90.42 117.491 90.54C117.611 90.66 117.671 90.804 117.671 90.972V91.02C117.671 91.188 117.611 91.332 117.491 91.452C117.371 91.572 117.227 91.632 117.059 91.632H116.987ZM117.011 99.06C116.859 99.06 116.731 99.008 116.627 98.904C116.523 98.8 116.471 98.672 116.471 98.52V93.372C116.471 93.22 116.523 93.092 116.627 92.988C116.731 92.876 116.859 92.82 117.011 92.82C117.171 92.82 117.303 92.872 117.407 92.976C117.511 93.08 117.563 93.212 117.563 93.372V98.52C117.563 98.672 117.507 98.8 117.395 98.904C117.291 99.008 117.163 99.06 117.011 99.06ZM120 99.06C119.848 99.06 119.72 99.008 119.616 98.904C119.512 98.8 119.46 98.672 119.46 98.52V93.372C119.46 93.22 119.512 93.092 119.616 92.988C119.72 92.876 119.848 92.82 120 92.82C120.152 92.82 120.28 92.876 120.384 92.988C120.496 93.092 120.552 93.22 120.552 93.372V93.888C121.112 93.136 121.74 92.76 122.436 92.76H122.496C122.648 92.76 122.772 92.812 122.868 92.916C122.972 93.02 123.024 93.148 123.024 93.3C123.024 93.452 122.972 93.576 122.868 93.672C122.764 93.768 122.632 93.816 122.472 93.816H122.412C122.028 93.816 121.676 93.912 121.356 94.104C121.036 94.288 120.768 94.544 120.552 94.872V98.52C120.552 98.672 120.496 98.8 120.384 98.904C120.28 99.008 120.152 99.06 120 99.06ZM125.613 99.12C125.261 99.12 124.933 99.048 124.629 98.904C124.333 98.76 124.097 98.552 123.921 98.28C123.745 98 123.657 97.68 123.657 97.32C123.657 96.728 123.889 96.256 124.353 95.904C124.825 95.552 125.513 95.376 126.417 95.376H127.869V95.28C127.869 94.752 127.737 94.372 127.473 94.14C127.217 93.908 126.813 93.792 126.261 93.792C125.957 93.792 125.685 93.816 125.445 93.864C125.213 93.912 124.953 93.984 124.665 94.08C124.601 94.096 124.549 94.104 124.509 94.104C124.389 94.104 124.285 94.06 124.197 93.972C124.109 93.884 124.065 93.776 124.065 93.648C124.065 93.432 124.169 93.28 124.377 93.192C125.057 92.904 125.749 92.76 126.453 92.76C127.005 92.76 127.469 92.872 127.845 93.096C128.229 93.32 128.509 93.612 128.685 93.972C128.869 94.324 128.961 94.708 128.961 95.124V98.52C128.961 98.672 128.905 98.8 128.793 98.904C128.689 99.008 128.561 99.06 128.409 99.06C128.257 99.06 128.129 99.008 128.025 98.904C127.921 98.8 127.869 98.672 127.869 98.52V98.208C127.277 98.816 126.525 99.12 125.613 99.12ZM126.021 98.16C126.373 98.16 126.713 98.076 127.041 97.908C127.369 97.732 127.645 97.516 127.869 97.26V96.252H126.561C125.353 96.252 124.749 96.568 124.749 97.2C124.749 97.488 124.845 97.72 125.037 97.896C125.237 98.072 125.565 98.16 126.021 98.16Z" fill="#4F4F4F"/>
<path fill-rule="evenodd" clip-rule="evenodd" d="M272.223 89.7719C273.558 88.2233 274.462 86.3255 274.311 84.1989C273.875 78.0717 265.245 79.4196 263.566 82.5121C261.887 85.6046 262.086 93.4489 264.256 94.0016C265.121 94.222 266.965 93.6821 268.841 92.5646L267.663 100.798H274.617L272.223 89.7719Z" fill="#B28B67"/>
<path fill-rule="evenodd" clip-rule="evenodd" d="M277.342 82.1593C277.567 81.9394 277.689 81.6255 277.795 81.3274C277.905 81.0177 278.012 80.7049 278.085 80.3826C278.231 79.7386 278.233 78.998 277.768 78.498C277.395 78.097 276.835 77.9171 276.319 77.8781C275.975 77.852 275.622 77.8996 275.292 78.0067C274.965 78.113 274.683 78.3248 274.366 78.4562C274.354 77.7622 274.234 77.0361 273.877 76.4436C273.534 75.8734 272.988 75.5535 272.365 75.4688C271.726 75.382 271.096 75.5297 270.524 75.8354C270.38 75.9119 270.239 75.9921 270.103 76.0829C269.989 76.1589 269.871 76.2505 269.737 76.2814C269.589 76.3159 269.515 76.231 269.418 76.1238C269.305 75.9981 269.177 75.8874 269.042 75.7892C268.445 75.3553 267.661 75.1769 266.969 75.437C266.65 75.5568 266.34 75.7603 266.124 76.0408C265.931 76.2907 265.794 76.6873 265.528 76.8614C265.415 76.9353 265.335 76.8374 265.232 76.765C265.078 76.6562 264.93 76.5362 264.774 76.4304C264.554 76.2817 264.317 76.1705 264.062 76.1123C263.689 76.0271 263.174 76.0471 263.068 76.5295C263.028 76.7107 263.058 76.9045 263.071 77.087C263.089 77.3377 263.108 77.5883 263.13 77.8386C263.146 78.0287 263.168 78.2122 263.204 78.3988C263.223 78.4983 263.284 78.6838 263.241 78.7834C263.187 78.908 262.938 78.8372 262.831 78.8415C262.621 78.8501 262.41 78.8865 262.216 78.9752C262.065 79.044 261.907 79.1451 261.844 79.3156C261.804 79.4204 261.815 79.528 261.833 79.6358C261.855 79.7651 261.83 79.8337 261.814 79.9642C261.531 79.8269 260.553 79.5218 260.43 80.0216C260.389 80.188 260.483 80.376 260.554 80.5164C260.679 80.7625 260.842 80.9875 261.01 81.202C261.359 81.6496 261.775 82.0357 262.224 82.3659C261.698 82.5966 261.561 83.2772 262.016 83.6827C262.217 83.8617 262.487 83.9016 262.74 83.8901C262.833 83.8859 262.966 83.8507 263.039 83.8667C263.079 83.8752 263.121 83.9081 263.175 83.9118C263.532 83.936 263.936 83.8509 264.285 83.7725C264.908 83.6329 265.497 83.3414 265.978 82.8975C266.102 82.7836 266.204 82.718 266.37 82.7197C266.516 82.7212 266.659 82.7606 266.804 82.7643C267.189 82.774 267.536 82.588 267.894 82.4642C267.915 82.9414 268.053 83.467 268.251 83.8964C268.412 84.2465 268.748 84.2974 269.079 84.3281C270.136 84.4264 271.196 84.3167 272.255 84.3181C271.23 84.547 270.172 84.6413 269.156 84.9106C268.697 85.0323 269.048 85.3381 269.244 85.55C269.567 85.899 269.807 86.3314 269.974 86.787C270.475 86.1413 271.361 85.7159 272.146 85.9143C273.013 86.1334 273.624 87.2923 273.069 88.1255C272.747 88.6091 272.166 88.7959 271.682 89.0037C272.06 89.3914 272.151 89.9641 272.378 90.4465C272.49 90.6844 272.647 90.9533 272.898 91.0362C272.99 91.0669 273.099 91.0695 273.172 91.1442C273.263 91.2367 273.284 91.34 273.4 91.4195C273.862 91.7366 274.583 91.7122 274.992 91.2983C275.362 90.924 275.266 90.3317 274.957 89.9522C275.449 89.7496 276.345 89.489 276.149 88.7317C277.215 88.6618 279.803 86.9535 278.372 85.7052C279.157 85.2667 279.879 84.1951 279.374 83.2505C278.986 82.5231 278.083 82.1979 277.342 82.1593Z" fill="#CBAC4F"/>
<path fill-rule="evenodd" clip-rule="evenodd" d="M287.184 136.586H264.802L261.869 172.089H295.187L287.184 136.586Z" fill="#C5CFD6"/>
<path fill-rule="evenodd" clip-rule="evenodd" d="M287.184 136.586H280.3L276.18 172.089H295.187L287.184 136.586Z" fill="black" fill-opacity="0.1"/>
<path fill-rule="evenodd" clip-rule="evenodd" d="M239.284 130.504C236.898 129.088 232.894 130.907 232.897 132.933C232.905 138.992 238.501 167.551 238.793 169.357C239.085 171.162 242.215 171.639 242.398 169.362C242.688 165.74 243.226 153.202 242.687 147.398C242.465 145.003 242.225 142.721 241.989 140.686C244.926 145.926 249.467 153.429 255.613 163.194L258.95 161.688C256.33 153.157 254.181 147.134 252.504 143.62C249.633 137.603 246.941 132.45 245.808 130.635C244.026 127.779 240.924 128.776 239.284 130.504Z" fill="#B28B67"/>
<path fill-rule="evenodd" clip-rule="evenodd" d="M258.711 156.95L247.259 130.141C244.516 125.78 236.824 131.028 237.759 133.558C239.883 139.3 250.686 157.892 251.319 159.603L258.711 156.95Z" fill="black"/>
<path fill-rule="evenodd" clip-rule="evenodd" d="M259.337 160.002C260.052 160.586 260.518 161.062 260.734 161.431C260.996 161.88 261.304 162.577 261.657 163.524C261.133 163.823 256.42 166.508 247.52 171.58C246.447 170.584 246.278 169.812 247.014 169.265C247.749 168.717 248.356 168.256 248.834 167.88L253.703 161.227C253.797 161.099 253.978 161.071 254.108 161.165C254.11 161.166 254.113 161.168 254.115 161.17L255.132 161.946C256.063 161.868 256.758 161.698 257.216 161.437C257.588 161.225 258.015 160.783 258.496 160.111L258.496 160.111C258.681 159.853 259.043 159.793 259.304 159.977C259.316 159.985 259.327 159.993 259.337 160.002Z" fill="#E4E4E4"/>
<path fill-rule="evenodd" clip-rule="evenodd" d="M243.13 167.909C243.454 168.764 243.616 169.404 243.616 169.829C243.616 170.345 243.529 171.098 243.355 172.089C242.749 172.089 237.302 172.089 227.015 172.089C226.59 170.702 226.835 169.953 227.75 169.842C228.665 169.731 229.425 169.632 230.03 169.542L237.625 166.196C237.771 166.132 237.942 166.197 238.008 166.341C238.009 166.344 238.01 166.346 238.011 166.349L238.499 167.519C239.346 167.91 240.034 168.105 240.564 168.105C240.994 168.105 241.588 167.933 242.346 167.59L242.346 167.59C242.637 167.458 242.981 167.584 243.114 167.872C243.12 167.884 243.125 167.897 243.13 167.909Z" fill="#E4E4E4"/>
<path fill-rule="evenodd" clip-rule="evenodd" d="M232.094 134.993C232.094 142.599 235.75 160.342 235.752 162.017L243.617 162.023C242.465 146.191 242.057 138.19 242.392 138.019C242.894 137.763 262.977 140.001 269 140.001C277.686 140.001 281.279 134.588 281.57 124.561H264.365C260.861 124.932 242.588 128.574 235.802 129.826C232.897 130.362 232.094 132.897 232.094 134.993Z" fill="#959595"/>
<path fill-rule="evenodd" clip-rule="evenodd" d="M261.684 106.724L251.628 101.282C249.956 99.3191 248.308 97.795 246.685 96.7092C246.189 96.5046 245.322 96.3807 246.133 97.8034C246.944 99.226 247.732 100.758 247.319 101.197C246.906 101.635 245.876 101.023 245.383 101.751C245.054 102.236 246.814 103.003 250.664 104.052L257.971 110.663L261.684 106.724ZM245.934 111.317L241.517 108.919C240.897 106.588 240.157 105.415 239.295 105.401C238.632 105.096 239.786 108.041 238.53 107.786C237.275 107.531 234.211 105.279 233.683 105.736C232.902 106.412 233.599 108.489 234.419 109.522C235.953 111.454 237.222 112.114 240.361 112.979C242.002 113.431 243.776 114.337 245.683 115.697L245.934 111.317Z" fill="#997659"/>
<path fill-rule="evenodd" clip-rule="evenodd" d="M266.582 105.512C263.059 105.475 258.362 104.74 253.351 101.596L251.382 105.934C254.839 109.324 259.7 112.11 263.95 111.992C267.3 111.899 269.012 107.895 266.582 105.512Z" fill="#A7A7A7"/>
<path fill-rule="evenodd" clip-rule="evenodd" d="M261.839 112.468C258.1 113.39 251.829 112.303 243.027 109.208C240.844 113.671 239.834 116.853 239.999 118.754C247.55 122.652 254.022 124.39 259.353 124.505C259.184 127.631 259.569 130.606 260.863 133.324C263.522 138.913 279.095 133.737 284.33 134.756C287.609 124.233 281.269 119.956 281.264 113.223C281.259 105.849 275.267 94.4989 274.386 94.4989H266.347C265.904 100.13 263.671 106.337 261.839 112.468Z" fill="black"/>
<path d="M296 170.5H0V171.5H296V170.5Z" fill="#E0E0E0" mask="url(#path-1-inside-1_1020_2477)"/>
</svg>
