<svg width="296" height="171" viewBox="0 0 296 171" fill="none" xmlns="http://www.w3.org/2000/svg">
<rect width="296" height="171" fill="white"/>
<mask id="path-1-inside-1_1020_2633" fill="white">
<path d="M0 0H296V171H0V0Z"/>
</mask>
<path d="M0 0H296V171H0V0Z" fill="white"/>
<path d="M80.13 29C79.94 29 79.78 28.935 79.65 28.805C79.52 28.675 79.455 28.515 79.455 28.325V19.22C79.455 19.03 79.52 18.87 79.65 18.74C79.78 18.6 79.94 18.53 80.13 18.53H86.145C86.325 18.53 86.475 18.595 86.595 18.725C86.725 18.845 86.79 18.995 86.79 19.175C86.79 19.355 86.725 19.505 86.595 19.625C86.475 19.745 86.325 19.805 86.145 19.805H80.82V23.12H85.605C85.785 23.12 85.935 23.185 86.055 23.315C86.185 23.435 86.25 23.585 86.25 23.765C86.25 23.945 86.185 24.095 86.055 24.215C85.935 24.335 85.785 24.395 85.605 24.395H80.82V27.725H86.145C86.325 27.725 86.475 27.79 86.595 27.92C86.725 28.04 86.79 28.19 86.79 28.37C86.79 28.55 86.725 28.7 86.595 28.82C86.475 28.94 86.325 29 86.145 29H80.13ZM89.3229 29.075C89.1329 29.075 88.9729 29.01 88.8429 28.88C88.7129 28.75 88.6479 28.59 88.6479 28.4V21.965C88.6479 21.775 88.7129 21.615 88.8429 21.485C88.9729 21.345 89.1329 21.275 89.3229 21.275C89.5129 21.275 89.6729 21.345 89.8029 21.485C89.9429 21.615 90.0129 21.775 90.0129 21.965V22.58C90.2929 22.18 90.6279 21.85 91.0179 21.59C91.4179 21.33 91.9329 21.2 92.5629 21.2C93.1229 21.2 93.6029 21.35 94.0029 21.65C94.4029 21.95 94.6879 22.315 94.8579 22.745C95.4779 21.715 96.3979 21.2 97.6179 21.2C98.1779 21.2 98.6429 21.34 99.0129 21.62C99.3929 21.9 99.6729 22.26 99.8529 22.7C100.033 23.14 100.123 23.6 100.123 24.08V28.4C100.123 28.59 100.053 28.75 99.9129 28.88C99.7829 29.01 99.6229 29.075 99.4329 29.075C99.2429 29.075 99.0829 29.01 98.9529 28.88C98.8229 28.75 98.7579 28.59 98.7579 28.4V24.35C98.7579 23.7 98.6429 23.225 98.4129 22.925C98.1829 22.615 97.7879 22.46 97.2279 22.46C96.7179 22.46 96.2929 22.595 95.9529 22.865C95.6229 23.125 95.3279 23.47 95.0679 23.9V28.4C95.0679 28.59 94.9979 28.75 94.8579 28.88C94.7279 29.01 94.5679 29.075 94.3779 29.075C94.1879 29.075 94.0279 29.01 93.8979 28.88C93.7679 28.75 93.7029 28.59 93.7029 28.4V24.35C93.7029 23.7 93.5879 23.225 93.3579 22.925C93.1279 22.615 92.7329 22.46 92.1729 22.46C91.6629 22.46 91.2379 22.595 90.8979 22.865C90.5679 23.125 90.2729 23.47 90.0129 23.9V28.4C90.0129 28.59 89.9429 28.75 89.8029 28.88C89.6729 29.01 89.5129 29.075 89.3229 29.075ZM103.092 32.525C102.902 32.525 102.742 32.455 102.612 32.315C102.482 32.185 102.417 32.025 102.417 31.835V21.95C102.417 21.76 102.482 21.6 102.612 21.47C102.742 21.34 102.902 21.275 103.092 21.275C103.282 21.275 103.442 21.34 103.572 21.47C103.712 21.6 103.782 21.76 103.782 21.95V22.34C104.512 21.58 105.367 21.2 106.347 21.2C106.967 21.2 107.552 21.36 108.102 21.68C108.662 21.99 109.112 22.45 109.452 23.06C109.802 23.66 109.977 24.365 109.977 25.175C109.977 25.985 109.802 26.695 109.452 27.305C109.112 27.905 108.662 28.365 108.102 28.685C107.552 28.995 106.967 29.15 106.347 29.15C105.367 29.15 104.512 28.77 103.782 28.01V31.835C103.782 32.035 103.717 32.2 103.587 32.33C103.457 32.46 103.292 32.525 103.092 32.525ZM106.152 27.875C106.892 27.875 107.487 27.64 107.937 27.17C108.387 26.7 108.612 26.035 108.612 25.175C108.612 24.315 108.387 23.65 107.937 23.18C107.487 22.71 106.892 22.475 106.152 22.475C105.692 22.475 105.257 22.58 104.847 22.79C104.447 22.99 104.092 23.26 103.782 23.6V26.75C104.092 27.09 104.447 27.365 104.847 27.575C105.257 27.775 105.692 27.875 106.152 27.875ZM113.83 29.15C113.39 29.15 112.98 29.06 112.6 28.88C112.23 28.7 111.935 28.44 111.715 28.1C111.495 27.75 111.385 27.35 111.385 26.9C111.385 26.16 111.675 25.57 112.255 25.13C112.845 24.69 113.705 24.47 114.835 24.47H116.65V24.35C116.65 23.69 116.485 23.215 116.155 22.925C115.835 22.635 115.33 22.49 114.64 22.49C114.26 22.49 113.92 22.52 113.62 22.58C113.33 22.64 113.005 22.73 112.645 22.85C112.565 22.87 112.5 22.88 112.45 22.88C112.3 22.88 112.17 22.825 112.06 22.715C111.95 22.605 111.895 22.47 111.895 22.31C111.895 22.04 112.025 21.85 112.285 21.74C113.135 21.38 114 21.2 114.88 21.2C115.57 21.2 116.15 21.34 116.62 21.62C117.1 21.9 117.45 22.265 117.67 22.715C117.9 23.155 118.015 23.635 118.015 24.155V28.4C118.015 28.59 117.945 28.75 117.805 28.88C117.675 29.01 117.515 29.075 117.325 29.075C117.135 29.075 116.975 29.01 116.845 28.88C116.715 28.75 116.65 28.59 116.65 28.4V28.01C115.91 28.77 114.97 29.15 113.83 29.15ZM114.34 27.95C114.78 27.95 115.205 27.845 115.615 27.635C116.025 27.415 116.37 27.145 116.65 26.825V25.565H115.015C113.505 25.565 112.75 25.96 112.75 26.75C112.75 27.11 112.87 27.4 113.11 27.62C113.36 27.84 113.77 27.95 114.34 27.95ZM122.767 29.15C121.307 29.15 120.577 28.49 120.577 27.17V22.52H119.512C119.432 22.52 119.362 22.495 119.302 22.445C119.252 22.385 119.227 22.315 119.227 22.235C119.227 22.135 119.272 22.05 119.362 21.98L121.402 19.985C121.492 19.895 121.577 19.85 121.657 19.85C121.737 19.85 121.802 19.88 121.852 19.94C121.912 20 121.942 20.07 121.942 20.15V21.35H123.637C123.807 21.35 123.947 21.405 124.057 21.515C124.167 21.625 124.222 21.765 124.222 21.935C124.222 22.095 124.167 22.235 124.057 22.355C123.947 22.465 123.807 22.52 123.637 22.52H121.942V27.05C121.942 27.44 122.032 27.69 122.212 27.8C122.402 27.9 122.637 27.95 122.917 27.95C123.117 27.95 123.317 27.92 123.517 27.86C123.557 27.85 123.597 27.84 123.637 27.83C123.687 27.82 123.747 27.815 123.817 27.815C123.957 27.815 124.082 27.87 124.192 27.98C124.302 28.08 124.357 28.205 124.357 28.355C124.357 28.585 124.242 28.76 124.012 28.88C123.622 29.06 123.207 29.15 122.767 29.15ZM126.5 19.79C126.29 19.79 126.11 19.715 125.96 19.565C125.81 19.415 125.735 19.235 125.735 19.025V18.965C125.735 18.755 125.81 18.575 125.96 18.425C126.11 18.275 126.29 18.2 126.5 18.2H126.59C126.8 18.2 126.98 18.275 127.13 18.425C127.28 18.575 127.355 18.755 127.355 18.965V19.025C127.355 19.235 127.28 19.415 127.13 19.565C126.98 19.715 126.8 19.79 126.59 19.79H126.5ZM126.53 29.075C126.34 29.075 126.18 29.01 126.05 28.88C125.92 28.75 125.855 28.59 125.855 28.4V21.965C125.855 21.775 125.92 21.615 126.05 21.485C126.18 21.345 126.34 21.275 126.53 21.275C126.73 21.275 126.895 21.34 127.025 21.47C127.155 21.6 127.22 21.765 127.22 21.965V28.4C127.22 28.59 127.15 28.75 127.01 28.88C126.88 29.01 126.72 29.075 126.53 29.075ZM131.54 29.15C131.1 29.15 130.69 29.06 130.31 28.88C129.94 28.7 129.645 28.44 129.425 28.1C129.205 27.75 129.095 27.35 129.095 26.9C129.095 26.16 129.385 25.57 129.965 25.13C130.555 24.69 131.415 24.47 132.545 24.47H134.36V24.35C134.36 23.69 134.195 23.215 133.865 22.925C133.545 22.635 133.04 22.49 132.35 22.49C131.97 22.49 131.63 22.52 131.33 22.58C131.04 22.64 130.715 22.73 130.355 22.85C130.275 22.87 130.21 22.88 130.16 22.88C130.01 22.88 129.88 22.825 129.77 22.715C129.66 22.605 129.605 22.47 129.605 22.31C129.605 22.04 129.735 21.85 129.995 21.74C130.845 21.38 131.71 21.2 132.59 21.2C133.28 21.2 133.86 21.34 134.33 21.62C134.81 21.9 135.16 22.265 135.38 22.715C135.61 23.155 135.725 23.635 135.725 24.155V28.4C135.725 28.59 135.655 28.75 135.515 28.88C135.385 29.01 135.225 29.075 135.035 29.075C134.845 29.075 134.685 29.01 134.555 28.88C134.425 28.75 134.36 28.59 134.36 28.4V28.01C133.62 28.77 132.68 29.15 131.54 29.15ZM132.05 27.95C132.49 27.95 132.915 27.845 133.325 27.635C133.735 27.415 134.08 27.145 134.36 26.825V25.565H132.725C131.215 25.565 130.46 25.96 130.46 26.75C130.46 27.11 130.58 27.4 130.82 27.62C131.07 27.84 131.48 27.95 132.05 27.95Z" fill="#4F4F4F"/>
<path d="M81.22 52.07C81.0427 52.07 80.8933 52.0093 80.772 51.888C80.6507 51.7667 80.59 51.6173 80.59 51.44C80.59 51.328 80.618 51.216 80.674 51.104L84.524 43.446H79.442C79.274 43.446 79.1293 43.39 79.008 43.278C78.896 43.1567 78.84 43.012 78.84 42.844C78.84 42.676 78.896 42.5313 79.008 42.41C79.1293 42.2887 79.274 42.228 79.442 42.228H85.154C85.378 42.228 85.5647 42.298 85.714 42.438C85.8633 42.578 85.938 42.7553 85.938 42.97C85.938 43.1753 85.8913 43.3807 85.798 43.586L81.822 51.72C81.766 51.8227 81.682 51.9067 81.57 51.972C81.458 52.0373 81.3413 52.07 81.22 52.07ZM92.1637 52.07C91.9864 52.07 91.8371 52.0093 91.7157 51.888C91.5944 51.7667 91.5337 51.6173 91.5337 51.44V42.354C91.5337 42.1767 91.5944 42.0273 91.7157 41.906C91.8371 41.7753 91.9864 41.71 92.1637 41.71C92.3504 41.71 92.5044 41.7707 92.6257 41.892C92.7471 42.0133 92.8077 42.1673 92.8077 42.354V51.44C92.8077 51.6173 92.7424 51.7667 92.6117 51.888C92.4904 52.0093 92.3411 52.07 92.1637 52.07ZM95.6221 43.404C95.4261 43.404 95.2581 43.334 95.1181 43.194C94.9781 43.054 94.9081 42.886 94.9081 42.69V42.634C94.9081 42.438 94.9781 42.27 95.1181 42.13C95.2581 41.99 95.4261 41.92 95.6221 41.92H95.7061C95.9021 41.92 96.0701 41.99 96.2101 42.13C96.3501 42.27 96.4201 42.438 96.4201 42.634V42.69C96.4201 42.886 96.3501 43.054 96.2101 43.194C96.0701 43.334 95.9021 43.404 95.7061 43.404H95.6221ZM95.6501 52.07C95.4727 52.07 95.3234 52.0093 95.2021 51.888C95.0807 51.7667 95.0201 51.6173 95.0201 51.44V45.434C95.0201 45.2567 95.0807 45.1073 95.2021 44.986C95.3234 44.8553 95.4727 44.79 95.6501 44.79C95.8367 44.79 95.9907 44.8507 96.1121 44.972C96.2334 45.0933 96.2941 45.2473 96.2941 45.434V51.44C96.2941 51.6173 96.2287 51.7667 96.0981 51.888C95.9767 52.0093 95.8274 52.07 95.6501 52.07ZM103.84 50.418C103.98 50.418 104.102 50.4787 104.204 50.6C104.316 50.712 104.372 50.838 104.372 50.978C104.372 51.1833 104.279 51.3467 104.092 51.468C103.784 51.664 103.448 51.8273 103.084 51.958C102.73 52.0793 102.305 52.14 101.81 52.14L101.39 52.882C101.54 52.8447 101.698 52.826 101.866 52.826C102.184 52.826 102.44 52.9147 102.636 53.092C102.842 53.2787 102.944 53.5167 102.944 53.806C102.944 54.2353 102.809 54.5573 102.538 54.772C102.277 54.9867 101.894 55.094 101.39 55.094C100.942 55.094 100.522 54.9727 100.13 54.73C100.093 54.702 100.056 54.6647 100.018 54.618C99.9904 54.5807 99.9764 54.5387 99.9764 54.492C99.9764 54.4173 99.9997 54.352 100.046 54.296C100.093 54.24 100.158 54.212 100.242 54.212C100.28 54.212 100.326 54.226 100.382 54.254C100.672 54.4127 100.947 54.492 101.208 54.492C101.74 54.492 102.006 54.2773 102.006 53.848C102.006 53.708 101.96 53.6007 101.866 53.526C101.773 53.4513 101.652 53.414 101.502 53.414C101.297 53.414 101.092 53.4653 100.886 53.568C100.83 53.596 100.784 53.61 100.746 53.61C100.681 53.61 100.62 53.5867 100.564 53.54C100.518 53.5027 100.494 53.4513 100.494 53.386C100.494 53.3113 100.513 53.246 100.55 53.19L101.236 52.098C100.648 52.014 100.112 51.818 99.6264 51.51C99.1504 51.1927 98.7724 50.7727 98.4924 50.25C98.2124 49.718 98.0724 49.1113 98.0724 48.43C98.0724 47.674 98.2404 47.016 98.5764 46.456C98.9217 45.896 99.3791 45.4667 99.9484 45.168C100.518 44.8693 101.138 44.72 101.81 44.72C102.305 44.72 102.73 44.7853 103.084 44.916C103.448 45.0373 103.784 45.196 104.092 45.392C104.279 45.5133 104.372 45.6767 104.372 45.882C104.372 46.022 104.316 46.1527 104.204 46.274C104.102 46.386 103.98 46.442 103.84 46.442C103.738 46.442 103.635 46.414 103.532 46.358C103.224 46.1993 102.958 46.0873 102.734 46.022C102.52 45.9473 102.249 45.91 101.922 45.91C101.12 45.91 100.49 46.1433 100.032 46.61C99.5751 47.0673 99.3464 47.674 99.3464 48.43C99.3464 49.186 99.5751 49.7973 100.032 50.264C100.49 50.7213 101.12 50.95 101.922 50.95C102.249 50.95 102.52 50.9173 102.734 50.852C102.958 50.7773 103.224 50.6607 103.532 50.502C103.635 50.446 103.738 50.418 103.84 50.418ZM109.067 52.14C108.348 52.14 107.718 51.986 107.177 51.678C106.635 51.37 106.215 50.936 105.917 50.376C105.627 49.8067 105.483 49.158 105.483 48.43C105.483 47.702 105.627 47.058 105.917 46.498C106.215 45.9287 106.635 45.49 107.177 45.182C107.718 44.874 108.348 44.72 109.067 44.72C109.776 44.72 110.401 44.874 110.943 45.182C111.484 45.49 111.904 45.9287 112.203 46.498C112.501 47.058 112.651 47.702 112.651 48.43C112.651 49.158 112.501 49.8067 112.203 50.376C111.904 50.936 111.484 51.37 110.943 51.678C110.401 51.986 109.776 52.14 109.067 52.14ZM109.067 50.978C109.449 50.978 109.813 50.8893 110.159 50.712C110.513 50.5347 110.803 50.2547 111.027 49.872C111.26 49.4893 111.377 49.004 111.377 48.416C111.377 47.8373 111.26 47.3567 111.027 46.974C110.803 46.5913 110.513 46.316 110.159 46.148C109.813 45.9707 109.449 45.882 109.067 45.882C108.675 45.882 108.301 45.9707 107.947 46.148C107.601 46.316 107.317 46.5913 107.093 46.974C106.869 47.3567 106.757 47.8373 106.757 48.416C106.757 49.004 106.869 49.4893 107.093 49.872C107.317 50.2547 107.601 50.5347 107.947 50.712C108.301 50.8893 108.675 50.978 109.067 50.978ZM107.135 44.006C107.051 44.006 106.976 43.978 106.911 43.922C106.845 43.8567 106.813 43.7773 106.813 43.684C106.813 43.488 106.859 43.2873 106.953 43.082C107.055 42.8767 107.195 42.704 107.373 42.564C107.55 42.424 107.755 42.354 107.989 42.354C108.175 42.354 108.348 42.382 108.507 42.438C108.675 42.494 108.875 42.578 109.109 42.69C109.323 42.7927 109.505 42.872 109.655 42.928C109.813 42.984 109.977 43.012 110.145 43.012C110.285 43.012 110.392 42.9793 110.467 42.914C110.551 42.8487 110.616 42.7553 110.663 42.634C110.737 42.438 110.854 42.34 111.013 42.34C111.106 42.34 111.181 42.3727 111.237 42.438C111.293 42.494 111.325 42.564 111.335 42.648C111.335 42.9747 111.223 43.278 110.999 43.558C110.775 43.838 110.495 43.978 110.159 43.978C109.972 43.978 109.795 43.95 109.627 43.894C109.459 43.8287 109.253 43.74 109.011 43.628C108.796 43.5253 108.614 43.446 108.465 43.39C108.315 43.334 108.161 43.306 108.003 43.306C107.76 43.306 107.578 43.4553 107.457 43.754C107.401 43.922 107.293 44.006 107.135 44.006ZM117.626 52.14C116.487 52.14 115.596 51.818 114.952 51.174C114.317 50.5207 114 49.606 114 48.43C114 47.7673 114.121 47.156 114.364 46.596C114.607 46.036 114.98 45.5833 115.484 45.238C115.988 44.8927 116.609 44.72 117.346 44.72C118.037 44.72 118.634 44.8833 119.138 45.21C119.642 45.5273 120.025 45.9567 120.286 46.498C120.547 47.03 120.678 47.6133 120.678 48.248C120.678 48.4253 120.617 48.5747 120.496 48.696C120.384 48.8173 120.23 48.878 120.034 48.878H115.288C115.363 49.5313 115.605 50.04 116.016 50.404C116.427 50.768 117.001 50.95 117.738 50.95C118.13 50.95 118.471 50.9127 118.76 50.838C119.059 50.7633 119.348 50.656 119.628 50.516C119.703 50.4787 119.787 50.46 119.88 50.46C120.029 50.46 120.16 50.5113 120.272 50.614C120.384 50.7167 120.44 50.8473 120.44 51.006C120.44 51.2113 120.319 51.384 120.076 51.524C119.712 51.7293 119.353 51.8833 118.998 51.986C118.643 52.0887 118.186 52.14 117.626 52.14ZM119.418 47.842C119.39 47.3847 119.269 47.002 119.054 46.694C118.849 46.386 118.592 46.162 118.284 46.022C117.976 45.8727 117.663 45.798 117.346 45.798C117.029 45.798 116.716 45.8727 116.408 46.022C116.1 46.162 115.843 46.386 115.638 46.694C115.433 47.002 115.316 47.3847 115.288 47.842H119.418ZM124.674 52.14C123.74 52.14 122.891 51.93 122.126 51.51C121.967 51.398 121.888 51.244 121.888 51.048C121.888 50.8987 121.939 50.768 122.042 50.656C122.144 50.544 122.275 50.488 122.434 50.488C122.518 50.488 122.602 50.5067 122.686 50.544C122.984 50.6747 123.283 50.7773 123.582 50.852C123.88 50.9267 124.216 50.964 124.59 50.964C125.626 50.964 126.144 50.6327 126.144 49.97C126.144 49.7553 126.022 49.592 125.78 49.48C125.546 49.368 125.159 49.242 124.618 49.102C124.067 48.9713 123.61 48.836 123.246 48.696C122.891 48.556 122.583 48.346 122.322 48.066C122.07 47.7767 121.944 47.3987 121.944 46.932C121.944 46.2787 122.177 45.7467 122.644 45.336C123.12 44.9253 123.796 44.72 124.674 44.72C125.392 44.72 126.069 44.8367 126.704 45.07C126.834 45.1073 126.932 45.1773 126.998 45.28C127.072 45.3827 127.11 45.49 127.11 45.602C127.11 45.7513 127.054 45.882 126.942 45.994C126.839 46.106 126.708 46.162 126.55 46.162C126.503 46.162 126.442 46.1527 126.368 46.134C125.826 45.966 125.294 45.882 124.772 45.882C124.268 45.882 123.871 45.9753 123.582 46.162C123.302 46.3393 123.162 46.5727 123.162 46.862C123.162 47.142 123.292 47.3473 123.554 47.478C123.815 47.6087 124.221 47.7347 124.772 47.856C125.322 47.996 125.77 48.136 126.116 48.276C126.461 48.4067 126.755 48.6167 126.998 48.906C127.25 49.1953 127.376 49.5827 127.376 50.068C127.376 50.6653 127.138 51.16 126.662 51.552C126.195 51.944 125.532 52.14 124.674 52.14Z" fill="#828282"/>
<path d="M29.062 141.07C28.8847 141.07 28.7353 141.009 28.614 140.888C28.4927 140.767 28.432 140.617 28.432 140.44V138.536H24.162C23.938 138.536 23.7467 138.461 23.588 138.312C23.4293 138.153 23.35 137.962 23.35 137.738V137.612C23.35 137.416 23.406 137.248 23.518 137.108L27.914 131.494C27.9887 131.391 28.0867 131.312 28.208 131.256C28.3387 131.191 28.474 131.158 28.614 131.158H28.894C29.1367 131.158 29.3327 131.237 29.482 131.396C29.6313 131.545 29.706 131.737 29.706 131.97V137.402H30.77C30.9287 137.402 31.064 137.458 31.176 137.57C31.288 137.682 31.344 137.817 31.344 137.976C31.344 138.135 31.288 138.27 31.176 138.382C31.064 138.485 30.9287 138.536 30.77 138.536H29.706V140.44C29.706 140.617 29.6407 140.767 29.51 140.888C29.3887 141.009 29.2393 141.07 29.062 141.07ZM24.708 137.402H28.432V132.6L24.708 137.402ZM36.453 141.14C33.8957 141.14 32.617 139.469 32.617 136.128C32.617 135.316 32.7477 134.527 33.009 133.762C33.2797 132.997 33.7183 132.362 34.325 131.858C34.9317 131.345 35.7157 131.088 36.677 131.088C37.1997 131.088 37.657 131.144 38.049 131.256C38.441 131.368 38.8097 131.513 39.155 131.69C39.239 131.737 39.309 131.807 39.365 131.9C39.421 131.993 39.449 132.091 39.449 132.194C39.449 132.343 39.393 132.479 39.281 132.6C39.1783 132.712 39.043 132.768 38.875 132.768C38.791 132.768 38.7117 132.754 38.637 132.726C38.0583 132.455 37.4377 132.32 36.775 132.32C35.7203 132.32 34.9783 132.689 34.549 133.426C34.1197 134.163 33.8817 134.989 33.835 135.904C34.115 135.549 34.4883 135.255 34.955 135.022C35.4217 134.789 36.005 134.672 36.705 134.672C37.3397 134.672 37.895 134.807 38.371 135.078C38.8563 135.349 39.2343 135.731 39.505 136.226C39.7757 136.721 39.911 137.299 39.911 137.962C39.911 138.55 39.771 139.087 39.491 139.572C39.211 140.057 38.8097 140.44 38.287 140.72C37.7643 141 37.153 141.14 36.453 141.14ZM36.467 139.95C36.8963 139.95 37.2743 139.861 37.601 139.684C37.937 139.497 38.1937 139.25 38.371 138.942C38.5483 138.634 38.637 138.298 38.637 137.934C38.637 137.299 38.4597 136.791 38.105 136.408C37.7503 136.025 37.2323 135.834 36.551 135.834C35.3377 135.834 34.4557 136.347 33.905 137.374C34.157 139.091 35.011 139.95 36.467 139.95ZM43.438 136.002C42.7194 136.002 42.164 135.769 41.772 135.302C41.38 134.826 41.184 134.224 41.184 133.496C41.184 132.768 41.38 132.171 41.772 131.704C42.164 131.228 42.7194 130.99 43.438 130.99C44.1567 130.99 44.712 131.228 45.104 131.704C45.496 132.171 45.692 132.768 45.692 133.496C45.692 134.224 45.496 134.826 45.104 135.302C44.712 135.769 44.1567 136.002 43.438 136.002ZM43.438 141.14C43.3167 141.14 43.2094 141.093 43.116 141C43.0227 140.916 42.976 140.809 42.976 140.678C42.976 140.594 42.9994 140.515 43.046 140.44L48.744 131.326C48.8374 131.177 48.968 131.102 49.136 131.102C49.276 131.102 49.388 131.139 49.472 131.214C49.5654 131.289 49.612 131.391 49.612 131.522C49.612 131.625 49.5794 131.727 49.514 131.83L43.858 140.888C43.8114 140.963 43.7507 141.023 43.676 141.07C43.6014 141.117 43.522 141.14 43.438 141.14ZM43.438 135.092C43.8394 135.092 44.152 134.943 44.376 134.644C44.6 134.345 44.712 133.963 44.712 133.496C44.712 133.029 44.6 132.647 44.376 132.348C44.152 132.049 43.8394 131.9 43.438 131.9C43.0367 131.9 42.724 132.049 42.5 132.348C42.276 132.647 42.164 133.029 42.164 133.496C42.164 133.963 42.276 134.345 42.5 134.644C42.724 134.943 43.0367 135.092 43.438 135.092ZM49.122 141.252C48.4034 141.252 47.848 141.019 47.456 140.552C47.064 140.076 46.868 139.474 46.868 138.746C46.868 138.018 47.064 137.421 47.456 136.954C47.848 136.478 48.4034 136.24 49.122 136.24C49.8407 136.24 50.396 136.478 50.788 136.954C51.18 137.421 51.376 138.018 51.376 138.746C51.376 139.474 51.18 140.076 50.788 140.552C50.396 141.019 49.8407 141.252 49.122 141.252ZM49.122 140.342C49.5234 140.342 49.836 140.193 50.06 139.894C50.284 139.595 50.396 139.213 50.396 138.746C50.396 138.279 50.284 137.897 50.06 137.598C49.836 137.299 49.5234 137.15 49.122 137.15C48.7207 137.15 48.408 137.299 48.184 137.598C47.96 137.897 47.848 138.279 47.848 138.746C47.848 139.213 47.96 139.595 48.184 139.894C48.408 140.193 48.7207 140.342 49.122 140.342ZM61.5258 141.07C61.3485 141.07 61.1991 141.009 61.0778 140.888C60.9565 140.767 60.8958 140.617 60.8958 140.44V134.952H60.0698C59.9205 134.952 59.7898 134.901 59.6778 134.798C59.5751 134.686 59.5238 134.555 59.5238 134.406C59.5238 134.247 59.5751 134.117 59.6778 134.014C59.7898 133.911 59.9205 133.86 60.0698 133.86H60.8958V133.048C60.8958 132.488 60.9938 132.031 61.1898 131.676C61.3951 131.312 61.6565 131.051 61.9738 130.892C62.3005 130.724 62.6411 130.64 62.9958 130.64C63.4345 130.64 63.8405 130.733 64.2138 130.92C64.3071 130.967 64.3818 131.037 64.4378 131.13C64.5031 131.214 64.5358 131.307 64.5358 131.41C64.5358 131.55 64.4845 131.676 64.3818 131.788C64.2791 131.891 64.1578 131.942 64.0178 131.942C63.9151 131.942 63.8078 131.928 63.6958 131.9C63.4718 131.872 63.3458 131.858 63.3178 131.858C62.9351 131.858 62.6458 131.947 62.4498 132.124C62.2631 132.301 62.1698 132.623 62.1698 133.09V133.86H63.9198C64.0785 133.86 64.2091 133.911 64.3118 134.014C64.4145 134.117 64.4658 134.247 64.4658 134.406C64.4658 134.555 64.4145 134.686 64.3118 134.798C64.2091 134.901 64.0785 134.952 63.9198 134.952H62.1698V140.44C62.1698 140.617 62.1045 140.767 61.9738 140.888C61.8525 141.009 61.7031 141.07 61.5258 141.07ZM68.4914 141.14C67.3527 141.14 66.4614 140.818 65.8174 140.174C65.1827 139.521 64.8654 138.606 64.8654 137.43C64.8654 136.767 64.9867 136.156 65.2294 135.596C65.472 135.036 65.8454 134.583 66.3494 134.238C66.8534 133.893 67.474 133.72 68.2114 133.72C68.902 133.72 69.4994 133.883 70.0034 134.21C70.5074 134.527 70.89 134.957 71.1514 135.498C71.4127 136.03 71.5434 136.613 71.5434 137.248C71.5434 137.425 71.4827 137.575 71.3614 137.696C71.2494 137.817 71.0954 137.878 70.8994 137.878H66.1534C66.228 138.531 66.4707 139.04 66.8814 139.404C67.292 139.768 67.866 139.95 68.6034 139.95C68.9954 139.95 69.336 139.913 69.6254 139.838C69.924 139.763 70.2134 139.656 70.4934 139.516C70.568 139.479 70.652 139.46 70.7454 139.46C70.8947 139.46 71.0254 139.511 71.1374 139.614C71.2494 139.717 71.3054 139.847 71.3054 140.006C71.3054 140.211 71.184 140.384 70.9414 140.524C70.5774 140.729 70.218 140.883 69.8634 140.986C69.5087 141.089 69.0514 141.14 68.4914 141.14ZM70.2834 136.842C70.2554 136.385 70.134 136.002 69.9194 135.694C69.714 135.386 69.4574 135.162 69.1494 135.022C68.8414 134.873 68.5287 134.798 68.2114 134.798C67.894 134.798 67.5814 134.873 67.2734 135.022C66.9654 135.162 66.7087 135.386 66.5034 135.694C66.298 136.002 66.1814 136.385 66.1534 136.842H70.2834ZM73.831 132.404C73.635 132.404 73.467 132.334 73.327 132.194C73.187 132.054 73.117 131.886 73.117 131.69V131.634C73.117 131.438 73.187 131.27 73.327 131.13C73.467 130.99 73.635 130.92 73.831 130.92H73.915C74.111 130.92 74.279 130.99 74.419 131.13C74.559 131.27 74.629 131.438 74.629 131.634V131.69C74.629 131.886 74.559 132.054 74.419 132.194C74.279 132.334 74.111 132.404 73.915 132.404H73.831ZM73.859 141.07C73.6817 141.07 73.5324 141.009 73.411 140.888C73.2897 140.767 73.229 140.617 73.229 140.44V134.434C73.229 134.257 73.2897 134.107 73.411 133.986C73.5324 133.855 73.6817 133.79 73.859 133.79C74.0457 133.79 74.1997 133.851 74.321 133.972C74.4424 134.093 74.503 134.247 74.503 134.434V140.44C74.503 140.617 74.4377 140.767 74.307 140.888C74.1857 141.009 74.0364 141.07 73.859 141.07ZM79.1794 141.14C77.8167 141.14 77.1354 140.524 77.1354 139.292V134.952H76.1414C76.0667 134.952 76.0014 134.929 75.9454 134.882C75.8987 134.826 75.8754 134.761 75.8754 134.686C75.8754 134.593 75.9174 134.513 76.0014 134.448L77.9054 132.586C77.9894 132.502 78.0687 132.46 78.1434 132.46C78.218 132.46 78.2787 132.488 78.3254 132.544C78.3814 132.6 78.4094 132.665 78.4094 132.74V133.86H79.9914C80.15 133.86 80.2807 133.911 80.3834 134.014C80.486 134.117 80.5374 134.247 80.5374 134.406C80.5374 134.555 80.486 134.686 80.3834 134.798C80.2807 134.901 80.15 134.952 79.9914 134.952H78.4094V139.18C78.4094 139.544 78.4934 139.777 78.6614 139.88C78.8387 139.973 79.058 140.02 79.3194 140.02C79.506 140.02 79.6927 139.992 79.8794 139.936C79.9167 139.927 79.954 139.917 79.9914 139.908C80.038 139.899 80.094 139.894 80.1594 139.894C80.29 139.894 80.4067 139.945 80.5094 140.048C80.612 140.141 80.6634 140.258 80.6634 140.398C80.6634 140.613 80.556 140.776 80.3414 140.888C79.9774 141.056 79.59 141.14 79.1794 141.14ZM85.1154 141.14C84.3967 141.14 83.7667 140.986 83.2254 140.678C82.684 140.37 82.264 139.936 81.9654 139.376C81.676 138.807 81.5314 138.158 81.5314 137.43C81.5314 136.702 81.676 136.058 81.9654 135.498C82.264 134.929 82.684 134.49 83.2254 134.182C83.7667 133.874 84.3967 133.72 85.1154 133.72C85.8247 133.72 86.45 133.874 86.9914 134.182C87.5327 134.49 87.9527 134.929 88.2514 135.498C88.55 136.058 88.6994 136.702 88.6994 137.43C88.6994 138.158 88.55 138.807 88.2514 139.376C87.9527 139.936 87.5327 140.37 86.9914 140.678C86.45 140.986 85.8247 141.14 85.1154 141.14ZM85.1154 139.978C85.498 139.978 85.862 139.889 86.2074 139.712C86.562 139.535 86.8514 139.255 87.0754 138.872C87.3087 138.489 87.4254 138.004 87.4254 137.416C87.4254 136.837 87.3087 136.357 87.0754 135.974C86.8514 135.591 86.562 135.316 86.2074 135.148C85.862 134.971 85.498 134.882 85.1154 134.882C84.7234 134.882 84.35 134.971 83.9954 135.148C83.65 135.316 83.3654 135.591 83.1414 135.974C82.9174 136.357 82.8054 136.837 82.8054 137.416C82.8054 138.004 82.9174 138.489 83.1414 138.872C83.3654 139.255 83.65 139.535 83.9954 139.712C84.35 139.889 84.7234 139.978 85.1154 139.978Z" fill="black"/>
<line x1="26" y1="149" x2="270" y2="149" stroke="#C7D4E0" stroke-width="6" stroke-linecap="round"/>
<path d="M26 149H181" stroke="#C7D4E0" stroke-width="6" stroke-linecap="round"/>
<path d="M26 149H181" stroke="#C7D4E0" stroke-width="6" stroke-linecap="round"/>
<path d="M26 149H181" stroke="#2DDB5E" stroke-width="6" stroke-linecap="round"/>
<mask id="mask0_1020_2633" style="mask-type:alpha" maskUnits="userSpaceOnUse" x="26" y="86" width="16" height="16">
<rect x="26" y="86" width="16" height="16" fill="#D9D9D9"/>
</mask>
<g mask="url(#mask0_1020_2633)">
<path fill-rule="evenodd" clip-rule="evenodd" d="M27 101.278V103.83H40.33V101.278C40.33 100.762 40.2084 100.287 39.9651 99.854C39.7224 99.4215 39.3997 99.0913 38.997 98.8635C38.1361 98.3927 37.2613 98.0394 36.3727 97.8037C35.484 97.5686 34.5814 97.4511 33.665 97.4511C32.7486 97.4511 31.846 97.5686 30.9573 97.8037C30.0687 98.0394 29.1939 98.3927 28.333 98.8635C27.9303 99.0913 27.6076 99.4215 27.3649 99.854C27.1216 100.287 27 100.762 27 101.278Z" fill="#4F4F4F"/>
<path d="M33.665 96.5398C32.7486 96.5398 31.964 96.1829 31.3114 95.4691C30.6588 94.7554 30.3325 93.8973 30.3325 92.8949C30.3325 91.8926 30.6588 91.0345 31.3114 90.3207C31.964 89.6069 32.7486 89.25 33.665 89.25C34.5814 89.25 35.366 89.6069 36.0186 90.3207C36.6712 91.0345 36.9975 91.8926 36.9975 92.8949C36.9975 93.8973 36.6712 94.7554 36.0186 95.4691C35.366 96.1829 34.5814 96.5398 33.665 96.5398Z" fill="#BDBDBD"/>
</g>
<path d="M51.804 99.12C50.788 99.12 49.836 98.928 48.948 98.544C48.852 98.504 48.772 98.44 48.708 98.352C48.644 98.256 48.612 98.156 48.612 98.052C48.612 97.916 48.656 97.8 48.744 97.704C48.84 97.6 48.96 97.548 49.104 97.548C49.184 97.548 49.26 97.564 49.332 97.596C50.068 97.924 50.856 98.088 51.696 98.088C53.096 98.088 53.796 97.628 53.796 96.708C53.796 96.468 53.704 96.268 53.52 96.108C53.344 95.948 53.124 95.824 52.86 95.736C52.596 95.64 52.22 95.528 51.732 95.4C51.084 95.232 50.56 95.072 50.16 94.92C49.76 94.76 49.416 94.524 49.128 94.212C48.84 93.9 48.696 93.484 48.696 92.964C48.696 92.508 48.816 92.096 49.056 91.728C49.296 91.352 49.648 91.056 50.112 90.84C50.584 90.616 51.148 90.504 51.804 90.504C52.684 90.504 53.48 90.636 54.192 90.9C54.416 90.98 54.528 91.14 54.528 91.38C54.528 91.508 54.484 91.624 54.396 91.728C54.308 91.832 54.192 91.884 54.048 91.884C54 91.884 53.936 91.868 53.856 91.836C53.232 91.62 52.588 91.512 51.924 91.512C51.292 91.512 50.776 91.632 50.376 91.872C49.984 92.112 49.788 92.448 49.788 92.88C49.788 93.168 49.88 93.404 50.064 93.588C50.256 93.764 50.492 93.904 50.772 94.008C51.06 94.104 51.448 94.208 51.936 94.32C52.568 94.472 53.076 94.624 53.46 94.776C53.852 94.928 54.184 95.164 54.456 95.484C54.736 95.804 54.876 96.236 54.876 96.78C54.876 97.228 54.748 97.632 54.492 97.992C54.236 98.344 53.876 98.62 53.412 98.82C52.948 99.02 52.412 99.12 51.804 99.12ZM57.9025 99.12C57.5505 99.12 57.2225 99.048 56.9185 98.904C56.6225 98.76 56.3865 98.552 56.2105 98.28C56.0345 98 55.9465 97.68 55.9465 97.32C55.9465 96.728 56.1785 96.256 56.6425 95.904C57.1145 95.552 57.8025 95.376 58.7065 95.376H60.1585V95.28C60.1585 94.752 60.0265 94.372 59.7625 94.14C59.5065 93.908 59.1025 93.792 58.5505 93.792C58.2465 93.792 57.9745 93.816 57.7345 93.864C57.5025 93.912 57.2425 93.984 56.9545 94.08C56.8905 94.096 56.8385 94.104 56.7985 94.104C56.6785 94.104 56.5745 94.06 56.4865 93.972C56.3985 93.884 56.3545 93.776 56.3545 93.648C56.3545 93.432 56.4585 93.28 56.6665 93.192C57.3465 92.904 58.0385 92.76 58.7425 92.76C59.2945 92.76 59.7585 92.872 60.1345 93.096C60.5185 93.32 60.7985 93.612 60.9745 93.972C61.1585 94.324 61.2505 94.708 61.2505 95.124V98.52C61.2505 98.672 61.1945 98.8 61.0825 98.904C60.9785 99.008 60.8505 99.06 60.6985 99.06C60.5465 99.06 60.4185 99.008 60.3145 98.904C60.2105 98.8 60.1585 98.672 60.1585 98.52V98.208C59.5665 98.816 58.8145 99.12 57.9025 99.12ZM58.3105 98.16C58.6625 98.16 59.0025 98.076 59.3305 97.908C59.6585 97.732 59.9345 97.516 60.1585 97.26V96.252H58.8505C57.6425 96.252 57.0385 96.568 57.0385 97.2C57.0385 97.488 57.1345 97.72 57.3265 97.896C57.5265 98.072 57.8545 98.16 58.3105 98.16ZM66.2248 99.12C65.4408 99.12 64.7568 98.816 64.1728 98.208V98.52C64.1728 98.672 64.1168 98.8 64.0048 98.904C63.9008 99.008 63.7728 99.06 63.6208 99.06C63.4688 99.06 63.3408 99.008 63.2368 98.904C63.1328 98.8 63.0808 98.672 63.0808 98.52V90.732C63.0808 90.58 63.1328 90.452 63.2368 90.348C63.3408 90.236 63.4688 90.18 63.6208 90.18C63.7808 90.18 63.9128 90.232 64.0168 90.336C64.1208 90.44 64.1728 90.572 64.1728 90.732V93.672C64.7568 93.064 65.4408 92.76 66.2248 92.76C66.7208 92.76 67.1888 92.888 67.6288 93.144C68.0768 93.392 68.4368 93.76 68.7088 94.248C68.9888 94.728 69.1288 95.292 69.1288 95.94C69.1288 96.588 68.9888 97.156 68.7088 97.644C68.4368 98.124 68.0768 98.492 67.6288 98.748C67.1888 98.996 66.7208 99.12 66.2248 99.12ZM66.0688 98.1C66.6608 98.1 67.1368 97.912 67.4968 97.536C67.8568 97.16 68.0368 96.628 68.0368 95.94C68.0368 95.252 67.8568 94.72 67.4968 94.344C67.1368 93.968 66.6608 93.78 66.0688 93.78C65.7008 93.78 65.3528 93.864 65.0248 94.032C64.7048 94.192 64.4208 94.408 64.1728 94.68V97.2C64.4208 97.472 64.7048 97.692 65.0248 97.86C65.3528 98.02 65.7008 98.1 66.0688 98.1ZM71.1911 99.06C71.0391 99.06 70.9111 99.008 70.8071 98.904C70.7031 98.8 70.6511 98.672 70.6511 98.52V93.372C70.6511 93.22 70.7031 93.092 70.8071 92.988C70.9111 92.876 71.0391 92.82 71.1911 92.82C71.3431 92.82 71.4711 92.876 71.5751 92.988C71.6871 93.092 71.7431 93.22 71.7431 93.372V93.888C72.3031 93.136 72.9311 92.76 73.6271 92.76H73.6871C73.8391 92.76 73.9631 92.812 74.0591 92.916C74.1631 93.02 74.2151 93.148 74.2151 93.3C74.2151 93.452 74.1631 93.576 74.0591 93.672C73.9551 93.768 73.8231 93.816 73.6631 93.816H73.6031C73.2191 93.816 72.8671 93.912 72.5471 94.104C72.2271 94.288 71.9591 94.544 71.7431 94.872V98.52C71.7431 98.672 71.6871 98.8 71.5751 98.904C71.4711 99.008 71.3431 99.06 71.1911 99.06ZM75.7609 91.632C75.5929 91.632 75.4489 91.572 75.3289 91.452C75.2089 91.332 75.1489 91.188 75.1489 91.02V90.972C75.1489 90.804 75.2089 90.66 75.3289 90.54C75.4489 90.42 75.5929 90.36 75.7609 90.36H75.8329C76.0009 90.36 76.1449 90.42 76.2649 90.54C76.3849 90.66 76.4449 90.804 76.4449 90.972V91.02C76.4449 91.188 76.3849 91.332 76.2649 91.452C76.1449 91.572 76.0009 91.632 75.8329 91.632H75.7609ZM75.7849 99.06C75.6329 99.06 75.5049 99.008 75.4009 98.904C75.2969 98.8 75.2449 98.672 75.2449 98.52V93.372C75.2449 93.22 75.2969 93.092 75.4009 92.988C75.5049 92.876 75.6329 92.82 75.7849 92.82C75.9449 92.82 76.0769 92.872 76.1809 92.976C76.2849 93.08 76.3369 93.212 76.3369 93.372V98.52C76.3369 98.672 76.2809 98.8 76.1689 98.904C76.0649 99.008 75.9369 99.06 75.7849 99.06ZM78.7732 99.06C78.6212 99.06 78.4932 99.008 78.3892 98.904C78.2852 98.8 78.2332 98.672 78.2332 98.52V93.372C78.2332 93.22 78.2852 93.092 78.3892 92.988C78.4932 92.876 78.6212 92.82 78.7732 92.82C78.9252 92.82 79.0532 92.876 79.1572 92.988C79.2692 93.092 79.3252 93.22 79.3252 93.372V93.864C79.6292 93.528 79.9572 93.26 80.3092 93.06C80.6612 92.86 81.0772 92.76 81.5572 92.76C81.9972 92.76 82.3772 92.864 82.6972 93.072C83.0252 93.28 83.2732 93.564 83.4412 93.924C83.6172 94.284 83.7052 94.68 83.7052 95.112V98.52C83.7052 98.672 83.6492 98.8 83.5372 98.904C83.4332 99.008 83.3052 99.06 83.1532 99.06C83.0012 99.06 82.8732 99.008 82.7692 98.904C82.6652 98.8 82.6132 98.672 82.6132 98.52V95.232C82.6132 94.256 82.1732 93.768 81.2932 93.768C80.8932 93.768 80.5332 93.872 80.2132 94.08C79.9012 94.288 79.6052 94.568 79.3252 94.92V98.52C79.3252 98.672 79.2692 98.8 79.1572 98.904C79.0532 99.008 78.9252 99.06 78.7732 99.06ZM87.1057 99.12C86.7537 99.12 86.4257 99.048 86.1217 98.904C85.8257 98.76 85.5897 98.552 85.4137 98.28C85.2377 98 85.1497 97.68 85.1497 97.32C85.1497 96.728 85.3817 96.256 85.8457 95.904C86.3177 95.552 87.0057 95.376 87.9097 95.376H89.3617V95.28C89.3617 94.752 89.2297 94.372 88.9657 94.14C88.7097 93.908 88.3057 93.792 87.7537 93.792C87.4497 93.792 87.1777 93.816 86.9377 93.864C86.7057 93.912 86.4457 93.984 86.1577 94.08C86.0937 94.096 86.0417 94.104 86.0017 94.104C85.8817 94.104 85.7777 94.06 85.6897 93.972C85.6017 93.884 85.5577 93.776 85.5577 93.648C85.5577 93.432 85.6617 93.28 85.8697 93.192C86.5497 92.904 87.2417 92.76 87.9457 92.76C88.4977 92.76 88.9617 92.872 89.3377 93.096C89.7217 93.32 90.0017 93.612 90.1777 93.972C90.3617 94.324 90.4537 94.708 90.4537 95.124V98.52C90.4537 98.672 90.3977 98.8 90.2857 98.904C90.1817 99.008 90.0537 99.06 89.9017 99.06C89.7497 99.06 89.6217 99.008 89.5177 98.904C89.4137 98.8 89.3617 98.672 89.3617 98.52V98.208C88.7697 98.816 88.0177 99.12 87.1057 99.12ZM87.5137 98.16C87.8657 98.16 88.2057 98.076 88.5337 97.908C88.8617 97.732 89.1377 97.516 89.3617 97.26V96.252H88.0537C86.8457 96.252 86.2417 96.568 86.2417 97.2C86.2417 97.488 86.3377 97.72 86.5297 97.896C86.7297 98.072 87.0577 98.16 87.5137 98.16ZM96.1571 99.06C96.0051 99.06 95.8771 99.008 95.7731 98.904C95.6691 98.8 95.6171 98.672 95.6171 98.52V91.176C95.6171 91.024 95.6691 90.896 95.7731 90.792C95.8771 90.68 96.0051 90.624 96.1571 90.624H98.8931C99.6531 90.624 100.273 90.752 100.753 91.008C101.233 91.264 101.577 91.592 101.785 91.992C101.993 92.392 102.097 92.824 102.097 93.288C102.097 93.752 101.993 94.184 101.785 94.584C101.577 94.984 101.233 95.312 100.753 95.568C100.273 95.824 99.6531 95.952 98.8931 95.952H96.7091V98.52C96.7091 98.672 96.6531 98.8 96.5411 98.904C96.4371 99.008 96.3091 99.06 96.1571 99.06ZM98.7851 94.92C99.6011 94.92 100.173 94.764 100.501 94.452C100.837 94.14 101.005 93.752 101.005 93.288C101.005 92.824 100.837 92.436 100.501 92.124C100.173 91.812 99.6011 91.656 98.7851 91.656H96.7091V94.92H98.7851ZM106.036 99.12C105.06 99.12 104.296 98.844 103.744 98.292C103.2 97.732 102.928 96.948 102.928 95.94C102.928 95.372 103.032 94.848 103.24 94.368C103.448 93.888 103.768 93.5 104.2 93.204C104.632 92.908 105.164 92.76 105.796 92.76C106.388 92.76 106.9 92.9 107.332 93.18C107.764 93.452 108.092 93.82 108.316 94.284C108.54 94.74 108.652 95.24 108.652 95.784C108.652 95.936 108.6 96.064 108.496 96.168C108.4 96.272 108.268 96.324 108.1 96.324H104.032C104.096 96.884 104.304 97.32 104.656 97.632C105.008 97.944 105.5 98.1 106.132 98.1C106.468 98.1 106.76 98.068 107.008 98.004C107.264 97.94 107.512 97.848 107.752 97.728C107.816 97.696 107.888 97.68 107.968 97.68C108.096 97.68 108.208 97.724 108.304 97.812C108.4 97.9 108.448 98.012 108.448 98.148C108.448 98.324 108.344 98.472 108.136 98.592C107.824 98.768 107.516 98.9 107.212 98.988C106.908 99.076 106.516 99.12 106.036 99.12ZM107.572 95.436C107.548 95.044 107.444 94.716 107.26 94.452C107.084 94.188 106.864 93.996 106.6 93.876C106.336 93.748 106.068 93.684 105.796 93.684C105.524 93.684 105.256 93.748 104.992 93.876C104.728 93.996 104.508 94.188 104.332 94.452C104.156 94.716 104.056 95.044 104.032 95.436H107.572ZM110.636 99.06C110.484 99.06 110.356 99.008 110.252 98.904C110.148 98.8 110.096 98.672 110.096 98.52V93.372C110.096 93.22 110.148 93.092 110.252 92.988C110.356 92.876 110.484 92.82 110.636 92.82C110.788 92.82 110.916 92.876 111.02 92.988C111.132 93.092 111.188 93.22 111.188 93.372V93.888C111.748 93.136 112.376 92.76 113.072 92.76H113.132C113.284 92.76 113.408 92.812 113.504 92.916C113.608 93.02 113.66 93.148 113.66 93.3C113.66 93.452 113.608 93.576 113.504 93.672C113.4 93.768 113.268 93.816 113.108 93.816H113.048C112.664 93.816 112.312 93.912 111.992 94.104C111.672 94.288 111.404 94.544 111.188 94.872V98.52C111.188 98.672 111.132 98.8 111.02 98.904C110.916 99.008 110.788 99.06 110.636 99.06ZM117.25 99.12C116.274 99.12 115.51 98.844 114.958 98.292C114.414 97.732 114.142 96.948 114.142 95.94C114.142 95.372 114.246 94.848 114.454 94.368C114.662 93.888 114.982 93.5 115.414 93.204C115.846 92.908 116.378 92.76 117.01 92.76C117.602 92.76 118.114 92.9 118.546 93.18C118.978 93.452 119.306 93.82 119.53 94.284C119.754 94.74 119.866 95.24 119.866 95.784C119.866 95.936 119.814 96.064 119.71 96.168C119.614 96.272 119.482 96.324 119.314 96.324H115.246C115.31 96.884 115.518 97.32 115.87 97.632C116.222 97.944 116.714 98.1 117.346 98.1C117.682 98.1 117.974 98.068 118.222 98.004C118.478 97.94 118.726 97.848 118.966 97.728C119.03 97.696 119.102 97.68 119.182 97.68C119.31 97.68 119.422 97.724 119.518 97.812C119.614 97.9 119.662 98.012 119.662 98.148C119.662 98.324 119.558 98.472 119.35 98.592C119.038 98.768 118.73 98.9 118.426 98.988C118.122 99.076 117.73 99.12 117.25 99.12ZM118.786 95.436C118.762 95.044 118.658 94.716 118.474 94.452C118.298 94.188 118.078 93.996 117.814 93.876C117.55 93.748 117.282 93.684 117.01 93.684C116.738 93.684 116.47 93.748 116.206 93.876C115.942 93.996 115.722 94.188 115.546 94.452C115.37 94.716 115.27 95.044 115.246 95.436H118.786ZM123.291 99.12C122.491 99.12 121.763 98.94 121.107 98.58C120.971 98.484 120.903 98.352 120.903 98.184C120.903 98.056 120.947 97.944 121.035 97.848C121.123 97.752 121.235 97.704 121.371 97.704C121.443 97.704 121.515 97.72 121.587 97.752C121.843 97.864 122.099 97.952 122.355 98.016C122.611 98.08 122.899 98.112 123.219 98.112C124.107 98.112 124.551 97.828 124.551 97.26C124.551 97.076 124.447 96.936 124.239 96.84C124.039 96.744 123.707 96.636 123.243 96.516C122.771 96.404 122.379 96.288 122.067 96.168C121.763 96.048 121.499 95.868 121.275 95.628C121.059 95.38 120.951 95.056 120.951 94.656C120.951 94.096 121.151 93.64 121.551 93.288C121.959 92.936 122.539 92.76 123.291 92.76C123.907 92.76 124.487 92.86 125.031 93.06C125.143 93.092 125.227 93.152 125.283 93.24C125.347 93.328 125.379 93.42 125.379 93.516C125.379 93.644 125.331 93.756 125.235 93.852C125.147 93.948 125.035 93.996 124.899 93.996C124.859 93.996 124.807 93.988 124.743 93.972C124.279 93.828 123.823 93.756 123.375 93.756C122.943 93.756 122.603 93.836 122.355 93.996C122.115 94.148 121.995 94.348 121.995 94.596C121.995 94.836 122.107 95.012 122.331 95.124C122.555 95.236 122.903 95.344 123.375 95.448C123.847 95.568 124.231 95.688 124.527 95.808C124.823 95.92 125.075 96.1 125.283 96.348C125.499 96.596 125.607 96.928 125.607 97.344C125.607 97.856 125.403 98.28 124.995 98.616C124.595 98.952 124.027 99.12 123.291 99.12Z" fill="#4F4F4F"/>
<path d="M247.528 143.399L255.178 140.309L261.02 125.048L268.809 129.061C268.809 129.061 268.058 130.567 266.448 134.299C265.823 135.736 263.765 139.753 262.928 141.707C262.153 143.515 260.877 145.062 259.251 146.167C257.624 147.272 255.715 147.888 253.75 147.942L246.57 148.128L247.528 143.399Z" fill="#FFBF9D"/>
<path d="M243.727 140.448L242.588 139.231C242.366 139.086 242.106 139.012 241.841 139.019L238.182 139.132C237.841 139.164 237.511 139.274 237.217 139.452C236.924 139.629 236.674 139.871 236.487 140.158L235.153 142.424C235.153 142.424 234.26 143.973 234.372 144.352C234.422 144.51 234.529 144.644 234.671 144.727C234.814 144.811 234.983 144.839 235.145 144.805C235.145 144.805 235.274 145.522 235.511 145.668C235.649 145.738 235.799 145.778 235.952 145.788C236.106 145.798 236.26 145.776 236.405 145.725C236.468 145.86 236.57 145.974 236.698 146.051C236.827 146.128 236.976 146.165 237.125 146.156C237.189 146.15 237.253 146.139 237.315 146.122C237.746 145.988 237.945 145.146 237.945 145.146L239.8 144.805C239.8 144.805 242.467 146.588 243.408 147.753C244.348 148.918 246.808 148.029 246.808 148.029L247.727 143.628L243.727 140.448Z" fill="#FFBF9D"/>
<path d="M241.03 140.97C240.77 141.05 240.5 141.095 240.227 141.103C239.723 141.159 239.011 141.181 238.204 141.285L238.29 141.22C238.151 141.518 237.993 141.806 237.815 142.083C237.328 142.856 236.736 143.557 236.055 144.167C235.788 144.435 235.477 144.657 235.136 144.823C235.136 144.793 235.46 144.534 235.943 144.046C236.577 143.415 237.14 142.716 237.621 141.962C237.798 141.673 237.958 141.388 238.092 141.099L238.118 141.043H238.178C239.002 140.952 239.714 140.961 240.219 140.944C240.489 140.924 240.761 140.933 241.03 140.97V140.97Z" fill="#FF9A6C"/>
<path d="M241.112 142.717C240.896 142.822 240.661 142.884 240.422 142.898C239.826 142.981 239.22 142.96 238.631 142.838L238.765 142.765C238.687 142.991 238.598 143.212 238.497 143.429C238.164 144.117 237.696 144.732 237.121 145.237C236.896 145.459 236.629 145.634 236.335 145.75C236.548 145.527 236.773 145.315 237.009 145.116C237.54 144.599 237.978 143.993 238.303 143.326C238.403 143.119 238.491 142.908 238.566 142.691L238.601 142.596H238.696C239.492 142.745 240.305 142.786 241.112 142.717Z" fill="#FF9A6C"/>
<path d="M245.763 143.619L242.497 142.1C242.059 141.856 241.573 141.709 241.073 141.669C240.538 141.715 240.022 141.888 239.567 142.173L237.807 143.08C237.712 143.131 237.608 143.192 237.578 143.291C237.548 143.39 237.63 143.563 237.729 143.662C238.184 144.092 238.778 144.343 239.403 144.368C240.028 144.394 240.641 144.192 241.129 143.8C241.368 144.578 241.74 145.308 242.23 145.958C242.48 146.283 242.81 146.539 243.188 146.7C243.566 146.861 243.979 146.922 244.387 146.877" fill="#FFBF9D"/>
<path d="M244.378 146.92C244.351 146.933 244.322 146.942 244.292 146.946C244.204 146.967 244.115 146.979 244.024 146.98C243.682 146.981 243.344 146.898 243.041 146.739C242.571 146.493 242.173 146.13 241.884 145.686C241.526 145.115 241.236 144.504 241.021 143.865L241.185 143.904C240.923 144.124 240.62 144.29 240.293 144.392C239.967 144.494 239.623 144.531 239.282 144.499C238.912 144.474 238.551 144.372 238.221 144.201C238.052 144.112 237.894 144.004 237.751 143.878C237.673 143.814 237.602 143.741 237.539 143.662C237.499 143.613 237.469 143.555 237.454 143.493C237.438 143.431 237.436 143.367 237.449 143.304C237.463 143.252 237.487 143.204 237.52 143.163C237.554 143.121 237.596 143.087 237.643 143.062C237.72 143.015 237.785 142.985 237.854 142.946L238.26 142.739L239.058 142.307C239.554 142.017 240.083 141.787 240.633 141.621C241.161 141.526 241.706 141.609 242.182 141.858C242.613 142.057 243.045 142.255 243.39 142.432L245.116 143.295C245.333 143.393 245.542 143.507 245.742 143.636C245.513 143.569 245.291 143.482 245.077 143.377L243.308 142.596L242.091 142.053C241.653 141.828 241.151 141.756 240.667 141.85C240.137 142.016 239.627 142.243 239.149 142.527L238.355 142.959L237.949 143.17C237.811 143.239 237.664 143.308 237.656 143.377C237.647 143.446 237.755 143.615 237.889 143.722C238.02 143.837 238.165 143.935 238.32 144.016C238.622 144.172 238.952 144.266 239.291 144.292C239.921 144.353 240.551 144.164 241.043 143.766L241.155 143.671L241.202 143.809C241.404 144.437 241.674 145.04 242.009 145.608C242.273 146.039 242.641 146.396 243.079 146.648C243.478 146.861 243.928 146.955 244.378 146.92Z" fill="#FF9A6C"/>
<path d="M288.239 100.868C288.269 98.4168 288.67 95.9746 288.558 93.5325C288.446 91.0903 287.82 88.5316 286.111 86.7754C284.403 85.0193 281.421 84.3548 279.436 85.7572L279.005 87.8455C279.79 97.295 279.687 106.895 280.472 116.345C280.575 117.588 281.581 118.714 282.146 119.823C282.711 120.932 283.846 121.851 285.089 121.773C286.715 121.674 287.781 120.025 288.286 118.472C290.141 112.859 288.165 106.792 288.239 100.868Z" fill="#263238"/>
<path d="M282.345 88.1605C282.017 87.5379 281.597 86.969 281.098 86.4734C280.846 86.227 280.541 86.0407 280.207 85.9287C279.873 85.8166 279.518 85.7815 279.169 85.8262C279.004 85.8467 278.848 85.909 278.714 86.0072C278.58 86.1054 278.474 86.2362 278.405 86.3871C278.297 86.6978 278.53 87.1163 278.858 87.0861L278.927 87.1465C279.661 87.7966 280.407 88.4309 281.167 89.0494C281.348 89.2184 281.56 89.3503 281.792 89.4377C281.909 89.4802 282.035 89.489 282.156 89.463C282.278 89.4371 282.389 89.3775 282.478 89.291C282.75 88.989 282.552 88.51 282.345 88.1605Z" fill="#FF725E"/>
<path d="M283.729 90.5681C281.287 87.5823 278.008 85.8607 274.151 85.8218C271.993 85.783 271.074 86.2533 269.508 86.6589C267.939 87.0376 266.553 87.9535 265.59 89.2478C264.481 90.8227 263.549 92.5875 263.338 94.5076C263.061 96.4694 262.967 98.4527 263.057 100.432C263.148 102.421 263.787 104.346 264.904 105.994L269.926 106.857C272.701 106.952 275.514 107.042 278.219 106.425C280.925 105.808 283.548 104.337 284.994 101.968C287.004 98.6541 286.167 93.5497 283.729 90.5681Z" fill="#263238"/>
<path d="M279.263 90.5337L272.567 87.8715L270.815 88.0743C266.88 88.0743 264.162 92.4322 264.136 95.6166C264.11 99.1633 264.213 103.487 264.774 106.097C265.909 111.348 270.384 111.784 270.384 111.784C270.384 111.784 270.293 114.585 270.258 116.345L280.515 115.607L281.028 92.333C281.013 91.8666 280.823 91.423 280.496 91.0899C280.169 90.7568 279.729 90.5583 279.263 90.5337V90.5337Z" fill="#FFBF9D"/>
<path d="M272.649 104.867C272.607 104.599 272.469 104.355 272.261 104.181C272.071 104.018 271.832 103.921 271.582 103.906C271.332 103.891 271.083 103.959 270.875 104.099C270.66 104.266 270.492 104.486 270.39 104.739C270.287 104.991 270.254 105.267 270.293 105.536V105.536C270.408 105.698 270.557 105.833 270.729 105.933C270.901 106.033 271.092 106.095 271.29 106.114C271.351 106.119 271.413 106.119 271.475 106.114C271.795 106.121 272.105 106.002 272.338 105.782C272.455 105.663 272.544 105.519 272.598 105.36C272.652 105.202 272.669 105.033 272.649 104.867V104.867Z" fill="#FF9A6C"/>
<path d="M265.909 100.1C265.916 100.277 265.992 100.445 266.121 100.567C266.25 100.688 266.422 100.755 266.6 100.751C266.686 100.753 266.773 100.737 266.854 100.705C266.934 100.674 267.008 100.626 267.07 100.565C267.132 100.505 267.182 100.432 267.216 100.352C267.25 100.272 267.268 100.187 267.268 100.1C267.259 99.9222 267.182 99.7552 267.052 99.6337C266.923 99.5122 266.751 99.4457 266.574 99.4481C266.487 99.4464 266.401 99.462 266.32 99.494C266.24 99.5259 266.166 99.5736 266.105 99.6343C266.043 99.695 265.994 99.7674 265.96 99.8473C265.926 99.9272 265.909 100.013 265.909 100.1Z" fill="#263238"/>
<path d="M265.335 97.3899C265.422 97.4719 265.918 97.0663 266.63 97.0274C267.342 96.9886 267.924 97.3252 267.993 97.2302C268.062 97.1353 267.933 97.0318 267.691 96.8764C267.363 96.6747 266.98 96.5797 266.595 96.6046C266.215 96.6234 265.851 96.7624 265.555 97.0016C265.357 97.1871 265.288 97.3511 265.335 97.3899Z" fill="#263238"/>
<path d="M270.03 103.124C269.638 103.021 269.235 102.971 268.83 102.973C268.645 102.973 268.464 102.939 268.425 102.809C268.401 102.618 268.434 102.425 268.52 102.253C268.671 101.791 268.83 101.308 268.994 100.799C269.65 98.7361 270.116 97.0403 270.03 97.0145C269.944 96.9886 269.348 98.6411 268.692 100.708L268.261 102.166C268.155 102.398 268.135 102.659 268.205 102.904C268.235 102.968 268.279 103.025 268.334 103.069C268.39 103.113 268.455 103.144 268.524 103.159C268.629 103.181 268.736 103.19 268.843 103.185C269.24 103.211 269.638 103.191 270.03 103.124V103.124Z" fill="#263238"/>
<path d="M270.375 111.78C272.871 111.681 275.291 110.891 277.365 109.497C277.365 109.497 275.678 113.273 270.349 113.07L270.375 111.78Z" fill="#FF9A6C"/>
<path d="M272.209 103.508C272.092 103.508 272.131 104.302 271.484 104.902C270.837 105.502 269.987 105.463 269.987 105.575C269.987 105.687 270.185 105.718 270.539 105.709C271.006 105.69 271.451 105.507 271.795 105.191C272.124 104.889 272.324 104.472 272.351 104.026C272.36 103.694 272.265 103.504 272.209 103.508Z" fill="#263238"/>
<path d="M265.581 94.8313C265.715 94.9995 266.267 94.8528 266.923 94.8701C267.579 94.8874 268.131 95.0297 268.269 94.8701C268.33 94.7881 268.248 94.6198 268.01 94.4386C267.69 94.2301 267.314 94.1205 266.932 94.1236C266.549 94.1134 266.171 94.2137 265.844 94.4127C265.607 94.5767 265.525 94.745 265.581 94.8313Z" fill="#263238"/>
<path d="M273.887 99.9184C273.891 100.096 273.825 100.267 273.704 100.397C273.584 100.527 273.417 100.604 273.24 100.613C273.154 100.621 273.067 100.612 272.984 100.587C272.901 100.561 272.824 100.519 272.758 100.463C272.692 100.407 272.637 100.338 272.598 100.261C272.558 100.184 272.534 100.1 272.528 100.013C272.524 99.8364 272.589 99.6649 272.709 99.5346C272.829 99.4044 272.994 99.3255 273.171 99.3144C273.258 99.3061 273.345 99.3152 273.429 99.3412C273.512 99.3673 273.589 99.4096 273.656 99.4659C273.723 99.5222 273.777 99.5912 273.817 99.6689C273.857 99.7466 273.881 99.8314 273.887 99.9184V99.9184Z" fill="#263238"/>
<path d="M275.225 97.1051C275.143 97.1957 274.621 96.8246 273.888 96.8376C273.154 96.8505 272.628 97.2302 272.546 97.1396C272.464 97.049 272.589 96.9412 272.822 96.7642C273.134 96.5395 273.508 96.4173 273.892 96.4147C274.273 96.4063 274.646 96.5197 274.958 96.7384C275.186 96.9066 275.268 97.0663 275.225 97.1051Z" fill="#263238"/>
<path d="M274.785 94.7665C274.647 94.9348 274.077 94.7665 273.4 94.7665C272.722 94.7665 272.144 94.9003 272.01 94.7277C271.95 94.6457 272.04 94.4775 272.286 94.2962C272.627 94.0965 273.018 93.9964 273.413 94.0071C273.805 94.0026 274.19 94.1121 274.521 94.3221C274.767 94.512 274.849 94.6846 274.785 94.7665Z" fill="#263238"/>
<path d="M280.126 101.23C280.126 100.837 280.51 99.8839 280.899 99.8019C281.93 99.5819 283.807 99.5603 283.971 102.201C284.195 105.812 280.519 105.29 280.519 105.187C280.519 105.083 280.191 102.594 280.126 101.23Z" fill="#FFBF9D"/>
<path d="M281.421 103.806C281.421 103.806 281.486 103.849 281.593 103.888C281.746 103.95 281.916 103.95 282.068 103.888C282.439 103.724 282.724 103.098 282.702 102.447C282.692 102.137 282.612 101.833 282.469 101.558C282.429 101.447 282.362 101.347 282.274 101.268C282.186 101.189 282.079 101.133 281.965 101.105C281.892 101.091 281.816 101.102 281.751 101.138C281.685 101.173 281.634 101.23 281.606 101.299C281.563 101.403 281.606 101.476 281.572 101.48C281.537 101.485 281.49 101.424 281.512 101.273C281.526 101.183 281.572 101.1 281.641 101.04C281.687 100.999 281.741 100.968 281.8 100.949C281.858 100.93 281.92 100.923 281.982 100.928C282.132 100.946 282.275 101.004 282.396 101.094C282.518 101.185 282.613 101.307 282.672 101.446C282.845 101.749 282.941 102.09 282.953 102.438C282.974 103.167 282.642 103.871 282.133 104.052C282.038 104.086 281.936 104.099 281.835 104.09C281.735 104.08 281.637 104.048 281.55 103.996C281.421 103.897 281.421 103.815 281.421 103.806Z" fill="#FF9A6C"/>
<path d="M281.037 99.8105L280.126 100.751C276.165 96.9584 268.425 87.4658 268.86 88.031C270.666 87.36 272.611 87.1537 274.517 87.4313C277.464 87.9318 283.048 89.4075 282.961 92.8809C282.875 96.3543 281.037 99.8105 281.037 99.8105Z" fill="#263238"/>
<path d="M286.284 99.0252C286.272 98.9545 286.253 98.8851 286.228 98.8181C286.162 98.6217 286.08 98.4311 285.982 98.2486C285.608 97.5801 285.092 97.0014 284.472 96.5528C283.556 95.8954 282.535 95.4006 281.451 95.0901C280.243 94.6975 278.884 94.3911 277.546 93.7957C276.285 93.2701 275.089 92.5997 273.982 91.7979C273.077 91.1425 272.234 90.4059 271.462 89.5974C270.945 89.0505 270.459 88.4742 270.008 87.8714L269.646 87.3709C269.605 87.3104 269.559 87.2541 269.508 87.2026C269.538 87.269 269.574 87.3325 269.616 87.3925C269.689 87.5133 269.797 87.6902 269.948 87.9103C270.38 88.5346 270.854 89.1286 271.367 89.688C273.071 91.5397 275.155 93.0001 277.477 93.9683C278.763 94.4554 280.072 94.8774 281.399 95.2325C282.478 95.5265 283.499 96.0006 284.42 96.6348C285.034 97.0664 285.553 97.6202 285.943 98.2615C286.167 98.7318 286.262 99.0252 286.284 99.0252Z" fill="#455A64"/>
<path d="M285.231 99.5818C285.243 99.3117 285.196 99.0423 285.093 98.7922C284.821 98.1021 284.347 97.5099 283.734 97.0922C282.816 96.501 281.789 96.1005 280.713 95.9142C279.426 95.6563 278.172 95.2569 276.972 94.7233C275.778 94.1784 274.656 93.4871 273.633 92.6652C272.8 91.991 272.034 91.2382 271.346 90.4171C270.877 89.8603 270.445 89.2737 270.052 88.661L269.745 88.1562C269.714 88.0954 269.674 88.0389 269.629 87.9879C269.653 88.0518 269.682 88.1139 269.715 88.1734L269.991 88.6999C270.358 89.3287 270.771 89.93 271.225 90.4991C271.905 91.3418 272.67 92.1125 273.508 92.7989C274.537 93.6372 275.67 94.3404 276.878 94.8916C278.088 95.4315 279.356 95.8297 280.657 96.0782C281.713 96.2541 282.725 96.6353 283.635 97.2C284.236 97.596 284.71 98.1581 284.998 98.8181C285.099 99.065 285.177 99.3206 285.231 99.5818Z" fill="#455A64"/>
<path d="M280.916 105.929C280.916 105.903 281.223 105.864 281.758 105.722C282.508 105.505 283.199 105.12 283.777 104.596C284.624 103.802 285.268 102.817 285.654 101.722C286.147 100.388 286.412 98.9802 286.439 97.5582C286.456 96.8234 286.396 96.0889 286.262 95.3662C285.9 93.5486 285.047 91.8652 283.794 90.4991C283.058 89.7171 282.246 89.0104 281.369 88.3892C281.369 88.3892 281.443 88.415 281.572 88.4927C281.702 88.5704 281.887 88.6739 282.116 88.8379C282.771 89.2875 283.376 89.8069 283.919 90.3869C284.733 91.2464 285.392 92.2406 285.865 93.3253C286.14 93.9687 286.35 94.638 286.491 95.3231C286.63 96.0612 286.692 96.8116 286.677 97.5625C286.651 99.0113 286.375 100.445 285.861 101.8C285.453 102.92 284.776 103.923 283.889 104.721C283.284 105.247 282.562 105.621 281.784 105.812C281.572 105.861 281.357 105.895 281.141 105.916C281.066 105.926 280.991 105.93 280.916 105.929V105.929Z" fill="#455A64"/>
<path d="M285.511 150.333L264.162 153.435C256.14 155.705 247.692 156.369 238.86 155.593L270.992 170.582L283.893 170.781C283.893 170.781 287.82 170.781 288.506 167.355C289.192 163.929 289.956 153.496 289.956 153.496C289.956 153.496 287.406 151.286 285.511 150.333Z" fill="#263238"/>
<g opacity="0.3">
<path d="M285.447 159.321C285.8 161.459 285.927 163.628 285.826 165.793C286.482 165.073 286.965 164.213 287.239 163.278C287.513 162.344 287.57 161.359 287.406 160.399C287.22 159.346 286.78 158.186 287.332 157.267C287.703 156.65 288.683 155.942 288.54 155.239C288.54 155.239 287.677 155.239 286.905 155.209C286.279 155.183 284.981 155.144 284.981 155.144C285.54 156.486 285.66 157.97 285.326 159.385" fill="black"/>
</g>
<path d="M270.293 115.465L280.666 114.343L282.564 116.069L275.16 120.427L271.894 122.118L268.666 121.139L267.644 119.214L270.293 115.465Z" fill="#FFBF9D"/>
<path d="M256.309 128.094C256.309 128.094 259.562 121.855 260.365 120.491C261.737 118.166 264.3 116.85 264.3 116.85L270.293 115.465C270.293 115.465 269.672 118.485 273.4 118.675C278.146 118.938 281.093 114.39 281.093 114.39C281.093 114.39 286.504 114.947 287.997 115.573C289.49 116.198 293.718 117.972 294.339 123.589L295.789 132.767L284.355 133.63L284.51 145.85L279.652 149.824C279.652 149.824 265.702 154.626 264.809 154.941C264.377 155.092 264.489 149.163 263.493 144.081L261.612 139.511C260.85 137.686 260.399 135.746 260.278 133.772C260.205 132.478 260.239 131.486 260.239 131.486C260.239 131.486 257.305 130.48 256.309 128.094Z" fill="#455A64"/>
<path d="M265.318 150.152L284.489 144.4L284.355 133.639L294.115 132.897C294.115 132.897 293.339 138.471 293.222 141.328C293.058 145.44 291.065 151.187 289.77 152.404C288.476 153.621 264.822 154.95 264.822 154.95L265.318 150.152Z" fill="#FFBF9D"/>
<path d="M254.445 153.534C254.537 153.693 254.684 153.812 254.858 153.87C255.032 153.928 255.221 153.92 255.39 153.849C255.821 153.677 255.705 152.805 255.705 152.805L257.746 152.305C257.746 152.305 260.563 153.832 261.629 154.894C262.695 155.955 265.038 154.846 265.038 154.846L265.525 150.372L261.457 147.226C261.457 147.226 261.707 147.416 261.392 146.795C261.077 146.173 259.903 146.51 259.903 146.51C259.696 146.204 258.907 146.152 258.907 146.152L255.597 146.795C255.261 146.86 254.944 147 254.67 147.204C254.395 147.407 254.169 147.67 254.009 147.973L252.771 150.316C252.771 150.316 252.149 151.981 252.301 152.348C252.366 152.5 252.484 152.622 252.634 152.692C252.783 152.762 252.953 152.775 253.112 152.728C253.112 152.728 253.358 153.772 253.638 153.785C253.921 153.75 254.195 153.66 254.445 153.521V153.534Z" fill="#FFBF9D"/>
<path d="M261.301 149.824C261.301 149.858 260.87 149.85 260.145 149.936C259.222 150.053 258.319 150.296 257.461 150.656C256.99 150.858 256.535 151.096 256.102 151.368C255.718 151.623 255.312 151.843 255.204 152.149C255.181 152.215 255.175 152.286 255.187 152.355C255.199 152.424 255.229 152.488 255.273 152.542C255.341 152.632 255.434 152.699 255.541 152.736C255.722 152.792 255.83 152.736 255.838 152.736C255.847 152.736 255.739 152.835 255.519 152.797C255.389 152.767 255.271 152.698 255.183 152.598C255.119 152.53 255.074 152.446 255.053 152.355C255.032 152.264 255.035 152.17 255.062 152.08C255.135 151.879 255.268 151.705 255.441 151.58C255.614 151.446 255.795 151.312 255.998 151.178C257.234 150.369 258.654 149.884 260.127 149.768C260.519 149.723 260.915 149.742 261.301 149.824V149.824Z" fill="#FF9A6C"/>
<path d="M261.702 151.934C261.702 151.994 260.339 152.046 258.682 152.27C257.025 152.494 255.696 152.805 255.662 152.745C255.935 152.613 256.226 152.519 256.525 152.464C257.224 152.288 257.933 152.153 258.647 152.059C259.363 151.962 260.083 151.905 260.805 151.89C261.105 151.864 261.407 151.878 261.702 151.934V151.934Z" fill="#FF9A6C"/>
<path d="M254.458 153.448C254.423 153.334 254.4 153.217 254.389 153.099C254.344 152.774 254.318 152.447 254.311 152.119C254.307 151.891 254.322 151.663 254.354 151.437C254.394 151.172 254.487 150.916 254.626 150.687C254.913 150.155 255.303 149.685 255.774 149.306C256.239 148.925 256.757 148.613 257.31 148.378C257.769 148.208 258.247 148.096 258.734 148.046C259.165 147.998 259.476 147.986 259.709 147.973C259.828 147.955 259.948 147.955 260.067 147.973C259.64 148.07 259.208 148.142 258.773 148.188C258.303 148.257 257.843 148.379 257.401 148.551C256.87 148.788 256.373 149.095 255.925 149.466C255.478 149.825 255.1 150.264 254.812 150.76C254.581 151.169 254.466 151.633 254.479 152.102C254.445 152.935 254.505 153.448 254.458 153.448Z" fill="#FF9A6C"/>
<path d="M258.811 147.023C258.811 147.058 258.315 147.11 257.517 147.261C256.719 147.412 255.532 147.588 254.928 148.702C254.312 149.546 253.814 150.471 253.448 151.45C253.334 151.867 253.261 152.293 253.228 152.723C253.188 152.61 253.172 152.489 253.181 152.369C253.173 152.044 253.214 151.72 253.301 151.407C253.63 150.393 254.119 149.439 254.751 148.581C254.919 148.321 255.121 148.084 255.351 147.878C255.573 147.687 255.829 147.541 256.106 147.446C256.56 147.289 257.028 147.177 257.504 147.114C257.934 147.029 258.374 146.999 258.811 147.023V147.023Z" fill="#FF9A6C"/>
<path d="M260.827 154.255C260.752 154.216 260.681 154.17 260.615 154.117L260.024 153.716C259.279 153.225 258.507 152.777 257.711 152.374H257.759L255.722 152.887L255.787 152.792C255.806 152.961 255.806 153.132 255.787 153.301C255.774 153.488 255.707 153.667 255.593 153.815C255.522 153.889 255.43 153.941 255.329 153.962C255.237 153.994 255.138 154.007 255.04 154C254.838 153.986 254.647 153.9 254.501 153.759C254.466 153.722 254.432 153.683 254.402 153.642V153.612L254.523 153.647L254.458 153.677C254.374 153.721 254.287 153.76 254.199 153.793C254.109 153.829 254.016 153.859 253.923 153.884C253.873 153.898 253.823 153.909 253.772 153.914C253.706 153.925 253.639 153.917 253.578 153.893C253.479 153.83 253.401 153.74 253.353 153.634C253.305 153.544 253.264 153.452 253.228 153.357C253.156 153.171 253.096 152.979 253.051 152.784L253.176 152.857C253.039 152.899 252.892 152.903 252.753 152.867C252.614 152.831 252.487 152.757 252.387 152.654C252.283 152.544 252.221 152.4 252.214 152.249C252.214 152.112 252.227 151.977 252.253 151.843C252.368 151.323 252.521 150.813 252.71 150.316L253.37 149.064L253.802 148.275C253.93 148.002 254.086 147.743 254.268 147.502C254.466 147.271 254.708 147.082 254.98 146.946C255.245 146.824 255.527 146.742 255.817 146.704L258.932 146.104H258.958C259.15 146.119 259.339 146.153 259.523 146.208C259.719 146.251 259.896 146.355 260.028 146.506L259.907 146.48C260.072 146.389 260.256 146.339 260.444 146.334C260.631 146.33 260.818 146.371 260.986 146.454C261.278 146.638 261.49 146.924 261.582 147.256L261.551 147.217L264.356 149.375L265.111 149.97C265.202 150.036 265.287 150.11 265.366 150.19C265.267 150.139 265.173 150.078 265.085 150.009L264.304 149.444L261.456 147.347H261.435V147.317C261.355 147.028 261.168 146.78 260.913 146.622C260.771 146.554 260.614 146.521 260.456 146.526C260.298 146.531 260.144 146.575 260.007 146.652L259.933 146.687L259.886 146.626C259.776 146.513 259.635 146.435 259.48 146.402C259.308 146.354 259.132 146.324 258.954 146.311H258.98L255.864 146.924C255.592 146.959 255.328 147.037 255.079 147.153C254.834 147.274 254.617 147.444 254.441 147.653C254.271 147.883 254.126 148.13 254.009 148.391L253.578 149.181C253.349 149.612 253.146 150.044 252.917 150.432C252.739 150.919 252.595 151.418 252.486 151.925C252.461 152.043 252.448 152.163 252.447 152.283C252.453 152.387 252.496 152.485 252.568 152.559C252.642 152.634 252.735 152.686 252.837 152.712C252.939 152.738 253.045 152.736 253.146 152.706L253.25 152.68V152.779C253.297 152.965 253.353 153.155 253.418 153.332C253.465 153.494 253.551 153.642 253.668 153.763C253.696 153.771 253.726 153.771 253.755 153.763L253.88 153.737C253.967 153.718 254.052 153.69 254.134 153.655C254.216 153.625 254.298 153.586 254.38 153.547L254.441 153.521L254.566 153.556V153.578C254.589 153.611 254.615 153.643 254.643 153.672C254.724 153.758 254.827 153.819 254.941 153.848C255.055 153.877 255.175 153.873 255.286 153.836C255.355 153.825 255.419 153.791 255.467 153.741C255.62 153.481 255.676 153.176 255.627 152.879V152.801H255.696L257.741 152.318H257.767C258.562 152.732 259.328 153.2 260.058 153.72C260.313 153.905 260.49 154.052 260.632 154.151C260.699 154.181 260.764 154.216 260.827 154.255V154.255Z" fill="#FF9A6C"/>
<path d="M250.859 157.025C250.859 157.025 237.332 152.775 233.086 151.416C225.751 149.043 220.979 151.442 219.469 154.056C217.51 157.452 222.209 164.075 224.021 165.599C229.384 170.108 238.579 170.716 238.579 170.716L271.639 170.656L262.004 157.547L250.859 157.025Z" fill="#263238"/>
<path d="M252.887 163.161C247.378 163.802 241.796 163.042 236.659 160.951C235.783 160.555 234.88 160.219 233.958 159.946C233.046 159.716 232.101 159.649 231.166 159.748C230.795 159.757 230.43 159.841 230.092 159.994C229.754 160.148 229.45 160.368 229.199 160.641C228.539 161.504 228.875 162.746 229.242 163.773C229.673 164.982 230.105 166.216 230.968 167.182C231.947 168.308 233.371 168.955 234.799 169.404C237.591 170.267 240.538 170.539 243.464 170.651L253.508 170.103L252.887 163.161Z" fill="#E0E0E0"/>
<path d="M233.488 159.95C233.554 160.031 233.605 160.123 233.639 160.222C233.756 160.48 233.845 160.749 233.906 161.025C234.123 161.943 234.085 162.903 233.796 163.801C233.507 164.699 232.978 165.501 232.267 166.121C232.055 166.306 231.827 166.472 231.585 166.617C231.408 166.716 231.309 166.759 231.3 166.746C231.292 166.733 231.663 166.496 232.163 166.008C232.82 165.381 233.309 164.599 233.587 163.734C233.865 162.869 233.923 161.948 233.755 161.055C233.635 160.365 233.453 159.963 233.488 159.95Z" fill="#263238"/>
<path d="M285.387 156.197C284.601 153.97 284.472 150.7 279.626 149.129C274.781 147.558 271.122 150.57 268.632 151.614C266.142 152.658 252.538 160.123 252.538 160.123C252.538 160.123 249.975 164.693 250.704 166.712C251.433 168.731 254.747 170.725 254.747 170.725H269.965C273.892 170.725 281.184 170.591 281.184 170.591C282.16 168.99 283.035 167.33 283.803 165.62L283.932 164.964C283.945 164.442 286.168 158.423 285.387 156.197Z" fill="#263238"/>
<path d="M276.955 167.756C276.936 167.833 276.897 167.904 276.843 167.963C276.696 168.134 276.528 168.286 276.343 168.416C275.663 168.885 274.941 169.288 274.185 169.62C273.669 169.861 273.139 170.07 272.597 170.246C271.971 170.443 271.328 170.587 270.677 170.677C269.192 170.825 267.699 170.883 266.207 170.85C263.044 170.902 260.166 171.022 258.095 170.996C257.055 170.996 256.214 170.949 255.636 170.889C255.413 170.869 255.191 170.837 254.971 170.794C254.894 170.784 254.817 170.767 254.743 170.742C254.743 170.72 255.062 170.776 255.64 170.807C256.218 170.837 257.06 170.858 258.095 170.85C260.171 170.85 263.036 170.69 266.207 170.638C267.692 170.67 269.177 170.619 270.656 170.483C271.295 170.405 271.927 170.275 272.546 170.095C273.084 169.929 273.611 169.73 274.125 169.499C274.875 169.184 275.597 168.804 276.282 168.364C276.469 168.24 276.641 168.095 276.796 167.933C276.917 167.829 276.942 167.752 276.955 167.756Z" fill="#263238"/>
<path d="M254.747 170.725L254.544 170.617C254.415 170.543 254.225 170.423 253.979 170.263C253.263 169.796 252.593 169.263 251.977 168.671C251.53 168.243 251.149 167.751 250.846 167.212C250.536 166.537 250.458 165.779 250.622 165.055C250.992 163.32 251.613 161.649 252.464 160.093V160.071C254.958 158.699 257.819 157.142 260.943 155.463C262.505 154.626 264.132 153.759 265.823 152.874C266.686 152.443 267.549 152.011 268.412 151.58C269.275 151.148 270.159 150.717 271.053 150.251C272.287 149.575 273.61 149.076 274.983 148.771C275.658 148.636 276.345 148.574 277.033 148.585C277.706 148.606 278.375 148.701 279.026 148.87C280.29 149.181 281.477 149.748 282.513 150.536C282.994 150.935 283.421 151.396 283.781 151.908C284.112 152.412 284.386 152.952 284.597 153.517C284.812 154.069 284.964 154.626 285.119 155.17C285.297 155.698 285.441 156.237 285.55 156.783C285.618 157.828 285.531 158.876 285.291 159.894C285.097 160.865 284.86 161.771 284.614 162.613C284.493 163.044 284.372 163.446 284.26 163.838C284.148 164.231 284.019 164.619 283.958 164.964C283.906 165.21 283.868 165.396 283.824 165.616C283.409 166.949 282.821 168.223 282.077 169.404C281.813 169.827 281.502 170.218 281.149 170.569L281.205 170.492C281.253 170.436 281.313 170.366 281.387 170.272C281.615 169.984 281.828 169.684 282.025 169.374C282.744 168.185 283.311 166.911 283.712 165.581C283.958 165.374 283.911 165.171 283.837 164.926C283.913 164.532 284.011 164.143 284.131 163.761L284.48 162.539C284.713 161.676 284.946 160.788 285.136 159.825C285.366 158.823 285.447 157.792 285.378 156.766C285.264 156.231 285.12 155.702 284.946 155.183C284.787 154.639 284.631 154.087 284.42 153.547C284.214 152.995 283.946 152.468 283.622 151.977C283.272 151.482 282.856 151.036 282.388 150.652C280.836 149.489 278.966 148.827 277.029 148.754C276.356 148.742 275.685 148.805 275.026 148.939C273.669 149.24 272.362 149.733 271.143 150.402C270.28 150.833 269.417 151.351 268.49 151.735C267.562 152.119 266.764 152.576 265.901 153.03C264.214 153.893 262.583 154.755 261.021 155.618L252.529 160.196L252.559 160.162C251.71 161.7 251.087 163.352 250.708 165.068C250.538 165.768 250.606 166.504 250.902 167.161C251.193 167.695 251.562 168.182 251.998 168.606C252.603 169.203 253.26 169.744 253.962 170.224L254.514 170.595C254.669 170.677 254.747 170.725 254.747 170.725Z" fill="#263238"/>
<path d="M279.514 165.076C279.514 165.076 284.049 165.62 283.647 167.838C283.246 170.056 281.762 170.802 281.762 170.802L269.439 170.828C269.439 170.828 276.795 170.319 279.514 165.076Z" fill="#E0E0E0"/>
<path d="M279.954 164.002C279.953 164.218 279.906 164.431 279.816 164.628C279.649 165.124 279.401 165.589 279.082 166.004C278.653 166.609 278.051 167.072 277.356 167.333C277.929 166.904 278.454 166.415 278.923 165.875C279.318 165.28 279.663 164.654 279.954 164.002V164.002Z" fill="#263238"/>
<path d="M278.401 164.869C278.408 165.426 278.258 165.973 277.969 166.449C277.748 166.953 277.409 167.397 276.981 167.743C276.934 167.704 277.378 167.13 277.779 166.341C278.181 165.551 278.323 164.861 278.401 164.869Z" fill="#263238"/>
<path d="M284.165 170.185C284.131 170.185 284.424 169.607 284.778 168.653C285.707 166.163 286.014 163.484 285.671 160.848C285.537 159.843 285.382 159.226 285.417 159.217C285.485 159.353 285.534 159.499 285.563 159.648C285.67 160.039 285.755 160.435 285.818 160.835C286.25 163.494 285.939 166.22 284.92 168.714C284.767 169.081 284.592 169.44 284.398 169.788C284.337 169.929 284.258 170.063 284.165 170.185V170.185Z" fill="#455A64"/>
<g opacity="0.3">
<path d="M281.602 163.881C281.568 163.584 281.451 163.23 281.171 163.169C280.808 163.096 280.562 163.51 280.42 163.847C278.832 167.458 273.702 170.276 269.771 170.651C271.677 170.647 273.581 170.491 275.462 170.185C277.067 169.945 278.571 169.257 279.803 168.2C280.415 167.668 280.896 167.001 281.208 166.252C281.52 165.502 281.655 164.691 281.602 163.881Z" fill="black"/>
</g>
<path d="M251.58 158.967C250.828 158.756 250.098 158.477 249.397 158.134C248.668 157.858 247.966 157.516 247.3 157.111C248.05 157.324 248.781 157.601 249.483 157.94C250.212 158.217 250.914 158.561 251.58 158.967V158.967Z" fill="#263238"/>
<g opacity="0.2">
<path d="M255.964 157.06C250.095 155.938 244.206 154.941 238.294 154.069L233.893 155.459C235.127 157.754 237.565 159.217 240.098 159.821C242.631 160.425 245.276 160.283 247.865 160.045C250.721 159.782 253.655 159.381 256.141 157.948C256.33 157.84 256.546 157.677 256.52 157.456C256.494 157.236 256.218 157.107 255.964 157.06Z" fill="black"/>
</g>
<path d="M227.08 139.584L234.476 155.938C234.625 156.271 234.867 156.554 235.173 156.754C235.479 156.954 235.836 157.061 236.202 157.064L257.776 157.344L260.494 155.882L256.235 155.571L249.608 139.666C249.505 139.419 249.331 139.207 249.108 139.058C248.886 138.908 248.624 138.827 248.356 138.825L227.693 138.67C227.583 138.666 227.473 138.69 227.375 138.74C227.277 138.79 227.193 138.865 227.131 138.956C227.07 139.048 227.033 139.154 227.024 139.264C227.015 139.374 227.034 139.484 227.08 139.584V139.584Z" fill="#E0E0E0"/>
<path d="M227.08 139.584C227.045 139.524 227.023 139.456 227.015 139.386C227.002 139.282 227.013 139.177 227.048 139.079C227.084 138.98 227.142 138.892 227.218 138.821C227.336 138.711 227.489 138.647 227.65 138.64H229.544L238.195 138.67L244.21 138.7L247.571 138.722H248.434C248.754 138.745 249.057 138.872 249.297 139.084C249.529 139.301 249.7 139.575 249.793 139.878L250.147 140.741C252.033 145.258 254.117 150.255 256.326 155.536L256.222 155.463L260.334 155.765H260.481L260.913 155.795L260.546 155.994L257.828 157.456H257.797H257.767L241.414 157.232L237.764 157.18C237.168 157.18 236.599 157.18 236.007 157.146C235.712 157.111 235.428 157.012 235.175 156.855C234.923 156.699 234.707 156.489 234.545 156.24C233.583 154.216 232.78 152.356 231.999 150.63L228.383 142.544C227.952 141.599 227.641 140.862 227.417 140.348C227.309 140.107 227.231 139.917 227.171 139.779C227.11 139.641 227.093 139.58 227.093 139.58C227.13 139.641 227.163 139.705 227.192 139.77L227.46 140.331C227.693 140.836 228.029 141.569 228.465 142.488L232.15 150.548C232.931 152.244 233.768 154.151 234.709 156.119C234.855 156.343 235.049 156.532 235.278 156.673C235.506 156.813 235.763 156.901 236.029 156.93C236.581 156.956 237.181 156.952 237.755 156.96L241.405 157.003L257.758 157.202H257.698L260.416 155.735L260.468 155.964H260.321L256.209 155.666H256.136L256.106 155.601C253.91 150.311 251.83 145.315 249.949 140.793L249.599 139.951C249.522 139.677 249.373 139.428 249.168 139.231C248.963 139.046 248.701 138.935 248.426 138.916H247.563L244.201 138.885L238.191 138.825L229.531 138.722H228.176H227.641C227.556 138.725 227.472 138.745 227.394 138.782C227.317 138.819 227.248 138.871 227.192 138.935C227.135 138.999 227.092 139.074 227.066 139.155C227.039 139.237 227.029 139.322 227.037 139.408C227.048 139.467 227.062 139.526 227.08 139.584V139.584Z" fill="#263238"/>
<path d="M255.584 157.314C255.544 157.258 255.51 157.197 255.484 157.133L255.239 156.607C255.023 156.115 254.729 155.45 254.376 154.648C253.655 152.986 252.676 150.691 251.623 148.137C250.57 145.582 249.638 143.265 248.995 141.578C248.671 140.715 248.417 140.046 248.253 139.567C248.175 139.347 248.115 139.166 248.063 139.015C248.039 138.951 248.021 138.884 248.011 138.817C248.051 138.872 248.083 138.933 248.106 138.998L248.331 139.537C248.533 140.038 248.805 140.706 249.133 141.522C249.832 143.222 250.777 145.517 251.817 148.059C252.857 150.6 253.815 152.887 254.514 154.587L255.321 156.572C255.403 156.792 255.472 156.969 255.528 157.116C255.558 157.178 255.577 157.245 255.584 157.314V157.314Z" fill="#263238"/>
<path d="M242.208 147.511C242.209 147.721 242.147 147.927 242.031 148.102C241.915 148.277 241.749 148.414 241.555 148.495C241.361 148.576 241.147 148.597 240.941 148.556C240.734 148.516 240.545 148.414 240.396 148.266C240.247 148.117 240.146 147.927 240.105 147.721C240.065 147.515 240.086 147.301 240.167 147.107C240.248 146.913 240.384 146.747 240.56 146.631C240.735 146.515 240.941 146.453 241.151 146.454C241.431 146.454 241.7 146.565 241.898 146.763C242.097 146.962 242.208 147.23 242.208 147.511V147.511Z" fill="white"/>
<path d="M263.2 121.203C263.234 121.203 262.923 121.803 262.488 122.77C261.347 125.293 260.602 127.976 260.278 130.726C260.149 131.783 260.115 132.452 260.076 132.452C260.053 132.298 260.053 132.141 260.076 131.986C260.076 131.688 260.076 131.257 260.136 130.722C260.38 127.937 261.138 125.222 262.371 122.714C262.608 122.235 262.803 121.851 262.971 121.6C263.031 121.459 263.108 121.326 263.2 121.203Z" fill="#263238"/>
<path d="M295.789 132.767C295.712 132.791 295.632 132.804 295.552 132.806L294.866 132.871L292.303 133.086L283.539 133.747H283.427V133.634C283.354 132.469 283.276 131.24 283.199 129.98C283.073 127.779 282.966 125.665 282.931 123.771C282.82 122.064 283.208 120.362 284.049 118.873C284.626 117.869 285.478 117.05 286.504 116.513C286.781 116.374 287.07 116.26 287.367 116.172C287.47 116.14 287.575 116.114 287.682 116.095C287.682 116.129 287.25 116.22 286.538 116.591C285.549 117.147 284.732 117.965 284.178 118.955C283.378 120.429 283.02 122.103 283.147 123.775C283.19 125.678 283.302 127.775 283.427 129.975C283.505 131.235 283.578 132.465 283.652 133.626L283.531 133.522L292.303 132.944L294.892 132.793L295.578 132.767H295.789Z" fill="#263238"/>
<path d="M274.289 140.24C274.156 140.214 274.028 140.168 273.909 140.102C273.761 140.04 273.616 139.968 273.478 139.887C273.291 139.786 273.111 139.675 272.938 139.554C272.479 139.245 272.055 138.886 271.674 138.484C271.213 137.987 270.807 137.44 270.466 136.853C270.136 136.26 269.874 135.632 269.685 134.981C269.535 134.448 269.442 133.902 269.409 133.35C269.396 133.138 269.396 132.927 269.409 132.715C269.409 132.555 269.421 132.395 269.443 132.236C269.447 132.099 269.473 131.964 269.521 131.835C269.564 131.835 269.491 132.418 269.581 133.337C269.635 133.873 269.741 134.404 269.896 134.92C270.095 135.552 270.356 136.162 270.677 136.741C271.008 137.312 271.397 137.847 271.838 138.338C272.205 138.735 272.608 139.097 273.042 139.421C273.775 139.969 274.31 140.202 274.289 140.24Z" fill="#263238"/>
<rect x="13" y="15" width="42" height="41" rx="8" fill="#82ACF5" fill-opacity="0.46"/>
<mask id="mask1_1020_2633" style="mask-type:alpha" maskUnits="userSpaceOnUse" x="20" y="22" width="28" height="28">
<rect x="20" y="22" width="28" height="28" fill="#1C1B1F"/>
</mask>
<g mask="url(#mask1_1020_2633)">
<path d="M34 46.5C32.8 45.3667 31.425 44.5 29.875 43.9C28.325 43.3 26.7 43 25 43V32C26.6833 32 28.3 32.304 29.85 32.912C31.4 33.5207 32.7833 34.4 34 35.55C35.2167 34.4 36.6 33.5207 38.15 32.912C39.7 32.304 41.3167 32 43 32V43C41.2833 43 39.6543 43.3 38.113 43.9C36.571 44.5 35.2 45.3667 34 46.5ZM34 43.9C35.05 43.1167 36.1667 42.4917 37.35 42.025C38.5333 41.5583 39.75 41.25 41 41.1V34.2C39.7833 34.4167 38.5877 34.854 37.413 35.512C36.2377 36.1707 35.1 37.05 34 38.15C32.9 37.05 31.7627 36.1707 30.588 35.512C29.4127 34.854 28.2167 34.4167 27 34.2V41.1C28.25 41.25 29.4667 41.5583 30.65 42.025C31.8333 42.4917 32.95 43.1167 34 43.9ZM34 33C32.9 33 31.9583 32.6083 31.175 31.825C30.3917 31.0417 30 30.1 30 29C30 27.9 30.3917 26.9583 31.175 26.175C31.9583 25.3917 32.9 25 34 25C35.1 25 36.0417 25.3917 36.825 26.175C37.6083 26.9583 38 27.9 38 29C38 30.1 37.6083 31.0417 36.825 31.825C36.0417 32.6083 35.1 33 34 33ZM34 31C34.55 31 35.021 30.804 35.413 30.412C35.8043 30.0207 36 29.55 36 29C36 28.45 35.8043 27.979 35.413 27.587C35.021 27.1957 34.55 27 34 27C33.45 27 32.9793 27.1957 32.588 27.587C32.196 27.979 32 28.45 32 29C32 29.55 32.196 30.0207 32.588 30.412C32.9793 30.804 33.45 31 34 31Z" fill="#82ACF5"/>
</g>
<path d="M296 170.5H0V171.5H296V170.5Z" fill="#E0E0E0" mask="url(#path-1-inside-1_1020_2633)"/>
</svg>
