<svg width="296" height="171" viewBox="0 0 296 171" fill="none" xmlns="http://www.w3.org/2000/svg">
<rect width="296" height="171" fill="white"/>
<mask id="path-1-inside-1_1020_2611" fill="white">
<path d="M0 0H296V171H0V0Z"/>
</mask>
<path d="M0 0H296V171H0V0Z" fill="white"/>
<path d="M80.13 29C79.94 29 79.78 28.935 79.65 28.805C79.52 28.675 79.455 28.515 79.455 28.325V19.22C79.455 19.03 79.52 18.87 79.65 18.74C79.78 18.6 79.94 18.53 80.13 18.53H83.145C84.285 18.53 85.25 18.785 86.04 19.295C86.84 19.795 87.44 20.445 87.84 21.245C88.24 22.045 88.44 22.885 88.44 23.765C88.44 24.645 88.24 25.485 87.84 26.285C87.44 27.085 86.84 27.74 86.04 28.25C85.25 28.75 84.285 29 83.145 29H80.13ZM82.98 27.725C83.8 27.725 84.52 27.56 85.14 27.23C85.76 26.89 86.24 26.425 86.58 25.835C86.92 25.235 87.09 24.545 87.09 23.765C87.09 22.985 86.92 22.3 86.58 21.71C86.24 21.11 85.76 20.645 85.14 20.315C84.52 19.975 83.8 19.805 82.98 19.805H80.82V27.725H82.98ZM90.9482 19.79C90.7382 19.79 90.5582 19.715 90.4082 19.565C90.2582 19.415 90.1832 19.235 90.1832 19.025V18.965C90.1832 18.755 90.2582 18.575 90.4082 18.425C90.5582 18.275 90.7382 18.2 90.9482 18.2H91.0382C91.2482 18.2 91.4282 18.275 91.5782 18.425C91.7282 18.575 91.8032 18.755 91.8032 18.965V19.025C91.8032 19.235 91.7282 19.415 91.5782 19.565C91.4282 19.715 91.2482 19.79 91.0382 19.79H90.9482ZM90.9782 29.075C90.7882 29.075 90.6282 29.01 90.4982 28.88C90.3682 28.75 90.3032 28.59 90.3032 28.4V21.965C90.3032 21.775 90.3682 21.615 90.4982 21.485C90.6282 21.345 90.7882 21.275 90.9782 21.275C91.1782 21.275 91.3432 21.34 91.4732 21.47C91.6032 21.6 91.6682 21.765 91.6682 21.965V28.4C91.6682 28.59 91.5982 28.75 91.4582 28.88C91.3282 29.01 91.1682 29.075 90.9782 29.075ZM96.7535 29.075C96.5735 29.075 96.4085 29.025 96.2585 28.925C96.1085 28.815 95.9985 28.68 95.9285 28.52L93.3185 22.28C93.2685 22.16 93.2435 22.055 93.2435 21.965C93.2435 21.775 93.3085 21.615 93.4385 21.485C93.5685 21.345 93.7285 21.275 93.9185 21.275C94.0485 21.275 94.1685 21.315 94.2785 21.395C94.3985 21.465 94.4835 21.555 94.5335 21.665L96.8285 27.485L99.1235 21.665C99.1735 21.555 99.2535 21.465 99.3635 21.395C99.4835 21.315 99.6085 21.275 99.7385 21.275C99.9285 21.275 100.089 21.345 100.219 21.485C100.349 21.615 100.414 21.775 100.414 21.965C100.414 22.055 100.389 22.16 100.339 22.28L97.7285 28.52C97.6585 28.68 97.5485 28.815 97.3985 28.925C97.2485 29.025 97.0835 29.075 96.9035 29.075H96.7535ZM105.31 29.15C104.09 29.15 103.135 28.805 102.445 28.115C101.765 27.415 101.425 26.435 101.425 25.175C101.425 24.465 101.555 23.81 101.815 23.21C102.075 22.61 102.475 22.125 103.015 21.755C103.555 21.385 104.22 21.2 105.01 21.2C105.75 21.2 106.39 21.375 106.93 21.725C107.47 22.065 107.88 22.525 108.16 23.105C108.44 23.675 108.58 24.3 108.58 24.98C108.58 25.17 108.515 25.33 108.385 25.46C108.265 25.59 108.1 25.655 107.89 25.655H102.805C102.885 26.355 103.145 26.9 103.585 27.29C104.025 27.68 104.64 27.875 105.43 27.875C105.85 27.875 106.215 27.835 106.525 27.755C106.845 27.675 107.155 27.56 107.455 27.41C107.535 27.37 107.625 27.35 107.725 27.35C107.885 27.35 108.025 27.405 108.145 27.515C108.265 27.625 108.325 27.765 108.325 27.935C108.325 28.155 108.195 28.34 107.935 28.49C107.545 28.71 107.16 28.875 106.78 28.985C106.4 29.095 105.91 29.15 105.31 29.15ZM107.23 24.545C107.2 24.055 107.07 23.645 106.84 23.315C106.62 22.985 106.345 22.745 106.015 22.595C105.685 22.435 105.35 22.355 105.01 22.355C104.67 22.355 104.335 22.435 104.005 22.595C103.675 22.745 103.4 22.985 103.18 23.315C102.96 23.645 102.835 24.055 102.805 24.545H107.23ZM111.061 29.075C110.871 29.075 110.711 29.01 110.581 28.88C110.451 28.75 110.386 28.59 110.386 28.4V21.965C110.386 21.775 110.451 21.615 110.581 21.485C110.711 21.345 110.871 21.275 111.061 21.275C111.251 21.275 111.411 21.345 111.541 21.485C111.681 21.615 111.751 21.775 111.751 21.965V22.61C112.451 21.67 113.236 21.2 114.106 21.2H114.181C114.371 21.2 114.526 21.265 114.646 21.395C114.776 21.525 114.841 21.685 114.841 21.875C114.841 22.065 114.776 22.22 114.646 22.34C114.516 22.46 114.351 22.52 114.151 22.52H114.076C113.596 22.52 113.156 22.64 112.756 22.88C112.356 23.11 112.021 23.43 111.751 23.84V28.4C111.751 28.59 111.681 28.75 111.541 28.88C111.411 29.01 111.251 29.075 111.061 29.075ZM118.603 29.15C117.603 29.15 116.693 28.925 115.873 28.475C115.703 28.355 115.618 28.19 115.618 27.98C115.618 27.82 115.673 27.68 115.783 27.56C115.893 27.44 116.033 27.38 116.203 27.38C116.293 27.38 116.383 27.4 116.473 27.44C116.793 27.58 117.113 27.69 117.433 27.77C117.753 27.85 118.113 27.89 118.513 27.89C119.623 27.89 120.178 27.535 120.178 26.825C120.178 26.595 120.048 26.42 119.788 26.3C119.538 26.18 119.123 26.045 118.543 25.895C117.953 25.755 117.463 25.61 117.073 25.46C116.693 25.31 116.363 25.085 116.083 24.785C115.813 24.475 115.678 24.07 115.678 23.57C115.678 22.87 115.928 22.3 116.428 21.86C116.938 21.42 117.663 21.2 118.603 21.2C119.373 21.2 120.098 21.325 120.778 21.575C120.918 21.615 121.023 21.69 121.093 21.8C121.173 21.91 121.213 22.025 121.213 22.145C121.213 22.305 121.153 22.445 121.033 22.565C120.923 22.685 120.783 22.745 120.613 22.745C120.563 22.745 120.498 22.735 120.418 22.715C119.838 22.535 119.268 22.445 118.708 22.445C118.168 22.445 117.743 22.545 117.433 22.745C117.133 22.935 116.983 23.185 116.983 23.495C116.983 23.795 117.123 24.015 117.403 24.155C117.683 24.295 118.118 24.43 118.708 24.56C119.298 24.71 119.778 24.86 120.148 25.01C120.518 25.15 120.833 25.375 121.093 25.685C121.363 25.995 121.498 26.41 121.498 26.93C121.498 27.57 121.243 28.1 120.733 28.52C120.233 28.94 119.523 29.15 118.603 29.15ZM123.98 19.79C123.77 19.79 123.59 19.715 123.44 19.565C123.29 19.415 123.215 19.235 123.215 19.025V18.965C123.215 18.755 123.29 18.575 123.44 18.425C123.59 18.275 123.77 18.2 123.98 18.2H124.07C124.28 18.2 124.46 18.275 124.61 18.425C124.76 18.575 124.835 18.755 124.835 18.965V19.025C124.835 19.235 124.76 19.415 124.61 19.565C124.46 19.715 124.28 19.79 124.07 19.79H123.98ZM124.01 29.075C123.82 29.075 123.66 29.01 123.53 28.88C123.4 28.75 123.335 28.59 123.335 28.4V21.965C123.335 21.775 123.4 21.615 123.53 21.485C123.66 21.345 123.82 21.275 124.01 21.275C124.21 21.275 124.375 21.34 124.505 21.47C124.635 21.6 124.7 21.765 124.7 21.965V28.4C124.7 28.59 124.63 28.75 124.49 28.88C124.36 29.01 124.2 29.075 124.01 29.075ZM130.236 29.15C129.616 29.15 129.026 28.995 128.466 28.685C127.916 28.365 127.466 27.905 127.116 27.305C126.776 26.695 126.606 25.985 126.606 25.175C126.606 24.365 126.776 23.66 127.116 23.06C127.466 22.45 127.916 21.99 128.466 21.68C129.026 21.36 129.616 21.2 130.236 21.2C131.216 21.2 132.071 21.58 132.801 22.34V18.665C132.801 18.465 132.866 18.3 132.996 18.17C133.136 18.04 133.301 17.975 133.491 17.975C133.681 17.975 133.841 18.045 133.971 18.185C134.101 18.315 134.166 18.475 134.166 18.665V28.4C134.166 28.59 134.101 28.75 133.971 28.88C133.841 29.01 133.681 29.075 133.491 29.075C133.301 29.075 133.136 29.01 132.996 28.88C132.866 28.75 132.801 28.59 132.801 28.4V28.01C132.071 28.77 131.216 29.15 130.236 29.15ZM130.431 27.875C130.891 27.875 131.321 27.775 131.721 27.575C132.131 27.365 132.491 27.09 132.801 26.75V23.6C132.491 23.26 132.131 22.99 131.721 22.79C131.321 22.58 130.891 22.475 130.431 22.475C129.691 22.475 129.096 22.71 128.646 23.18C128.196 23.65 127.971 24.315 127.971 25.175C127.971 26.035 128.196 26.7 128.646 27.17C129.096 27.64 129.691 27.875 130.431 27.875ZM138.484 29.15C138.044 29.15 137.634 29.06 137.254 28.88C136.884 28.7 136.589 28.44 136.369 28.1C136.149 27.75 136.039 27.35 136.039 26.9C136.039 26.16 136.329 25.57 136.909 25.13C137.499 24.69 138.359 24.47 139.489 24.47H141.304V24.35C141.304 23.69 141.139 23.215 140.809 22.925C140.489 22.635 139.984 22.49 139.294 22.49C138.914 22.49 138.574 22.52 138.274 22.58C137.984 22.64 137.659 22.73 137.299 22.85C137.219 22.87 137.154 22.88 137.104 22.88C136.954 22.88 136.824 22.825 136.714 22.715C136.604 22.605 136.549 22.47 136.549 22.31C136.549 22.04 136.679 21.85 136.939 21.74C137.789 21.38 138.654 21.2 139.534 21.2C140.224 21.2 140.804 21.34 141.274 21.62C141.754 21.9 142.104 22.265 142.324 22.715C142.554 23.155 142.669 23.635 142.669 24.155V28.4C142.669 28.59 142.599 28.75 142.459 28.88C142.329 29.01 142.169 29.075 141.979 29.075C141.789 29.075 141.629 29.01 141.499 28.88C141.369 28.75 141.304 28.59 141.304 28.4V28.01C140.564 28.77 139.624 29.15 138.484 29.15ZM138.994 27.95C139.434 27.95 139.859 27.845 140.269 27.635C140.679 27.415 141.024 27.145 141.304 26.825V25.565H139.669C138.159 25.565 137.404 25.96 137.404 26.75C137.404 27.11 137.524 27.4 137.764 27.62C138.014 27.84 138.424 27.95 138.994 27.95ZM148.121 29.15C147.501 29.15 146.911 28.995 146.351 28.685C145.801 28.365 145.351 27.905 145.001 27.305C144.661 26.695 144.491 25.985 144.491 25.175C144.491 24.365 144.661 23.66 145.001 23.06C145.351 22.45 145.801 21.99 146.351 21.68C146.911 21.36 147.501 21.2 148.121 21.2C149.101 21.2 149.956 21.58 150.686 22.34V18.665C150.686 18.465 150.751 18.3 150.881 18.17C151.021 18.04 151.186 17.975 151.376 17.975C151.566 17.975 151.726 18.045 151.856 18.185C151.986 18.315 152.051 18.475 152.051 18.665V28.4C152.051 28.59 151.986 28.75 151.856 28.88C151.726 29.01 151.566 29.075 151.376 29.075C151.186 29.075 151.021 29.01 150.881 28.88C150.751 28.75 150.686 28.59 150.686 28.4V28.01C149.956 28.77 149.101 29.15 148.121 29.15ZM148.316 27.875C148.776 27.875 149.206 27.775 149.606 27.575C150.016 27.365 150.376 27.09 150.686 26.75V23.6C150.376 23.26 150.016 22.99 149.606 22.79C149.206 22.58 148.776 22.475 148.316 22.475C147.576 22.475 146.981 22.71 146.531 23.18C146.081 23.65 145.856 24.315 145.856 25.175C145.856 26.035 146.081 26.7 146.531 27.17C146.981 27.64 147.576 27.875 148.316 27.875ZM157.839 29.15C156.619 29.15 155.664 28.805 154.974 28.115C154.294 27.415 153.954 26.435 153.954 25.175C153.954 24.465 154.084 23.81 154.344 23.21C154.604 22.61 155.004 22.125 155.544 21.755C156.084 21.385 156.749 21.2 157.539 21.2C158.279 21.2 158.919 21.375 159.459 21.725C159.999 22.065 160.409 22.525 160.689 23.105C160.969 23.675 161.109 24.3 161.109 24.98C161.109 25.17 161.044 25.33 160.914 25.46C160.794 25.59 160.629 25.655 160.419 25.655H155.334C155.414 26.355 155.674 26.9 156.114 27.29C156.554 27.68 157.169 27.875 157.959 27.875C158.379 27.875 158.744 27.835 159.054 27.755C159.374 27.675 159.684 27.56 159.984 27.41C160.064 27.37 160.154 27.35 160.254 27.35C160.414 27.35 160.554 27.405 160.674 27.515C160.794 27.625 160.854 27.765 160.854 27.935C160.854 28.155 160.724 28.34 160.464 28.49C160.074 28.71 159.689 28.875 159.309 28.985C158.929 29.095 158.439 29.15 157.839 29.15ZM159.759 24.545C159.729 24.055 159.599 23.645 159.369 23.315C159.149 22.985 158.874 22.745 158.544 22.595C158.214 22.435 157.879 22.355 157.539 22.355C157.199 22.355 156.864 22.435 156.534 22.595C156.204 22.745 155.929 22.985 155.709 23.315C155.489 23.645 155.364 24.055 155.334 24.545H159.759ZM167.487 29.075C167.297 29.075 167.137 29.01 167.007 28.88C166.877 28.75 166.812 28.59 166.812 28.4V21.965C166.812 21.775 166.877 21.615 167.007 21.485C167.137 21.345 167.297 21.275 167.487 21.275C167.677 21.275 167.837 21.345 167.967 21.485C168.107 21.615 168.177 21.775 168.177 21.965V22.58C168.557 22.16 168.967 21.825 169.407 21.575C169.847 21.325 170.367 21.2 170.967 21.2C171.517 21.2 171.992 21.33 172.392 21.59C172.802 21.85 173.112 22.205 173.322 22.655C173.542 23.105 173.652 23.6 173.652 24.14V28.4C173.652 28.59 173.582 28.75 173.442 28.88C173.312 29.01 173.152 29.075 172.962 29.075C172.772 29.075 172.612 29.01 172.482 28.88C172.352 28.75 172.287 28.59 172.287 28.4V24.29C172.287 23.07 171.737 22.46 170.637 22.46C170.137 22.46 169.687 22.59 169.287 22.85C168.897 23.11 168.527 23.46 168.177 23.9V28.4C168.177 28.59 168.107 28.75 167.967 28.88C167.837 29.01 167.677 29.075 167.487 29.075ZM179.328 29.15C178.558 29.15 177.883 28.985 177.303 28.655C176.723 28.325 176.273 27.86 175.953 27.26C175.643 26.65 175.488 25.955 175.488 25.175C175.488 24.395 175.643 23.705 175.953 23.105C176.273 22.495 176.723 22.025 177.303 21.695C177.883 21.365 178.558 21.2 179.328 21.2C180.088 21.2 180.758 21.365 181.338 21.695C181.918 22.025 182.368 22.495 182.688 23.105C183.008 23.705 183.168 24.395 183.168 25.175C183.168 25.955 183.008 26.65 182.688 27.26C182.368 27.86 181.918 28.325 181.338 28.655C180.758 28.985 180.088 29.15 179.328 29.15ZM179.328 27.905C179.738 27.905 180.128 27.81 180.498 27.62C180.878 27.43 181.188 27.13 181.428 26.72C181.678 26.31 181.803 25.79 181.803 25.16C181.803 24.54 181.678 24.025 181.428 23.615C181.188 23.205 180.878 22.91 180.498 22.73C180.128 22.54 179.738 22.445 179.328 22.445C178.908 22.445 178.508 22.54 178.128 22.73C177.758 22.91 177.453 23.205 177.213 23.615C176.973 24.025 176.853 24.54 176.853 25.16C176.853 25.79 176.973 26.31 177.213 26.72C177.453 27.13 177.758 27.43 178.128 27.62C178.508 27.81 178.908 27.905 179.328 27.905ZM190.925 29.15C190.485 29.15 190.075 29.06 189.695 28.88C189.325 28.7 189.03 28.44 188.81 28.1C188.59 27.75 188.48 27.35 188.48 26.9C188.48 26.16 188.77 25.57 189.35 25.13C189.94 24.69 190.8 24.47 191.93 24.47H193.745V24.35C193.745 23.69 193.58 23.215 193.25 22.925C192.93 22.635 192.425 22.49 191.735 22.49C191.355 22.49 191.015 22.52 190.715 22.58C190.425 22.64 190.1 22.73 189.74 22.85C189.66 22.87 189.595 22.88 189.545 22.88C189.395 22.88 189.265 22.825 189.155 22.715C189.045 22.605 188.99 22.47 188.99 22.31C188.99 22.04 189.12 21.85 189.38 21.74C190.23 21.38 191.095 21.2 191.975 21.2C192.665 21.2 193.245 21.34 193.715 21.62C194.195 21.9 194.545 22.265 194.765 22.715C194.995 23.155 195.11 23.635 195.11 24.155V28.4C195.11 28.59 195.04 28.75 194.9 28.88C194.77 29.01 194.61 29.075 194.42 29.075C194.23 29.075 194.07 29.01 193.94 28.88C193.81 28.75 193.745 28.59 193.745 28.4V28.01C193.005 28.77 192.065 29.15 190.925 29.15ZM191.435 27.95C191.875 27.95 192.3 27.845 192.71 27.635C193.12 27.415 193.465 27.145 193.745 26.825V25.565H192.11C190.6 25.565 189.845 25.96 189.845 26.75C189.845 27.11 189.965 27.4 190.205 27.62C190.455 27.84 190.865 27.95 191.435 27.95ZM198.073 29.075C197.883 29.075 197.723 29.01 197.593 28.88C197.463 28.75 197.398 28.59 197.398 28.4V21.965C197.398 21.775 197.463 21.615 197.593 21.485C197.723 21.345 197.883 21.275 198.073 21.275C198.263 21.275 198.423 21.345 198.553 21.485C198.693 21.615 198.763 21.775 198.763 21.965V22.58C199.043 22.18 199.378 21.85 199.768 21.59C200.168 21.33 200.683 21.2 201.313 21.2C201.873 21.2 202.353 21.35 202.753 21.65C203.153 21.95 203.438 22.315 203.608 22.745C204.228 21.715 205.148 21.2 206.368 21.2C206.928 21.2 207.393 21.34 207.763 21.62C208.143 21.9 208.423 22.26 208.603 22.7C208.783 23.14 208.873 23.6 208.873 24.08V28.4C208.873 28.59 208.803 28.75 208.663 28.88C208.533 29.01 208.373 29.075 208.183 29.075C207.993 29.075 207.833 29.01 207.703 28.88C207.573 28.75 207.508 28.59 207.508 28.4V24.35C207.508 23.7 207.393 23.225 207.163 22.925C206.933 22.615 206.538 22.46 205.978 22.46C205.468 22.46 205.043 22.595 204.703 22.865C204.373 23.125 204.078 23.47 203.818 23.9V28.4C203.818 28.59 203.748 28.75 203.608 28.88C203.478 29.01 203.318 29.075 203.128 29.075C202.938 29.075 202.778 29.01 202.648 28.88C202.518 28.75 202.453 28.59 202.453 28.4V24.35C202.453 23.7 202.338 23.225 202.108 22.925C201.878 22.615 201.483 22.46 200.923 22.46C200.413 22.46 199.988 22.595 199.648 22.865C199.318 23.125 199.023 23.47 198.763 23.9V28.4C198.763 28.59 198.693 28.75 198.553 28.88C198.423 29.01 198.263 29.075 198.073 29.075ZM215.097 29.15C214.117 29.15 213.262 28.77 212.532 28.01V28.4C212.532 28.59 212.462 28.75 212.322 28.88C212.192 29.01 212.032 29.075 211.842 29.075C211.652 29.075 211.492 29.01 211.362 28.88C211.232 28.75 211.167 28.59 211.167 28.4V18.665C211.167 18.475 211.232 18.315 211.362 18.185C211.492 18.045 211.652 17.975 211.842 17.975C212.042 17.975 212.207 18.04 212.337 18.17C212.467 18.3 212.532 18.465 212.532 18.665V22.34C213.262 21.58 214.117 21.2 215.097 21.2C215.717 21.2 216.302 21.36 216.852 21.68C217.412 21.99 217.862 22.45 218.202 23.06C218.552 23.66 218.727 24.365 218.727 25.175C218.727 25.985 218.552 26.695 218.202 27.305C217.862 27.905 217.412 28.365 216.852 28.685C216.302 28.995 215.717 29.15 215.097 29.15ZM214.902 27.875C215.642 27.875 216.237 27.64 216.687 27.17C217.137 26.7 217.362 26.035 217.362 25.175C217.362 24.315 217.137 23.65 216.687 23.18C216.237 22.71 215.642 22.475 214.902 22.475C214.442 22.475 214.007 22.58 213.597 22.79C213.197 22.99 212.842 23.26 212.532 23.6V26.75C212.842 27.09 213.197 27.365 213.597 27.575C214.007 27.775 214.442 27.875 214.902 27.875ZM221.275 19.79C221.065 19.79 220.885 19.715 220.735 19.565C220.585 19.415 220.51 19.235 220.51 19.025V18.965C220.51 18.755 220.585 18.575 220.735 18.425C220.885 18.275 221.065 18.2 221.275 18.2H221.365C221.575 18.2 221.755 18.275 221.905 18.425C222.055 18.575 222.13 18.755 222.13 18.965V19.025C222.13 19.235 222.055 19.415 221.905 19.565C221.755 19.715 221.575 19.79 221.365 19.79H221.275ZM221.305 29.075C221.115 29.075 220.955 29.01 220.825 28.88C220.695 28.75 220.63 28.59 220.63 28.4V21.965C220.63 21.775 220.695 21.615 220.825 21.485C220.955 21.345 221.115 21.275 221.305 21.275C221.505 21.275 221.67 21.34 221.8 21.47C221.93 21.6 221.995 21.765 221.995 21.965V28.4C221.995 28.59 221.925 28.75 221.785 28.88C221.655 29.01 221.495 29.075 221.305 29.075ZM227.786 29.15C226.566 29.15 225.611 28.805 224.921 28.115C224.241 27.415 223.901 26.435 223.901 25.175C223.901 24.465 224.031 23.81 224.291 23.21C224.551 22.61 224.951 22.125 225.491 21.755C226.031 21.385 226.696 21.2 227.486 21.2C228.226 21.2 228.866 21.375 229.406 21.725C229.946 22.065 230.356 22.525 230.636 23.105C230.916 23.675 231.056 24.3 231.056 24.98C231.056 25.17 230.991 25.33 230.861 25.46C230.741 25.59 230.576 25.655 230.366 25.655H225.281C225.361 26.355 225.621 26.9 226.061 27.29C226.501 27.68 227.116 27.875 227.906 27.875C228.326 27.875 228.691 27.835 229.001 27.755C229.321 27.675 229.631 27.56 229.931 27.41C230.011 27.37 230.101 27.35 230.201 27.35C230.361 27.35 230.501 27.405 230.621 27.515C230.741 27.625 230.801 27.765 230.801 27.935C230.801 28.155 230.671 28.34 230.411 28.49C230.021 28.71 229.636 28.875 229.256 28.985C228.876 29.095 228.386 29.15 227.786 29.15ZM229.706 24.545C229.676 24.055 229.546 23.645 229.316 23.315C229.096 22.985 228.821 22.745 228.491 22.595C228.161 22.435 227.826 22.355 227.486 22.355C227.146 22.355 226.811 22.435 226.481 22.595C226.151 22.745 225.876 22.985 225.656 23.315C225.436 23.645 225.311 24.055 225.281 24.545H229.706ZM233.537 29.075C233.347 29.075 233.187 29.01 233.057 28.88C232.927 28.75 232.862 28.59 232.862 28.4V21.965C232.862 21.775 232.927 21.615 233.057 21.485C233.187 21.345 233.347 21.275 233.537 21.275C233.727 21.275 233.887 21.345 234.017 21.485C234.157 21.615 234.227 21.775 234.227 21.965V22.58C234.607 22.16 235.017 21.825 235.457 21.575C235.897 21.325 236.417 21.2 237.017 21.2C237.567 21.2 238.042 21.33 238.442 21.59C238.852 21.85 239.162 22.205 239.372 22.655C239.592 23.105 239.702 23.6 239.702 24.14V28.4C239.702 28.59 239.632 28.75 239.492 28.88C239.362 29.01 239.202 29.075 239.012 29.075C238.822 29.075 238.662 29.01 238.532 28.88C238.402 28.75 238.337 28.59 238.337 28.4V24.29C238.337 23.07 237.787 22.46 236.687 22.46C236.187 22.46 235.737 22.59 235.337 22.85C234.947 23.11 234.577 23.46 234.227 23.9V28.4C234.227 28.59 234.157 28.75 234.017 28.88C233.887 29.01 233.727 29.075 233.537 29.075ZM244.467 29.15C243.007 29.15 242.277 28.49 242.277 27.17V22.52H241.212C241.132 22.52 241.062 22.495 241.002 22.445C240.952 22.385 240.927 22.315 240.927 22.235C240.927 22.135 240.972 22.05 241.062 21.98L243.102 19.985C243.192 19.895 243.277 19.85 243.357 19.85C243.437 19.85 243.502 19.88 243.552 19.94C243.612 20 243.642 20.07 243.642 20.15V21.35H245.337C245.507 21.35 245.647 21.405 245.757 21.515C245.867 21.625 245.922 21.765 245.922 21.935C245.922 22.095 245.867 22.235 245.757 22.355C245.647 22.465 245.507 22.52 245.337 22.52H243.642V27.05C243.642 27.44 243.732 27.69 243.912 27.8C244.102 27.9 244.337 27.95 244.617 27.95C244.817 27.95 245.017 27.92 245.217 27.86C245.257 27.85 245.297 27.84 245.337 27.83C245.387 27.82 245.447 27.815 245.517 27.815C245.657 27.815 245.782 27.87 245.892 27.98C246.002 28.08 246.057 28.205 246.057 28.355C246.057 28.585 245.942 28.76 245.712 28.88C245.322 29.06 244.907 29.15 244.467 29.15ZM250.872 29.15C249.652 29.15 248.697 28.805 248.007 28.115C247.327 27.415 246.987 26.435 246.987 25.175C246.987 24.465 247.117 23.81 247.377 23.21C247.637 22.61 248.037 22.125 248.577 21.755C249.117 21.385 249.782 21.2 250.572 21.2C251.312 21.2 251.952 21.375 252.492 21.725C253.032 22.065 253.442 22.525 253.722 23.105C254.002 23.675 254.142 24.3 254.142 24.98C254.142 25.17 254.077 25.33 253.947 25.46C253.827 25.59 253.662 25.655 253.452 25.655H248.367C248.447 26.355 248.707 26.9 249.147 27.29C249.587 27.68 250.202 27.875 250.992 27.875C251.412 27.875 251.777 27.835 252.087 27.755C252.407 27.675 252.717 27.56 253.017 27.41C253.097 27.37 253.187 27.35 253.287 27.35C253.447 27.35 253.587 27.405 253.707 27.515C253.827 27.625 253.887 27.765 253.887 27.935C253.887 28.155 253.757 28.34 253.497 28.49C253.107 28.71 252.722 28.875 252.342 28.985C251.962 29.095 251.472 29.15 250.872 29.15ZM252.792 24.545C252.762 24.055 252.632 23.645 252.402 23.315C252.182 22.985 251.907 22.745 251.577 22.595C251.247 22.435 250.912 22.355 250.572 22.355C250.232 22.355 249.897 22.435 249.567 22.595C249.237 22.745 248.962 22.985 248.742 23.315C248.522 23.645 248.397 24.055 248.367 24.545H252.792ZM263.009 29.15C262.389 29.15 261.799 28.995 261.239 28.685C260.689 28.365 260.239 27.905 259.889 27.305C259.549 26.695 259.379 25.985 259.379 25.175C259.379 24.365 259.549 23.66 259.889 23.06C260.239 22.45 260.689 21.99 261.239 21.68C261.799 21.36 262.389 21.2 263.009 21.2C263.989 21.2 264.844 21.58 265.574 22.34V18.665C265.574 18.465 265.639 18.3 265.769 18.17C265.909 18.04 266.074 17.975 266.264 17.975C266.454 17.975 266.614 18.045 266.744 18.185C266.874 18.315 266.939 18.475 266.939 18.665V28.4C266.939 28.59 266.874 28.75 266.744 28.88C266.614 29.01 266.454 29.075 266.264 29.075C266.074 29.075 265.909 29.01 265.769 28.88C265.639 28.75 265.574 28.59 265.574 28.4V28.01C264.844 28.77 263.989 29.15 263.009 29.15ZM263.204 27.875C263.664 27.875 264.094 27.775 264.494 27.575C264.904 27.365 265.264 27.09 265.574 26.75V23.6C265.264 23.26 264.904 22.99 264.494 22.79C264.094 22.58 263.664 22.475 263.204 22.475C262.464 22.475 261.869 22.71 261.419 23.18C260.969 23.65 260.744 24.315 260.744 25.175C260.744 26.035 260.969 26.7 261.419 27.17C261.869 27.64 262.464 27.875 263.204 27.875ZM272.727 29.15C271.507 29.15 270.552 28.805 269.862 28.115C269.182 27.415 268.842 26.435 268.842 25.175C268.842 24.465 268.972 23.81 269.232 23.21C269.492 22.61 269.892 22.125 270.432 21.755C270.972 21.385 271.637 21.2 272.427 21.2C273.167 21.2 273.807 21.375 274.347 21.725C274.887 22.065 275.297 22.525 275.577 23.105C275.857 23.675 275.997 24.3 275.997 24.98C275.997 25.17 275.932 25.33 275.802 25.46C275.682 25.59 275.517 25.655 275.307 25.655H270.222C270.302 26.355 270.562 26.9 271.002 27.29C271.442 27.68 272.057 27.875 272.847 27.875C273.267 27.875 273.632 27.835 273.942 27.755C274.262 27.675 274.572 27.56 274.872 27.41C274.952 27.37 275.042 27.35 275.142 27.35C275.302 27.35 275.442 27.405 275.562 27.515C275.682 27.625 275.742 27.765 275.742 27.935C275.742 28.155 275.612 28.34 275.352 28.49C274.962 28.71 274.577 28.875 274.197 28.985C273.817 29.095 273.327 29.15 272.727 29.15ZM274.647 24.545C274.617 24.055 274.487 23.645 274.257 23.315C274.037 22.985 273.762 22.745 273.432 22.595C273.102 22.435 272.767 22.355 272.427 22.355C272.087 22.355 271.752 22.435 271.422 22.595C271.092 22.745 270.817 22.985 270.597 23.315C270.377 23.645 270.252 24.055 270.222 24.545H274.647ZM282.39 29.045C282.16 29.045 281.96 28.965 281.79 28.805C281.63 28.635 281.55 28.435 281.55 28.205V28.115C281.55 27.885 281.63 27.69 281.79 27.53C281.96 27.36 282.16 27.275 282.39 27.275H282.54C282.77 27.275 282.965 27.36 283.125 27.53C283.295 27.69 283.38 27.885 283.38 28.115V28.205C283.38 28.435 283.295 28.635 283.125 28.805C282.965 28.965 282.77 29.045 282.54 29.045H282.39ZM286.286 29.045C286.056 29.045 285.856 28.965 285.686 28.805C285.526 28.635 285.446 28.435 285.446 28.205V28.115C285.446 27.885 285.526 27.69 285.686 27.53C285.856 27.36 286.056 27.275 286.286 27.275H286.436C286.666 27.275 286.861 27.36 287.021 27.53C287.191 27.69 287.276 27.885 287.276 28.115V28.205C287.276 28.435 287.191 28.635 287.021 28.805C286.861 28.965 286.666 29.045 286.436 29.045H286.286ZM290.183 29.045C289.953 29.045 289.753 28.965 289.583 28.805C289.423 28.635 289.343 28.435 289.343 28.205V28.115C289.343 27.885 289.423 27.69 289.583 27.53C289.753 27.36 289.953 27.275 290.183 27.275H290.333C290.563 27.275 290.758 27.36 290.918 27.53C291.088 27.69 291.173 27.885 291.173 28.115V28.205C291.173 28.435 291.088 28.635 290.918 28.805C290.758 28.965 290.563 29.045 290.333 29.045H290.183Z" fill="#4F4F4F"/>
<path d="M81.22 52.07C81.0427 52.07 80.8933 52.0093 80.772 51.888C80.6507 51.7667 80.59 51.6173 80.59 51.44C80.59 51.328 80.618 51.216 80.674 51.104L84.524 43.446H79.442C79.274 43.446 79.1293 43.39 79.008 43.278C78.896 43.1567 78.84 43.012 78.84 42.844C78.84 42.676 78.896 42.5313 79.008 42.41C79.1293 42.2887 79.274 42.228 79.442 42.228H85.154C85.378 42.228 85.5647 42.298 85.714 42.438C85.8633 42.578 85.938 42.7553 85.938 42.97C85.938 43.1753 85.8913 43.3807 85.798 43.586L81.822 51.72C81.766 51.8227 81.682 51.9067 81.57 51.972C81.458 52.0373 81.3413 52.07 81.22 52.07ZM92.1637 52.07C91.9864 52.07 91.8371 52.0093 91.7157 51.888C91.5944 51.7667 91.5337 51.6173 91.5337 51.44V42.354C91.5337 42.1767 91.5944 42.0273 91.7157 41.906C91.8371 41.7753 91.9864 41.71 92.1637 41.71C92.3504 41.71 92.5044 41.7707 92.6257 41.892C92.7471 42.0133 92.8077 42.1673 92.8077 42.354V51.44C92.8077 51.6173 92.7424 51.7667 92.6117 51.888C92.4904 52.0093 92.3411 52.07 92.1637 52.07ZM95.6221 43.404C95.4261 43.404 95.2581 43.334 95.1181 43.194C94.9781 43.054 94.9081 42.886 94.9081 42.69V42.634C94.9081 42.438 94.9781 42.27 95.1181 42.13C95.2581 41.99 95.4261 41.92 95.6221 41.92H95.7061C95.9021 41.92 96.0701 41.99 96.2101 42.13C96.3501 42.27 96.4201 42.438 96.4201 42.634V42.69C96.4201 42.886 96.3501 43.054 96.2101 43.194C96.0701 43.334 95.9021 43.404 95.7061 43.404H95.6221ZM95.6501 52.07C95.4727 52.07 95.3234 52.0093 95.2021 51.888C95.0807 51.7667 95.0201 51.6173 95.0201 51.44V45.434C95.0201 45.2567 95.0807 45.1073 95.2021 44.986C95.3234 44.8553 95.4727 44.79 95.6501 44.79C95.8367 44.79 95.9907 44.8507 96.1121 44.972C96.2334 45.0933 96.2941 45.2473 96.2941 45.434V51.44C96.2941 51.6173 96.2287 51.7667 96.0981 51.888C95.9767 52.0093 95.8274 52.07 95.6501 52.07ZM103.84 50.418C103.98 50.418 104.102 50.4787 104.204 50.6C104.316 50.712 104.372 50.838 104.372 50.978C104.372 51.1833 104.279 51.3467 104.092 51.468C103.784 51.664 103.448 51.8273 103.084 51.958C102.73 52.0793 102.305 52.14 101.81 52.14L101.39 52.882C101.54 52.8447 101.698 52.826 101.866 52.826C102.184 52.826 102.44 52.9147 102.636 53.092C102.842 53.2787 102.944 53.5167 102.944 53.806C102.944 54.2353 102.809 54.5573 102.538 54.772C102.277 54.9867 101.894 55.094 101.39 55.094C100.942 55.094 100.522 54.9727 100.13 54.73C100.093 54.702 100.056 54.6647 100.018 54.618C99.9904 54.5807 99.9764 54.5387 99.9764 54.492C99.9764 54.4173 99.9997 54.352 100.046 54.296C100.093 54.24 100.158 54.212 100.242 54.212C100.28 54.212 100.326 54.226 100.382 54.254C100.672 54.4127 100.947 54.492 101.208 54.492C101.74 54.492 102.006 54.2773 102.006 53.848C102.006 53.708 101.96 53.6007 101.866 53.526C101.773 53.4513 101.652 53.414 101.502 53.414C101.297 53.414 101.092 53.4653 100.886 53.568C100.83 53.596 100.784 53.61 100.746 53.61C100.681 53.61 100.62 53.5867 100.564 53.54C100.518 53.5027 100.494 53.4513 100.494 53.386C100.494 53.3113 100.513 53.246 100.55 53.19L101.236 52.098C100.648 52.014 100.112 51.818 99.6264 51.51C99.1504 51.1927 98.7724 50.7727 98.4924 50.25C98.2124 49.718 98.0724 49.1113 98.0724 48.43C98.0724 47.674 98.2404 47.016 98.5764 46.456C98.9217 45.896 99.3791 45.4667 99.9484 45.168C100.518 44.8693 101.138 44.72 101.81 44.72C102.305 44.72 102.73 44.7853 103.084 44.916C103.448 45.0373 103.784 45.196 104.092 45.392C104.279 45.5133 104.372 45.6767 104.372 45.882C104.372 46.022 104.316 46.1527 104.204 46.274C104.102 46.386 103.98 46.442 103.84 46.442C103.738 46.442 103.635 46.414 103.532 46.358C103.224 46.1993 102.958 46.0873 102.734 46.022C102.52 45.9473 102.249 45.91 101.922 45.91C101.12 45.91 100.49 46.1433 100.032 46.61C99.5751 47.0673 99.3464 47.674 99.3464 48.43C99.3464 49.186 99.5751 49.7973 100.032 50.264C100.49 50.7213 101.12 50.95 101.922 50.95C102.249 50.95 102.52 50.9173 102.734 50.852C102.958 50.7773 103.224 50.6607 103.532 50.502C103.635 50.446 103.738 50.418 103.84 50.418ZM109.067 52.14C108.348 52.14 107.718 51.986 107.177 51.678C106.635 51.37 106.215 50.936 105.917 50.376C105.627 49.8067 105.483 49.158 105.483 48.43C105.483 47.702 105.627 47.058 105.917 46.498C106.215 45.9287 106.635 45.49 107.177 45.182C107.718 44.874 108.348 44.72 109.067 44.72C109.776 44.72 110.401 44.874 110.943 45.182C111.484 45.49 111.904 45.9287 112.203 46.498C112.501 47.058 112.651 47.702 112.651 48.43C112.651 49.158 112.501 49.8067 112.203 50.376C111.904 50.936 111.484 51.37 110.943 51.678C110.401 51.986 109.776 52.14 109.067 52.14ZM109.067 50.978C109.449 50.978 109.813 50.8893 110.159 50.712C110.513 50.5347 110.803 50.2547 111.027 49.872C111.26 49.4893 111.377 49.004 111.377 48.416C111.377 47.8373 111.26 47.3567 111.027 46.974C110.803 46.5913 110.513 46.316 110.159 46.148C109.813 45.9707 109.449 45.882 109.067 45.882C108.675 45.882 108.301 45.9707 107.947 46.148C107.601 46.316 107.317 46.5913 107.093 46.974C106.869 47.3567 106.757 47.8373 106.757 48.416C106.757 49.004 106.869 49.4893 107.093 49.872C107.317 50.2547 107.601 50.5347 107.947 50.712C108.301 50.8893 108.675 50.978 109.067 50.978ZM107.135 44.006C107.051 44.006 106.976 43.978 106.911 43.922C106.845 43.8567 106.813 43.7773 106.813 43.684C106.813 43.488 106.859 43.2873 106.953 43.082C107.055 42.8767 107.195 42.704 107.373 42.564C107.55 42.424 107.755 42.354 107.989 42.354C108.175 42.354 108.348 42.382 108.507 42.438C108.675 42.494 108.875 42.578 109.109 42.69C109.323 42.7927 109.505 42.872 109.655 42.928C109.813 42.984 109.977 43.012 110.145 43.012C110.285 43.012 110.392 42.9793 110.467 42.914C110.551 42.8487 110.616 42.7553 110.663 42.634C110.737 42.438 110.854 42.34 111.013 42.34C111.106 42.34 111.181 42.3727 111.237 42.438C111.293 42.494 111.325 42.564 111.335 42.648C111.335 42.9747 111.223 43.278 110.999 43.558C110.775 43.838 110.495 43.978 110.159 43.978C109.972 43.978 109.795 43.95 109.627 43.894C109.459 43.8287 109.253 43.74 109.011 43.628C108.796 43.5253 108.614 43.446 108.465 43.39C108.315 43.334 108.161 43.306 108.003 43.306C107.76 43.306 107.578 43.4553 107.457 43.754C107.401 43.922 107.293 44.006 107.135 44.006ZM117.626 52.14C116.487 52.14 115.596 51.818 114.952 51.174C114.317 50.5207 114 49.606 114 48.43C114 47.7673 114.121 47.156 114.364 46.596C114.607 46.036 114.98 45.5833 115.484 45.238C115.988 44.8927 116.609 44.72 117.346 44.72C118.037 44.72 118.634 44.8833 119.138 45.21C119.642 45.5273 120.025 45.9567 120.286 46.498C120.547 47.03 120.678 47.6133 120.678 48.248C120.678 48.4253 120.617 48.5747 120.496 48.696C120.384 48.8173 120.23 48.878 120.034 48.878H115.288C115.363 49.5313 115.605 50.04 116.016 50.404C116.427 50.768 117.001 50.95 117.738 50.95C118.13 50.95 118.471 50.9127 118.76 50.838C119.059 50.7633 119.348 50.656 119.628 50.516C119.703 50.4787 119.787 50.46 119.88 50.46C120.029 50.46 120.16 50.5113 120.272 50.614C120.384 50.7167 120.44 50.8473 120.44 51.006C120.44 51.2113 120.319 51.384 120.076 51.524C119.712 51.7293 119.353 51.8833 118.998 51.986C118.643 52.0887 118.186 52.14 117.626 52.14ZM119.418 47.842C119.39 47.3847 119.269 47.002 119.054 46.694C118.849 46.386 118.592 46.162 118.284 46.022C117.976 45.8727 117.663 45.798 117.346 45.798C117.029 45.798 116.716 45.8727 116.408 46.022C116.1 46.162 115.843 46.386 115.638 46.694C115.433 47.002 115.316 47.3847 115.288 47.842H119.418ZM124.674 52.14C123.74 52.14 122.891 51.93 122.126 51.51C121.967 51.398 121.888 51.244 121.888 51.048C121.888 50.8987 121.939 50.768 122.042 50.656C122.144 50.544 122.275 50.488 122.434 50.488C122.518 50.488 122.602 50.5067 122.686 50.544C122.984 50.6747 123.283 50.7773 123.582 50.852C123.88 50.9267 124.216 50.964 124.59 50.964C125.626 50.964 126.144 50.6327 126.144 49.97C126.144 49.7553 126.022 49.592 125.78 49.48C125.546 49.368 125.159 49.242 124.618 49.102C124.067 48.9713 123.61 48.836 123.246 48.696C122.891 48.556 122.583 48.346 122.322 48.066C122.07 47.7767 121.944 47.3987 121.944 46.932C121.944 46.2787 122.177 45.7467 122.644 45.336C123.12 44.9253 123.796 44.72 124.674 44.72C125.392 44.72 126.069 44.8367 126.704 45.07C126.834 45.1073 126.932 45.1773 126.998 45.28C127.072 45.3827 127.11 45.49 127.11 45.602C127.11 45.7513 127.054 45.882 126.942 45.994C126.839 46.106 126.708 46.162 126.55 46.162C126.503 46.162 126.442 46.1527 126.368 46.134C125.826 45.966 125.294 45.882 124.772 45.882C124.268 45.882 123.871 45.9753 123.582 46.162C123.302 46.3393 123.162 46.5727 123.162 46.862C123.162 47.142 123.292 47.3473 123.554 47.478C123.815 47.6087 124.221 47.7347 124.772 47.856C125.322 47.996 125.77 48.136 126.116 48.276C126.461 48.4067 126.755 48.6167 126.998 48.906C127.25 49.1953 127.376 49.5827 127.376 50.068C127.376 50.6653 127.138 51.16 126.662 51.552C126.195 51.944 125.532 52.14 124.674 52.14Z" fill="#828282"/>
<path d="M24.652 141C24.4373 141 24.26 140.935 24.12 140.804C23.98 140.664 23.91 140.487 23.91 140.272C23.91 139.787 24.05 139.339 24.33 138.928C24.6193 138.517 24.9647 138.158 25.366 137.85C25.7767 137.533 26.3133 137.159 26.976 136.73C27.5453 136.366 27.998 136.058 28.334 135.806C28.67 135.554 28.95 135.279 29.174 134.98C29.398 134.681 29.51 134.364 29.51 134.028C29.51 133.496 29.3327 133.076 28.978 132.768C28.6327 132.451 28.0727 132.292 27.298 132.292C26.458 132.292 25.66 132.46 24.904 132.796C24.8107 132.843 24.722 132.866 24.638 132.866C24.4887 132.866 24.3627 132.815 24.26 132.712C24.1573 132.609 24.106 132.479 24.106 132.32C24.106 132.087 24.2087 131.914 24.414 131.802C25.366 131.326 26.402 131.088 27.522 131.088C28.1193 131.088 28.6607 131.209 29.146 131.452C29.6407 131.685 30.028 132.017 30.308 132.446C30.5973 132.875 30.742 133.37 30.742 133.93C30.742 134.481 30.5787 134.994 30.252 135.47C29.9347 135.937 29.552 136.347 29.104 136.702C28.656 137.057 28.0727 137.467 27.354 137.934C26.7007 138.373 26.206 138.727 25.87 138.998C25.5433 139.259 25.3147 139.53 25.184 139.81H30.056C30.224 139.81 30.364 139.871 30.476 139.992C30.5973 140.104 30.658 140.244 30.658 140.412C30.658 140.58 30.5973 140.72 30.476 140.832C30.364 140.944 30.224 141 30.056 141H24.652ZM36.187 141.14C34.955 141.14 34.0123 140.687 33.359 139.782C32.715 138.877 32.393 137.654 32.393 136.114C32.393 134.574 32.715 133.351 33.359 132.446C34.0123 131.541 34.955 131.088 36.187 131.088C37.4097 131.088 38.3477 131.541 39.001 132.446C39.6543 133.351 39.981 134.574 39.981 136.114C39.981 137.654 39.6543 138.877 39.001 139.782C38.3477 140.687 37.4097 141.14 36.187 141.14ZM36.187 139.964C36.999 139.964 37.6197 139.623 38.049 138.942C38.4877 138.261 38.707 137.318 38.707 136.114C38.707 134.919 38.4877 133.981 38.049 133.3C37.6197 132.619 36.999 132.278 36.187 132.278C35.375 132.278 34.7497 132.619 34.311 133.3C33.8817 133.981 33.667 134.919 33.667 136.114C33.667 137.318 33.8817 138.261 34.311 138.942C34.7497 139.623 35.375 139.964 36.187 139.964ZM43.438 136.002C42.7194 136.002 42.164 135.769 41.772 135.302C41.38 134.826 41.184 134.224 41.184 133.496C41.184 132.768 41.38 132.171 41.772 131.704C42.164 131.228 42.7194 130.99 43.438 130.99C44.1567 130.99 44.712 131.228 45.104 131.704C45.496 132.171 45.692 132.768 45.692 133.496C45.692 134.224 45.496 134.826 45.104 135.302C44.712 135.769 44.1567 136.002 43.438 136.002ZM43.438 141.14C43.3167 141.14 43.2094 141.093 43.116 141C43.0227 140.916 42.976 140.809 42.976 140.678C42.976 140.594 42.9994 140.515 43.046 140.44L48.744 131.326C48.8374 131.177 48.968 131.102 49.136 131.102C49.276 131.102 49.388 131.139 49.472 131.214C49.5654 131.289 49.612 131.391 49.612 131.522C49.612 131.625 49.5794 131.727 49.514 131.83L43.858 140.888C43.8114 140.963 43.7507 141.023 43.676 141.07C43.6014 141.117 43.522 141.14 43.438 141.14ZM43.438 135.092C43.8394 135.092 44.152 134.943 44.376 134.644C44.6 134.345 44.712 133.963 44.712 133.496C44.712 133.029 44.6 132.647 44.376 132.348C44.152 132.049 43.8394 131.9 43.438 131.9C43.0367 131.9 42.724 132.049 42.5 132.348C42.276 132.647 42.164 133.029 42.164 133.496C42.164 133.963 42.276 134.345 42.5 134.644C42.724 134.943 43.0367 135.092 43.438 135.092ZM49.122 141.252C48.4034 141.252 47.848 141.019 47.456 140.552C47.064 140.076 46.868 139.474 46.868 138.746C46.868 138.018 47.064 137.421 47.456 136.954C47.848 136.478 48.4034 136.24 49.122 136.24C49.8407 136.24 50.396 136.478 50.788 136.954C51.18 137.421 51.376 138.018 51.376 138.746C51.376 139.474 51.18 140.076 50.788 140.552C50.396 141.019 49.8407 141.252 49.122 141.252ZM49.122 140.342C49.5234 140.342 49.836 140.193 50.06 139.894C50.284 139.595 50.396 139.213 50.396 138.746C50.396 138.279 50.284 137.897 50.06 137.598C49.836 137.299 49.5234 137.15 49.122 137.15C48.7207 137.15 48.408 137.299 48.184 137.598C47.96 137.897 47.848 138.279 47.848 138.746C47.848 139.213 47.96 139.595 48.184 139.894C48.408 140.193 48.7207 140.342 49.122 140.342ZM61.5258 141.07C61.3485 141.07 61.1991 141.009 61.0778 140.888C60.9565 140.767 60.8958 140.617 60.8958 140.44V134.952H60.0698C59.9205 134.952 59.7898 134.901 59.6778 134.798C59.5751 134.686 59.5238 134.555 59.5238 134.406C59.5238 134.247 59.5751 134.117 59.6778 134.014C59.7898 133.911 59.9205 133.86 60.0698 133.86H60.8958V133.048C60.8958 132.488 60.9938 132.031 61.1898 131.676C61.3951 131.312 61.6565 131.051 61.9738 130.892C62.3005 130.724 62.6411 130.64 62.9958 130.64C63.4345 130.64 63.8405 130.733 64.2138 130.92C64.3071 130.967 64.3818 131.037 64.4378 131.13C64.5031 131.214 64.5358 131.307 64.5358 131.41C64.5358 131.55 64.4845 131.676 64.3818 131.788C64.2791 131.891 64.1578 131.942 64.0178 131.942C63.9151 131.942 63.8078 131.928 63.6958 131.9C63.4718 131.872 63.3458 131.858 63.3178 131.858C62.9351 131.858 62.6458 131.947 62.4498 132.124C62.2631 132.301 62.1698 132.623 62.1698 133.09V133.86H63.9198C64.0785 133.86 64.2091 133.911 64.3118 134.014C64.4145 134.117 64.4658 134.247 64.4658 134.406C64.4658 134.555 64.4145 134.686 64.3118 134.798C64.2091 134.901 64.0785 134.952 63.9198 134.952H62.1698V140.44C62.1698 140.617 62.1045 140.767 61.9738 140.888C61.8525 141.009 61.7031 141.07 61.5258 141.07ZM68.4914 141.14C67.3527 141.14 66.4614 140.818 65.8174 140.174C65.1827 139.521 64.8654 138.606 64.8654 137.43C64.8654 136.767 64.9867 136.156 65.2294 135.596C65.472 135.036 65.8454 134.583 66.3494 134.238C66.8534 133.893 67.474 133.72 68.2114 133.72C68.902 133.72 69.4994 133.883 70.0034 134.21C70.5074 134.527 70.89 134.957 71.1514 135.498C71.4127 136.03 71.5434 136.613 71.5434 137.248C71.5434 137.425 71.4827 137.575 71.3614 137.696C71.2494 137.817 71.0954 137.878 70.8994 137.878H66.1534C66.228 138.531 66.4707 139.04 66.8814 139.404C67.292 139.768 67.866 139.95 68.6034 139.95C68.9954 139.95 69.336 139.913 69.6254 139.838C69.924 139.763 70.2134 139.656 70.4934 139.516C70.568 139.479 70.652 139.46 70.7454 139.46C70.8947 139.46 71.0254 139.511 71.1374 139.614C71.2494 139.717 71.3054 139.847 71.3054 140.006C71.3054 140.211 71.184 140.384 70.9414 140.524C70.5774 140.729 70.218 140.883 69.8634 140.986C69.5087 141.089 69.0514 141.14 68.4914 141.14ZM70.2834 136.842C70.2554 136.385 70.134 136.002 69.9194 135.694C69.714 135.386 69.4574 135.162 69.1494 135.022C68.8414 134.873 68.5287 134.798 68.2114 134.798C67.894 134.798 67.5814 134.873 67.2734 135.022C66.9654 135.162 66.7087 135.386 66.5034 135.694C66.298 136.002 66.1814 136.385 66.1534 136.842H70.2834ZM73.831 132.404C73.635 132.404 73.467 132.334 73.327 132.194C73.187 132.054 73.117 131.886 73.117 131.69V131.634C73.117 131.438 73.187 131.27 73.327 131.13C73.467 130.99 73.635 130.92 73.831 130.92H73.915C74.111 130.92 74.279 130.99 74.419 131.13C74.559 131.27 74.629 131.438 74.629 131.634V131.69C74.629 131.886 74.559 132.054 74.419 132.194C74.279 132.334 74.111 132.404 73.915 132.404H73.831ZM73.859 141.07C73.6817 141.07 73.5324 141.009 73.411 140.888C73.2897 140.767 73.229 140.617 73.229 140.44V134.434C73.229 134.257 73.2897 134.107 73.411 133.986C73.5324 133.855 73.6817 133.79 73.859 133.79C74.0457 133.79 74.1997 133.851 74.321 133.972C74.4424 134.093 74.503 134.247 74.503 134.434V140.44C74.503 140.617 74.4377 140.767 74.307 140.888C74.1857 141.009 74.0364 141.07 73.859 141.07ZM79.1794 141.14C77.8167 141.14 77.1354 140.524 77.1354 139.292V134.952H76.1414C76.0667 134.952 76.0014 134.929 75.9454 134.882C75.8987 134.826 75.8754 134.761 75.8754 134.686C75.8754 134.593 75.9174 134.513 76.0014 134.448L77.9054 132.586C77.9894 132.502 78.0687 132.46 78.1434 132.46C78.218 132.46 78.2787 132.488 78.3254 132.544C78.3814 132.6 78.4094 132.665 78.4094 132.74V133.86H79.9914C80.15 133.86 80.2807 133.911 80.3834 134.014C80.486 134.117 80.5374 134.247 80.5374 134.406C80.5374 134.555 80.486 134.686 80.3834 134.798C80.2807 134.901 80.15 134.952 79.9914 134.952H78.4094V139.18C78.4094 139.544 78.4934 139.777 78.6614 139.88C78.8387 139.973 79.058 140.02 79.3194 140.02C79.506 140.02 79.6927 139.992 79.8794 139.936C79.9167 139.927 79.954 139.917 79.9914 139.908C80.038 139.899 80.094 139.894 80.1594 139.894C80.29 139.894 80.4067 139.945 80.5094 140.048C80.612 140.141 80.6634 140.258 80.6634 140.398C80.6634 140.613 80.556 140.776 80.3414 140.888C79.9774 141.056 79.59 141.14 79.1794 141.14ZM85.1154 141.14C84.3967 141.14 83.7667 140.986 83.2254 140.678C82.684 140.37 82.264 139.936 81.9654 139.376C81.676 138.807 81.5314 138.158 81.5314 137.43C81.5314 136.702 81.676 136.058 81.9654 135.498C82.264 134.929 82.684 134.49 83.2254 134.182C83.7667 133.874 84.3967 133.72 85.1154 133.72C85.8247 133.72 86.45 133.874 86.9914 134.182C87.5327 134.49 87.9527 134.929 88.2514 135.498C88.55 136.058 88.6994 136.702 88.6994 137.43C88.6994 138.158 88.55 138.807 88.2514 139.376C87.9527 139.936 87.5327 140.37 86.9914 140.678C86.45 140.986 85.8247 141.14 85.1154 141.14ZM85.1154 139.978C85.498 139.978 85.862 139.889 86.2074 139.712C86.562 139.535 86.8514 139.255 87.0754 138.872C87.3087 138.489 87.4254 138.004 87.4254 137.416C87.4254 136.837 87.3087 136.357 87.0754 135.974C86.8514 135.591 86.562 135.316 86.2074 135.148C85.862 134.971 85.498 134.882 85.1154 134.882C84.7234 134.882 84.35 134.971 83.9954 135.148C83.65 135.316 83.3654 135.591 83.1414 135.974C82.9174 136.357 82.8054 136.837 82.8054 137.416C82.8054 138.004 82.9174 138.489 83.1414 138.872C83.3654 139.255 83.65 139.535 83.9954 139.712C84.35 139.889 84.7234 139.978 85.1154 139.978Z" fill="black"/>
<line x1="26" y1="149" x2="270" y2="149" stroke="#C7D4E0" stroke-width="6" stroke-linecap="round"/>
<path d="M26 149H111" stroke="#C7D4E0" stroke-width="6" stroke-linecap="round"/>
<path d="M26 149H111" stroke="#C7D4E0" stroke-width="6" stroke-linecap="round"/>
<path d="M26 149H111" stroke="#2DDB5E" stroke-width="6" stroke-linecap="round"/>
<mask id="mask0_1020_2611" style="mask-type:alpha" maskUnits="userSpaceOnUse" x="26" y="86" width="16" height="16">
<rect x="26" y="86" width="16" height="16" fill="#D9D9D9"/>
</mask>
<g mask="url(#mask0_1020_2611)">
<path fill-rule="evenodd" clip-rule="evenodd" d="M27 101.278V103.83H40.33V101.278C40.33 100.762 40.2084 100.287 39.9651 99.854C39.7224 99.4215 39.3997 99.0913 38.997 98.8635C38.1361 98.3927 37.2613 98.0394 36.3727 97.8037C35.484 97.5686 34.5814 97.4511 33.665 97.4511C32.7486 97.4511 31.846 97.5686 30.9573 97.8037C30.0687 98.0394 29.1939 98.3927 28.333 98.8635C27.9303 99.0913 27.6076 99.4215 27.3649 99.854C27.1216 100.287 27 100.762 27 101.278Z" fill="#4F4F4F"/>
<path d="M33.665 96.5398C32.7486 96.5398 31.964 96.1829 31.3114 95.4691C30.6588 94.7554 30.3325 93.8973 30.3325 92.8949C30.3325 91.8926 30.6588 91.0345 31.3114 90.3207C31.964 89.6069 32.7486 89.25 33.665 89.25C34.5814 89.25 35.366 89.6069 36.0186 90.3207C36.6712 91.0345 36.9975 91.8926 36.9975 92.8949C36.9975 93.8973 36.6712 94.7554 36.0186 95.4691C35.366 96.1829 34.5814 96.5398 33.665 96.5398Z" fill="#BDBDBD"/>
</g>
<path d="M52.86 99.12C52.06 99.12 51.34 98.948 50.7 98.604C50.068 98.252 49.568 97.752 49.2 97.104C48.84 96.448 48.66 95.684 48.66 94.812C48.66 93.94 48.84 93.18 49.2 92.532C49.568 91.876 50.068 91.376 50.7 91.032C51.34 90.68 52.06 90.504 52.86 90.504C53.404 90.504 53.888 90.568 54.312 90.696C54.744 90.824 55.172 91.008 55.596 91.248C55.772 91.344 55.86 91.496 55.86 91.704C55.86 91.824 55.816 91.932 55.728 92.028C55.64 92.116 55.524 92.16 55.38 92.16C55.3 92.16 55.228 92.144 55.164 92.112C54.812 91.928 54.468 91.788 54.132 91.692C53.796 91.596 53.408 91.548 52.968 91.548C52.28 91.548 51.692 91.692 51.204 91.98C50.724 92.26 50.36 92.648 50.112 93.144C49.872 93.632 49.752 94.188 49.752 94.812C49.752 95.436 49.872 95.996 50.112 96.492C50.36 96.98 50.724 97.368 51.204 97.656C51.692 97.936 52.28 98.076 52.968 98.076C53.408 98.076 53.796 98.028 54.132 97.932C54.468 97.836 54.812 97.696 55.164 97.512C55.228 97.48 55.3 97.464 55.38 97.464C55.524 97.464 55.64 97.508 55.728 97.596C55.816 97.684 55.86 97.792 55.86 97.92C55.86 98.128 55.772 98.28 55.596 98.376C55.172 98.616 54.744 98.8 54.312 98.928C53.888 99.056 53.404 99.12 52.86 99.12ZM57.7497 99.06C57.5977 99.06 57.4697 99.008 57.3657 98.904C57.2617 98.8 57.2097 98.672 57.2097 98.52V93.372C57.2097 93.22 57.2617 93.092 57.3657 92.988C57.4697 92.876 57.5977 92.82 57.7497 92.82C57.9017 92.82 58.0297 92.876 58.1337 92.988C58.2457 93.092 58.3017 93.22 58.3017 93.372V93.888C58.8617 93.136 59.4897 92.76 60.1857 92.76H60.2457C60.3977 92.76 60.5217 92.812 60.6177 92.916C60.7217 93.02 60.7737 93.148 60.7737 93.3C60.7737 93.452 60.7217 93.576 60.6177 93.672C60.5137 93.768 60.3817 93.816 60.2217 93.816H60.1617C59.7777 93.816 59.4257 93.912 59.1057 94.104C58.7857 94.288 58.5177 94.544 58.3017 94.872V98.52C58.3017 98.672 58.2457 98.8 58.1337 98.904C58.0297 99.008 57.9017 99.06 57.7497 99.06ZM62.3195 91.632C62.1515 91.632 62.0075 91.572 61.8875 91.452C61.7675 91.332 61.7075 91.188 61.7075 91.02V90.972C61.7075 90.804 61.7675 90.66 61.8875 90.54C62.0075 90.42 62.1515 90.36 62.3195 90.36H62.3915C62.5595 90.36 62.7035 90.42 62.8235 90.54C62.9435 90.66 63.0035 90.804 63.0035 90.972V91.02C63.0035 91.188 62.9435 91.332 62.8235 91.452C62.7035 91.572 62.5595 91.632 62.3915 91.632H62.3195ZM62.3435 99.06C62.1915 99.06 62.0635 99.008 61.9595 98.904C61.8555 98.8 61.8035 98.672 61.8035 98.52V93.372C61.8035 93.22 61.8555 93.092 61.9595 92.988C62.0635 92.876 62.1915 92.82 62.3435 92.82C62.5035 92.82 62.6355 92.872 62.7395 92.976C62.8435 93.08 62.8955 93.212 62.8955 93.372V98.52C62.8955 98.672 62.8395 98.8 62.7275 98.904C62.6235 99.008 62.4955 99.06 62.3435 99.06ZM66.7718 99.12C65.9718 99.12 65.2438 98.94 64.5878 98.58C64.4518 98.484 64.3838 98.352 64.3838 98.184C64.3838 98.056 64.4278 97.944 64.5158 97.848C64.6038 97.752 64.7158 97.704 64.8518 97.704C64.9238 97.704 64.9958 97.72 65.0678 97.752C65.3238 97.864 65.5798 97.952 65.8358 98.016C66.0918 98.08 66.3798 98.112 66.6998 98.112C67.5878 98.112 68.0318 97.828 68.0318 97.26C68.0318 97.076 67.9278 96.936 67.7198 96.84C67.5198 96.744 67.1878 96.636 66.7238 96.516C66.2518 96.404 65.8598 96.288 65.5478 96.168C65.2438 96.048 64.9798 95.868 64.7558 95.628C64.5398 95.38 64.4318 95.056 64.4318 94.656C64.4318 94.096 64.6318 93.64 65.0318 93.288C65.4398 92.936 66.0198 92.76 66.7718 92.76C67.3878 92.76 67.9678 92.86 68.5118 93.06C68.6238 93.092 68.7078 93.152 68.7638 93.24C68.8278 93.328 68.8598 93.42 68.8598 93.516C68.8598 93.644 68.8118 93.756 68.7158 93.852C68.6278 93.948 68.5158 93.996 68.3798 93.996C68.3398 93.996 68.2878 93.988 68.2238 93.972C67.7598 93.828 67.3038 93.756 66.8558 93.756C66.4238 93.756 66.0838 93.836 65.8358 93.996C65.5958 94.148 65.4758 94.348 65.4758 94.596C65.4758 94.836 65.5878 95.012 65.8118 95.124C66.0358 95.236 66.3838 95.344 66.8558 95.448C67.3278 95.568 67.7118 95.688 68.0078 95.808C68.3038 95.92 68.5558 96.1 68.7638 96.348C68.9798 96.596 69.0878 96.928 69.0878 97.344C69.0878 97.856 68.8838 98.28 68.4758 98.616C68.0758 98.952 67.5078 99.12 66.7718 99.12ZM72.6225 99.12C71.4545 99.12 70.8705 98.592 70.8705 97.536V93.816H70.0185C69.9545 93.816 69.8985 93.796 69.8505 93.756C69.8105 93.708 69.7905 93.652 69.7905 93.588C69.7905 93.508 69.8265 93.44 69.8985 93.384L71.5305 91.788C71.6025 91.716 71.6705 91.68 71.7345 91.68C71.7985 91.68 71.8505 91.704 71.8905 91.752C71.9385 91.8 71.9625 91.856 71.9625 91.92V92.88H73.3185C73.4545 92.88 73.5665 92.924 73.6545 93.012C73.7425 93.1 73.7865 93.212 73.7865 93.348C73.7865 93.476 73.7425 93.588 73.6545 93.684C73.5665 93.772 73.4545 93.816 73.3185 93.816H71.9625V97.44C71.9625 97.752 72.0345 97.952 72.1785 98.04C72.3305 98.12 72.5185 98.16 72.7425 98.16C72.9025 98.16 73.0625 98.136 73.2225 98.088C73.2545 98.08 73.2865 98.072 73.3185 98.064C73.3585 98.056 73.4065 98.052 73.4625 98.052C73.5745 98.052 73.6745 98.096 73.7625 98.184C73.8505 98.264 73.8945 98.364 73.8945 98.484C73.8945 98.668 73.8025 98.808 73.6185 98.904C73.3065 99.048 72.9745 99.12 72.6225 99.12ZM75.6085 91.632C75.4405 91.632 75.2965 91.572 75.1765 91.452C75.0565 91.332 74.9965 91.188 74.9965 91.02V90.972C74.9965 90.804 75.0565 90.66 75.1765 90.54C75.2965 90.42 75.4405 90.36 75.6085 90.36H75.6805C75.8485 90.36 75.9925 90.42 76.1125 90.54C76.2325 90.66 76.2925 90.804 76.2925 90.972V91.02C76.2925 91.188 76.2325 91.332 76.1125 91.452C75.9925 91.572 75.8485 91.632 75.6805 91.632H75.6085ZM75.6325 99.06C75.4805 99.06 75.3525 99.008 75.2485 98.904C75.1445 98.8 75.0925 98.672 75.0925 98.52V93.372C75.0925 93.22 75.1445 93.092 75.2485 92.988C75.3525 92.876 75.4805 92.82 75.6325 92.82C75.7925 92.82 75.9245 92.872 76.0285 92.976C76.1325 93.08 76.1845 93.212 76.1845 93.372V98.52C76.1845 98.672 76.1285 98.8 76.0165 98.904C75.9125 99.008 75.7845 99.06 75.6325 99.06ZM78.6208 99.06C78.4688 99.06 78.3408 99.008 78.2368 98.904C78.1328 98.8 78.0808 98.672 78.0808 98.52V93.372C78.0808 93.22 78.1328 93.092 78.2368 92.988C78.3408 92.876 78.4688 92.82 78.6208 92.82C78.7728 92.82 78.9008 92.876 79.0048 92.988C79.1168 93.092 79.1728 93.22 79.1728 93.372V93.864C79.4768 93.528 79.8048 93.26 80.1568 93.06C80.5088 92.86 80.9248 92.76 81.4048 92.76C81.8448 92.76 82.2248 92.864 82.5448 93.072C82.8728 93.28 83.1208 93.564 83.2888 93.924C83.4648 94.284 83.5528 94.68 83.5528 95.112V98.52C83.5528 98.672 83.4968 98.8 83.3848 98.904C83.2808 99.008 83.1528 99.06 83.0008 99.06C82.8488 99.06 82.7208 99.008 82.6168 98.904C82.5128 98.8 82.4608 98.672 82.4608 98.52V95.232C82.4608 94.256 82.0208 93.768 81.1408 93.768C80.7408 93.768 80.3808 93.872 80.0608 94.08C79.7488 94.288 79.4528 94.568 79.1728 94.92V98.52C79.1728 98.672 79.1168 98.8 79.0048 98.904C78.9008 99.008 78.7728 99.06 78.6208 99.06ZM86.9533 99.12C86.6013 99.12 86.2733 99.048 85.9693 98.904C85.6733 98.76 85.4373 98.552 85.2613 98.28C85.0853 98 84.9973 97.68 84.9973 97.32C84.9973 96.728 85.2293 96.256 85.6933 95.904C86.1653 95.552 86.8533 95.376 87.7573 95.376H89.2093V95.28C89.2093 94.752 89.0773 94.372 88.8133 94.14C88.5573 93.908 88.1533 93.792 87.6013 93.792C87.2973 93.792 87.0253 93.816 86.7853 93.864C86.5533 93.912 86.2933 93.984 86.0053 94.08C85.9413 94.096 85.8893 94.104 85.8493 94.104C85.7293 94.104 85.6253 94.06 85.5373 93.972C85.4493 93.884 85.4053 93.776 85.4053 93.648C85.4053 93.432 85.5093 93.28 85.7173 93.192C86.3973 92.904 87.0893 92.76 87.7933 92.76C88.3453 92.76 88.8093 92.872 89.1853 93.096C89.5693 93.32 89.8493 93.612 90.0253 93.972C90.2093 94.324 90.3013 94.708 90.3013 95.124V98.52C90.3013 98.672 90.2453 98.8 90.1333 98.904C90.0293 99.008 89.9013 99.06 89.7493 99.06C89.5973 99.06 89.4693 99.008 89.3653 98.904C89.2613 98.8 89.2093 98.672 89.2093 98.52V98.208C88.6173 98.816 87.8653 99.12 86.9533 99.12ZM87.3613 98.16C87.7133 98.16 88.0533 98.076 88.3813 97.908C88.7093 97.732 88.9853 97.516 89.2093 97.26V96.252H87.9013C86.6933 96.252 86.0893 96.568 86.0893 97.2C86.0893 97.488 86.1853 97.72 86.3773 97.896C86.5773 98.072 86.9053 98.16 87.3613 98.16ZM98.1048 99.12C97.0888 99.12 96.1368 98.928 95.2488 98.544C95.1528 98.504 95.0728 98.44 95.0088 98.352C94.9448 98.256 94.9128 98.156 94.9128 98.052C94.9128 97.916 94.9568 97.8 95.0448 97.704C95.1408 97.6 95.2608 97.548 95.4048 97.548C95.4848 97.548 95.5608 97.564 95.6328 97.596C96.3688 97.924 97.1568 98.088 97.9968 98.088C99.3968 98.088 100.097 97.628 100.097 96.708C100.097 96.468 100.005 96.268 99.8208 96.108C99.6448 95.948 99.4248 95.824 99.1608 95.736C98.8968 95.64 98.5208 95.528 98.0328 95.4C97.3848 95.232 96.8608 95.072 96.4608 94.92C96.0608 94.76 95.7168 94.524 95.4288 94.212C95.1408 93.9 94.9968 93.484 94.9968 92.964C94.9968 92.508 95.1168 92.096 95.3568 91.728C95.5968 91.352 95.9488 91.056 96.4128 90.84C96.8848 90.616 97.4488 90.504 98.1048 90.504C98.9848 90.504 99.7808 90.636 100.493 90.9C100.717 90.98 100.829 91.14 100.829 91.38C100.829 91.508 100.785 91.624 100.697 91.728C100.609 91.832 100.493 91.884 100.349 91.884C100.301 91.884 100.237 91.868 100.157 91.836C99.5328 91.62 98.8888 91.512 98.2248 91.512C97.5928 91.512 97.0768 91.632 96.6768 91.872C96.2848 92.112 96.0888 92.448 96.0888 92.88C96.0888 93.168 96.1808 93.404 96.3648 93.588C96.5568 93.764 96.7928 93.904 97.0728 94.008C97.3608 94.104 97.7488 94.208 98.2368 94.32C98.8688 94.472 99.3768 94.624 99.7608 94.776C100.153 94.928 100.485 95.164 100.757 95.484C101.037 95.804 101.177 96.236 101.177 96.78C101.177 97.228 101.049 97.632 100.793 97.992C100.537 98.344 100.177 98.62 99.7128 98.82C99.2488 99.02 98.7128 99.12 98.1048 99.12ZM104.203 99.12C103.851 99.12 103.523 99.048 103.219 98.904C102.923 98.76 102.687 98.552 102.511 98.28C102.335 98 102.247 97.68 102.247 97.32C102.247 96.728 102.479 96.256 102.943 95.904C103.415 95.552 104.103 95.376 105.007 95.376H106.459V95.28C106.459 94.752 106.327 94.372 106.063 94.14C105.807 93.908 105.403 93.792 104.851 93.792C104.547 93.792 104.275 93.816 104.035 93.864C103.803 93.912 103.543 93.984 103.255 94.08C103.191 94.096 103.139 94.104 103.099 94.104C102.979 94.104 102.875 94.06 102.787 93.972C102.699 93.884 102.655 93.776 102.655 93.648C102.655 93.432 102.759 93.28 102.967 93.192C103.647 92.904 104.339 92.76 105.043 92.76C105.595 92.76 106.059 92.872 106.435 93.096C106.819 93.32 107.099 93.612 107.275 93.972C107.459 94.324 107.551 94.708 107.551 95.124V98.52C107.551 98.672 107.495 98.8 107.383 98.904C107.279 99.008 107.151 99.06 106.999 99.06C106.847 99.06 106.719 99.008 106.615 98.904C106.511 98.8 106.459 98.672 106.459 98.52V98.208C105.867 98.816 105.115 99.12 104.203 99.12ZM104.611 98.16C104.963 98.16 105.303 98.076 105.631 97.908C105.959 97.732 106.235 97.516 106.459 97.26V96.252H105.151C103.943 96.252 103.339 96.568 103.339 97.2C103.339 97.488 103.435 97.72 103.627 97.896C103.827 98.072 104.155 98.16 104.611 98.16ZM109.922 99.06C109.77 99.06 109.642 99.008 109.538 98.904C109.434 98.8 109.382 98.672 109.382 98.52V93.372C109.382 93.22 109.434 93.092 109.538 92.988C109.642 92.876 109.77 92.82 109.922 92.82C110.074 92.82 110.202 92.876 110.306 92.988C110.418 93.092 110.474 93.22 110.474 93.372V93.864C110.778 93.528 111.106 93.26 111.458 93.06C111.81 92.86 112.226 92.76 112.706 92.76C113.146 92.76 113.526 92.864 113.846 93.072C114.174 93.28 114.422 93.564 114.59 93.924C114.766 94.284 114.854 94.68 114.854 95.112V98.52C114.854 98.672 114.798 98.8 114.686 98.904C114.582 99.008 114.454 99.06 114.302 99.06C114.15 99.06 114.022 99.008 113.918 98.904C113.814 98.8 113.762 98.672 113.762 98.52V95.232C113.762 94.256 113.322 93.768 112.442 93.768C112.042 93.768 111.682 93.872 111.362 94.08C111.05 94.288 110.754 94.568 110.474 94.92V98.52C110.474 98.672 110.418 98.8 110.306 98.904C110.202 99.008 110.074 99.06 109.922 99.06ZM118.665 99.12C117.497 99.12 116.913 98.592 116.913 97.536V93.816H116.061C115.997 93.816 115.941 93.796 115.893 93.756C115.853 93.708 115.833 93.652 115.833 93.588C115.833 93.508 115.869 93.44 115.941 93.384L117.573 91.788C117.645 91.716 117.713 91.68 117.777 91.68C117.841 91.68 117.893 91.704 117.933 91.752C117.981 91.8 118.005 91.856 118.005 91.92V92.88H119.361C119.497 92.88 119.609 92.924 119.697 93.012C119.785 93.1 119.829 93.212 119.829 93.348C119.829 93.476 119.785 93.588 119.697 93.684C119.609 93.772 119.497 93.816 119.361 93.816H118.005V97.44C118.005 97.752 118.077 97.952 118.221 98.04C118.373 98.12 118.561 98.16 118.785 98.16C118.945 98.16 119.105 98.136 119.265 98.088C119.297 98.08 119.329 98.072 119.361 98.064C119.401 98.056 119.449 98.052 119.505 98.052C119.617 98.052 119.717 98.096 119.805 98.184C119.893 98.264 119.937 98.364 119.937 98.484C119.937 98.668 119.845 98.808 119.661 98.904C119.349 99.048 119.017 99.12 118.665 99.12ZM123.753 99.12C123.137 99.12 122.597 98.988 122.133 98.724C121.669 98.46 121.309 98.088 121.053 97.608C120.805 97.12 120.681 96.564 120.681 95.94C120.681 95.316 120.805 94.764 121.053 94.284C121.309 93.796 121.669 93.42 122.133 93.156C122.597 92.892 123.137 92.76 123.753 92.76C124.361 92.76 124.897 92.892 125.361 93.156C125.825 93.42 126.185 93.796 126.441 94.284C126.697 94.764 126.825 95.316 126.825 95.94C126.825 96.564 126.697 97.12 126.441 97.608C126.185 98.088 125.825 98.46 125.361 98.724C124.897 98.988 124.361 99.12 123.753 99.12ZM123.753 98.124C124.081 98.124 124.393 98.048 124.689 97.896C124.993 97.744 125.241 97.504 125.433 97.176C125.633 96.848 125.733 96.432 125.733 95.928C125.733 95.432 125.633 95.02 125.433 94.692C125.241 94.364 124.993 94.128 124.689 93.984C124.393 93.832 124.081 93.756 123.753 93.756C123.417 93.756 123.097 93.832 122.793 93.984C122.497 94.128 122.253 94.364 122.061 94.692C121.869 95.02 121.773 95.432 121.773 95.928C121.773 96.432 121.869 96.848 122.061 97.176C122.253 97.504 122.497 97.744 122.793 97.896C123.097 98.048 123.417 98.124 123.753 98.124ZM130.334 99.12C129.534 99.12 128.806 98.94 128.15 98.58C128.014 98.484 127.946 98.352 127.946 98.184C127.946 98.056 127.99 97.944 128.078 97.848C128.166 97.752 128.278 97.704 128.414 97.704C128.486 97.704 128.558 97.72 128.63 97.752C128.886 97.864 129.142 97.952 129.398 98.016C129.654 98.08 129.942 98.112 130.262 98.112C131.15 98.112 131.594 97.828 131.594 97.26C131.594 97.076 131.49 96.936 131.282 96.84C131.082 96.744 130.75 96.636 130.286 96.516C129.814 96.404 129.422 96.288 129.11 96.168C128.806 96.048 128.542 95.868 128.318 95.628C128.102 95.38 127.994 95.056 127.994 94.656C127.994 94.096 128.194 93.64 128.594 93.288C129.002 92.936 129.582 92.76 130.334 92.76C130.95 92.76 131.53 92.86 132.074 93.06C132.186 93.092 132.27 93.152 132.326 93.24C132.39 93.328 132.422 93.42 132.422 93.516C132.422 93.644 132.374 93.756 132.278 93.852C132.19 93.948 132.078 93.996 131.942 93.996C131.902 93.996 131.85 93.988 131.786 93.972C131.322 93.828 130.866 93.756 130.418 93.756C129.986 93.756 129.646 93.836 129.398 93.996C129.158 94.148 129.038 94.348 129.038 94.596C129.038 94.836 129.15 95.012 129.374 95.124C129.598 95.236 129.946 95.344 130.418 95.448C130.89 95.568 131.274 95.688 131.57 95.808C131.866 95.92 132.118 96.1 132.326 96.348C132.542 96.596 132.65 96.928 132.65 97.344C132.65 97.856 132.446 98.28 132.038 98.616C131.638 98.952 131.07 99.12 130.334 99.12Z" fill="#4F4F4F"/>
<rect x="13" y="15" width="42" height="41" rx="8" fill="#82ACF5" fill-opacity="0.46"/>
<mask id="mask1_1020_2611" style="mask-type:alpha" maskUnits="userSpaceOnUse" x="20" y="22" width="28" height="28">
<rect x="20" y="22" width="28" height="28" fill="#1C1B1F"/>
</mask>
<g mask="url(#mask1_1020_2611)">
<path d="M34 46.5C32.8 45.3667 31.425 44.5 29.875 43.9C28.325 43.3 26.7 43 25 43V32C26.6833 32 28.3 32.304 29.85 32.912C31.4 33.5207 32.7833 34.4 34 35.55C35.2167 34.4 36.6 33.5207 38.15 32.912C39.7 32.304 41.3167 32 43 32V43C41.2833 43 39.6543 43.3 38.113 43.9C36.571 44.5 35.2 45.3667 34 46.5ZM34 43.9C35.05 43.1167 36.1667 42.4917 37.35 42.025C38.5333 41.5583 39.75 41.25 41 41.1V34.2C39.7833 34.4167 38.5877 34.854 37.413 35.512C36.2377 36.1707 35.1 37.05 34 38.15C32.9 37.05 31.7627 36.1707 30.588 35.512C29.4127 34.854 28.2167 34.4167 27 34.2V41.1C28.25 41.25 29.4667 41.5583 30.65 42.025C31.8333 42.4917 32.95 43.1167 34 43.9ZM34 33C32.9 33 31.9583 32.6083 31.175 31.825C30.3917 31.0417 30 30.1 30 29C30 27.9 30.3917 26.9583 31.175 26.175C31.9583 25.3917 32.9 25 34 25C35.1 25 36.0417 25.3917 36.825 26.175C37.6083 26.9583 38 27.9 38 29C38 30.1 37.6083 31.0417 36.825 31.825C36.0417 32.6083 35.1 33 34 33ZM34 31C34.55 31 35.021 30.804 35.413 30.412C35.8043 30.0207 36 29.55 36 29C36 28.45 35.8043 27.979 35.413 27.587C35.021 27.1957 34.55 27 34 27C33.45 27 32.9793 27.1957 32.588 27.587C32.196 27.979 32 28.45 32 29C32 29.55 32.196 30.0207 32.588 30.412C32.9793 30.804 33.45 31 34 31Z" fill="#82ACF5"/>
</g>
<path d="M296 170.5H0V171.5H296V170.5Z" fill="#E0E0E0" mask="url(#path-1-inside-1_1020_2611)"/>
</svg>
