<svg width="331" height="97" viewBox="0 0 331 97" fill="none" xmlns="http://www.w3.org/2000/svg">
<rect x="0.5" y="0.5" width="330" height="96" rx="4.5" fill="#FFD0D0" stroke="#8D1212"/>
<path d="M44.2578 67H36.3721L36.4209 60.4082H44.2578C45.8854 60.4082 47.2607 60.0176 48.3838 59.2363C49.5231 58.4551 50.3857 57.2913 50.9717 55.7451C51.5739 54.1826 51.875 52.262 51.875 49.9834V48.4453C51.875 46.7363 51.7041 45.2389 51.3623 43.9531C51.0368 42.651 50.5485 41.5687 49.8975 40.7061C49.2464 39.8271 48.4326 39.168 47.4561 38.7285C46.4958 38.2891 45.389 38.0693 44.1357 38.0693H36.2256V31.4531H44.1357C46.5446 31.4531 48.75 31.8682 50.752 32.6982C52.7702 33.512 54.5117 34.6839 55.9766 36.2139C57.4577 37.7275 58.597 39.526 59.3945 41.6094C60.2083 43.6764 60.6152 45.9714 60.6152 48.4941V49.9834C60.6152 52.4899 60.2083 54.7848 59.3945 56.8682C58.597 58.9515 57.4658 60.75 56.001 62.2637C54.5361 63.7773 52.8027 64.9492 50.8008 65.7793C48.8151 66.5931 46.6341 67 44.2578 67ZM41.2793 31.4531V67H32.71V31.4531H41.2793ZM77.4854 67.4883C75.3369 67.4883 73.4163 67.1546 71.7236 66.4873C70.0309 65.8037 68.5986 64.8678 67.4268 63.6797C66.2712 62.4915 65.3841 61.1243 64.7656 59.5781C64.1634 58.0319 63.8623 56.3962 63.8623 54.6709V53.7432C63.8623 51.8063 64.1309 50.016 64.668 48.3721C65.2051 46.7119 66.0026 45.2633 67.0605 44.0264C68.1185 42.7894 69.445 41.8291 71.04 41.1455C72.6351 40.4456 74.4906 40.0957 76.6064 40.0957C78.4782 40.0957 80.1546 40.3968 81.6357 40.999C83.1169 41.6012 84.3701 42.4639 85.3955 43.5869C86.4372 44.71 87.2266 46.069 87.7637 47.6641C88.3171 49.2591 88.5938 51.0495 88.5938 53.0352V56.3799H67.0117V51.2285H80.5615V50.5938C80.5778 49.7148 80.4232 48.9661 80.0977 48.3477C79.7884 47.7292 79.3327 47.2572 78.7305 46.9316C78.1283 46.6061 77.3958 46.4434 76.5332 46.4434C75.638 46.4434 74.8975 46.6387 74.3115 47.0293C73.7419 47.4199 73.2943 47.957 72.9688 48.6406C72.6595 49.3079 72.4398 50.0811 72.3096 50.96C72.1794 51.8389 72.1143 52.7666 72.1143 53.7432V54.6709C72.1143 55.6475 72.2445 56.5345 72.5049 57.332C72.7816 58.1296 73.1722 58.8132 73.6768 59.3828C74.1976 59.9362 74.8161 60.3675 75.5322 60.6768C76.2646 60.986 77.0947 61.1406 78.0225 61.1406C79.1455 61.1406 80.2523 60.929 81.3428 60.5059C82.4333 60.0827 83.3691 59.3828 84.1504 58.4062L87.8857 62.8496C87.3486 63.6146 86.5837 64.3551 85.5908 65.0713C84.6143 65.7874 83.4424 66.3734 82.0752 66.8291C80.708 67.2686 79.1781 67.4883 77.4854 67.4883ZM105.781 59.5781C105.781 59.1224 105.627 58.7318 105.317 58.4062C105.024 58.0645 104.504 57.7552 103.755 57.4785C103.006 57.1855 101.956 56.8926 100.605 56.5996C99.3197 56.3229 98.1071 55.9567 96.9678 55.501C95.8447 55.0452 94.86 54.4919 94.0137 53.8408C93.1673 53.1898 92.5 52.4167 92.0117 51.5215C91.5397 50.6263 91.3037 49.6009 91.3037 48.4453C91.3037 47.3223 91.5397 46.2643 92.0117 45.2715C92.5 44.2624 93.208 43.3753 94.1357 42.6104C95.0798 41.8291 96.2272 41.2188 97.5781 40.7793C98.929 40.3236 100.467 40.0957 102.192 40.0957C104.569 40.0957 106.619 40.4619 108.345 41.1943C110.07 41.9105 111.396 42.9196 112.324 44.2217C113.268 45.5075 113.74 46.9967 113.74 48.6895H105.513C105.513 48.0221 105.399 47.4525 105.171 46.9805C104.959 46.5085 104.609 46.1504 104.121 45.9062C103.633 45.6458 102.982 45.5156 102.168 45.5156C101.598 45.5156 101.077 45.6214 100.605 45.833C100.15 46.0446 99.7835 46.3376 99.5068 46.7119C99.2301 47.0863 99.0918 47.5257 99.0918 48.0303C99.0918 48.3883 99.1732 48.7139 99.3359 49.0068C99.515 49.2835 99.7835 49.5439 100.142 49.7881C100.5 50.016 100.955 50.2275 101.509 50.4229C102.062 50.6019 102.729 50.7646 103.511 50.9111C105.285 51.2367 106.945 51.7005 108.491 52.3027C110.037 52.9049 111.291 53.7594 112.251 54.8662C113.228 55.973 113.716 57.4622 113.716 59.334C113.716 60.5059 113.447 61.5882 112.91 62.5811C112.373 63.5576 111.6 64.4202 110.591 65.1689C109.582 65.9014 108.369 66.471 106.953 66.8779C105.537 67.2848 103.942 67.4883 102.168 67.4883C99.6452 67.4883 97.513 67.0407 95.7715 66.1455C94.0299 65.234 92.7116 64.0947 91.8164 62.7275C90.9375 61.3441 90.498 59.9443 90.498 58.5283H98.1641C98.1966 59.3421 98.3919 60.0094 98.75 60.5303C99.1243 61.0511 99.6208 61.4336 100.239 61.6777C100.858 61.9219 101.574 62.0439 102.388 62.0439C103.136 62.0439 103.755 61.9382 104.243 61.7266C104.748 61.515 105.13 61.2301 105.391 60.8721C105.651 60.4977 105.781 60.0664 105.781 59.5781ZM125.874 45.6621V77.1562H117.646V40.584H125.312L125.874 45.6621ZM142.085 53.4746V53.9873C142.085 55.9079 141.865 57.6901 141.426 59.334C140.986 60.9779 140.335 62.4102 139.473 63.6309C138.61 64.8516 137.536 65.8037 136.25 66.4873C134.98 67.1546 133.507 67.4883 131.831 67.4883C130.252 67.4883 128.893 67.1383 127.754 66.4385C126.615 65.7386 125.662 64.7702 124.897 63.5332C124.132 62.2962 123.514 60.8802 123.042 59.2852C122.57 57.6901 122.196 56.0055 121.919 54.2314V53.5723C122.196 51.668 122.57 49.902 123.042 48.2744C123.514 46.6305 124.132 45.1982 124.897 43.9775C125.662 42.7568 126.606 41.8047 127.729 41.1211C128.869 40.4375 130.228 40.0957 131.807 40.0957C133.483 40.0957 134.956 40.4131 136.226 41.0479C137.511 41.6826 138.586 42.5941 139.448 43.7822C140.327 44.9541 140.986 46.362 141.426 48.0059C141.865 49.6497 142.085 51.4727 142.085 53.4746ZM133.857 53.9873V53.4746C133.857 52.4492 133.784 51.5133 133.638 50.667C133.491 49.8044 133.255 49.0557 132.93 48.4209C132.62 47.7861 132.205 47.2979 131.685 46.9561C131.164 46.6143 130.521 46.4434 129.756 46.4434C128.877 46.4434 128.136 46.5817 127.534 46.8584C126.948 47.1188 126.476 47.5257 126.118 48.0791C125.776 48.6162 125.532 49.2917 125.386 50.1055C125.256 50.903 125.199 51.8389 125.215 52.9131V54.915C125.182 56.152 125.304 57.2425 125.581 58.1865C125.858 59.1143 126.338 59.8385 127.021 60.3594C127.705 60.8802 128.633 61.1406 129.805 61.1406C130.586 61.1406 131.237 60.9616 131.758 60.6035C132.279 60.2292 132.694 59.7165 133.003 59.0654C133.312 58.3981 133.532 57.6331 133.662 56.7705C133.792 55.9079 133.857 54.9801 133.857 53.9873ZM158.54 67.4883C156.392 67.4883 154.471 67.1546 152.778 66.4873C151.086 65.8037 149.653 64.8678 148.481 63.6797C147.326 62.4915 146.439 61.1243 145.82 59.5781C145.218 58.0319 144.917 56.3962 144.917 54.6709V53.7432C144.917 51.8063 145.186 50.016 145.723 48.3721C146.26 46.7119 147.057 45.2633 148.115 44.0264C149.173 42.7894 150.5 41.8291 152.095 41.1455C153.69 40.4456 155.545 40.0957 157.661 40.0957C159.533 40.0957 161.209 40.3968 162.69 40.999C164.172 41.6012 165.425 42.4639 166.45 43.5869C167.492 44.71 168.281 46.069 168.818 47.6641C169.372 49.2591 169.648 51.0495 169.648 53.0352V56.3799H148.066V51.2285H161.616V50.5938C161.632 49.7148 161.478 48.9661 161.152 48.3477C160.843 47.7292 160.387 47.2572 159.785 46.9316C159.183 46.6061 158.451 46.4434 157.588 46.4434C156.693 46.4434 155.952 46.6387 155.366 47.0293C154.797 47.4199 154.349 47.957 154.023 48.6406C153.714 49.3079 153.494 50.0811 153.364 50.96C153.234 51.8389 153.169 52.7666 153.169 53.7432V54.6709C153.169 55.6475 153.299 56.5345 153.56 57.332C153.836 58.1296 154.227 58.8132 154.731 59.3828C155.252 59.9362 155.871 60.3675 156.587 60.6768C157.319 60.986 158.149 61.1406 159.077 61.1406C160.2 61.1406 161.307 60.929 162.397 60.5059C163.488 60.0827 164.424 59.3828 165.205 58.4062L168.94 62.8496C168.403 63.6146 167.638 64.3551 166.646 65.0713C165.669 65.7874 164.497 66.3734 163.13 66.8291C161.763 67.2686 160.233 67.4883 158.54 67.4883ZM181.294 47.127V67H173.066V40.584H180.757L181.294 47.127ZM189.106 40.3887L188.96 48.0303C188.634 47.9977 188.195 47.957 187.642 47.9082C187.088 47.8594 186.624 47.835 186.25 47.835C185.29 47.835 184.46 47.9489 183.76 48.1768C183.076 48.3883 182.507 48.7139 182.051 49.1533C181.611 49.5765 181.286 50.1136 181.074 50.7646C180.879 51.4157 180.789 52.1725 180.806 53.0352L179.316 52.0586C179.316 50.2845 179.487 48.6732 179.829 47.2246C180.187 45.7598 180.692 44.4984 181.343 43.4404C181.994 42.3662 182.783 41.5443 183.711 40.9746C184.639 40.3887 185.68 40.0957 186.836 40.0957C187.243 40.0957 187.642 40.1201 188.032 40.1689C188.439 40.2178 188.797 40.291 189.106 40.3887ZM206.636 60.9453V29.5H214.912V67H207.49L206.636 60.9453ZM190.425 54.1094V53.5967C190.425 51.5947 190.645 49.7718 191.084 48.1279C191.523 46.4678 192.174 45.0436 193.037 43.8555C193.9 42.651 194.974 41.7233 196.26 41.0723C197.546 40.4212 199.027 40.0957 200.703 40.0957C202.201 40.0957 203.511 40.4456 204.634 41.1455C205.757 41.8291 206.717 42.7894 207.515 44.0264C208.312 45.2633 208.963 46.7119 209.468 48.3721C209.972 50.016 210.355 51.79 210.615 53.6943V54.3047C210.355 56.0951 209.972 57.7878 209.468 59.3828C208.963 60.9616 208.312 62.3613 207.515 63.582C206.717 64.8027 205.749 65.763 204.609 66.4629C203.486 67.1465 202.168 67.4883 200.654 67.4883C198.978 67.4883 197.497 67.1546 196.211 66.4873C194.941 65.82 193.875 64.8841 193.013 63.6797C192.166 62.4753 191.523 61.0592 191.084 59.4316C190.645 57.804 190.425 56.0299 190.425 54.1094ZM198.652 53.5967V54.1094C198.652 55.1022 198.717 56.0218 198.848 56.8682C198.978 57.7145 199.198 58.4632 199.507 59.1143C199.832 59.749 200.256 60.2454 200.776 60.6035C201.313 60.9616 201.973 61.1406 202.754 61.1406C203.812 61.1406 204.683 60.8883 205.366 60.3838C206.066 59.8792 206.579 59.1631 206.904 58.2354C207.246 57.3076 207.393 56.2171 207.344 54.9639V53.0352C207.376 51.9609 207.303 51.0169 207.124 50.2031C206.945 49.373 206.66 48.6813 206.27 48.1279C205.895 47.5745 205.415 47.1595 204.829 46.8828C204.259 46.5898 203.584 46.4434 202.803 46.4434C202.038 46.4434 201.387 46.6224 200.85 46.9805C200.329 47.3385 199.906 47.8431 199.58 48.4941C199.255 49.1289 199.019 49.8857 198.872 50.7646C198.726 51.6273 198.652 52.5713 198.652 53.5967ZM228.535 40.584V67H220.283V40.584H228.535ZM220.649 37.6787L225.483 30.0127H234.175L227.363 37.6787H220.649ZM244.99 61.1406C245.755 61.1406 246.406 61.0023 246.943 60.7256C247.497 60.4326 247.912 60.0257 248.188 59.5049C248.481 58.9678 248.62 58.3249 248.604 57.5762H256.343C256.359 59.5618 255.871 61.3034 254.878 62.8008C253.901 64.2819 252.567 65.4375 250.874 66.2676C249.198 67.0814 247.301 67.4883 245.186 67.4883C243.118 67.4883 241.312 67.1546 239.766 66.4873C238.219 65.8037 236.925 64.8597 235.884 63.6553C234.858 62.4346 234.085 61.0104 233.564 59.3828C233.06 57.7552 232.808 55.9893 232.808 54.085V53.5234C232.808 51.6191 233.06 49.8532 233.564 48.2256C234.085 46.5817 234.858 45.1576 235.884 43.9531C236.925 42.7324 238.211 41.7884 239.741 41.1211C241.287 40.4375 243.086 40.0957 245.137 40.0957C247.334 40.0957 249.271 40.5107 250.947 41.3408C252.64 42.1709 253.966 43.3753 254.927 44.9541C255.887 46.5329 256.359 48.4453 256.343 50.6914H248.604C248.62 49.8939 248.498 49.1777 248.237 48.543C247.977 47.9082 247.57 47.4036 247.017 47.0293C246.479 46.6387 245.788 46.4434 244.941 46.4434C244.095 46.4434 243.411 46.6305 242.891 47.0049C242.37 47.3792 241.971 47.9001 241.694 48.5674C241.434 49.2184 241.255 49.9671 241.157 50.8135C241.076 51.6598 241.035 52.5632 241.035 53.5234V54.085C241.035 55.0615 241.076 55.9811 241.157 56.8438C241.255 57.6901 241.442 58.4388 241.719 59.0898C241.995 59.7246 242.394 60.2292 242.915 60.6035C243.436 60.9616 244.128 61.1406 244.99 61.1406ZM268.55 40.584V67H260.298V40.584H268.55ZM259.81 33.7725C259.81 32.6006 260.233 31.6403 261.079 30.8916C261.925 30.1429 263.024 29.7686 264.375 29.7686C265.726 29.7686 266.825 30.1429 267.671 30.8916C268.517 31.6403 268.94 32.6006 268.94 33.7725C268.94 34.9443 268.517 35.9046 267.671 36.6533C266.825 37.402 265.726 37.7764 264.375 37.7764C263.024 37.7764 261.925 37.402 261.079 36.6533C260.233 35.9046 259.81 34.9443 259.81 33.7725ZM272.603 54.0605V53.5479C272.603 51.611 272.879 49.8288 273.433 48.2012C273.986 46.5573 274.8 45.1331 275.874 43.9287C276.948 42.7243 278.275 41.7884 279.854 41.1211C281.432 40.4375 283.255 40.0957 285.322 40.0957C287.406 40.0957 289.237 40.4375 290.815 41.1211C292.41 41.7884 293.745 42.7243 294.819 43.9287C295.894 45.1331 296.707 46.5573 297.261 48.2012C297.814 49.8288 298.091 51.611 298.091 53.5479V54.0605C298.091 55.9811 297.814 57.7633 297.261 59.4072C296.707 61.0348 295.894 62.459 294.819 63.6797C293.745 64.8841 292.419 65.82 290.84 66.4873C289.261 67.1546 287.438 67.4883 285.371 67.4883C283.304 67.4883 281.473 67.1546 279.878 66.4873C278.283 65.82 276.948 64.8841 275.874 63.6797C274.8 62.459 273.986 61.0348 273.433 59.4072C272.879 57.7633 272.603 55.9811 272.603 54.0605ZM280.83 53.5479V54.0605C280.83 55.0534 280.903 55.9811 281.05 56.8438C281.196 57.7064 281.44 58.4632 281.782 59.1143C282.124 59.749 282.588 60.2454 283.174 60.6035C283.76 60.9616 284.492 61.1406 285.371 61.1406C286.234 61.1406 286.95 60.9616 287.52 60.6035C288.105 60.2454 288.569 59.749 288.911 59.1143C289.253 58.4632 289.497 57.7064 289.644 56.8438C289.79 55.9811 289.863 55.0534 289.863 54.0605V53.5479C289.863 52.5876 289.79 51.6842 289.644 50.8379C289.497 49.9753 289.253 49.2184 288.911 48.5674C288.569 47.9001 288.105 47.3792 287.52 47.0049C286.934 46.6305 286.201 46.4434 285.322 46.4434C284.46 46.4434 283.735 46.6305 283.149 47.0049C282.58 47.3792 282.124 47.9001 281.782 48.5674C281.44 49.2184 281.196 49.9753 281.05 50.8379C280.903 51.6842 280.83 52.5876 280.83 53.5479Z" fill="#CD3D3D"/>
</svg>
