<svg width="28" height="28" viewBox="0 0 28 28" fill="none" xmlns="http://www.w3.org/2000/svg">
<rect x="0.1" y="0.1" width="27.8" height="27.8" rx="1.9" fill="#2A5642"/>
<path d="M17 9C17 6.79066 15.2089 5 13 5C10.7911 5 9 6.79066 9 9C9 11.2093 10.7911 13 13 13C15.2089 13 17 11.2093 17 9Z" fill="#41CE3E"/>
<path d="M16 13C15.2357 13.5784 14.0266 14 13 14C11.9535 14 10.7718 13.5987 10 13C5.10197 14.179 4.91052 18.2341 5.0085 21.979C5.0247 22.5984 5.3724 23.0001 6 23.0001L15 23V20.0001C15 18.9814 15.307 18.0001 17 18.0001L20.5 18C20.5 15 18.5 13 16 13Z" fill="#41CE3E"/>
<path d="M17 21H23M23 21L21.5 19.5M23 21L21.5 22.5" stroke="#41CE3E" stroke-linecap="round" stroke-linejoin="round"/>
<rect x="0.1" y="0.1" width="27.8" height="27.8" rx="1.9" stroke="black" stroke-width="0.2"/>
</svg>
