<svg width="28" height="28" viewBox="0 0 28 28" fill="none" xmlns="http://www.w3.org/2000/svg">
<rect x="0.1" y="0.1" width="27.8" height="27.8" rx="1.9" fill="#2A5642"/>
<path fill-rule="evenodd" clip-rule="evenodd" d="M9.92438 20C9.71698 20 9.55993 19.8126 9.59618 19.6084L10 17.3333H7.73007C7.52299 17.3333 7.36603 17.1465 7.40173 16.9425L7.51839 16.2759C7.54631 16.1164 7.68481 16 7.84674 16H10.2333L10.94 12H8.67007C8.46299 12 8.30603 11.8132 8.34173 11.6092L8.45839 10.9425C8.48631 10.783 8.62481 10.6667 8.78674 10.6667H11.1733L11.5978 8.27508C11.6261 8.11594 11.7644 8 11.926 8H12.5823C12.7897 8 12.9467 8.18738 12.9105 8.39159L12.5067 10.6667H16.5067L16.9312 8.27508C16.9594 8.11594 17.0977 8 17.2594 8H17.9156C18.123 8 18.2801 8.18738 18.2438 8.39159L17.84 10.6667H20.1099C20.317 10.6667 20.474 10.8535 20.4383 11.0575L20.3216 11.7241C20.2937 11.8836 20.1552 12 19.9933 12H17.6067L16.9 16H19.1699C19.377 16 19.534 16.1868 19.4983 16.3908L19.3816 17.0575C19.3537 17.2169 19.2152 17.3333 19.0533 17.3333H16.6667L16.2421 19.7249C16.2139 19.8841 16.0756 20 15.9139 20H15.2577C15.0503 20 14.8933 19.8126 14.9295 19.6084L15.3333 17.3333H11.3333L10.9088 19.7249C10.8806 19.8841 10.7422 20 10.5806 20H9.92438ZM12.2736 12L11.567 16H15.5669L16.2736 12H12.2736Z" fill="#41CE3E"/>
<rect x="0.1" y="0.1" width="27.8" height="27.8" rx="1.9" stroke="#1E1E1E" stroke-width="0.2"/>
</svg>
