<svg width="234" height="97" viewBox="0 0 234 97" fill="none" xmlns="http://www.w3.org/2000/svg">
<rect x="0.5" y="0.5" width="233" height="96" rx="4.5" fill="#655747" stroke="#653C0C"/>
<path d="M59.8457 55.8428V31.4531H68.3906V55.8428C68.3906 58.2191 67.8454 60.278 66.7549 62.0195C65.6807 63.7611 64.2158 65.112 62.3604 66.0723C60.5212 67.0163 58.4541 67.4883 56.1592 67.4883C53.7829 67.4883 51.667 67.0895 49.8115 66.292C47.9723 65.4945 46.5238 64.2656 45.4658 62.6055C44.4242 60.9453 43.9033 58.8294 43.9033 56.2578H52.4971C52.4971 57.4622 52.6354 58.4062 52.9121 59.0898C53.1888 59.7572 53.5957 60.2292 54.1328 60.5059C54.6862 60.7663 55.3617 60.8965 56.1592 60.8965C56.9404 60.8965 57.5996 60.7012 58.1367 60.3105C58.6901 59.9036 59.1133 59.3258 59.4062 58.5771C59.6992 57.8122 59.8457 56.9007 59.8457 55.8428ZM87.165 60.3594V49.4707C87.165 48.722 87.0592 48.0791 86.8477 47.542C86.6361 47.0049 86.3024 46.5898 85.8467 46.2969C85.391 45.9876 84.7806 45.833 84.0156 45.833C83.3971 45.833 82.8682 45.9388 82.4287 46.1504C81.9893 46.362 81.6556 46.6794 81.4277 47.1025C81.1999 47.5257 81.0859 48.0628 81.0859 48.7139H72.8584C72.8584 47.4932 73.127 46.362 73.6641 45.3203C74.2174 44.2624 74.9987 43.3428 76.0078 42.5615C77.0332 41.7803 78.2539 41.1781 79.6699 40.7549C81.1022 40.3154 82.6973 40.0957 84.4551 40.0957C86.5547 40.0957 88.4264 40.4456 90.0703 41.1455C91.7305 41.8454 93.0407 42.8952 94.001 44.2949C94.9613 45.6784 95.4414 47.4199 95.4414 49.5195V60.335C95.4414 62.0602 95.5391 63.3704 95.7344 64.2656C95.9297 65.1445 96.2064 65.9176 96.5645 66.585V67H88.3125C87.9219 66.1862 87.6289 65.1934 87.4336 64.0215C87.2546 62.8333 87.165 61.6126 87.165 60.3594ZM88.166 50.8623L88.2148 55.2568H84.5771C83.8122 55.2568 83.1611 55.3626 82.624 55.5742C82.1032 55.7858 81.68 56.0788 81.3545 56.4531C81.0452 56.8112 80.8174 57.2181 80.6709 57.6738C80.5407 58.1296 80.4756 58.6097 80.4756 59.1143C80.4756 59.6025 80.5895 60.042 80.8174 60.4326C81.0615 60.807 81.387 61.0999 81.7939 61.3115C82.2008 61.5231 82.6566 61.6289 83.1611 61.6289C84.0726 61.6289 84.8457 61.458 85.4805 61.1162C86.1315 60.7581 86.6279 60.3268 86.9697 59.8223C87.3115 59.3177 87.4824 58.8457 87.4824 58.4062L89.2891 61.7754C88.9635 62.4264 88.5892 63.0856 88.166 63.7529C87.7591 64.4202 87.2464 65.0387 86.6279 65.6084C86.0257 66.1618 85.2852 66.6175 84.4062 66.9756C83.5273 67.3174 82.4613 67.4883 81.208 67.4883C79.5804 67.4883 78.083 67.1546 76.7158 66.4873C75.3649 65.82 74.2826 64.8923 73.4688 63.7041C72.6549 62.4997 72.248 61.1162 72.248 59.5537C72.248 58.1865 72.4922 56.9658 72.9805 55.8916C73.485 54.8174 74.2419 53.9059 75.251 53.1572C76.2601 52.4085 77.5459 51.8389 79.1084 51.4482C80.6709 51.0576 82.5101 50.8623 84.626 50.8623H88.166ZM108.308 47.127V67H100.08V40.584H107.771L108.308 47.127ZM116.12 40.3887L115.974 48.0303C115.648 47.9977 115.209 47.957 114.655 47.9082C114.102 47.8594 113.638 47.835 113.264 47.835C112.303 47.835 111.473 47.9489 110.773 48.1768C110.09 48.3883 109.52 48.7139 109.064 49.1533C108.625 49.5765 108.299 50.1136 108.088 50.7646C107.893 51.4157 107.803 52.1725 107.819 53.0352L106.33 52.0586C106.33 50.2845 106.501 48.6732 106.843 47.2246C107.201 45.7598 107.705 44.4984 108.356 43.4404C109.007 42.3662 109.797 41.5443 110.725 40.9746C111.652 40.3887 112.694 40.0957 113.85 40.0957C114.257 40.0957 114.655 40.1201 115.046 40.1689C115.453 40.2178 115.811 40.291 116.12 40.3887ZM133.649 60.9453V29.5H141.926V67H134.504L133.649 60.9453ZM117.438 54.1094V53.5967C117.438 51.5947 117.658 49.7718 118.098 48.1279C118.537 46.4678 119.188 45.0436 120.051 43.8555C120.913 42.651 121.988 41.7233 123.273 41.0723C124.559 40.4212 126.04 40.0957 127.717 40.0957C129.214 40.0957 130.524 40.4456 131.647 41.1455C132.771 41.8291 133.731 42.7894 134.528 44.0264C135.326 45.2633 135.977 46.7119 136.481 48.3721C136.986 50.016 137.368 51.79 137.629 53.6943V54.3047C137.368 56.0951 136.986 57.7878 136.481 59.3828C135.977 60.9616 135.326 62.3613 134.528 63.582C133.731 64.8027 132.762 65.763 131.623 66.4629C130.5 67.1465 129.182 67.4883 127.668 67.4883C125.992 67.4883 124.51 67.1546 123.225 66.4873C121.955 65.82 120.889 64.8841 120.026 63.6797C119.18 62.4753 118.537 61.0592 118.098 59.4316C117.658 57.804 117.438 56.0299 117.438 54.1094ZM125.666 53.5967V54.1094C125.666 55.1022 125.731 56.0218 125.861 56.8682C125.992 57.7145 126.211 58.4632 126.521 59.1143C126.846 59.749 127.269 60.2454 127.79 60.6035C128.327 60.9616 128.986 61.1406 129.768 61.1406C130.826 61.1406 131.696 60.8883 132.38 60.3838C133.08 59.8792 133.592 59.1631 133.918 58.2354C134.26 57.3076 134.406 56.2171 134.357 54.9639V53.0352C134.39 51.9609 134.317 51.0169 134.138 50.2031C133.959 49.373 133.674 48.6813 133.283 48.1279C132.909 47.5745 132.429 47.1595 131.843 46.8828C131.273 46.5898 130.598 46.4434 129.816 46.4434C129.051 46.4434 128.4 46.6224 127.863 46.9805C127.342 47.3385 126.919 47.8431 126.594 48.4941C126.268 49.1289 126.032 49.8857 125.886 50.7646C125.739 51.6273 125.666 52.5713 125.666 53.5967ZM155.28 40.584V67H147.028V40.584H155.28ZM146.54 33.7725C146.54 32.6006 146.963 31.6403 147.81 30.8916C148.656 30.1429 149.755 29.7686 151.105 29.7686C152.456 29.7686 153.555 30.1429 154.401 30.8916C155.248 31.6403 155.671 32.6006 155.671 33.7725C155.671 34.9443 155.248 35.9046 154.401 36.6533C153.555 37.402 152.456 37.7764 151.105 37.7764C149.755 37.7764 148.656 37.402 147.81 36.6533C146.963 35.9046 146.54 34.9443 146.54 33.7725ZM168.659 46.1748V67H160.432V40.584H168.146L168.659 46.1748ZM167.658 52.8887L165.778 52.9375C165.778 51.082 165.998 49.373 166.438 47.8105C166.877 46.248 167.528 44.889 168.391 43.7334C169.253 42.5778 170.311 41.6826 171.564 41.0479C172.834 40.4131 174.299 40.0957 175.959 40.0957C177.115 40.0957 178.164 40.2747 179.108 40.6328C180.052 40.9746 180.866 41.5199 181.55 42.2686C182.233 43.001 182.754 43.9613 183.112 45.1494C183.487 46.3213 183.674 47.7292 183.674 49.373V67H175.446V50.4229C175.446 49.2998 175.316 48.4535 175.056 47.8838C174.812 47.3141 174.453 46.9316 173.981 46.7363C173.509 46.541 172.932 46.4434 172.248 46.4434C171.532 46.4434 170.889 46.6061 170.319 46.9316C169.75 47.2572 169.261 47.7129 168.854 48.2988C168.464 48.8685 168.163 49.5439 167.951 50.3252C167.756 51.1064 167.658 51.9609 167.658 52.8887ZM182.746 52.8887L180.451 52.9375C180.451 51.082 180.655 49.373 181.062 47.8105C181.485 46.248 182.111 44.889 182.941 43.7334C183.788 42.5778 184.838 41.6826 186.091 41.0479C187.344 40.4131 188.801 40.0957 190.461 40.0957C191.665 40.0957 192.772 40.2747 193.781 40.6328C194.79 40.9909 195.661 41.5687 196.394 42.3662C197.126 43.1637 197.696 44.2217 198.103 45.54C198.509 46.8421 198.713 48.4535 198.713 50.374V67H190.461V50.374C190.461 49.2835 190.331 48.4616 190.07 47.9082C189.826 47.3385 189.468 46.9561 188.996 46.7607C188.524 46.5492 187.963 46.4434 187.312 46.4434C186.53 46.4434 185.855 46.6061 185.285 46.9316C184.715 47.2572 184.235 47.7129 183.845 48.2988C183.47 48.8685 183.194 49.5439 183.015 50.3252C182.836 51.1064 182.746 51.9609 182.746 52.8887Z" fill="#432808"/>
</svg>
