<svg width="186" height="97" viewBox="0 0 186 97" fill="none" xmlns="http://www.w3.org/2000/svg">
<rect x="0.5" y="0.5" width="185" height="96" rx="4.5" fill="#FFD0FA" stroke="#ED56F0"/>
<path d="M36.958 31.4531H43.9404L51.875 56.1846L59.8096 31.4531H66.792L54.707 67H49.043L36.958 31.4531ZM32.71 31.4531H39.9365L41.2793 58.6992V67H32.71V31.4531ZM63.8135 31.4531H71.0645V67H62.4707V58.6992L63.8135 31.4531ZM75.1416 54.0605V53.5479C75.1416 51.611 75.4183 49.8288 75.9717 48.2012C76.5251 46.5573 77.3389 45.1331 78.4131 43.9287C79.4873 42.7243 80.8138 41.7884 82.3926 41.1211C83.9714 40.4375 85.7943 40.0957 87.8613 40.0957C89.9447 40.0957 91.7757 40.4375 93.3545 41.1211C94.9495 41.7884 96.2842 42.7243 97.3584 43.9287C98.4326 45.1331 99.2464 46.5573 99.7998 48.2012C100.353 49.8288 100.63 51.611 100.63 53.5479V54.0605C100.63 55.9811 100.353 57.7633 99.7998 59.4072C99.2464 61.0348 98.4326 62.459 97.3584 63.6797C96.2842 64.8841 94.9577 65.82 93.3789 66.4873C91.8001 67.1546 89.9772 67.4883 87.9102 67.4883C85.8431 67.4883 84.012 67.1546 82.417 66.4873C80.8219 65.82 79.4873 64.8841 78.4131 63.6797C77.3389 62.459 76.5251 61.0348 75.9717 59.4072C75.4183 57.7633 75.1416 55.9811 75.1416 54.0605ZM83.3691 53.5479V54.0605C83.3691 55.0534 83.4424 55.9811 83.5889 56.8438C83.7354 57.7064 83.9795 58.4632 84.3213 59.1143C84.6631 59.749 85.127 60.2454 85.7129 60.6035C86.2988 60.9616 87.0312 61.1406 87.9102 61.1406C88.7728 61.1406 89.4889 60.9616 90.0586 60.6035C90.6445 60.2454 91.1084 59.749 91.4502 59.1143C91.792 58.4632 92.0361 57.7064 92.1826 56.8438C92.3291 55.9811 92.4023 55.0534 92.4023 54.0605V53.5479C92.4023 52.5876 92.3291 51.6842 92.1826 50.8379C92.0361 49.9753 91.792 49.2184 91.4502 48.5674C91.1084 47.9001 90.6445 47.3792 90.0586 47.0049C89.4727 46.6305 88.7402 46.4434 87.8613 46.4434C86.9987 46.4434 86.2744 46.6305 85.6885 47.0049C85.1188 47.3792 84.6631 47.9001 84.3213 48.5674C83.9795 49.2184 83.7354 49.9753 83.5889 50.8379C83.4424 51.6842 83.3691 52.5876 83.3691 53.5479ZM119.478 60.9453V29.5H127.754V67H120.332L119.478 60.9453ZM103.267 54.1094V53.5967C103.267 51.5947 103.486 49.7718 103.926 48.1279C104.365 46.4678 105.016 45.0436 105.879 43.8555C106.742 42.651 107.816 41.7233 109.102 41.0723C110.387 40.4212 111.868 40.0957 113.545 40.0957C115.042 40.0957 116.353 40.4456 117.476 41.1455C118.599 41.8291 119.559 42.7894 120.356 44.0264C121.154 45.2633 121.805 46.7119 122.31 48.3721C122.814 50.016 123.197 51.79 123.457 53.6943V54.3047C123.197 56.0951 122.814 57.7878 122.31 59.3828C121.805 60.9616 121.154 62.3613 120.356 63.582C119.559 64.8027 118.59 65.763 117.451 66.4629C116.328 67.1465 115.01 67.4883 113.496 67.4883C111.82 67.4883 110.339 67.1546 109.053 66.4873C107.783 65.82 106.717 64.8841 105.854 63.6797C105.008 62.4753 104.365 61.0592 103.926 59.4316C103.486 57.804 103.267 56.0299 103.267 54.1094ZM111.494 53.5967V54.1094C111.494 55.1022 111.559 56.0218 111.689 56.8682C111.82 57.7145 112.039 58.4632 112.349 59.1143C112.674 59.749 113.097 60.2454 113.618 60.6035C114.155 60.9616 114.814 61.1406 115.596 61.1406C116.654 61.1406 117.524 60.8883 118.208 60.3838C118.908 59.8792 119.421 59.1631 119.746 58.2354C120.088 57.3076 120.234 56.2171 120.186 54.9639V53.0352C120.218 51.9609 120.145 51.0169 119.966 50.2031C119.787 49.373 119.502 48.6813 119.111 48.1279C118.737 47.5745 118.257 47.1595 117.671 46.8828C117.101 46.5898 116.426 46.4434 115.645 46.4434C114.88 46.4434 114.229 46.6224 113.691 46.9805C113.171 47.3385 112.747 47.8431 112.422 48.4941C112.096 49.1289 111.86 49.8857 111.714 50.7646C111.567 51.6273 111.494 52.5713 111.494 53.5967ZM146.138 60.3594V49.4707C146.138 48.722 146.032 48.0791 145.82 47.542C145.609 47.0049 145.275 46.5898 144.819 46.2969C144.364 45.9876 143.753 45.833 142.988 45.833C142.37 45.833 141.841 45.9388 141.401 46.1504C140.962 46.362 140.628 46.6794 140.4 47.1025C140.173 47.5257 140.059 48.0628 140.059 48.7139H131.831C131.831 47.4932 132.1 46.362 132.637 45.3203C133.19 44.2624 133.971 43.3428 134.98 42.5615C136.006 41.7803 137.227 41.1781 138.643 40.7549C140.075 40.3154 141.67 40.0957 143.428 40.0957C145.527 40.0957 147.399 40.4456 149.043 41.1455C150.703 41.8454 152.013 42.8952 152.974 44.2949C153.934 45.6784 154.414 47.4199 154.414 49.5195V60.335C154.414 62.0602 154.512 63.3704 154.707 64.2656C154.902 65.1445 155.179 65.9176 155.537 66.585V67H147.285C146.895 66.1862 146.602 65.1934 146.406 64.0215C146.227 62.8333 146.138 61.6126 146.138 60.3594ZM147.139 50.8623L147.188 55.2568H143.55C142.785 55.2568 142.134 55.3626 141.597 55.5742C141.076 55.7858 140.653 56.0788 140.327 56.4531C140.018 56.8112 139.79 57.2181 139.644 57.6738C139.513 58.1296 139.448 58.6097 139.448 59.1143C139.448 59.6025 139.562 60.042 139.79 60.4326C140.034 60.807 140.36 61.0999 140.767 61.3115C141.174 61.5231 141.629 61.6289 142.134 61.6289C143.045 61.6289 143.818 61.458 144.453 61.1162C145.104 60.7581 145.601 60.3268 145.942 59.8223C146.284 59.3177 146.455 58.8457 146.455 58.4062L148.262 61.7754C147.936 62.4264 147.562 63.0856 147.139 63.7529C146.732 64.4202 146.219 65.0387 145.601 65.6084C144.998 66.1618 144.258 66.6175 143.379 66.9756C142.5 67.3174 141.434 67.4883 140.181 67.4883C138.553 67.4883 137.056 67.1546 135.688 66.4873C134.338 65.82 133.255 64.8923 132.441 63.7041C131.628 62.4997 131.221 61.1162 131.221 59.5537C131.221 58.1865 131.465 56.9658 131.953 55.8916C132.458 54.8174 133.215 53.9059 134.224 53.1572C135.233 52.4085 136.519 51.8389 138.081 51.4482C139.644 51.0576 141.483 50.8623 143.599 50.8623H147.139Z" fill="#BD12C0"/>
</svg>
