<svg width="192" height="97" viewBox="0 0 192 97" fill="none" xmlns="http://www.w3.org/2000/svg">
<rect x="0.5" y="0.5" width="191" height="96" rx="4.5" fill="#D8F1DD" stroke="#3DCD58"/>
<path d="M75.3975 31.4531V67H66.8525L54.2793 44.8809V67H45.71V31.4531H54.2793L66.8525 53.5723V31.4531H75.3975ZM105.28 60.4082V67H86.335V60.4082H105.28ZM89.3867 31.4531V67H80.8174V31.4531H89.3867ZM102.839 45.5645V51.9365H86.335V45.5645H102.839ZM105.354 31.4531V38.0693H86.335V31.4531H105.354ZM116.999 63.7773L124.079 31.4531H128.303L130.598 34.2119L123.054 67H118.391L116.999 63.7773ZM115.119 31.4531L121.101 64.0215L119.562 67H114.167L106.623 31.4531H115.119ZM134.479 63.8506L140.412 31.4531H148.884L141.34 67H135.969L134.479 63.8506ZM131.354 31.4531L138.605 63.9727L137.141 67H132.478L124.763 34.1631L127.155 31.4531H131.354Z" fill="#3DCD58"/>
</svg>
