<svg width="511" height="298" viewBox="0 0 511 298" fill="none" xmlns="http://www.w3.org/2000/svg">
<g clip-path="url(#clip0_1042_2954)">
<rect width="511" height="298" fill="white"/>
<rect width="511" height="298" rx="8" fill="white"/>
<path d="M16.272 25.08C16.0693 25.08 15.8987 25.0107 15.76 24.872C15.6213 24.7333 15.552 24.5627 15.552 24.36V14.568C15.552 14.3653 15.6213 14.1947 15.76 14.056C15.8987 13.9067 16.0693 13.832 16.272 13.832H19.92C20.9333 13.832 21.76 14.0027 22.4 14.344C23.04 14.6853 23.4987 15.1227 23.776 15.656C24.0533 16.1893 24.192 16.7653 24.192 17.384C24.192 18.0027 24.0533 18.5787 23.776 19.112C23.4987 19.6453 23.04 20.0827 22.4 20.424C21.76 20.7653 20.9333 20.936 19.92 20.936H17.008V24.36C17.008 24.5627 16.9333 24.7333 16.784 24.872C16.6453 25.0107 16.4747 25.08 16.272 25.08ZM19.776 19.56C20.864 19.56 21.6267 19.352 22.064 18.936C22.512 18.52 22.736 18.0027 22.736 17.384C22.736 16.7653 22.512 16.248 22.064 15.832C21.6267 15.416 20.864 15.208 19.776 15.208H17.008V19.56H19.776ZM31.246 25.16C30.126 25.16 29.1447 24.9147 28.302 24.424C27.4593 23.9333 26.8087 23.256 26.35 22.392C25.8913 21.528 25.6513 20.536 25.63 19.416C25.6513 18.296 25.8913 17.304 26.35 16.44C26.8087 15.576 27.4593 14.8987 28.302 14.408C29.1447 13.9173 30.126 13.672 31.246 13.672C32.366 13.672 33.342 13.9173 34.174 14.408C35.0167 14.8987 35.6673 15.5813 36.126 16.456C36.5953 17.32 36.8407 18.3067 36.862 19.416C36.8407 20.5253 36.5953 21.5173 36.126 22.392C35.6673 23.256 35.0167 23.9333 34.174 24.424C33.342 24.9147 32.366 25.16 31.246 25.16ZM31.246 23.8C32.0993 23.8 32.8407 23.608 33.47 23.224C34.0993 22.84 34.5793 22.3173 34.91 21.656C35.2407 20.9947 35.406 20.248 35.406 19.416C35.406 18.584 35.2407 17.8373 34.91 17.176C34.5793 16.5147 34.0993 15.992 33.47 15.608C32.8407 15.224 32.0993 15.032 31.246 15.032C30.382 15.032 29.6353 15.224 29.006 15.608C28.3873 15.992 27.9127 16.5147 27.582 17.176C27.2513 17.8373 27.086 18.584 27.086 19.416C27.086 20.248 27.2513 20.9947 27.582 21.656C27.9127 22.3173 28.3873 22.84 29.006 23.224C29.6353 23.608 30.382 23.8 31.246 23.8ZM40.0064 25.08C39.8037 25.08 39.633 25.0107 39.4944 24.872C39.3557 24.7333 39.2864 24.5627 39.2864 24.36V14.808C39.2864 14.52 39.3877 14.2747 39.5904 14.072C39.793 13.8587 40.0384 13.752 40.3264 13.752H40.5344C40.8757 13.752 41.169 13.912 41.4144 14.232L47.5744 23.128V14.488C47.5744 14.2853 47.6437 14.1147 47.7824 13.976C47.921 13.8267 48.0917 13.752 48.2944 13.752C48.497 13.752 48.6677 13.8267 48.8064 13.976C48.9557 14.1147 49.0304 14.2853 49.0304 14.488V24.04C49.0304 24.328 48.9237 24.5733 48.7104 24.776C48.5077 24.9787 48.2624 25.08 47.9744 25.08H47.7824C47.6117 25.08 47.4517 25.0427 47.3024 24.968C47.153 24.8827 47.0304 24.776 46.9344 24.648L40.7424 15.704V24.36C40.7424 24.5627 40.6677 24.7333 40.5184 24.872C40.3797 25.0107 40.209 25.08 40.0064 25.08ZM55.4421 25.08C55.2395 25.08 55.0688 25.0107 54.9301 24.872C54.7915 24.7333 54.7221 24.5627 54.7221 24.36V15.192H51.4581C51.2661 15.192 51.1061 15.128 50.9781 15C50.8501 14.872 50.7861 14.712 50.7861 14.52C50.7861 14.328 50.8501 14.168 50.9781 14.04C51.1061 13.9013 51.2661 13.832 51.4581 13.832H59.4261C59.6181 13.832 59.7781 13.9013 59.9061 14.04C60.0448 14.168 60.1141 14.328 60.1141 14.52C60.1141 14.712 60.0448 14.872 59.9061 15C59.7781 15.128 59.6181 15.192 59.4261 15.192H56.1781V24.36C56.1781 24.5627 56.1035 24.7333 55.9541 24.872C55.8155 25.0107 55.6448 25.08 55.4421 25.08ZM66.3921 25.16C65.6348 25.16 64.9041 25 64.2001 24.68C63.4961 24.36 62.9201 23.8747 62.4721 23.224C62.0241 22.5627 61.8001 21.7573 61.8001 20.808V14.488C61.8001 14.2853 61.8695 14.1147 62.0081 13.976C62.1468 13.8267 62.3175 13.752 62.5201 13.752C62.7228 13.752 62.8935 13.8267 63.0321 13.976C63.1815 14.1147 63.2561 14.2853 63.2561 14.488V20.856C63.2561 21.496 63.4001 22.04 63.6881 22.488C63.9868 22.936 64.3761 23.272 64.8561 23.496C65.3361 23.72 65.8481 23.832 66.3921 23.832C66.9361 23.832 67.4481 23.72 67.9281 23.496C68.4081 23.272 68.7921 22.936 69.0801 22.488C69.3788 22.04 69.5281 21.496 69.5281 20.856V14.488C69.5281 14.2853 69.5975 14.1147 69.7361 13.976C69.8748 13.8267 70.0455 13.752 70.2481 13.752C70.4508 13.752 70.6215 13.8267 70.7601 13.976C70.9095 14.1147 70.9841 14.2853 70.9841 14.488V20.808C70.9841 21.7573 70.7601 22.5627 70.3121 23.224C69.8641 23.8747 69.2881 24.36 68.5841 24.68C67.8801 25 67.1495 25.16 66.3921 25.16ZM73.6606 25.08C73.4473 25.08 73.2713 25.0107 73.1326 24.872C73.0046 24.7333 72.9406 24.5627 72.9406 24.36C72.9406 24.2747 72.9673 24.168 73.0206 24.04L77.1006 14.408C77.186 14.216 77.3033 14.0613 77.4526 13.944C77.6126 13.816 77.8046 13.752 78.0286 13.752H78.1886C78.4126 13.752 78.5993 13.816 78.7486 13.944C78.9086 14.0613 79.0313 14.216 79.1166 14.408L83.1966 24.04C83.25 24.168 83.2766 24.2747 83.2766 24.36C83.2766 24.5627 83.2073 24.7333 83.0686 24.872C82.9406 25.0107 82.77 25.08 82.5566 25.08C82.4073 25.08 82.2686 25.0427 82.1406 24.968C82.0233 24.8827 81.9326 24.7707 81.8686 24.632L80.8286 22.136H75.3886L74.3486 24.632C74.2846 24.7707 74.1886 24.8827 74.0606 24.968C73.9433 25.0427 73.81 25.08 73.6606 25.08ZM75.9486 20.808H80.2686L78.1086 15.608L75.9486 20.808ZM93.6994 22.952C93.8914 22.952 94.046 23.0107 94.1634 23.128C94.2807 23.2453 94.3394 23.3893 94.3394 23.56C94.3394 23.8373 94.222 24.04 93.9874 24.168C93.4434 24.4773 92.894 24.7173 92.3394 24.888C91.7847 25.0587 91.1607 25.1493 90.4674 25.16L89.9714 26.008C90.142 25.9653 90.3234 25.944 90.5154 25.944C90.878 25.944 91.1714 26.0453 91.3954 26.248C91.63 26.4613 91.7474 26.7333 91.7474 27.064C91.7474 27.5547 91.5927 27.9227 91.2834 28.168C90.9847 28.4133 90.5474 28.536 89.9714 28.536C89.4594 28.536 88.9794 28.3973 88.5314 28.12C88.4887 28.088 88.446 28.0453 88.4034 27.992C88.3714 27.9493 88.3554 27.9013 88.3554 27.848C88.3554 27.7627 88.382 27.688 88.4354 27.624C88.4887 27.56 88.5634 27.528 88.6594 27.528C88.702 27.528 88.7554 27.544 88.8194 27.576C89.15 27.7573 89.4647 27.848 89.7634 27.848C90.3714 27.848 90.6754 27.6027 90.6754 27.112C90.6754 26.952 90.622 26.8293 90.5154 26.744C90.4087 26.6587 90.27 26.616 90.0994 26.616C89.8647 26.616 89.63 26.6747 89.3954 26.792C89.3314 26.824 89.278 26.84 89.2354 26.84C89.1607 26.84 89.0914 26.8133 89.0274 26.76C88.974 26.7173 88.9474 26.6587 88.9474 26.584C88.9474 26.4987 88.9687 26.424 89.0114 26.36L89.7794 25.144C88.8087 25.0587 87.9394 24.776 87.1714 24.296C86.414 23.8053 85.8167 23.144 85.3794 22.312C84.9527 21.48 84.7394 20.5147 84.7394 19.416C84.7394 18.2533 84.9794 17.24 85.4594 16.376C85.95 15.5013 86.6167 14.8347 87.4594 14.376C88.3127 13.9067 89.2727 13.672 90.3394 13.672C91.0647 13.672 91.71 13.7573 92.2754 13.928C92.8514 14.0987 93.422 14.344 93.9874 14.664C94.222 14.792 94.3394 14.9947 94.3394 15.272C94.3394 15.432 94.2807 15.576 94.1634 15.704C94.046 15.8213 93.8914 15.88 93.6994 15.88C93.5927 15.88 93.4967 15.8587 93.4114 15.816C92.942 15.5707 92.4834 15.384 92.0354 15.256C91.5874 15.128 91.07 15.064 90.4834 15.064C89.566 15.064 88.782 15.256 88.1314 15.64C87.4914 16.0133 87.006 16.5307 86.6754 17.192C86.3554 17.8427 86.1954 18.584 86.1954 19.416C86.1954 20.248 86.3554 20.9947 86.6754 21.656C87.006 22.3067 87.4914 22.824 88.1314 23.208C88.782 23.5813 89.566 23.768 90.4834 23.768C91.07 23.768 91.5874 23.704 92.0354 23.576C92.4834 23.448 92.942 23.2613 93.4114 23.016C93.4967 22.9733 93.5927 22.952 93.6994 22.952ZM96.5044 25.08C96.291 25.08 96.115 25.0107 95.9764 24.872C95.8484 24.7333 95.7844 24.5627 95.7844 24.36C95.7844 24.2747 95.811 24.168 95.8644 24.04L99.9444 14.408C100.03 14.216 100.147 14.0613 100.296 13.944C100.456 13.816 100.648 13.752 100.872 13.752H101.032C101.256 13.752 101.443 13.816 101.592 13.944C101.752 14.0613 101.875 14.216 101.96 14.408L106.04 24.04C106.094 24.168 106.12 24.2747 106.12 24.36C106.12 24.5627 106.051 24.7333 105.912 24.872C105.784 25.0107 105.614 25.08 105.4 25.08C105.251 25.08 105.112 25.0427 104.984 24.968C104.867 24.8827 104.776 24.7707 104.712 24.632L103.672 22.136H98.2324L97.1924 24.632C97.1284 24.7707 97.0324 24.8827 96.9044 24.968C96.787 25.0427 96.6537 25.08 96.5044 25.08ZM98.7924 20.808H103.112L100.952 15.608L98.7924 20.808ZM98.7444 13.112C98.6484 13.112 98.563 13.08 98.4884 13.016C98.4137 12.9413 98.3764 12.8507 98.3764 12.744C98.3764 12.52 98.4297 12.2907 98.5364 12.056C98.6537 11.8213 98.8137 11.624 99.0164 11.464C99.219 11.304 99.4537 11.224 99.7204 11.224C99.9337 11.224 100.131 11.256 100.312 11.32C100.504 11.384 100.734 11.48 101 11.608C101.246 11.7253 101.454 11.816 101.624 11.88C101.806 11.944 101.992 11.976 102.184 11.976C102.344 11.976 102.467 11.9387 102.552 11.864C102.648 11.7893 102.723 11.6827 102.776 11.544C102.862 11.32 102.995 11.208 103.176 11.208C103.283 11.208 103.368 11.2453 103.432 11.32C103.496 11.384 103.534 11.464 103.544 11.56C103.544 11.9333 103.416 12.28 103.16 12.6C102.904 12.92 102.584 13.08 102.2 13.08C101.987 13.08 101.784 13.048 101.592 12.984C101.4 12.9093 101.166 12.808 100.888 12.68C100.643 12.5627 100.435 12.472 100.264 12.408C100.094 12.344 99.9177 12.312 99.7364 12.312C99.459 12.312 99.251 12.4827 99.1124 12.824C99.0484 13.016 98.9257 13.112 98.7444 13.112ZM113.199 25.16C112.079 25.16 111.098 24.9147 110.255 24.424C109.412 23.9333 108.762 23.256 108.303 22.392C107.844 21.528 107.604 20.536 107.583 19.416C107.604 18.296 107.844 17.304 108.303 16.44C108.762 15.576 109.412 14.8987 110.255 14.408C111.098 13.9173 112.079 13.672 113.199 13.672C114.319 13.672 115.295 13.9173 116.127 14.408C116.97 14.8987 117.62 15.5813 118.079 16.456C118.548 17.32 118.794 18.3067 118.815 19.416C118.794 20.5253 118.548 21.5173 118.079 22.392C117.62 23.256 116.97 23.9333 116.127 24.424C115.295 24.9147 114.319 25.16 113.199 25.16ZM113.199 23.8C114.052 23.8 114.794 23.608 115.423 23.224C116.052 22.84 116.532 22.3173 116.863 21.656C117.194 20.9947 117.359 20.248 117.359 19.416C117.359 18.584 117.194 17.8373 116.863 17.176C116.532 16.5147 116.052 15.992 115.423 15.608C114.794 15.224 114.052 15.032 113.199 15.032C112.335 15.032 111.588 15.224 110.959 15.608C110.34 15.992 109.866 16.5147 109.535 17.176C109.204 17.8373 109.039 18.584 109.039 19.416C109.039 20.248 109.204 20.9947 109.535 21.656C109.866 22.3173 110.34 22.84 110.959 23.224C111.588 23.608 112.335 23.8 113.199 23.8ZM126.116 25C125.913 25 125.742 24.9307 125.604 24.792C125.465 24.6533 125.396 24.4827 125.396 24.28V14.568C125.396 14.3653 125.465 14.1947 125.604 14.056C125.742 13.9067 125.913 13.832 126.116 13.832H132.532C132.724 13.832 132.884 13.9013 133.012 14.04C133.15 14.168 133.22 14.328 133.22 14.52C133.22 14.712 133.15 14.872 133.012 15C132.884 15.128 132.724 15.192 132.532 15.192H126.852V18.728H131.956C132.148 18.728 132.308 18.7973 132.436 18.936C132.574 19.064 132.644 19.224 132.644 19.416C132.644 19.608 132.574 19.768 132.436 19.896C132.308 20.024 132.148 20.088 131.956 20.088H126.852V23.64H132.532C132.724 23.64 132.884 23.7093 133.012 23.848C133.15 23.976 133.22 24.136 133.22 24.328C133.22 24.52 133.15 24.68 133.012 24.808C132.884 24.936 132.724 25 132.532 25H126.116ZM140.475 25.08C140.272 25.08 140.102 25.0107 139.963 24.872C139.824 24.7333 139.755 24.5627 139.755 24.36V14.568C139.755 14.3653 139.824 14.1947 139.963 14.056C140.102 13.9067 140.272 13.832 140.475 13.832H144.123C145.136 13.832 145.963 14.0027 146.603 14.344C147.243 14.6853 147.702 15.1227 147.979 15.656C148.256 16.1893 148.395 16.7653 148.395 17.384C148.395 18.0027 148.256 18.5787 147.979 19.112C147.702 19.6453 147.243 20.0827 146.603 20.424C145.963 20.7653 145.136 20.936 144.123 20.936H141.211V24.36C141.211 24.5627 141.136 24.7333 140.987 24.872C140.848 25.0107 140.678 25.08 140.475 25.08ZM143.979 19.56C145.067 19.56 145.83 19.352 146.267 18.936C146.715 18.52 146.939 18.0027 146.939 17.384C146.939 16.7653 146.715 16.248 146.267 15.832C145.83 15.416 145.067 15.208 143.979 15.208H141.211V19.56H143.979ZM151.225 25.08C151.022 25.08 150.852 25.0107 150.713 24.872C150.574 24.7333 150.505 24.5627 150.505 24.36V14.568C150.505 14.3653 150.574 14.1947 150.713 14.056C150.852 13.9067 151.022 13.832 151.225 13.832H154.953C156.404 13.832 157.492 14.1307 158.217 14.728C158.942 15.3253 159.305 16.1093 159.305 17.08C159.305 17.72 159.124 18.3067 158.761 18.84C158.409 19.3627 157.892 19.7413 157.209 19.976C157.977 20.1787 158.5 20.6587 158.777 21.416C159.065 22.1627 159.209 22.8987 159.209 23.624V24.36C159.209 24.5627 159.14 24.7333 159.001 24.872C158.862 25.0107 158.692 25.08 158.489 25.08C158.265 25.08 158.084 25.016 157.945 24.888C157.817 24.7493 157.753 24.5733 157.753 24.36V23.88C157.753 23.3467 157.705 22.856 157.609 22.408C157.513 21.9493 157.284 21.544 156.921 21.192C156.558 20.8293 156.009 20.648 155.273 20.648H151.961V24.36C151.961 24.5627 151.886 24.7333 151.737 24.872C151.598 25.0107 151.428 25.08 151.225 25.08ZM154.857 19.272C155.774 19.272 156.5 19.0907 157.033 18.728C157.577 18.3653 157.849 17.8533 157.849 17.192C157.849 16.552 157.614 16.0613 157.145 15.72C156.686 15.3787 155.897 15.208 154.777 15.208H151.961V19.272H154.857ZM166.84 25.16C165.72 25.16 164.738 24.9147 163.896 24.424C163.053 23.9333 162.402 23.256 161.944 22.392C161.485 21.528 161.245 20.536 161.224 19.416C161.245 18.296 161.485 17.304 161.944 16.44C162.402 15.576 163.053 14.8987 163.896 14.408C164.738 13.9173 165.72 13.672 166.84 13.672C167.96 13.672 168.936 13.9173 169.768 14.408C170.61 14.8987 171.261 15.5813 171.72 16.456C172.189 17.32 172.434 18.3067 172.456 19.416C172.434 20.5253 172.189 21.5173 171.72 22.392C171.261 23.256 170.61 23.9333 169.768 24.424C168.936 24.9147 167.96 25.16 166.84 25.16ZM166.84 23.8C167.693 23.8 168.434 23.608 169.064 23.224C169.693 22.84 170.173 22.3173 170.504 21.656C170.834 20.9947 171 20.248 171 19.416C171 18.584 170.834 17.8373 170.504 17.176C170.173 16.5147 169.693 15.992 169.064 15.608C168.434 15.224 167.693 15.032 166.84 15.032C165.976 15.032 165.229 15.224 164.6 15.608C163.981 15.992 163.506 16.5147 163.176 17.176C162.845 17.8373 162.68 18.584 162.68 19.416C162.68 20.248 162.845 20.9947 163.176 21.656C163.506 22.3173 163.981 22.84 164.6 23.224C165.229 23.608 165.976 23.8 166.84 23.8ZM179.824 25.16C178.725 25.16 177.749 24.92 176.896 24.44C176.043 23.9493 175.381 23.272 174.912 22.408C174.443 21.5333 174.208 20.5413 174.208 19.432C174.208 18.3013 174.453 17.2987 174.944 16.424C175.435 15.5493 176.101 14.872 176.944 14.392C177.797 13.912 178.741 13.672 179.776 13.672C180.608 13.672 181.333 13.7733 181.952 13.976C182.581 14.1787 183.184 14.4613 183.76 14.824C183.845 14.8667 183.92 14.9413 183.984 15.048C184.048 15.1547 184.08 15.272 184.08 15.4C184.08 15.5813 184.016 15.736 183.888 15.864C183.771 15.992 183.611 16.056 183.408 16.056C183.291 16.056 183.179 16.0293 183.072 15.976C182.571 15.6773 182.069 15.4533 181.568 15.304C181.067 15.1547 180.523 15.08 179.936 15.08C179.125 15.08 178.395 15.2507 177.744 15.592C177.093 15.9333 176.581 16.4347 176.208 17.096C175.845 17.7467 175.664 18.5253 175.664 19.432C175.664 20.264 175.835 21.0107 176.176 21.672C176.528 22.3227 177.029 22.84 177.68 23.224C178.341 23.5973 179.12 23.784 180.016 23.784C181.019 23.784 181.952 23.5493 182.816 23.08V20.184H180.176C179.995 20.184 179.84 20.12 179.712 19.992C179.584 19.864 179.52 19.7093 179.52 19.528C179.52 19.3467 179.584 19.192 179.712 19.064C179.84 18.936 179.995 18.872 180.176 18.872H183.328C183.541 18.872 183.723 18.9467 183.872 19.096C184.021 19.2453 184.096 19.4267 184.096 19.64V23.272C184.096 23.496 184.037 23.6987 183.92 23.88C183.813 24.0507 183.669 24.1787 183.488 24.264C182.293 24.8613 181.072 25.16 179.824 25.16ZM187.71 25.08C187.507 25.08 187.336 25.0107 187.198 24.872C187.059 24.7333 186.99 24.5627 186.99 24.36V14.568C186.99 14.3653 187.059 14.1947 187.198 14.056C187.336 13.9067 187.507 13.832 187.71 13.832H191.438C192.888 13.832 193.976 14.1307 194.702 14.728C195.427 15.3253 195.79 16.1093 195.79 17.08C195.79 17.72 195.608 18.3067 195.246 18.84C194.894 19.3627 194.376 19.7413 193.694 19.976C194.462 20.1787 194.984 20.6587 195.262 21.416C195.55 22.1627 195.694 22.8987 195.694 23.624V24.36C195.694 24.5627 195.624 24.7333 195.486 24.872C195.347 25.0107 195.176 25.08 194.974 25.08C194.75 25.08 194.568 25.016 194.43 24.888C194.302 24.7493 194.238 24.5733 194.238 24.36V23.88C194.238 23.3467 194.19 22.856 194.094 22.408C193.998 21.9493 193.768 21.544 193.406 21.192C193.043 20.8293 192.494 20.648 191.758 20.648H188.446V24.36C188.446 24.5627 188.371 24.7333 188.222 24.872C188.083 25.0107 187.912 25.08 187.71 25.08ZM191.342 19.272C192.259 19.272 192.984 19.0907 193.517 18.728C194.062 18.3653 194.334 17.8533 194.334 17.192C194.334 16.552 194.099 16.0613 193.63 15.72C193.171 15.3787 192.382 15.208 191.262 15.208H188.446V19.272H191.342ZM199.1 25C198.897 25 198.727 24.9307 198.588 24.792C198.449 24.6533 198.38 24.4827 198.38 24.28V14.568C198.38 14.3653 198.449 14.1947 198.588 14.056C198.727 13.9067 198.897 13.832 199.1 13.832H205.516C205.708 13.832 205.868 13.9013 205.996 14.04C206.135 14.168 206.204 14.328 206.204 14.52C206.204 14.712 206.135 14.872 205.996 15C205.868 15.128 205.708 15.192 205.516 15.192H199.836V18.728H204.94C205.132 18.728 205.292 18.7973 205.42 18.936C205.559 19.064 205.628 19.224 205.628 19.416C205.628 19.608 205.559 19.768 205.42 19.896C205.292 20.024 205.132 20.088 204.94 20.088H199.836V23.64H205.516C205.708 23.64 205.868 23.7093 205.996 23.848C206.135 23.976 206.204 24.136 206.204 24.328C206.204 24.52 206.135 24.68 205.996 24.808C205.868 24.936 205.708 25 205.516 25H199.1ZM212.103 25.16C210.749 25.16 209.479 24.904 208.295 24.392C208.167 24.3387 208.061 24.2533 207.975 24.136C207.89 24.008 207.847 23.8747 207.847 23.736C207.847 23.5547 207.906 23.4 208.023 23.272C208.151 23.1333 208.311 23.064 208.503 23.064C208.61 23.064 208.711 23.0853 208.807 23.128C209.789 23.5653 210.839 23.784 211.959 23.784C213.826 23.784 214.759 23.1707 214.759 21.944C214.759 21.624 214.637 21.3573 214.391 21.144C214.157 20.9307 213.863 20.7653 213.511 20.648C213.159 20.52 212.658 20.3707 212.007 20.2C211.143 19.976 210.445 19.7627 209.911 19.56C209.378 19.3467 208.919 19.032 208.535 18.616C208.151 18.2 207.959 17.6453 207.959 16.952C207.959 16.344 208.119 15.7947 208.439 15.304C208.759 14.8027 209.229 14.408 209.847 14.12C210.477 13.8213 211.229 13.672 212.103 13.672C213.277 13.672 214.338 13.848 215.287 14.2C215.586 14.3067 215.735 14.52 215.735 14.84C215.735 15.0107 215.677 15.1653 215.559 15.304C215.442 15.4427 215.287 15.512 215.095 15.512C215.031 15.512 214.946 15.4907 214.839 15.448C214.007 15.16 213.149 15.016 212.263 15.016C211.421 15.016 210.733 15.176 210.199 15.496C209.677 15.816 209.415 16.264 209.415 16.84C209.415 17.224 209.538 17.5387 209.783 17.784C210.039 18.0187 210.354 18.2053 210.727 18.344C211.111 18.472 211.629 18.6107 212.279 18.76C213.122 18.9627 213.799 19.1653 214.311 19.368C214.834 19.5707 215.277 19.8853 215.639 20.312C216.013 20.7387 216.199 21.3147 216.199 22.04C216.199 22.6373 216.029 23.176 215.687 23.656C215.346 24.1253 214.866 24.4933 214.247 24.76C213.629 25.0267 212.914 25.16 212.103 25.16ZM221.963 25.16C220.608 25.16 219.339 24.904 218.155 24.392C218.027 24.3387 217.92 24.2533 217.835 24.136C217.749 24.008 217.707 23.8747 217.707 23.736C217.707 23.5547 217.765 23.4 217.883 23.272C218.011 23.1333 218.171 23.064 218.363 23.064C218.469 23.064 218.571 23.0853 218.667 23.128C219.648 23.5653 220.699 23.784 221.819 23.784C223.685 23.784 224.619 23.1707 224.619 21.944C224.619 21.624 224.496 21.3573 224.251 21.144C224.016 20.9307 223.723 20.7653 223.371 20.648C223.019 20.52 222.517 20.3707 221.867 20.2C221.003 19.976 220.304 19.7627 219.771 19.56C219.237 19.3467 218.779 19.032 218.395 18.616C218.011 18.2 217.819 17.6453 217.819 16.952C217.819 16.344 217.979 15.7947 218.299 15.304C218.619 14.8027 219.088 14.408 219.707 14.12C220.336 13.8213 221.088 13.672 221.963 13.672C223.136 13.672 224.197 13.848 225.147 14.2C225.445 14.3067 225.595 14.52 225.595 14.84C225.595 15.0107 225.536 15.1653 225.419 15.304C225.301 15.4427 225.147 15.512 224.955 15.512C224.891 15.512 224.805 15.4907 224.699 15.448C223.867 15.16 223.008 15.016 222.123 15.016C221.28 15.016 220.592 15.176 220.059 15.496C219.536 15.816 219.275 16.264 219.275 16.84C219.275 17.224 219.397 17.5387 219.643 17.784C219.899 18.0187 220.213 18.2053 220.587 18.344C220.971 18.472 221.488 18.6107 222.139 18.76C222.981 18.9627 223.659 19.1653 224.171 19.368C224.693 19.5707 225.136 19.8853 225.499 20.312C225.872 20.7387 226.059 21.3147 226.059 22.04C226.059 22.6373 225.888 23.176 225.547 23.656C225.205 24.1253 224.725 24.4933 224.107 24.76C223.488 25.0267 222.773 25.16 221.963 25.16ZM233.246 25.16C232.126 25.16 231.145 24.9147 230.302 24.424C229.459 23.9333 228.809 23.256 228.35 22.392C227.891 21.528 227.651 20.536 227.63 19.416C227.651 18.296 227.891 17.304 228.35 16.44C228.809 15.576 229.459 14.8987 230.302 14.408C231.145 13.9173 232.126 13.672 233.246 13.672C234.366 13.672 235.342 13.9173 236.174 14.408C237.017 14.8987 237.667 15.5813 238.126 16.456C238.595 17.32 238.841 18.3067 238.862 19.416C238.841 20.5253 238.595 21.5173 238.126 22.392C237.667 23.256 237.017 23.9333 236.174 24.424C235.342 24.9147 234.366 25.16 233.246 25.16ZM233.246 23.8C234.099 23.8 234.841 23.608 235.47 23.224C236.099 22.84 236.579 22.3173 236.91 21.656C237.241 20.9947 237.406 20.248 237.406 19.416C237.406 18.584 237.241 17.8373 236.91 17.176C236.579 16.5147 236.099 15.992 235.47 15.608C234.841 15.224 234.099 15.032 233.246 15.032C232.382 15.032 231.635 15.224 231.006 15.608C230.387 15.992 229.913 16.5147 229.582 17.176C229.251 17.8373 229.086 18.584 229.086 19.416C229.086 20.248 229.251 20.9947 229.582 21.656C229.913 22.3173 230.387 22.84 231.006 23.224C231.635 23.608 232.382 23.8 233.246 23.8Z" fill="black"/>
<path d="M319 132.5C319 144.466 315.305 156.163 308.383 166.112C301.46 176.061 291.621 183.816 280.109 188.395C268.597 192.974 255.93 194.172 243.709 191.838C231.489 189.503 220.263 183.741 211.452 175.28C202.642 166.819 196.641 156.039 194.211 144.303C191.78 132.567 193.027 120.403 197.796 109.348C202.564 98.2928 210.639 88.844 220.999 82.1962C231.359 75.5483 243.54 72 256 72" stroke="#62835F" stroke-width="15"/>
<path d="M256 72C268.46 72 280.641 75.5483 291.001 82.1961C301.361 88.8439 309.436 98.2927 314.204 109.348C318.973 120.403 320.22 132.567 317.789 144.303C315.359 156.039 309.358 166.819 300.548 175.28C291.737 183.741 280.512 189.503 268.291 191.837C256.07 194.172 243.403 192.974 231.891 188.395C220.379 183.816 210.54 176.061 203.618 166.112C196.695 156.163 193 144.466 193 132.5" stroke="#2DDB5E" stroke-width="15" stroke-linecap="round"/>
<path d="M219.956 140.252C219.321 140.252 218.808 140.112 218.416 139.832C218.024 139.533 217.8 139.141 217.744 138.656C217.688 138.171 217.819 137.639 218.136 137.06L225.892 122.976V124.46H218.024C217.333 124.46 216.792 124.283 216.4 123.928C216.027 123.573 215.84 123.051 215.84 122.36C215.84 121.669 216.027 121.147 216.4 120.792C216.792 120.437 217.333 120.26 218.024 120.26H228.552C229.243 120.26 229.812 120.447 230.26 120.82C230.727 121.193 230.96 121.725 230.96 122.416C230.96 123.013 230.867 123.536 230.68 123.984C230.512 124.413 230.297 124.871 230.036 125.356L222.868 138.628C222.569 139.207 222.187 139.627 221.72 139.888C221.272 140.131 220.684 140.252 219.956 140.252ZM240.189 140.308C238.602 140.308 237.23 140.084 236.073 139.636C234.916 139.169 234.029 138.507 233.413 137.648C232.797 136.789 232.489 135.772 232.489 134.596C232.489 133.644 232.676 132.804 233.049 132.076C233.441 131.348 233.973 130.76 234.645 130.312C235.317 129.845 236.082 129.565 236.941 129.472V130.284C235.784 130.041 234.841 129.472 234.113 128.576C233.385 127.68 233.021 126.607 233.021 125.356C233.021 124.217 233.31 123.247 233.889 122.444C234.468 121.641 235.298 121.025 236.381 120.596C237.464 120.167 238.733 119.952 240.189 119.952C241.664 119.952 242.933 120.167 243.997 120.596C245.08 121.025 245.91 121.641 246.489 122.444C247.068 123.247 247.357 124.217 247.357 125.356C247.357 126.196 247.189 126.971 246.853 127.68C246.536 128.371 246.088 128.94 245.509 129.388C244.949 129.836 244.296 130.125 243.549 130.256V129.472C244.818 129.659 245.854 130.219 246.657 131.152C247.478 132.067 247.889 133.215 247.889 134.596C247.889 135.772 247.581 136.789 246.965 137.648C246.349 138.507 245.462 139.169 244.305 139.636C243.166 140.084 241.794 140.308 240.189 140.308ZM240.189 136.444C241.178 136.444 241.934 136.257 242.457 135.884C242.98 135.492 243.241 134.932 243.241 134.204C243.241 133.457 242.98 132.897 242.457 132.524C241.934 132.151 241.178 131.964 240.189 131.964C239.2 131.964 238.444 132.151 237.921 132.524C237.398 132.897 237.137 133.457 237.137 134.204C237.137 134.932 237.398 135.492 237.921 135.884C238.444 136.257 239.2 136.444 240.189 136.444ZM240.189 128.072C240.73 128.072 241.188 127.988 241.561 127.82C241.934 127.652 242.214 127.409 242.401 127.092C242.606 126.756 242.709 126.373 242.709 125.944C242.709 125.291 242.485 124.777 242.037 124.404C241.589 124.012 240.973 123.816 240.189 123.816C239.405 123.816 238.789 124.012 238.341 124.404C237.912 124.777 237.697 125.291 237.697 125.944C237.697 126.597 237.912 127.12 238.341 127.512C238.789 127.885 239.405 128.072 240.189 128.072ZM252.386 140.168C251.546 140.168 250.874 139.916 250.37 139.412C249.885 138.908 249.642 138.245 249.642 137.424C249.642 136.621 249.885 135.977 250.37 135.492C250.874 134.988 251.546 134.736 252.386 134.736C253.263 134.736 253.935 134.988 254.402 135.492C254.887 135.977 255.13 136.621 255.13 137.424C255.13 138.245 254.887 138.908 254.402 139.412C253.935 139.916 253.263 140.168 252.386 140.168ZM265.391 140.308C263.655 140.308 262.18 139.916 260.967 139.132C259.772 138.348 258.858 137.219 258.223 135.744C257.588 134.251 257.271 132.44 257.271 130.312C257.271 128.688 257.476 127.232 257.887 125.944C258.298 124.656 258.895 123.573 259.679 122.696C260.463 121.8 261.415 121.119 262.535 120.652C263.655 120.185 264.924 119.952 266.343 119.952C267.108 119.952 267.883 120.045 268.667 120.232C269.451 120.419 270.198 120.699 270.907 121.072C271.355 121.296 271.663 121.604 271.831 121.996C271.999 122.369 272.055 122.771 271.999 123.2C271.962 123.611 271.822 123.984 271.579 124.32C271.336 124.637 271.01 124.861 270.599 124.992C270.207 125.123 269.759 125.076 269.255 124.852C268.695 124.591 268.172 124.413 267.687 124.32C267.202 124.227 266.735 124.18 266.287 124.18C265.354 124.18 264.579 124.376 263.963 124.768C263.347 125.141 262.88 125.72 262.563 126.504C262.246 127.269 262.087 128.231 262.087 129.388V130.844H261.667C261.835 130.041 262.143 129.36 262.591 128.8C263.039 128.221 263.59 127.783 264.243 127.484C264.915 127.185 265.662 127.036 266.483 127.036C267.584 127.036 268.564 127.316 269.423 127.876C270.282 128.417 270.963 129.173 271.467 130.144C271.971 131.115 272.223 132.216 272.223 133.448C272.223 134.792 271.934 135.977 271.355 137.004C270.776 138.031 269.974 138.843 268.947 139.44C267.92 140.019 266.735 140.308 265.391 140.308ZM265.111 136.388C265.596 136.388 266.016 136.276 266.371 136.052C266.744 135.828 267.024 135.511 267.211 135.1C267.416 134.689 267.519 134.213 267.519 133.672C267.519 133.112 267.416 132.636 267.211 132.244C267.024 131.833 266.744 131.516 266.371 131.292C266.016 131.049 265.596 130.928 265.111 130.928C264.644 130.928 264.224 131.049 263.851 131.292C263.496 131.516 263.216 131.833 263.011 132.244C262.806 132.636 262.703 133.112 262.703 133.672C262.703 134.213 262.806 134.689 263.011 135.1C263.216 135.511 263.496 135.828 263.851 136.052C264.224 136.276 264.644 136.388 265.111 136.388ZM283.16 139.496C282.917 139.925 282.609 140.205 282.236 140.336C281.863 140.485 281.499 140.513 281.144 140.42C280.789 140.327 280.481 140.149 280.22 139.888C279.959 139.627 279.8 139.3 279.744 138.908C279.688 138.516 279.781 138.105 280.024 137.676L289.824 120.792C290.085 120.344 290.393 120.055 290.748 119.924C291.103 119.775 291.457 119.747 291.812 119.84C292.185 119.933 292.493 120.12 292.736 120.4C292.997 120.661 293.156 120.988 293.212 121.38C293.287 121.753 293.193 122.155 292.932 122.584L283.16 139.496ZM279.1 132.02C277.42 132.02 276.113 131.469 275.18 130.368C274.265 129.248 273.808 127.773 273.808 125.944C273.808 124.712 274.023 123.648 274.452 122.752C274.881 121.856 275.488 121.165 276.272 120.68C277.056 120.195 277.999 119.952 279.1 119.952C280.761 119.952 282.049 120.503 282.964 121.604C283.897 122.687 284.364 124.133 284.364 125.944C284.364 127.157 284.149 128.221 283.72 129.136C283.309 130.051 282.712 130.76 281.928 131.264C281.144 131.768 280.201 132.02 279.1 132.02ZM279.1 128.94C279.38 128.94 279.613 128.847 279.8 128.66C280.005 128.455 280.155 128.137 280.248 127.708C280.36 127.26 280.416 126.672 280.416 125.944C280.416 124.843 280.295 124.077 280.052 123.648C279.828 123.219 279.511 123.004 279.1 123.004C278.801 123.004 278.549 123.097 278.344 123.284C278.157 123.452 278.008 123.751 277.896 124.18C277.803 124.609 277.756 125.197 277.756 125.944C277.756 127.064 277.868 127.848 278.092 128.296C278.316 128.725 278.652 128.94 279.1 128.94ZM293.884 140.308C292.223 140.308 290.925 139.757 289.992 138.656C289.077 137.555 288.62 136.089 288.62 134.26C288.62 133.009 288.825 131.936 289.236 131.04C289.665 130.144 290.272 129.453 291.056 128.968C291.859 128.483 292.801 128.24 293.884 128.24C295.545 128.24 296.843 128.791 297.776 129.892C298.709 130.993 299.176 132.449 299.176 134.26C299.176 135.473 298.961 136.537 298.532 137.452C298.121 138.348 297.524 139.048 296.74 139.552C295.956 140.056 295.004 140.308 293.884 140.308ZM293.884 137.256C294.183 137.256 294.425 137.163 294.612 136.976C294.817 136.771 294.967 136.453 295.06 136.024C295.172 135.576 295.228 134.988 295.228 134.26C295.228 133.159 295.107 132.393 294.864 131.964C294.64 131.535 294.313 131.32 293.884 131.32C293.604 131.32 293.361 131.413 293.156 131.6C292.969 131.768 292.82 132.067 292.708 132.496C292.615 132.907 292.568 133.495 292.568 134.26C292.568 135.38 292.68 136.164 292.904 136.612C293.128 137.041 293.455 137.256 293.884 137.256Z" fill="black"/>
<path d="M204.267 241.22C202.478 241.22 200.916 240.795 199.581 239.944C199.435 239.841 199.325 239.739 199.251 239.636C199.178 239.519 199.141 239.357 199.141 239.152C199.141 238.888 199.222 238.668 199.383 238.492C199.545 238.301 199.757 238.206 200.021 238.206C200.183 238.206 200.337 238.243 200.483 238.316C201.642 238.932 202.815 239.24 204.003 239.24C205.397 239.24 206.46 239.005 207.193 238.536C207.927 238.067 208.293 237.267 208.293 236.138C208.293 235.229 207.985 234.51 207.369 233.982C206.768 233.454 205.939 233.19 204.883 233.19C203.666 233.19 202.537 233.505 201.495 234.136C201.466 234.151 201.378 234.202 201.231 234.29C201.099 234.363 200.931 234.4 200.725 234.4C200.315 234.4 199.97 234.283 199.691 234.048C199.413 233.813 199.273 233.505 199.273 233.124C199.273 232.948 199.288 232.772 199.317 232.596L200.307 226.744C200.351 226.407 200.476 226.143 200.681 225.952C200.901 225.747 201.165 225.644 201.473 225.644H208.535C208.799 225.644 209.019 225.739 209.195 225.93C209.386 226.106 209.481 226.326 209.481 226.59C209.481 226.854 209.386 227.074 209.195 227.25C209.019 227.426 208.799 227.514 208.535 227.514H202.155L201.451 232.178C202.566 231.577 203.805 231.276 205.169 231.276C206.255 231.276 207.179 231.489 207.941 231.914C208.719 232.339 209.305 232.926 209.701 233.674C210.097 234.422 210.295 235.28 210.295 236.248C210.295 237.729 209.789 238.932 208.777 239.856C207.765 240.765 206.262 241.22 204.267 241.22ZM216.608 241.11C216.329 241.11 216.095 241.015 215.904 240.824C215.713 240.633 215.618 240.399 215.618 240.12C215.618 239.944 215.662 239.768 215.75 239.592L221.8 227.558H213.814C213.55 227.558 213.323 227.47 213.132 227.294C212.956 227.103 212.868 226.876 212.868 226.612C212.868 226.348 212.956 226.121 213.132 225.93C213.323 225.739 213.55 225.644 213.814 225.644H222.79C223.142 225.644 223.435 225.754 223.67 225.974C223.905 226.194 224.022 226.473 224.022 226.81C224.022 227.133 223.949 227.455 223.802 227.778L217.554 240.56C217.466 240.721 217.334 240.853 217.158 240.956C216.982 241.059 216.799 241.11 216.608 241.11ZM232.27 241.22C230.334 241.22 228.853 240.509 227.826 239.086C226.814 237.663 226.308 235.742 226.308 233.322C226.308 230.902 226.814 228.981 227.826 227.558C228.853 226.135 230.334 225.424 232.27 225.424C234.192 225.424 235.666 226.135 236.692 227.558C237.719 228.981 238.232 230.902 238.232 233.322C238.232 235.742 237.719 237.663 236.692 239.086C235.666 240.509 234.192 241.22 232.27 241.22ZM232.27 239.372C233.546 239.372 234.522 238.837 235.196 237.766C235.886 236.695 236.23 235.214 236.23 233.322C236.23 231.445 235.886 229.971 235.196 228.9C234.522 227.829 233.546 227.294 232.27 227.294C230.994 227.294 230.012 227.829 229.322 228.9C228.648 229.971 228.31 231.445 228.31 233.322C228.31 235.214 228.648 236.695 229.322 237.766C230.012 238.837 230.994 239.372 232.27 239.372ZM248.703 241.11C248.424 241.11 248.189 241.015 247.999 240.824C247.808 240.633 247.713 240.399 247.713 240.12V237.128H241.003C240.651 237.128 240.35 237.011 240.101 236.776C239.851 236.527 239.727 236.226 239.727 235.874V235.676C239.727 235.368 239.815 235.104 239.991 234.884L246.899 226.062C247.016 225.901 247.17 225.776 247.361 225.688C247.566 225.585 247.779 225.534 247.999 225.534H248.439C248.82 225.534 249.128 225.659 249.363 225.908C249.597 226.143 249.715 226.443 249.715 226.81V235.346H251.387C251.636 235.346 251.849 235.434 252.025 235.61C252.201 235.786 252.289 235.999 252.289 236.248C252.289 236.497 252.201 236.71 252.025 236.886C251.849 237.047 251.636 237.128 251.387 237.128H249.715V240.12C249.715 240.399 249.612 240.633 249.407 240.824C249.216 241.015 248.981 241.11 248.703 241.11ZM241.861 235.346H247.713V227.8L241.861 235.346Z" fill="black"/>
<path d="M262.171 232.465V245.062H260.999V230.434H262.093L262.171 232.465ZM269.515 235.619V235.824C269.515 236.612 269.424 237.335 269.241 237.992C269.059 238.65 268.795 239.219 268.45 239.701C268.112 240.176 267.692 240.544 267.19 240.805C266.689 241.065 266.119 241.195 265.481 241.195C264.85 241.195 264.287 241.098 263.792 240.902C263.297 240.707 262.871 240.43 262.513 240.072C262.161 239.708 261.878 239.285 261.663 238.803C261.455 238.314 261.308 237.781 261.224 237.201V234.496C261.321 233.858 261.481 233.279 261.702 232.758C261.924 232.237 262.207 231.788 262.552 231.41C262.903 231.033 263.32 230.743 263.802 230.541C264.284 230.339 264.834 230.238 265.452 230.238C266.097 230.238 266.67 230.365 267.171 230.619C267.679 230.867 268.105 231.228 268.45 231.703C268.802 232.172 269.065 232.738 269.241 233.402C269.424 234.06 269.515 234.799 269.515 235.619ZM268.343 235.824V235.619C268.343 235.001 268.278 234.428 268.147 233.9C268.024 233.373 267.832 232.914 267.571 232.523C267.317 232.126 266.992 231.817 266.595 231.596C266.204 231.374 265.739 231.264 265.198 231.264C264.638 231.264 264.16 231.358 263.763 231.547C263.372 231.729 263.047 231.973 262.786 232.279C262.526 232.579 262.321 232.908 262.171 233.266C262.021 233.624 261.91 233.975 261.839 234.32V237.436C261.963 237.93 262.161 238.389 262.435 238.812C262.708 239.229 263.073 239.564 263.528 239.818C263.991 240.066 264.554 240.189 265.218 240.189C265.752 240.189 266.214 240.079 266.604 239.857C266.995 239.636 267.317 239.327 267.571 238.93C267.832 238.533 268.024 238.07 268.147 237.543C268.278 237.016 268.343 236.443 268.343 235.824ZM271.468 235.883V235.561C271.468 234.792 271.578 234.083 271.8 233.432C272.021 232.781 272.337 232.217 272.747 231.742C273.164 231.267 273.662 230.899 274.241 230.639C274.821 230.372 275.465 230.238 276.175 230.238C276.891 230.238 277.539 230.372 278.118 230.639C278.698 230.899 279.196 231.267 279.612 231.742C280.029 232.217 280.348 232.781 280.569 233.432C280.791 234.083 280.901 234.792 280.901 235.561V235.883C280.901 236.651 280.791 237.361 280.569 238.012C280.348 238.656 280.029 239.216 279.612 239.691C279.202 240.167 278.707 240.538 278.128 240.805C277.549 241.065 276.904 241.195 276.194 241.195C275.478 241.195 274.83 241.065 274.251 240.805C273.672 240.538 273.174 240.167 272.757 239.691C272.34 239.216 272.021 238.656 271.8 238.012C271.578 237.361 271.468 236.651 271.468 235.883ZM272.63 235.561V235.883C272.63 236.462 272.708 237.012 272.864 237.533C273.021 238.048 273.248 238.507 273.548 238.91C273.847 239.307 274.218 239.62 274.661 239.848C275.104 240.076 275.615 240.189 276.194 240.189C276.767 240.189 277.272 240.076 277.708 239.848C278.151 239.62 278.522 239.307 278.821 238.91C279.121 238.507 279.345 238.048 279.495 237.533C279.651 237.012 279.729 236.462 279.729 235.883V235.561C279.729 234.988 279.651 234.444 279.495 233.93C279.345 233.415 279.118 232.956 278.812 232.553C278.512 232.149 278.141 231.83 277.698 231.596C277.256 231.361 276.748 231.244 276.175 231.244C275.602 231.244 275.094 231.361 274.651 231.596C274.215 231.83 273.844 232.149 273.538 232.553C273.239 232.956 273.011 233.415 272.854 233.93C272.705 234.444 272.63 234.988 272.63 235.561ZM284.485 232.689V241H283.323V230.434H284.437L284.485 232.689ZM284.222 235.062L283.704 234.77C283.743 234.145 283.87 233.559 284.085 233.012C284.3 232.465 284.59 231.983 284.954 231.566C285.325 231.15 285.758 230.824 286.253 230.59C286.754 230.355 287.308 230.238 287.913 230.238C288.44 230.238 288.912 230.31 289.329 230.453C289.746 230.596 290.101 230.824 290.394 231.137C290.687 231.449 290.908 231.85 291.058 232.338C291.214 232.826 291.292 233.422 291.292 234.125V241H290.12V234.115C290.12 233.386 290.019 232.816 289.817 232.406C289.616 231.99 289.329 231.693 288.958 231.518C288.587 231.342 288.147 231.254 287.64 231.254C287.08 231.254 286.588 231.378 286.165 231.625C285.748 231.866 285.397 232.182 285.11 232.572C284.83 232.956 284.616 233.37 284.466 233.812C284.316 234.249 284.235 234.665 284.222 235.062ZM298.313 230.434V231.391H293.021V230.434H298.313ZM294.964 227.719H296.126V238.432C296.126 238.92 296.191 239.288 296.321 239.535C296.451 239.783 296.621 239.949 296.829 240.033C297.037 240.118 297.262 240.16 297.503 240.16C297.679 240.16 297.848 240.15 298.011 240.131C298.174 240.105 298.32 240.079 298.45 240.053L298.499 241.039C298.356 241.085 298.17 241.12 297.942 241.146C297.715 241.179 297.487 241.195 297.259 241.195C296.81 241.195 296.412 241.114 296.067 240.951C295.722 240.782 295.452 240.495 295.257 240.092C295.062 239.682 294.964 239.125 294.964 238.422V227.719ZM299.925 235.883V235.561C299.925 234.792 300.035 234.083 300.257 233.432C300.478 232.781 300.794 232.217 301.204 231.742C301.621 231.267 302.119 230.899 302.698 230.639C303.278 230.372 303.922 230.238 304.632 230.238C305.348 230.238 305.996 230.372 306.575 230.639C307.155 230.899 307.653 231.267 308.069 231.742C308.486 232.217 308.805 232.781 309.026 233.432C309.248 234.083 309.358 234.792 309.358 235.561V235.883C309.358 236.651 309.248 237.361 309.026 238.012C308.805 238.656 308.486 239.216 308.069 239.691C307.659 240.167 307.164 240.538 306.585 240.805C306.006 241.065 305.361 241.195 304.651 241.195C303.935 241.195 303.287 241.065 302.708 240.805C302.129 240.538 301.631 240.167 301.214 239.691C300.797 239.216 300.478 238.656 300.257 238.012C300.035 237.361 299.925 236.651 299.925 235.883ZM301.087 235.561V235.883C301.087 236.462 301.165 237.012 301.321 237.533C301.478 238.048 301.705 238.507 302.005 238.91C302.304 239.307 302.675 239.62 303.118 239.848C303.561 240.076 304.072 240.189 304.651 240.189C305.224 240.189 305.729 240.076 306.165 239.848C306.608 239.62 306.979 239.307 307.278 238.91C307.578 238.507 307.802 238.048 307.952 237.533C308.108 237.012 308.187 236.462 308.187 235.883V235.561C308.187 234.988 308.108 234.444 307.952 233.93C307.802 233.415 307.575 232.956 307.269 232.553C306.969 232.149 306.598 231.83 306.155 231.596C305.713 231.361 305.205 231.244 304.632 231.244C304.059 231.244 303.551 231.361 303.108 231.596C302.672 231.83 302.301 232.149 301.995 232.553C301.696 232.956 301.468 233.415 301.312 233.93C301.162 234.444 301.087 234.988 301.087 235.561ZM318.108 238.305C318.108 238.018 318.037 237.735 317.894 237.455C317.75 237.175 317.474 236.918 317.063 236.684C316.66 236.449 316.064 236.251 315.276 236.088C314.69 235.958 314.166 235.811 313.704 235.648C313.248 235.486 312.864 235.29 312.552 235.062C312.239 234.835 312.002 234.561 311.839 234.242C311.676 233.923 311.595 233.546 311.595 233.109C311.595 232.719 311.679 232.351 311.849 232.006C312.024 231.654 312.272 231.348 312.591 231.088C312.916 230.821 313.307 230.613 313.763 230.463C314.225 230.313 314.743 230.238 315.315 230.238C316.129 230.238 316.826 230.378 317.405 230.658C317.991 230.932 318.437 231.306 318.743 231.781C319.056 232.257 319.212 232.794 319.212 233.393H318.05C318.05 233.028 317.942 232.683 317.728 232.357C317.519 232.032 317.21 231.765 316.8 231.557C316.396 231.348 315.901 231.244 315.315 231.244C314.71 231.244 314.218 231.335 313.841 231.518C313.463 231.7 313.187 231.931 313.011 232.211C312.841 232.491 312.757 232.781 312.757 233.08C312.757 233.314 312.793 233.529 312.864 233.725C312.942 233.913 313.079 234.089 313.274 234.252C313.476 234.415 313.763 234.568 314.134 234.711C314.505 234.854 314.987 234.994 315.579 235.131C316.432 235.32 317.129 235.551 317.669 235.824C318.216 236.091 318.619 236.423 318.88 236.82C319.14 237.211 319.271 237.686 319.271 238.246C319.271 238.682 319.179 239.083 318.997 239.447C318.815 239.805 318.551 240.115 318.206 240.375C317.868 240.635 317.457 240.837 316.976 240.98C316.5 241.124 315.966 241.195 315.374 241.195C314.482 241.195 313.727 241.049 313.108 240.756C312.496 240.456 312.031 240.066 311.712 239.584C311.399 239.096 311.243 238.578 311.243 238.031H312.405C312.444 238.578 312.617 239.011 312.923 239.33C313.229 239.643 313.603 239.864 314.046 239.994C314.495 240.124 314.938 240.189 315.374 240.189C315.973 240.189 316.474 240.102 316.878 239.926C317.282 239.75 317.588 239.519 317.796 239.232C318.004 238.946 318.108 238.637 318.108 238.305ZM215.24 262.105V256.656C215.24 256.155 215.136 255.722 214.928 255.357C214.719 254.993 214.413 254.713 214.01 254.518C213.606 254.322 213.108 254.225 212.516 254.225C211.969 254.225 211.48 254.322 211.051 254.518C210.628 254.706 210.292 254.964 210.045 255.289C209.804 255.608 209.684 255.963 209.684 256.354L208.512 256.344C208.512 255.947 208.609 255.562 208.805 255.191C209 254.82 209.277 254.488 209.635 254.195C209.993 253.902 210.419 253.671 210.914 253.502C211.415 253.326 211.965 253.238 212.564 253.238C213.32 253.238 213.984 253.365 214.557 253.619C215.136 253.873 215.589 254.254 215.914 254.762C216.24 255.27 216.402 255.908 216.402 256.676V261.783C216.402 262.148 216.428 262.525 216.48 262.916C216.539 263.307 216.62 263.629 216.725 263.883V264H215.484C215.406 263.766 215.344 263.473 215.299 263.121C215.26 262.763 215.24 262.424 215.24 262.105ZM215.514 257.848L215.533 258.746H213.238C212.639 258.746 212.102 258.801 211.627 258.912C211.158 259.016 210.761 259.173 210.436 259.381C210.11 259.583 209.859 259.827 209.684 260.113C209.514 260.4 209.43 260.725 209.43 261.09C209.43 261.467 209.524 261.812 209.713 262.125C209.908 262.438 210.182 262.688 210.533 262.877C210.891 263.059 211.314 263.15 211.803 263.15C212.454 263.15 213.027 263.03 213.521 262.789C214.023 262.548 214.436 262.232 214.762 261.842C215.087 261.451 215.305 261.025 215.416 260.562L215.924 261.236C215.839 261.562 215.683 261.897 215.455 262.242C215.234 262.581 214.944 262.9 214.586 263.199C214.228 263.492 213.805 263.733 213.316 263.922C212.835 264.104 212.288 264.195 211.676 264.195C210.986 264.195 210.383 264.065 209.869 263.805C209.361 263.544 208.964 263.189 208.678 262.74C208.398 262.285 208.258 261.77 208.258 261.197C208.258 260.676 208.368 260.211 208.59 259.801C208.811 259.384 209.13 259.033 209.547 258.746C209.97 258.453 210.478 258.232 211.07 258.082C211.669 257.926 212.34 257.848 213.082 257.848H215.514ZM223.434 263.189C223.928 263.189 224.391 263.098 224.82 262.916C225.257 262.727 225.615 262.451 225.895 262.086C226.181 261.715 226.344 261.262 226.383 260.729H227.496C227.464 261.399 227.258 261.998 226.881 262.525C226.51 263.046 226.021 263.456 225.416 263.756C224.817 264.049 224.156 264.195 223.434 264.195C222.698 264.195 222.047 264.062 221.48 263.795C220.921 263.528 220.452 263.157 220.074 262.682C219.697 262.2 219.41 261.64 219.215 261.002C219.026 260.357 218.932 259.664 218.932 258.922V258.512C218.932 257.77 219.026 257.079 219.215 256.441C219.41 255.797 219.697 255.237 220.074 254.762C220.452 254.28 220.921 253.906 221.48 253.639C222.04 253.372 222.688 253.238 223.424 253.238C224.179 253.238 224.856 253.391 225.455 253.697C226.061 254.003 226.542 254.436 226.9 254.996C227.265 255.556 227.464 256.22 227.496 256.988H226.383C226.35 256.422 226.201 255.934 225.934 255.523C225.667 255.113 225.315 254.798 224.879 254.576C224.443 254.355 223.958 254.244 223.424 254.244C222.825 254.244 222.314 254.361 221.891 254.596C221.467 254.824 221.122 255.139 220.855 255.543C220.595 255.94 220.403 256.396 220.279 256.91C220.156 257.418 220.094 257.952 220.094 258.512V258.922C220.094 259.488 220.152 260.029 220.27 260.543C220.393 261.051 220.585 261.503 220.846 261.9C221.113 262.298 221.458 262.613 221.881 262.848C222.311 263.076 222.828 263.189 223.434 263.189ZM236.617 261.559V253.434H237.789V264H236.666L236.617 261.559ZM236.832 259.605L237.438 259.586C237.438 260.25 237.359 260.862 237.203 261.422C237.047 261.982 236.803 262.47 236.471 262.887C236.139 263.303 235.709 263.626 235.182 263.854C234.654 264.081 234.02 264.195 233.277 264.195C232.763 264.195 232.291 264.124 231.861 263.98C231.438 263.831 231.074 263.596 230.768 263.277C230.462 262.958 230.224 262.545 230.055 262.037C229.892 261.529 229.811 260.914 229.811 260.191V253.434H230.973V260.211C230.973 260.777 231.035 261.249 231.158 261.627C231.288 262.005 231.464 262.307 231.686 262.535C231.913 262.763 232.174 262.926 232.467 263.023C232.76 263.121 233.076 263.17 233.414 263.17C234.273 263.17 234.951 263.004 235.445 262.672C235.947 262.34 236.301 261.904 236.51 261.363C236.725 260.816 236.832 260.23 236.832 259.605ZM241.949 255.621V264H240.777V253.434H241.9L241.949 255.621ZM241.734 258.062L241.168 257.77C241.207 257.145 241.324 256.559 241.52 256.012C241.721 255.465 242.001 254.983 242.359 254.566C242.717 254.15 243.147 253.824 243.648 253.59C244.15 253.355 244.719 253.238 245.357 253.238C245.872 253.238 246.337 253.31 246.754 253.453C247.177 253.59 247.535 253.808 247.828 254.107C248.128 254.4 248.359 254.785 248.521 255.26C248.684 255.735 248.766 256.305 248.766 256.969V264H247.604V257.008C247.604 256.305 247.493 255.755 247.271 255.357C247.057 254.96 246.754 254.677 246.363 254.508C245.979 254.339 245.533 254.254 245.025 254.254C244.426 254.254 243.919 254.378 243.502 254.625C243.092 254.866 242.757 255.182 242.496 255.572C242.242 255.956 242.053 256.37 241.93 256.812C241.806 257.249 241.741 257.665 241.734 258.062ZM248.756 257.145L247.975 257.164C248.007 256.65 248.124 256.158 248.326 255.689C248.535 255.221 248.818 254.804 249.176 254.439C249.534 254.068 249.96 253.775 250.455 253.561C250.956 253.346 251.52 253.238 252.145 253.238C252.691 253.238 253.18 253.313 253.609 253.463C254.039 253.606 254.4 253.837 254.693 254.156C254.993 254.469 255.221 254.869 255.377 255.357C255.533 255.846 255.611 256.432 255.611 257.115V264H254.439V257.105C254.439 256.357 254.329 255.777 254.107 255.367C253.893 254.951 253.593 254.661 253.209 254.498C252.825 254.335 252.376 254.254 251.861 254.254C251.354 254.26 250.908 254.355 250.523 254.537C250.139 254.713 249.817 254.947 249.557 255.24C249.303 255.527 249.107 255.836 248.971 256.168C248.84 256.5 248.769 256.826 248.756 257.145ZM265.348 261.559V253.434H266.52V264H265.396L265.348 261.559ZM265.562 259.605L266.168 259.586C266.168 260.25 266.09 260.862 265.934 261.422C265.777 261.982 265.533 262.47 265.201 262.887C264.869 263.303 264.439 263.626 263.912 263.854C263.385 264.081 262.75 264.195 262.008 264.195C261.493 264.195 261.021 264.124 260.592 263.98C260.169 263.831 259.804 263.596 259.498 263.277C259.192 262.958 258.954 262.545 258.785 262.037C258.622 261.529 258.541 260.914 258.541 260.191V253.434H259.703V260.211C259.703 260.777 259.765 261.249 259.889 261.627C260.019 262.005 260.195 262.307 260.416 262.535C260.644 262.763 260.904 262.926 261.197 263.023C261.49 263.121 261.806 263.17 262.145 263.17C263.004 263.17 263.681 263.004 264.176 262.672C264.677 262.34 265.032 261.904 265.24 261.363C265.455 260.816 265.562 260.23 265.562 259.605ZM270.875 249V264H269.713V249H270.875ZM280.494 262.105V256.656C280.494 256.155 280.39 255.722 280.182 255.357C279.973 254.993 279.667 254.713 279.264 254.518C278.86 254.322 278.362 254.225 277.77 254.225C277.223 254.225 276.734 254.322 276.305 254.518C275.882 254.706 275.546 254.964 275.299 255.289C275.058 255.608 274.938 255.963 274.938 256.354L273.766 256.344C273.766 255.947 273.863 255.562 274.059 255.191C274.254 254.82 274.531 254.488 274.889 254.195C275.247 253.902 275.673 253.671 276.168 253.502C276.669 253.326 277.219 253.238 277.818 253.238C278.574 253.238 279.238 253.365 279.811 253.619C280.39 253.873 280.842 254.254 281.168 254.762C281.493 255.27 281.656 255.908 281.656 256.676V261.783C281.656 262.148 281.682 262.525 281.734 262.916C281.793 263.307 281.874 263.629 281.979 263.883V264H280.738C280.66 263.766 280.598 263.473 280.553 263.121C280.514 262.763 280.494 262.424 280.494 262.105ZM280.768 257.848L280.787 258.746H278.492C277.893 258.746 277.356 258.801 276.881 258.912C276.412 259.016 276.015 259.173 275.689 259.381C275.364 259.583 275.113 259.827 274.938 260.113C274.768 260.4 274.684 260.725 274.684 261.09C274.684 261.467 274.778 261.812 274.967 262.125C275.162 262.438 275.436 262.688 275.787 262.877C276.145 263.059 276.568 263.15 277.057 263.15C277.708 263.15 278.281 263.03 278.775 262.789C279.277 262.548 279.69 262.232 280.016 261.842C280.341 261.451 280.559 261.025 280.67 260.562L281.178 261.236C281.093 261.562 280.937 261.897 280.709 262.242C280.488 262.581 280.198 262.9 279.84 263.199C279.482 263.492 279.059 263.733 278.57 263.922C278.089 264.104 277.542 264.195 276.93 264.195C276.24 264.195 275.637 264.065 275.123 263.805C274.615 263.544 274.218 263.189 273.932 262.74C273.652 262.285 273.512 261.77 273.512 261.197C273.512 260.676 273.622 260.211 273.844 259.801C274.065 259.384 274.384 259.033 274.801 258.746C275.224 258.453 275.732 258.232 276.324 258.082C276.923 257.926 277.594 257.848 278.336 257.848H280.768ZM291.656 261.949V249H292.828V264H291.734L291.656 261.949ZM284.322 258.824V258.619C284.322 257.799 284.417 257.06 284.605 256.402C284.794 255.738 285.064 255.172 285.416 254.703C285.774 254.228 286.204 253.867 286.705 253.619C287.206 253.365 287.773 253.238 288.404 253.238C289.023 253.238 289.57 253.339 290.045 253.541C290.52 253.743 290.927 254.033 291.266 254.41C291.611 254.788 291.887 255.237 292.096 255.758C292.311 256.279 292.467 256.858 292.564 257.496V260.104C292.486 260.702 292.343 261.253 292.135 261.754C291.926 262.249 291.65 262.682 291.305 263.053C290.96 263.417 290.543 263.701 290.055 263.902C289.573 264.098 289.016 264.195 288.385 264.195C287.76 264.195 287.197 264.065 286.695 263.805C286.194 263.544 285.768 263.176 285.416 262.701C285.064 262.219 284.794 261.65 284.605 260.992C284.417 260.335 284.322 259.612 284.322 258.824ZM285.494 258.619V258.824C285.494 259.443 285.556 260.016 285.68 260.543C285.803 261.07 285.992 261.529 286.246 261.92C286.5 262.311 286.822 262.617 287.213 262.838C287.604 263.059 288.066 263.17 288.6 263.17C289.27 263.17 289.833 263.043 290.289 262.789C290.745 262.529 291.109 262.187 291.383 261.764C291.656 261.334 291.855 260.865 291.979 260.357V257.32C291.9 256.975 291.786 256.624 291.637 256.266C291.487 255.908 291.282 255.579 291.021 255.279C290.768 254.973 290.442 254.729 290.045 254.547C289.654 254.358 289.179 254.264 288.619 254.264C288.079 254.264 287.613 254.374 287.223 254.596C286.832 254.817 286.507 255.126 286.246 255.523C285.992 255.914 285.803 256.373 285.68 256.9C285.556 257.428 285.494 258.001 285.494 258.619ZM295.26 258.883V258.561C295.26 257.792 295.37 257.083 295.592 256.432C295.813 255.781 296.129 255.217 296.539 254.742C296.956 254.267 297.454 253.899 298.033 253.639C298.613 253.372 299.257 253.238 299.967 253.238C300.683 253.238 301.331 253.372 301.91 253.639C302.49 253.899 302.988 254.267 303.404 254.742C303.821 255.217 304.14 255.781 304.361 256.432C304.583 257.083 304.693 257.792 304.693 258.561V258.883C304.693 259.651 304.583 260.361 304.361 261.012C304.14 261.656 303.821 262.216 303.404 262.691C302.994 263.167 302.499 263.538 301.92 263.805C301.34 264.065 300.696 264.195 299.986 264.195C299.27 264.195 298.622 264.065 298.043 263.805C297.464 263.538 296.965 263.167 296.549 262.691C296.132 262.216 295.813 261.656 295.592 261.012C295.37 260.361 295.26 259.651 295.26 258.883ZM296.422 258.561V258.883C296.422 259.462 296.5 260.012 296.656 260.533C296.812 261.048 297.04 261.507 297.34 261.91C297.639 262.307 298.01 262.62 298.453 262.848C298.896 263.076 299.407 263.189 299.986 263.189C300.559 263.189 301.064 263.076 301.5 262.848C301.943 262.62 302.314 262.307 302.613 261.91C302.913 261.507 303.137 261.048 303.287 260.533C303.443 260.012 303.521 259.462 303.521 258.883V258.561C303.521 257.988 303.443 257.444 303.287 256.93C303.137 256.415 302.91 255.956 302.604 255.553C302.304 255.149 301.933 254.83 301.49 254.596C301.048 254.361 300.54 254.244 299.967 254.244C299.394 254.244 298.886 254.361 298.443 254.596C298.007 254.83 297.636 255.149 297.33 255.553C297.031 255.956 296.803 256.415 296.646 256.93C296.497 257.444 296.422 257.988 296.422 258.561ZM313.443 261.305C313.443 261.018 313.372 260.735 313.229 260.455C313.085 260.175 312.809 259.918 312.398 259.684C311.995 259.449 311.399 259.251 310.611 259.088C310.025 258.958 309.501 258.811 309.039 258.648C308.583 258.486 308.199 258.29 307.887 258.062C307.574 257.835 307.337 257.561 307.174 257.242C307.011 256.923 306.93 256.546 306.93 256.109C306.93 255.719 307.014 255.351 307.184 255.006C307.359 254.654 307.607 254.348 307.926 254.088C308.251 253.821 308.642 253.613 309.098 253.463C309.56 253.313 310.077 253.238 310.65 253.238C311.464 253.238 312.161 253.378 312.74 253.658C313.326 253.932 313.772 254.306 314.078 254.781C314.391 255.257 314.547 255.794 314.547 256.393H313.385C313.385 256.028 313.277 255.683 313.062 255.357C312.854 255.032 312.545 254.765 312.135 254.557C311.731 254.348 311.236 254.244 310.65 254.244C310.045 254.244 309.553 254.335 309.176 254.518C308.798 254.7 308.521 254.931 308.346 255.211C308.176 255.491 308.092 255.781 308.092 256.08C308.092 256.314 308.128 256.529 308.199 256.725C308.277 256.913 308.414 257.089 308.609 257.252C308.811 257.415 309.098 257.568 309.469 257.711C309.84 257.854 310.322 257.994 310.914 258.131C311.767 258.32 312.464 258.551 313.004 258.824C313.551 259.091 313.954 259.423 314.215 259.82C314.475 260.211 314.605 260.686 314.605 261.246C314.605 261.682 314.514 262.083 314.332 262.447C314.15 262.805 313.886 263.115 313.541 263.375C313.202 263.635 312.792 263.837 312.311 263.98C311.835 264.124 311.301 264.195 310.709 264.195C309.817 264.195 309.062 264.049 308.443 263.756C307.831 263.456 307.366 263.066 307.047 262.584C306.734 262.096 306.578 261.578 306.578 261.031H307.74C307.779 261.578 307.952 262.011 308.258 262.33C308.564 262.643 308.938 262.864 309.381 262.994C309.83 263.124 310.273 263.189 310.709 263.189C311.308 263.189 311.809 263.102 312.213 262.926C312.617 262.75 312.923 262.519 313.131 262.232C313.339 261.946 313.443 261.637 313.443 261.305Z" fill="#282727"/>
</g>
<defs>
<clipPath id="clip0_1042_2954">
<rect width="511" height="298" fill="white"/>
</clipPath>
</defs>
</svg>
