<svg width="193" height="134" viewBox="0 0 193 134" fill="none" xmlns="http://www.w3.org/2000/svg">
<path d="M102.968 24.8184L91.7129 6.31781C90.9797 5.06719 89.6644 4.3125 88.2197 4.3125H74.0101C70.8835 4.3125 68.9213 7.67625 70.4522 10.3931C73.2977 15.4274 77.3138 19.7023 82.1607 22.8563C83.7994 24.1284 85.8263 24.8184 87.9179 24.8184H102.968Z" fill="#4E4E4E"/>
<path d="M119.981 4.3125H105.772C104.327 4.3125 103.012 5.06719 102.278 6.31781L91.0229 24.8184H106.095C108.187 24.8184 110.192 24.1284 111.852 22.8563C116.704 19.7081 120.714 15.4388 123.561 10.3931C125.07 7.67625 123.108 4.3125 119.981 4.3125V4.3125Z" fill="#E1E1E1"/>
<path d="M96.9784 64.6875C108.935 64.6875 118.627 54.7537 118.627 42.4997C118.627 30.2457 108.935 20.3119 96.9784 20.3119C85.022 20.3119 75.3297 30.2457 75.3297 42.4997C75.3297 54.7537 85.022 64.6875 96.9784 64.6875Z" fill="#CE8A46"/>
<path d="M97 62.0138C91.9112 62.0138 87.1244 59.9869 83.545 56.2997C79.9425 52.6122 77.9364 47.6548 77.9603 42.4997C77.9603 37.2816 79.9441 32.3869 83.545 28.6997C85.2922 26.8941 87.3847 25.4583 89.698 24.4777C92.0113 23.4971 94.4982 22.9918 97.0108 22.9918C99.5233 22.9918 102.01 23.4971 104.324 24.4777C106.637 25.4583 108.729 26.8941 110.477 28.6997C117.894 36.3113 117.894 48.6882 110.477 56.2997C106.854 59.9869 102.067 62.0138 97 62.0138V62.0138ZM96.9784 25.6379C92.7737 25.6379 88.5475 27.2766 85.3562 30.5757C82.2521 33.7662 80.5253 38.0483 80.5478 42.4997C80.5478 47.0063 82.2512 51.2325 85.3562 54.4238C86.8614 55.9867 88.6667 57.2296 90.6637 58.0781C92.6608 58.9266 94.8086 59.3631 96.9784 59.3616C101.377 59.3616 105.496 57.615 108.601 54.4238C115.005 47.8472 115.005 37.1522 108.601 30.5757C107.097 29.0112 105.292 27.7672 103.294 26.9186C101.297 26.07 99.1486 25.6344 96.9784 25.6379V25.6379Z" fill="#E19D53"/>
<path d="M93.6613 34.4406C93.6613 33.866 93.8818 33.315 94.2744 32.9087C94.667 32.5024 95.1994 32.2742 95.7546 32.2742H97.6889C98.2441 32.2742 98.7765 32.5024 99.1691 32.9087C99.5617 33.315 99.7823 33.866 99.7823 34.4406V49.5168C99.7823 50.0913 99.5617 50.6424 99.1691 51.0487C98.7765 51.455 98.2441 51.6832 97.6889 51.6832C97.1337 51.6832 96.6013 51.455 96.2087 51.0487C95.8161 50.6424 95.5955 50.0913 95.5955 49.5168V36.6005C95.0695 36.559 94.5779 36.3135 94.2193 35.913C93.8606 35.5125 93.6613 34.9866 93.6613 34.4406Z" fill="#402A32"/>
<path d="M40.75 72.7812V87H37.8301V72.7812H40.75ZM46.0723 78.6895V87H43.2598V76.4336H45.8965L46.0723 78.6895ZM45.6621 81.3457H44.9004C44.9004 80.5645 45.0013 79.8613 45.2031 79.2363C45.4049 78.6048 45.6882 78.0677 46.0527 77.625C46.4173 77.1758 46.8503 76.834 47.3516 76.5996C47.8594 76.3587 48.4258 76.2383 49.0508 76.2383C49.5456 76.2383 49.998 76.3099 50.4082 76.4531C50.8184 76.5964 51.1699 76.8242 51.4629 77.1367C51.7624 77.4492 51.9902 77.8626 52.1465 78.377C52.3092 78.8913 52.3906 79.5195 52.3906 80.2617V87H49.5586V80.252C49.5586 79.7832 49.4935 79.4186 49.3633 79.1582C49.2331 78.8978 49.041 78.7155 48.7871 78.6113C48.5397 78.5007 48.2337 78.4453 47.8691 78.4453C47.4915 78.4453 47.1628 78.5202 46.8828 78.6699C46.6094 78.8197 46.3815 79.028 46.1992 79.2949C46.0234 79.5553 45.89 79.8613 45.7988 80.2129C45.7077 80.5645 45.6621 80.9421 45.6621 81.3457ZM59.7051 76.4336V78.4258H53.5527V76.4336H59.7051ZM55.0762 73.8262H57.8887V83.8164C57.8887 84.1224 57.9277 84.3568 58.0059 84.5195C58.0905 84.6823 58.2142 84.7962 58.377 84.8613C58.5397 84.9199 58.7448 84.9492 58.9922 84.9492C59.168 84.9492 59.3242 84.9427 59.4609 84.9297C59.6042 84.9102 59.7246 84.8906 59.8223 84.8711L59.832 86.9414C59.5911 87.0195 59.3307 87.0814 59.0508 87.127C58.7708 87.1725 58.4616 87.1953 58.123 87.1953C57.5046 87.1953 56.9642 87.0944 56.502 86.8926C56.0462 86.6842 55.6947 86.3522 55.4473 85.8965C55.1999 85.4408 55.0762 84.8418 55.0762 84.0996V73.8262ZM66.1699 87.1953C65.3496 87.1953 64.6139 87.0651 63.9629 86.8047C63.3118 86.5378 62.7585 86.1699 62.3027 85.7012C61.8535 85.2324 61.5085 84.6888 61.2676 84.0703C61.0267 83.4453 60.9062 82.7812 60.9062 82.0781V81.6875C60.9062 80.8867 61.0202 80.1543 61.248 79.4902C61.4759 78.8262 61.8014 78.25 62.2246 77.7617C62.6543 77.2734 63.1751 76.8991 63.7871 76.6387C64.3991 76.3717 65.0892 76.2383 65.8574 76.2383C66.6061 76.2383 67.2702 76.362 67.8496 76.6094C68.429 76.8568 68.9141 77.2083 69.3047 77.6641C69.7018 78.1198 70.0013 78.6667 70.2031 79.3047C70.4049 79.9362 70.5059 80.6393 70.5059 81.4141V82.5859H62.1074V80.7109H67.7422V80.4961C67.7422 80.1055 67.6706 79.7572 67.5273 79.4512C67.3906 79.1387 67.1823 78.8913 66.9023 78.709C66.6224 78.5267 66.2643 78.4355 65.8281 78.4355C65.457 78.4355 65.138 78.5169 64.8711 78.6797C64.6042 78.8424 64.3861 79.0703 64.2168 79.3633C64.054 79.6562 63.9303 80.0013 63.8457 80.3984C63.7676 80.7891 63.7285 81.2188 63.7285 81.6875V82.0781C63.7285 82.5013 63.7871 82.8919 63.9043 83.25C64.028 83.6081 64.2005 83.9173 64.4219 84.1777C64.6497 84.4382 64.9232 84.64 65.2422 84.7832C65.5677 84.9264 65.9355 84.998 66.3457 84.998C66.8535 84.998 67.3255 84.9004 67.7617 84.7051C68.2044 84.5033 68.5853 84.2005 68.9043 83.7969L70.2715 85.2812C70.0501 85.6003 69.7474 85.9062 69.3633 86.1992C68.9857 86.4922 68.5299 86.7331 67.9961 86.9219C67.4622 87.1042 66.8535 87.1953 66.1699 87.1953ZM74.9199 78.7383V87H72.1074V76.4336H74.7539L74.9199 78.7383ZM78.1035 76.3652L78.0547 78.9727C77.918 78.9531 77.752 78.9368 77.5566 78.9238C77.3678 78.9043 77.1953 78.8945 77.0391 78.8945C76.6419 78.8945 76.2969 78.9466 76.0039 79.0508C75.7174 79.1484 75.4766 79.2949 75.2812 79.4902C75.0924 79.6855 74.9492 79.9232 74.8516 80.2031C74.7604 80.4831 74.7083 80.8021 74.6953 81.1602L74.1289 80.9844C74.1289 80.3008 74.1973 79.6725 74.334 79.0996C74.4707 78.5202 74.6693 78.0156 74.9297 77.5859C75.1966 77.1562 75.5221 76.8242 75.9062 76.5898C76.2904 76.3555 76.7298 76.2383 77.2246 76.2383C77.3809 76.2383 77.5404 76.2513 77.7031 76.2773C77.8659 76.2969 77.9993 76.3262 78.1035 76.3652ZM82.2441 78.6211V87H79.4219V76.4336H82.0684L82.2441 78.6211ZM81.8535 81.3457H81.0723C81.0723 80.61 81.1602 79.9329 81.3359 79.3145C81.5182 78.6895 81.7819 78.1491 82.127 77.6934C82.4785 77.2311 82.9115 76.873 83.4258 76.6191C83.9401 76.3652 84.5358 76.2383 85.2129 76.2383C85.6816 76.2383 86.1113 76.3099 86.502 76.4531C86.8926 76.5898 87.2279 76.8079 87.5078 77.1074C87.7943 77.4004 88.0156 77.7845 88.1719 78.2598C88.3281 78.7285 88.4062 79.2917 88.4062 79.9492V87H85.5938V80.2617C85.5938 79.7799 85.5286 79.4089 85.3984 79.1484C85.2682 78.888 85.0827 78.7057 84.8418 78.6016C84.6074 78.4974 84.3242 78.4453 83.9922 78.4453C83.6276 78.4453 83.3086 78.5202 83.0352 78.6699C82.7682 78.8197 82.5469 79.028 82.3711 79.2949C82.1953 79.5553 82.0651 79.8613 81.9805 80.2129C81.8958 80.5645 81.8535 80.9421 81.8535 81.3457ZM88.1426 81.0234L87.1367 81.1504C87.1367 80.4603 87.2214 79.819 87.3906 79.2266C87.5664 78.6341 87.8236 78.1133 88.1621 77.6641C88.5072 77.2148 88.9336 76.8665 89.4414 76.6191C89.9492 76.3652 90.5352 76.2383 91.1992 76.2383C91.707 76.2383 92.1693 76.3132 92.5859 76.4629C93.0026 76.6061 93.3574 76.8372 93.6504 77.1562C93.9499 77.4688 94.1777 77.8789 94.334 78.3867C94.4967 78.8945 94.5781 79.5163 94.5781 80.252V87H91.7559V80.252C91.7559 79.7637 91.6908 79.3926 91.5605 79.1387C91.4368 78.8783 91.2546 78.6992 91.0137 78.6016C90.7793 78.4974 90.4993 78.4453 90.1738 78.4453C89.8353 78.4453 89.5391 78.5137 89.2852 78.6504C89.0312 78.7806 88.8197 78.9629 88.6504 79.1973C88.4811 79.4316 88.3542 79.7051 88.2695 80.0176C88.1849 80.3236 88.1426 80.6589 88.1426 81.0234ZM101.619 87.1953C100.799 87.1953 100.063 87.0651 99.4121 86.8047C98.7611 86.5378 98.2077 86.1699 97.752 85.7012C97.3027 85.2324 96.9577 84.6888 96.7168 84.0703C96.4759 83.4453 96.3555 82.7812 96.3555 82.0781V81.6875C96.3555 80.8867 96.4694 80.1543 96.6973 79.4902C96.9251 78.8262 97.2507 78.25 97.6738 77.7617C98.1035 77.2734 98.6243 76.8991 99.2363 76.6387C99.8483 76.3717 100.538 76.2383 101.307 76.2383C102.055 76.2383 102.719 76.362 103.299 76.6094C103.878 76.8568 104.363 77.2083 104.754 77.6641C105.151 78.1198 105.451 78.6667 105.652 79.3047C105.854 79.9362 105.955 80.6393 105.955 81.4141V82.5859H97.5566V80.7109H103.191V80.4961C103.191 80.1055 103.12 79.7572 102.977 79.4512C102.84 79.1387 102.632 78.8913 102.352 78.709C102.072 78.5267 101.714 78.4355 101.277 78.4355C100.906 78.4355 100.587 78.5169 100.32 78.6797C100.053 78.8424 99.8353 79.0703 99.666 79.3633C99.5033 79.6562 99.3796 80.0013 99.2949 80.3984C99.2168 80.7891 99.1777 81.2188 99.1777 81.6875V82.0781C99.1777 82.5013 99.2363 82.8919 99.3535 83.25C99.4772 83.6081 99.6497 83.9173 99.8711 84.1777C100.099 84.4382 100.372 84.64 100.691 84.7832C101.017 84.9264 101.385 84.998 101.795 84.998C102.303 84.998 102.775 84.9004 103.211 84.7051C103.654 84.5033 104.035 84.2005 104.354 83.7969L105.721 85.2812C105.499 85.6003 105.197 85.9062 104.812 86.1992C104.435 86.4922 103.979 86.7331 103.445 86.9219C102.911 87.1042 102.303 87.1953 101.619 87.1953ZM113.797 84.6953V72H116.629V87H114.08L113.797 84.6953ZM107.117 81.8438V81.6387C107.117 80.8314 107.208 80.099 107.391 79.4414C107.573 78.7773 107.84 78.2077 108.191 77.7324C108.543 77.2572 108.976 76.8893 109.49 76.6289C110.005 76.3685 110.59 76.2383 111.248 76.2383C111.867 76.2383 112.407 76.3685 112.869 76.6289C113.338 76.8893 113.735 77.2604 114.061 77.7422C114.393 78.2174 114.66 78.7806 114.861 79.4316C115.063 80.0762 115.21 80.7826 115.301 81.5508V82C115.21 82.7357 115.063 83.4193 114.861 84.0508C114.66 84.6823 114.393 85.2357 114.061 85.7109C113.735 86.1797 113.338 86.5443 112.869 86.8047C112.4 87.0651 111.854 87.1953 111.229 87.1953C110.571 87.1953 109.985 87.0618 109.471 86.7949C108.963 86.528 108.533 86.1536 108.182 85.6719C107.837 85.1901 107.573 84.6237 107.391 83.9727C107.208 83.3216 107.117 82.612 107.117 81.8438ZM109.93 81.6387V81.8438C109.93 82.2799 109.962 82.6868 110.027 83.0645C110.099 83.4421 110.213 83.7773 110.369 84.0703C110.532 84.3568 110.74 84.5814 110.994 84.7441C111.255 84.9004 111.57 84.9785 111.941 84.9785C112.423 84.9785 112.82 84.8711 113.133 84.6562C113.445 84.4349 113.683 84.1322 113.846 83.748C114.015 83.3639 114.113 82.9212 114.139 82.4199V81.1406C114.119 80.7305 114.061 80.3626 113.963 80.0371C113.872 79.7051 113.735 79.4219 113.553 79.1875C113.377 78.9531 113.156 78.7708 112.889 78.6406C112.628 78.5104 112.319 78.4453 111.961 78.4453C111.596 78.4453 111.284 78.5299 111.023 78.6992C110.763 78.862 110.551 79.0866 110.389 79.373C110.232 79.6595 110.115 79.998 110.037 80.3887C109.965 80.7728 109.93 81.1895 109.93 81.6387ZM121.795 76.4336V87H118.973V76.4336H121.795ZM118.797 73.6797C118.797 73.2695 118.94 72.931 119.227 72.6641C119.513 72.3971 119.897 72.2637 120.379 72.2637C120.854 72.2637 121.235 72.3971 121.521 72.6641C121.814 72.931 121.961 73.2695 121.961 73.6797C121.961 74.0898 121.814 74.4284 121.521 74.6953C121.235 74.9622 120.854 75.0957 120.379 75.0957C119.897 75.0957 119.513 74.9622 119.227 74.6953C118.94 74.4284 118.797 74.0898 118.797 73.6797ZM129.822 84.6172V79.9102C129.822 79.5716 129.767 79.2819 129.656 79.041C129.546 78.7936 129.373 78.6016 129.139 78.4648C128.911 78.3281 128.615 78.2598 128.25 78.2598C127.938 78.2598 127.667 78.3151 127.439 78.4258C127.212 78.5299 127.036 78.6829 126.912 78.8848C126.788 79.0801 126.727 79.3112 126.727 79.5781H123.914C123.914 79.1289 124.018 78.7025 124.227 78.2988C124.435 77.8952 124.738 77.5404 125.135 77.2344C125.532 76.9219 126.004 76.6777 126.551 76.502C127.104 76.3262 127.723 76.2383 128.406 76.2383C129.227 76.2383 129.956 76.375 130.594 76.6484C131.232 76.9219 131.733 77.332 132.098 77.8789C132.469 78.4258 132.654 79.1094 132.654 79.9297V84.4512C132.654 85.0306 132.69 85.5059 132.762 85.877C132.833 86.2415 132.938 86.5605 133.074 86.834V87H130.232C130.096 86.7135 129.992 86.3555 129.92 85.9258C129.855 85.4896 129.822 85.0534 129.822 84.6172ZM130.193 80.5645L130.213 82.1562H128.641C128.27 82.1562 127.947 82.1986 127.674 82.2832C127.4 82.3678 127.176 82.4883 127 82.6445C126.824 82.7943 126.694 82.9701 126.609 83.1719C126.531 83.3737 126.492 83.5951 126.492 83.8359C126.492 84.0768 126.548 84.2949 126.658 84.4902C126.769 84.679 126.928 84.8288 127.137 84.9395C127.345 85.0436 127.589 85.0957 127.869 85.0957C128.292 85.0957 128.66 85.0111 128.973 84.8418C129.285 84.6725 129.526 84.4642 129.695 84.2168C129.871 83.9694 129.962 83.735 129.969 83.5137L130.711 84.7051C130.607 84.972 130.464 85.2487 130.281 85.5352C130.105 85.8216 129.881 86.0918 129.607 86.3457C129.334 86.5931 129.005 86.7982 128.621 86.9609C128.237 87.1172 127.781 87.1953 127.254 87.1953C126.583 87.1953 125.975 87.0618 125.428 86.7949C124.887 86.5215 124.458 86.1471 124.139 85.6719C123.826 85.1901 123.67 84.6432 123.67 84.0312C123.67 83.4779 123.774 82.9863 123.982 82.5566C124.191 82.127 124.497 81.7656 124.9 81.4727C125.311 81.1732 125.822 80.9486 126.434 80.7988C127.046 80.6426 127.755 80.5645 128.562 80.5645H130.193ZM127.059 75.0078L128.973 72H132.029L129.344 75.0078H127.059ZM137.635 78.7383V87H134.822V76.4336H137.469L137.635 78.7383ZM140.818 76.3652L140.77 78.9727C140.633 78.9531 140.467 78.9368 140.271 78.9238C140.083 78.9043 139.91 78.8945 139.754 78.8945C139.357 78.8945 139.012 78.9466 138.719 79.0508C138.432 79.1484 138.191 79.2949 137.996 79.4902C137.807 79.6855 137.664 79.9232 137.566 80.2031C137.475 80.4831 137.423 80.8021 137.41 81.1602L136.844 80.9844C136.844 80.3008 136.912 79.6725 137.049 79.0996C137.186 78.5202 137.384 78.0156 137.645 77.5859C137.911 77.1562 138.237 76.8242 138.621 76.5898C139.005 76.3555 139.445 76.2383 139.939 76.2383C140.096 76.2383 140.255 76.2513 140.418 76.2773C140.581 76.2969 140.714 76.3262 140.818 76.3652ZM145.115 76.4336V87H142.293V76.4336H145.115ZM142.117 73.6797C142.117 73.2695 142.26 72.931 142.547 72.6641C142.833 72.3971 143.217 72.2637 143.699 72.2637C144.174 72.2637 144.555 72.3971 144.842 72.6641C145.135 72.931 145.281 73.2695 145.281 73.6797C145.281 74.0898 145.135 74.4284 144.842 74.6953C144.555 74.9622 144.174 75.0957 143.699 75.0957C143.217 75.0957 142.833 74.9622 142.547 74.6953C142.26 74.4284 142.117 74.0898 142.117 73.6797ZM146.99 81.8242V81.6191C146.99 80.8444 147.101 80.1315 147.322 79.4805C147.544 78.8229 147.866 78.2533 148.289 77.7715C148.712 77.2897 149.233 76.9154 149.852 76.6484C150.47 76.375 151.18 76.2383 151.98 76.2383C152.781 76.2383 153.494 76.375 154.119 76.6484C154.744 76.9154 155.268 77.2897 155.691 77.7715C156.121 78.2533 156.447 78.8229 156.668 79.4805C156.889 80.1315 157 80.8444 157 81.6191V81.8242C157 82.5924 156.889 83.3053 156.668 83.9629C156.447 84.6139 156.121 85.1836 155.691 85.6719C155.268 86.1536 154.747 86.528 154.129 86.7949C153.51 87.0618 152.801 87.1953 152 87.1953C151.199 87.1953 150.486 87.0618 149.861 86.7949C149.243 86.528 148.719 86.1536 148.289 85.6719C147.866 85.1836 147.544 84.6139 147.322 83.9629C147.101 83.3053 146.99 82.5924 146.99 81.8242ZM149.803 81.6191V81.8242C149.803 82.2669 149.842 82.6803 149.92 83.0645C149.998 83.4486 150.122 83.7871 150.291 84.0801C150.467 84.3665 150.695 84.5911 150.975 84.7539C151.255 84.9167 151.596 84.998 152 84.998C152.391 84.998 152.726 84.9167 153.006 84.7539C153.286 84.5911 153.51 84.3665 153.68 84.0801C153.849 83.7871 153.973 83.4486 154.051 83.0645C154.135 82.6803 154.178 82.2669 154.178 81.8242V81.6191C154.178 81.1895 154.135 80.7858 154.051 80.4082C153.973 80.0241 153.846 79.6855 153.67 79.3926C153.501 79.0931 153.276 78.8587 152.996 78.6895C152.716 78.5202 152.378 78.4355 151.98 78.4355C151.583 78.4355 151.245 78.5202 150.965 78.6895C150.691 78.8587 150.467 79.0931 150.291 79.3926C150.122 79.6855 149.998 80.0241 149.92 80.4082C149.842 80.7858 149.803 81.1895 149.803 81.6191Z" fill="#333333"/>
<line x1="3.99902" y1="109" x2="189.999" y2="109" stroke="#C7D4E0" stroke-width="6" stroke-linecap="round"/>
<path d="M3.99902 109H128.999" stroke="#C7D4E0" stroke-width="6" stroke-linecap="round"/>
<path d="M3.99902 109H128.999" stroke="#C7D4E0" stroke-width="6" stroke-linecap="round"/>
<path d="M3.99902 109H128.999" stroke="#30DB2D" stroke-width="6" stroke-linecap="round"/>
<path d="M4.41288 129.635C3.27422 129.635 2.28022 129.364 1.43088 128.823C1.33755 128.758 1.26755 128.692 1.22088 128.627C1.17422 128.552 1.15088 128.45 1.15088 128.319C1.15088 128.151 1.20222 128.011 1.30488 127.899C1.40755 127.778 1.54288 127.717 1.71088 127.717C1.81355 127.717 1.91155 127.74 2.00488 127.787C2.74222 128.179 3.48888 128.375 4.24488 128.375C5.13155 128.375 5.80822 128.226 6.27488 127.927C6.74155 127.628 6.97488 127.12 6.97488 126.401C6.97488 125.822 6.77888 125.365 6.38688 125.029C6.00422 124.693 5.47688 124.525 4.80488 124.525C4.03022 124.525 3.31155 124.726 2.64888 125.127C2.63022 125.136 2.57422 125.169 2.48088 125.225C2.39688 125.272 2.28955 125.295 2.15888 125.295C1.89755 125.295 1.67822 125.22 1.50088 125.071C1.32355 124.922 1.23488 124.726 1.23488 124.483C1.23488 124.371 1.24422 124.259 1.26288 124.147L1.89288 120.423C1.92088 120.208 2.00022 120.04 2.13088 119.919C2.27088 119.788 2.43888 119.723 2.63488 119.723H7.12888C7.29688 119.723 7.43688 119.784 7.54888 119.905C7.67022 120.017 7.73088 120.157 7.73088 120.325C7.73088 120.493 7.67022 120.633 7.54888 120.745C7.43688 120.857 7.29688 120.913 7.12888 120.913H3.06888L2.62088 123.881C3.33022 123.498 4.11888 123.307 4.98688 123.307C5.67755 123.307 6.26555 123.442 6.75088 123.713C7.24555 123.984 7.61888 124.357 7.87088 124.833C8.12288 125.309 8.24888 125.855 8.24888 126.471C8.24888 127.414 7.92688 128.179 7.28288 128.767C6.63888 129.346 5.68222 129.635 4.41288 129.635ZM13.4419 129.635C12.2099 129.635 11.2672 129.182 10.6139 128.277C9.9699 127.372 9.6479 126.149 9.6479 124.609C9.6479 123.069 9.9699 121.846 10.6139 120.941C11.2672 120.036 12.2099 119.583 13.4419 119.583C14.6646 119.583 15.6026 120.036 16.2559 120.941C16.9092 121.846 17.2359 123.069 17.2359 124.609C17.2359 126.149 16.9092 127.372 16.2559 128.277C15.6026 129.182 14.6646 129.635 13.4419 129.635ZM13.4419 128.459C14.2539 128.459 14.8746 128.118 15.3039 127.437C15.7426 126.756 15.9619 125.813 15.9619 124.609C15.9619 123.414 15.7426 122.476 15.3039 121.795C14.8746 121.114 14.2539 120.773 13.4419 120.773C12.6299 120.773 12.0046 121.114 11.5659 121.795C11.1366 122.476 10.9219 123.414 10.9219 124.609C10.9219 125.813 11.1366 126.756 11.5659 127.437C12.0046 128.118 12.6299 128.459 13.4419 128.459Z" fill="#001C27"/>
<path d="M23.1348 123.521V132.339H22.3145V122.099H23.0801L23.1348 123.521ZM28.2754 125.729V125.872C28.2754 126.424 28.2116 126.929 28.084 127.39C27.9564 127.85 27.7718 128.249 27.5303 128.586C27.2933 128.919 26.9993 129.176 26.6484 129.358C26.2975 129.541 25.8988 129.632 25.4521 129.632C25.0101 129.632 24.6159 129.563 24.2695 129.427C23.9232 129.29 23.6247 129.096 23.374 128.846C23.1279 128.59 22.9297 128.294 22.7793 127.957C22.6335 127.615 22.5309 127.242 22.4717 126.836V124.942C22.54 124.496 22.6517 124.09 22.8066 123.726C22.9616 123.361 23.1598 123.047 23.4014 122.782C23.6475 122.518 23.9391 122.315 24.2764 122.174C24.6136 122.033 24.9987 121.962 25.4316 121.962C25.8828 121.962 26.2839 122.051 26.6348 122.229C26.9902 122.402 27.2887 122.655 27.5303 122.987C27.7764 123.315 27.9609 123.712 28.084 124.177C28.2116 124.637 28.2754 125.154 28.2754 125.729ZM27.4551 125.872V125.729C27.4551 125.296 27.4095 124.895 27.3184 124.525C27.2318 124.156 27.0973 123.835 26.915 123.562C26.7373 123.284 26.5094 123.067 26.2314 122.912C25.958 122.757 25.6322 122.68 25.2539 122.68C24.862 122.68 24.527 122.746 24.249 122.878C23.9756 123.006 23.7477 123.176 23.5654 123.391C23.3831 123.6 23.2396 123.83 23.1348 124.081C23.0299 124.332 22.9525 124.578 22.9023 124.819V127C22.9889 127.346 23.1279 127.668 23.3193 127.964C23.5107 128.256 23.766 128.49 24.085 128.668C24.4085 128.841 24.8027 128.928 25.2676 128.928C25.6413 128.928 25.9648 128.85 26.2383 128.695C26.5117 128.54 26.7373 128.324 26.915 128.046C27.0973 127.768 27.2318 127.444 27.3184 127.075C27.4095 126.706 27.4551 126.305 27.4551 125.872ZM29.6426 125.913V125.688C29.6426 125.15 29.7201 124.653 29.875 124.197C30.0299 123.742 30.251 123.347 30.5381 123.015C30.8298 122.682 31.1784 122.424 31.584 122.242C31.9896 122.055 32.4408 121.962 32.9375 121.962C33.4388 121.962 33.8923 122.055 34.2979 122.242C34.7035 122.424 35.0521 122.682 35.3438 123.015C35.6354 123.347 35.8587 123.742 36.0137 124.197C36.1686 124.653 36.2461 125.15 36.2461 125.688V125.913C36.2461 126.451 36.1686 126.948 36.0137 127.403C35.8587 127.854 35.6354 128.246 35.3438 128.579C35.0566 128.912 34.7103 129.172 34.3047 129.358C33.8991 129.541 33.4479 129.632 32.9512 129.632C32.4499 129.632 31.9964 129.541 31.5908 129.358C31.1852 129.172 30.8366 128.912 30.5449 128.579C30.2533 128.246 30.0299 127.854 29.875 127.403C29.7201 126.948 29.6426 126.451 29.6426 125.913ZM30.4561 125.688V125.913C30.4561 126.319 30.5107 126.704 30.6201 127.068C30.7295 127.428 30.889 127.75 31.0986 128.032C31.3083 128.31 31.568 128.529 31.8779 128.688C32.1878 128.848 32.5456 128.928 32.9512 128.928C33.3522 128.928 33.7054 128.848 34.0107 128.688C34.3206 128.529 34.5804 128.31 34.79 128.032C34.9997 127.75 35.1569 127.428 35.2617 127.068C35.3711 126.704 35.4258 126.319 35.4258 125.913V125.688C35.4258 125.286 35.3711 124.906 35.2617 124.546C35.1569 124.186 34.9974 123.865 34.7832 123.582C34.5736 123.299 34.3138 123.076 34.0039 122.912C33.694 122.748 33.3385 122.666 32.9375 122.666C32.5365 122.666 32.181 122.748 31.8711 122.912C31.5658 123.076 31.306 123.299 31.0918 123.582C30.8822 123.865 30.7227 124.186 30.6133 124.546C30.5085 124.906 30.4561 125.286 30.4561 125.688ZM38.7549 123.678V129.495H37.9414V122.099H38.7207L38.7549 123.678ZM38.5703 125.339L38.208 125.134C38.2354 124.696 38.3242 124.286 38.4746 123.903C38.625 123.521 38.8278 123.183 39.083 122.892C39.3428 122.6 39.6458 122.372 39.9922 122.208C40.3431 122.044 40.7305 121.962 41.1543 121.962C41.5234 121.962 41.8538 122.012 42.1455 122.112C42.4372 122.213 42.6855 122.372 42.8906 122.591C43.0957 122.81 43.2507 123.09 43.3555 123.432C43.4648 123.773 43.5195 124.19 43.5195 124.683V129.495H42.6992V124.676C42.6992 124.165 42.6286 123.767 42.4873 123.479C42.346 123.188 42.1455 122.98 41.8857 122.857C41.626 122.734 41.3184 122.673 40.9629 122.673C40.571 122.673 40.2269 122.759 39.9307 122.933C39.639 123.101 39.3929 123.322 39.1924 123.596C38.9964 123.865 38.846 124.154 38.7412 124.464C38.6364 124.769 38.5794 125.061 38.5703 125.339ZM48.4346 122.099V122.769H44.7295V122.099H48.4346ZM46.0898 120.198H46.9033V127.697C46.9033 128.039 46.9489 128.297 47.04 128.47C47.1312 128.643 47.2497 128.759 47.3955 128.818C47.5413 128.878 47.6986 128.907 47.8672 128.907C47.9902 128.907 48.1087 128.9 48.2227 128.887C48.3366 128.868 48.4391 128.85 48.5303 128.832L48.5645 129.522C48.4642 129.554 48.3343 129.579 48.1748 129.598C48.0153 129.62 47.8558 129.632 47.6963 129.632C47.3818 129.632 47.1038 129.575 46.8623 129.461C46.6208 129.342 46.4316 129.142 46.2949 128.859C46.1582 128.572 46.0898 128.183 46.0898 127.69V120.198ZM49.5625 125.913V125.688C49.5625 125.15 49.64 124.653 49.7949 124.197C49.9499 123.742 50.1709 123.347 50.458 123.015C50.7497 122.682 51.0983 122.424 51.5039 122.242C51.9095 122.055 52.3607 121.962 52.8574 121.962C53.3587 121.962 53.8122 122.055 54.2178 122.242C54.6234 122.424 54.972 122.682 55.2637 123.015C55.5553 123.347 55.7786 123.742 55.9336 124.197C56.0885 124.653 56.166 125.15 56.166 125.688V125.913C56.166 126.451 56.0885 126.948 55.9336 127.403C55.7786 127.854 55.5553 128.246 55.2637 128.579C54.9766 128.912 54.6302 129.172 54.2246 129.358C53.819 129.541 53.3678 129.632 52.8711 129.632C52.3698 129.632 51.9163 129.541 51.5107 129.358C51.1051 129.172 50.7565 128.912 50.4648 128.579C50.1732 128.246 49.9499 127.854 49.7949 127.403C49.64 126.948 49.5625 126.451 49.5625 125.913ZM50.376 125.688V125.913C50.376 126.319 50.4307 126.704 50.54 127.068C50.6494 127.428 50.8089 127.75 51.0186 128.032C51.2282 128.31 51.488 128.529 51.7979 128.688C52.1077 128.848 52.4655 128.928 52.8711 128.928C53.2721 128.928 53.6253 128.848 53.9307 128.688C54.2406 128.529 54.5003 128.31 54.71 128.032C54.9196 127.75 55.0768 127.428 55.1816 127.068C55.291 126.704 55.3457 126.319 55.3457 125.913V125.688C55.3457 125.286 55.291 124.906 55.1816 124.546C55.0768 124.186 54.9173 123.865 54.7031 123.582C54.4935 123.299 54.2337 123.076 53.9238 122.912C53.6139 122.748 53.2585 122.666 52.8574 122.666C52.4564 122.666 52.1009 122.748 51.791 122.912C51.4857 123.076 51.2259 123.299 51.0117 123.582C50.8021 123.865 50.6426 124.186 50.5332 124.546C50.4284 124.906 50.376 125.286 50.376 125.688ZM62.291 127.608C62.291 127.408 62.2409 127.21 62.1406 127.014C62.0404 126.818 61.8467 126.638 61.5596 126.474C61.277 126.31 60.86 126.171 60.3086 126.057C59.8984 125.965 59.5316 125.863 59.208 125.749C58.889 125.635 58.6201 125.498 58.4014 125.339C58.1826 125.179 58.0163 124.988 57.9023 124.765C57.7884 124.541 57.7314 124.277 57.7314 123.972C57.7314 123.698 57.7907 123.441 57.9092 123.199C58.0322 122.953 58.2054 122.739 58.4287 122.557C58.6566 122.37 58.93 122.224 59.249 122.119C59.5726 122.014 59.9349 121.962 60.3359 121.962C60.9056 121.962 61.3932 122.06 61.7988 122.256C62.209 122.447 62.5212 122.709 62.7354 123.042C62.9541 123.375 63.0635 123.751 63.0635 124.17H62.25C62.25 123.915 62.1748 123.673 62.0244 123.445C61.8786 123.217 61.6621 123.031 61.375 122.885C61.0924 122.739 60.7461 122.666 60.3359 122.666C59.9121 122.666 59.568 122.73 59.3037 122.857C59.0394 122.985 58.8457 123.147 58.7227 123.343C58.6042 123.539 58.5449 123.742 58.5449 123.951C58.5449 124.115 58.57 124.266 58.6201 124.402C58.6748 124.535 58.7705 124.658 58.9072 124.771C59.0485 124.885 59.249 124.993 59.5088 125.093C59.7686 125.193 60.1058 125.291 60.5205 125.387C61.1175 125.519 61.6051 125.681 61.9834 125.872C62.3662 126.059 62.6488 126.291 62.8311 126.569C63.0133 126.843 63.1045 127.175 63.1045 127.567C63.1045 127.873 63.0407 128.153 62.9131 128.408C62.7855 128.659 62.6009 128.875 62.3594 129.058C62.1224 129.24 61.8353 129.381 61.498 129.481C61.1654 129.582 60.7917 129.632 60.377 129.632C59.7526 129.632 59.224 129.529 58.791 129.324C58.3626 129.115 58.0368 128.841 57.8135 128.504C57.5947 128.162 57.4854 127.8 57.4854 127.417H58.2988C58.3262 127.8 58.4469 128.103 58.6611 128.326C58.8753 128.545 59.1374 128.7 59.4473 128.791C59.7617 128.882 60.0716 128.928 60.377 128.928C60.7962 128.928 61.1471 128.866 61.4297 128.743C61.7122 128.62 61.9264 128.458 62.0723 128.258C62.2181 128.057 62.291 127.841 62.291 127.608ZM69.1816 123.521V132.339H68.3613V122.099H69.127L69.1816 123.521ZM74.3223 125.729V125.872C74.3223 126.424 74.2585 126.929 74.1309 127.39C74.0033 127.85 73.8187 128.249 73.5771 128.586C73.3402 128.919 73.0462 129.176 72.6953 129.358C72.3444 129.541 71.9456 129.632 71.499 129.632C71.057 129.632 70.6628 129.563 70.3164 129.427C69.9701 129.29 69.6715 129.096 69.4209 128.846C69.1748 128.59 68.9766 128.294 68.8262 127.957C68.6803 127.615 68.5778 127.242 68.5186 126.836V124.942C68.5869 124.496 68.6986 124.09 68.8535 123.726C69.0085 123.361 69.2067 123.047 69.4482 122.782C69.6943 122.518 69.986 122.315 70.3232 122.174C70.6605 122.033 71.0456 121.962 71.4785 121.962C71.9297 121.962 72.3307 122.051 72.6816 122.229C73.0371 122.402 73.3356 122.655 73.5771 122.987C73.8232 123.315 74.0078 123.712 74.1309 124.177C74.2585 124.637 74.3223 125.154 74.3223 125.729ZM73.502 125.872V125.729C73.502 125.296 73.4564 124.895 73.3652 124.525C73.2786 124.156 73.1442 123.835 72.9619 123.562C72.7842 123.284 72.5563 123.067 72.2783 122.912C72.0049 122.757 71.679 122.68 71.3008 122.68C70.9089 122.68 70.5739 122.746 70.2959 122.878C70.0225 123.006 69.7946 123.176 69.6123 123.391C69.43 123.6 69.2865 123.83 69.1816 124.081C69.0768 124.332 68.9993 124.578 68.9492 124.819V127C69.0358 127.346 69.1748 127.668 69.3662 127.964C69.5576 128.256 69.8128 128.49 70.1318 128.668C70.4554 128.841 70.8496 128.928 71.3145 128.928C71.6882 128.928 72.0117 128.85 72.2852 128.695C72.5586 128.54 72.7842 128.324 72.9619 128.046C73.1442 127.768 73.2786 127.444 73.3652 127.075C73.4564 126.706 73.502 126.305 73.502 125.872ZM80.6387 128.169V124.354C80.6387 124.004 80.5658 123.701 80.4199 123.445C80.2741 123.19 80.0599 122.994 79.7773 122.857C79.4948 122.721 79.1462 122.652 78.7314 122.652C78.3486 122.652 78.0068 122.721 77.7061 122.857C77.4098 122.99 77.1751 123.17 77.002 123.397C76.8333 123.621 76.749 123.869 76.749 124.143L75.9287 124.136C75.9287 123.858 75.9971 123.589 76.1338 123.329C76.2705 123.069 76.4642 122.837 76.7148 122.632C76.9655 122.427 77.264 122.265 77.6104 122.146C77.9613 122.023 78.3464 121.962 78.7656 121.962C79.2943 121.962 79.7591 122.051 80.1602 122.229C80.5658 122.406 80.8825 122.673 81.1104 123.028C81.3382 123.384 81.4521 123.83 81.4521 124.368V127.943C81.4521 128.199 81.4704 128.463 81.5068 128.736C81.5479 129.01 81.6048 129.235 81.6777 129.413V129.495H80.8096C80.7549 129.331 80.7116 129.126 80.6797 128.88C80.6523 128.629 80.6387 128.392 80.6387 128.169ZM80.8301 125.188L80.8438 125.817H79.2373C78.818 125.817 78.4421 125.856 78.1094 125.934C77.7812 126.007 77.5033 126.116 77.2754 126.262C77.0475 126.403 76.8721 126.574 76.749 126.774C76.6305 126.975 76.5713 127.203 76.5713 127.458C76.5713 127.722 76.6374 127.964 76.7695 128.183C76.9062 128.401 77.0977 128.577 77.3438 128.709C77.5944 128.837 77.8906 128.9 78.2324 128.9C78.6882 128.9 79.0892 128.816 79.4355 128.647C79.7865 128.479 80.0758 128.258 80.3037 127.984C80.5316 127.711 80.6842 127.412 80.7617 127.089L81.1172 127.561C81.0579 127.788 80.9486 128.023 80.7891 128.265C80.6341 128.502 80.4313 128.725 80.1807 128.935C79.93 129.14 79.6338 129.308 79.292 129.44C78.9548 129.568 78.5719 129.632 78.1436 129.632C77.6605 129.632 77.2389 129.541 76.8789 129.358C76.5234 129.176 76.2454 128.928 76.0449 128.613C75.849 128.294 75.751 127.934 75.751 127.533C75.751 127.169 75.8285 126.843 75.9834 126.556C76.1383 126.264 76.3617 126.018 76.6533 125.817C76.9495 125.612 77.305 125.457 77.7197 125.353C78.139 125.243 78.6084 125.188 79.1279 125.188H80.8301ZM84.46 123.322V129.495H83.6465V122.099H84.4395L84.46 123.322ZM87.0781 122.044L87.0576 122.796C86.9665 122.782 86.8776 122.771 86.791 122.762C86.7044 122.753 86.611 122.748 86.5107 122.748C86.1553 122.748 85.8431 122.814 85.5742 122.946C85.3099 123.074 85.0866 123.254 84.9043 123.486C84.722 123.714 84.583 123.983 84.4873 124.293C84.3916 124.598 84.3369 124.926 84.3232 125.277L84.0225 125.394C84.0225 124.91 84.0726 124.462 84.1729 124.047C84.2731 123.632 84.4258 123.27 84.6309 122.96C84.8405 122.646 85.1025 122.402 85.417 122.229C85.736 122.051 86.1097 121.962 86.5381 121.962C86.6429 121.962 86.7454 121.971 86.8457 121.989C86.9505 122.003 87.028 122.021 87.0781 122.044ZM92.5879 128.169V124.354C92.5879 124.004 92.515 123.701 92.3691 123.445C92.2233 123.19 92.0091 122.994 91.7266 122.857C91.444 122.721 91.0954 122.652 90.6807 122.652C90.2979 122.652 89.9561 122.721 89.6553 122.857C89.359 122.99 89.1243 123.17 88.9512 123.397C88.7826 123.621 88.6982 123.869 88.6982 124.143L87.8779 124.136C87.8779 123.858 87.9463 123.589 88.083 123.329C88.2197 123.069 88.4134 122.837 88.6641 122.632C88.9147 122.427 89.2132 122.265 89.5596 122.146C89.9105 122.023 90.2956 121.962 90.7148 121.962C91.2435 121.962 91.7083 122.051 92.1094 122.229C92.515 122.406 92.8317 122.673 93.0596 123.028C93.2874 123.384 93.4014 123.83 93.4014 124.368V127.943C93.4014 128.199 93.4196 128.463 93.4561 128.736C93.4971 129.01 93.554 129.235 93.627 129.413V129.495H92.7588C92.7041 129.331 92.6608 129.126 92.6289 128.88C92.6016 128.629 92.5879 128.392 92.5879 128.169ZM92.7793 125.188L92.793 125.817H91.1865C90.7673 125.817 90.3913 125.856 90.0586 125.934C89.7305 126.007 89.4525 126.116 89.2246 126.262C88.9967 126.403 88.8213 126.574 88.6982 126.774C88.5798 126.975 88.5205 127.203 88.5205 127.458C88.5205 127.722 88.5866 127.964 88.7188 128.183C88.8555 128.401 89.0469 128.577 89.293 128.709C89.5436 128.837 89.8398 128.9 90.1816 128.9C90.6374 128.9 91.0384 128.816 91.3848 128.647C91.7357 128.479 92.0251 128.258 92.2529 127.984C92.4808 127.711 92.6335 127.412 92.7109 127.089L93.0664 127.561C93.0072 127.788 92.8978 128.023 92.7383 128.265C92.5833 128.502 92.3805 128.725 92.1299 128.935C91.8792 129.14 91.583 129.308 91.2412 129.44C90.904 129.568 90.5212 129.632 90.0928 129.632C89.6097 129.632 89.1882 129.541 88.8281 129.358C88.4727 129.176 88.1947 128.928 87.9941 128.613C87.7982 128.294 87.7002 127.934 87.7002 127.533C87.7002 127.169 87.7777 126.843 87.9326 126.556C88.0876 126.264 88.3109 126.018 88.6025 125.817C88.8988 125.612 89.2542 125.457 89.6689 125.353C90.0882 125.243 90.5576 125.188 91.0771 125.188H92.7793ZM98.5625 125.913V125.688C98.5625 125.15 98.64 124.653 98.7949 124.197C98.9499 123.742 99.1709 123.347 99.458 123.015C99.7497 122.682 100.098 122.424 100.504 122.242C100.91 122.055 101.361 121.962 101.857 121.962C102.359 121.962 102.812 122.055 103.218 122.242C103.623 122.424 103.972 122.682 104.264 123.015C104.555 123.347 104.779 123.742 104.934 124.197C105.089 124.653 105.166 125.15 105.166 125.688V125.913C105.166 126.451 105.089 126.948 104.934 127.403C104.779 127.854 104.555 128.246 104.264 128.579C103.977 128.912 103.63 129.172 103.225 129.358C102.819 129.541 102.368 129.632 101.871 129.632C101.37 129.632 100.916 129.541 100.511 129.358C100.105 129.172 99.7565 128.912 99.4648 128.579C99.1732 128.246 98.9499 127.854 98.7949 127.403C98.64 126.948 98.5625 126.451 98.5625 125.913ZM99.376 125.688V125.913C99.376 126.319 99.4307 126.704 99.54 127.068C99.6494 127.428 99.8089 127.75 100.019 128.032C100.228 128.31 100.488 128.529 100.798 128.688C101.108 128.848 101.465 128.928 101.871 128.928C102.272 128.928 102.625 128.848 102.931 128.688C103.241 128.529 103.5 128.31 103.71 128.032C103.92 127.75 104.077 127.428 104.182 127.068C104.291 126.704 104.346 126.319 104.346 125.913V125.688C104.346 125.286 104.291 124.906 104.182 124.546C104.077 124.186 103.917 123.865 103.703 123.582C103.493 123.299 103.234 123.076 102.924 122.912C102.614 122.748 102.258 122.666 101.857 122.666C101.456 122.666 101.101 122.748 100.791 122.912C100.486 123.076 100.226 123.299 100.012 123.582C99.8021 123.865 99.6426 124.186 99.5332 124.546C99.4284 124.906 99.376 125.286 99.376 125.688ZM111.086 123.521V132.339H110.266V122.099H111.031L111.086 123.521ZM116.227 125.729V125.872C116.227 126.424 116.163 126.929 116.035 127.39C115.908 127.85 115.723 128.249 115.481 128.586C115.244 128.919 114.951 129.176 114.6 129.358C114.249 129.541 113.85 129.632 113.403 129.632C112.961 129.632 112.567 129.563 112.221 129.427C111.874 129.29 111.576 129.096 111.325 128.846C111.079 128.59 110.881 128.294 110.73 127.957C110.585 127.615 110.482 127.242 110.423 126.836V124.942C110.491 124.496 110.603 124.09 110.758 123.726C110.913 123.361 111.111 123.047 111.353 122.782C111.599 122.518 111.89 122.315 112.228 122.174C112.565 122.033 112.95 121.962 113.383 121.962C113.834 121.962 114.235 122.051 114.586 122.229C114.941 122.402 115.24 122.655 115.481 122.987C115.728 123.315 115.912 123.712 116.035 124.177C116.163 124.637 116.227 125.154 116.227 125.729ZM115.406 125.872V125.729C115.406 125.296 115.361 124.895 115.27 124.525C115.183 124.156 115.049 123.835 114.866 123.562C114.688 123.284 114.461 123.067 114.183 122.912C113.909 122.757 113.583 122.68 113.205 122.68C112.813 122.68 112.478 122.746 112.2 122.878C111.927 123.006 111.699 123.176 111.517 123.391C111.334 123.6 111.191 123.83 111.086 124.081C110.981 124.332 110.904 124.578 110.854 124.819V127C110.94 127.346 111.079 127.668 111.271 127.964C111.462 128.256 111.717 128.49 112.036 128.668C112.36 128.841 112.754 128.928 113.219 128.928C113.592 128.928 113.916 128.85 114.189 128.695C114.463 128.54 114.688 128.324 114.866 128.046C115.049 127.768 115.183 127.444 115.27 127.075C115.361 126.706 115.406 126.305 115.406 125.872ZM118.858 123.322V129.495H118.045V122.099H118.838L118.858 123.322ZM121.477 122.044L121.456 122.796C121.365 122.782 121.276 122.771 121.189 122.762C121.103 122.753 121.009 122.748 120.909 122.748C120.554 122.748 120.242 122.814 119.973 122.946C119.708 123.074 119.485 123.254 119.303 123.486C119.12 123.714 118.981 123.983 118.886 124.293C118.79 124.598 118.735 124.926 118.722 125.277L118.421 125.394C118.421 124.91 118.471 124.462 118.571 124.047C118.672 123.632 118.824 123.27 119.029 122.96C119.239 122.646 119.501 122.402 119.815 122.229C120.134 122.051 120.508 121.962 120.937 121.962C121.041 121.962 121.144 121.971 121.244 121.989C121.349 122.003 121.426 122.021 121.477 122.044ZM122.174 125.913V125.688C122.174 125.15 122.251 124.653 122.406 124.197C122.561 123.742 122.782 123.347 123.069 123.015C123.361 122.682 123.71 122.424 124.115 122.242C124.521 122.055 124.972 121.962 125.469 121.962C125.97 121.962 126.424 122.055 126.829 122.242C127.235 122.424 127.583 122.682 127.875 123.015C128.167 123.347 128.39 123.742 128.545 124.197C128.7 124.653 128.777 125.15 128.777 125.688V125.913C128.777 126.451 128.7 126.948 128.545 127.403C128.39 127.854 128.167 128.246 127.875 128.579C127.588 128.912 127.242 129.172 126.836 129.358C126.43 129.541 125.979 129.632 125.482 129.632C124.981 129.632 124.528 129.541 124.122 129.358C123.716 129.172 123.368 128.912 123.076 128.579C122.785 128.246 122.561 127.854 122.406 127.403C122.251 126.948 122.174 126.451 122.174 125.913ZM122.987 125.688V125.913C122.987 126.319 123.042 126.704 123.151 127.068C123.261 127.428 123.42 127.75 123.63 128.032C123.84 128.31 124.099 128.529 124.409 128.688C124.719 128.848 125.077 128.928 125.482 128.928C125.883 128.928 126.237 128.848 126.542 128.688C126.852 128.529 127.112 128.31 127.321 128.032C127.531 127.75 127.688 127.428 127.793 127.068C127.902 126.704 127.957 126.319 127.957 125.913V125.688C127.957 125.286 127.902 124.906 127.793 124.546C127.688 124.186 127.529 123.865 127.314 123.582C127.105 123.299 126.845 123.076 126.535 122.912C126.225 122.748 125.87 122.666 125.469 122.666C125.068 122.666 124.712 122.748 124.402 122.912C124.097 123.076 123.837 123.299 123.623 123.582C123.413 123.865 123.254 124.186 123.145 124.546C123.04 124.906 122.987 125.286 122.987 125.688ZM124.977 120.923L126.282 119.009H127.267L125.688 120.923H124.977ZM130.644 122.099L132.64 125.086L134.643 122.099H135.613L133.104 125.722L135.716 129.495H134.759L132.646 126.371L130.541 129.495H129.584L132.195 125.722L129.687 122.099H130.644ZM138.054 122.099V129.495H137.24V122.099H138.054ZM137.097 119.959C137.097 119.804 137.145 119.674 137.24 119.569C137.34 119.46 137.477 119.405 137.65 119.405C137.824 119.405 137.96 119.46 138.061 119.569C138.165 119.674 138.218 119.804 138.218 119.959C138.218 120.109 138.165 120.239 138.061 120.349C137.96 120.453 137.824 120.506 137.65 120.506C137.477 120.506 137.34 120.453 137.24 120.349C137.145 120.239 137.097 120.109 137.097 119.959ZM141.062 123.63V129.495H140.241V122.099H141.027L141.062 123.63ZM140.911 125.339L140.515 125.134C140.542 124.696 140.624 124.286 140.761 123.903C140.902 123.521 141.098 123.183 141.349 122.892C141.599 122.6 141.9 122.372 142.251 122.208C142.602 122.044 143.001 121.962 143.447 121.962C143.807 121.962 144.133 122.012 144.425 122.112C144.721 122.208 144.972 122.361 145.177 122.57C145.386 122.775 145.548 123.044 145.662 123.377C145.776 123.71 145.833 124.108 145.833 124.573V129.495H145.02V124.601C145.02 124.108 144.942 123.723 144.787 123.445C144.637 123.167 144.425 122.969 144.151 122.851C143.882 122.732 143.57 122.673 143.215 122.673C142.796 122.673 142.44 122.759 142.148 122.933C141.861 123.101 141.627 123.322 141.444 123.596C141.267 123.865 141.134 124.154 141.048 124.464C140.961 124.769 140.916 125.061 140.911 125.339ZM145.826 124.696L145.279 124.71C145.302 124.35 145.384 124.006 145.525 123.678C145.671 123.35 145.869 123.058 146.12 122.803C146.371 122.543 146.669 122.338 147.016 122.188C147.367 122.037 147.761 121.962 148.198 121.962C148.581 121.962 148.923 122.014 149.224 122.119C149.524 122.219 149.777 122.381 149.982 122.604C150.192 122.823 150.352 123.104 150.461 123.445C150.57 123.787 150.625 124.197 150.625 124.676V129.495H149.805V124.669C149.805 124.145 149.727 123.739 149.572 123.452C149.422 123.16 149.212 122.958 148.943 122.844C148.674 122.73 148.36 122.673 148 122.673C147.645 122.677 147.332 122.743 147.063 122.871C146.795 122.994 146.569 123.158 146.387 123.363C146.209 123.564 146.072 123.78 145.977 124.013C145.885 124.245 145.835 124.473 145.826 124.696ZM152.252 125.913V125.688C152.252 125.15 152.329 124.653 152.484 124.197C152.639 123.742 152.86 123.347 153.147 123.015C153.439 122.682 153.788 122.424 154.193 122.242C154.599 122.055 155.05 121.962 155.547 121.962C156.048 121.962 156.502 122.055 156.907 122.242C157.313 122.424 157.661 122.682 157.953 123.015C158.245 123.347 158.468 123.742 158.623 124.197C158.778 124.653 158.855 125.15 158.855 125.688V125.913C158.855 126.451 158.778 126.948 158.623 127.403C158.468 127.854 158.245 128.246 157.953 128.579C157.666 128.912 157.32 129.172 156.914 129.358C156.508 129.541 156.057 129.632 155.561 129.632C155.059 129.632 154.606 129.541 154.2 129.358C153.795 129.172 153.446 128.912 153.154 128.579C152.863 128.246 152.639 127.854 152.484 127.403C152.329 126.948 152.252 126.451 152.252 125.913ZM153.065 125.688V125.913C153.065 126.319 153.12 126.704 153.229 127.068C153.339 127.428 153.498 127.75 153.708 128.032C153.918 128.31 154.177 128.529 154.487 128.688C154.797 128.848 155.155 128.928 155.561 128.928C155.962 128.928 156.315 128.848 156.62 128.688C156.93 128.529 157.19 128.31 157.399 128.032C157.609 127.75 157.766 127.428 157.871 127.068C157.98 126.704 158.035 126.319 158.035 125.913V125.688C158.035 125.286 157.98 124.906 157.871 124.546C157.766 124.186 157.607 123.865 157.393 123.582C157.183 123.299 156.923 123.076 156.613 122.912C156.303 122.748 155.948 122.666 155.547 122.666C155.146 122.666 154.79 122.748 154.48 122.912C154.175 123.076 153.915 123.299 153.701 123.582C153.492 123.865 153.332 124.186 153.223 124.546C153.118 124.906 153.065 125.286 153.065 125.688ZM164.782 123.678V129.495H163.969V122.099H164.748L164.782 123.678ZM164.598 125.339L164.235 125.134C164.263 124.696 164.352 124.286 164.502 123.903C164.652 123.521 164.855 123.183 165.11 122.892C165.37 122.6 165.673 122.372 166.02 122.208C166.37 122.044 166.758 121.962 167.182 121.962C167.551 121.962 167.881 122.012 168.173 122.112C168.465 122.213 168.713 122.372 168.918 122.591C169.123 122.81 169.278 123.09 169.383 123.432C169.492 123.773 169.547 124.19 169.547 124.683V129.495H168.727V124.676C168.727 124.165 168.656 123.767 168.515 123.479C168.373 123.188 168.173 122.98 167.913 122.857C167.653 122.734 167.346 122.673 166.99 122.673C166.598 122.673 166.254 122.759 165.958 122.933C165.666 123.101 165.42 123.322 165.22 123.596C165.024 123.865 164.873 124.154 164.769 124.464C164.664 124.769 164.607 125.061 164.598 125.339ZM172.562 122.099V129.495H171.748V122.099H172.562ZM171.687 120.998L172.992 119.084H173.977L172.397 120.998H171.687ZM176.964 128.709L179.336 122.099H180.177L177.408 129.495H176.813L176.964 128.709ZM174.817 122.099L177.217 128.729L177.347 129.495H176.745L173.97 122.099H174.817ZM184.285 129.632C183.802 129.632 183.358 129.543 182.952 129.365C182.551 129.188 182.2 128.937 181.899 128.613C181.603 128.29 181.373 127.907 181.209 127.465C181.049 127.018 180.97 126.531 180.97 126.002V125.708C180.97 125.138 181.054 124.623 181.223 124.163C181.391 123.703 181.624 123.309 181.92 122.98C182.216 122.652 182.553 122.402 182.932 122.229C183.314 122.051 183.715 121.962 184.135 121.962C184.604 121.962 185.021 122.046 185.386 122.215C185.75 122.379 186.056 122.614 186.302 122.919C186.552 123.22 186.742 123.577 186.869 123.992C186.997 124.402 187.061 124.856 187.061 125.353V125.852H181.462V125.154H186.247V125.059C186.238 124.644 186.154 124.257 185.994 123.896C185.839 123.532 185.607 123.236 185.297 123.008C184.987 122.78 184.6 122.666 184.135 122.666C183.788 122.666 183.469 122.739 183.178 122.885C182.891 123.031 182.642 123.24 182.433 123.514C182.228 123.783 182.068 124.104 181.954 124.478C181.845 124.847 181.79 125.257 181.79 125.708V126.002C181.79 126.412 181.849 126.795 181.968 127.15C182.091 127.501 182.264 127.811 182.487 128.08C182.715 128.349 182.984 128.559 183.294 128.709C183.604 128.859 183.946 128.935 184.319 128.935C184.757 128.935 185.144 128.855 185.481 128.695C185.819 128.531 186.122 128.274 186.391 127.923L186.903 128.319C186.744 128.556 186.543 128.775 186.302 128.976C186.065 129.176 185.78 129.336 185.447 129.454C185.115 129.573 184.727 129.632 184.285 129.632ZM189.583 118.995V129.495H188.77V118.995H189.583Z" fill="#4F4F4F"/>
</svg>
