<svg width="22" height="21" viewBox="0 0 22 21" fill="none" xmlns="http://www.w3.org/2000/svg">
<path d="M20.1549 20.8197L12.6323 13.5902C12.0353 14.0492 11.3487 14.4126 10.5726 14.6803C9.79641 14.9481 8.97052 15.082 8.09488 15.082C5.92567 15.082 4.09001 14.3602 2.58788 12.9166C1.08496 11.4722 0.333496 9.70766 0.333496 7.62296C0.333496 5.53826 1.08496 3.77372 2.58788 2.32935C4.09001 0.885744 5.92567 0.16394 8.09488 0.16394C10.2641 0.16394 12.1002 0.885744 13.6031 2.32935C15.1052 3.77372 15.8563 5.53826 15.8563 7.62296C15.8563 8.46449 15.717 9.2582 15.4383 10.0041C15.1597 10.75 14.7816 11.4098 14.304 11.9836L21.8266 19.2131L20.1549 20.8197ZM8.09488 12.7869C9.58745 12.7869 10.8563 12.285 11.9015 11.2813C12.9459 10.2768 13.4681 9.05738 13.4681 7.62296C13.4681 6.18853 12.9459 4.96908 11.9015 3.9646C10.8563 2.96088 9.58745 2.45902 8.09488 2.45902C6.60231 2.45902 5.33342 2.96088 4.28822 3.9646C3.24382 4.96908 2.72161 6.18853 2.72161 7.62296C2.72161 9.05738 3.24382 10.2768 4.28822 11.2813C5.33342 12.285 6.60231 12.7869 8.09488 12.7869Z" fill="#C8C8C8"/>
</svg>
