<svg width="433" height="97" viewBox="0 0 433 97" fill="none" xmlns="http://www.w3.org/2000/svg">
<rect x="0.5" y="0.5" width="432" height="96" rx="4.5" fill="#D0E6FF" stroke="#1239C0"/>
<path d="M51.0205 57.5518C51.0205 56.9984 50.9391 56.502 50.7764 56.0625C50.6136 55.6068 50.3125 55.1836 49.873 54.793C49.4336 54.4023 48.7988 54.0117 47.9688 53.6211C47.1549 53.2142 46.0807 52.791 44.7461 52.3516C43.1836 51.8307 41.6781 51.2448 40.2295 50.5938C38.7809 49.9264 37.487 49.1533 36.3477 48.2744C35.2083 47.3792 34.305 46.3376 33.6377 45.1494C32.9704 43.945 32.6367 42.5452 32.6367 40.9502C32.6367 39.4202 32.9785 38.0449 33.6621 36.8242C34.3457 35.5872 35.2979 34.5374 36.5186 33.6748C37.7555 32.7959 39.2041 32.1286 40.8643 31.6729C42.5244 31.2008 44.3392 30.9648 46.3086 30.9648C48.9128 30.9648 51.2077 31.4206 53.1934 32.332C55.1953 33.2272 56.7578 34.5049 57.8809 36.165C59.0202 37.8089 59.5898 39.7539 59.5898 42H51.0693C51.0693 41.1048 50.8822 40.3154 50.5078 39.6318C50.1497 38.9482 49.6045 38.4111 48.8721 38.0205C48.1396 37.6299 47.2201 37.4346 46.1133 37.4346C45.0391 37.4346 44.1357 37.5973 43.4033 37.9229C42.6709 38.2484 42.1175 38.6878 41.7432 39.2412C41.3688 39.7783 41.1816 40.3724 41.1816 41.0234C41.1816 41.5605 41.3281 42.0488 41.6211 42.4883C41.9303 42.9115 42.3617 43.3102 42.915 43.6846C43.4847 44.0589 44.1683 44.417 44.9658 44.7588C45.7796 45.1006 46.6911 45.4342 47.7002 45.7598C49.5882 46.362 51.2646 47.0374 52.7295 47.7861C54.2106 48.5186 55.4557 49.3568 56.4648 50.3008C57.4902 51.2285 58.2633 52.2865 58.7842 53.4746C59.3213 54.6628 59.5898 56.0055 59.5898 57.5029C59.5898 59.098 59.2806 60.514 58.6621 61.751C58.0436 62.988 57.1566 64.0378 56.001 64.9004C54.8454 65.7467 53.4619 66.3896 51.8506 66.8291C50.2393 67.2686 48.4408 67.4883 46.4551 67.4883C44.6322 67.4883 42.8337 67.2604 41.0596 66.8047C39.3018 66.3327 37.7067 65.6165 36.2744 64.6562C34.8421 63.6797 33.6947 62.4346 32.832 60.9209C31.9857 59.391 31.5625 57.5762 31.5625 55.4766H40.1562C40.1562 56.5182 40.2946 57.3971 40.5713 58.1133C40.848 58.8294 41.2549 59.4072 41.792 59.8467C42.3291 60.2699 42.9883 60.5791 43.7695 60.7744C44.5508 60.9535 45.446 61.043 46.4551 61.043C47.5456 61.043 48.4245 60.8883 49.0918 60.5791C49.7591 60.2536 50.2474 59.8304 50.5566 59.3096C50.8659 58.7725 51.0205 58.1865 51.0205 57.5518ZM79.0479 60.5791V40.584H87.2998V67H79.585L79.0479 60.5791ZM79.8291 55.208L81.9775 55.1592C81.9775 56.9333 81.766 58.5771 81.3428 60.0908C80.9196 61.5882 80.293 62.8903 79.4629 63.9971C78.6491 65.1038 77.64 65.9665 76.4355 66.585C75.2474 67.1872 73.8721 67.4883 72.3096 67.4883C71.0075 67.4883 69.8112 67.3092 68.7207 66.9512C67.6465 66.5768 66.7188 65.999 65.9375 65.2178C65.1562 64.4202 64.5459 63.403 64.1064 62.166C63.6833 60.9128 63.4717 59.4154 63.4717 57.6738V40.584H71.6992V57.7227C71.6992 58.3086 71.7725 58.8132 71.9189 59.2363C72.0654 59.6595 72.277 60.0176 72.5537 60.3105C72.8304 60.5872 73.1722 60.7988 73.5791 60.9453C74.0023 61.0755 74.4824 61.1406 75.0195 61.1406C76.2565 61.1406 77.2249 60.8802 77.9248 60.3594C78.6247 59.8385 79.113 59.1305 79.3896 58.2354C79.6826 57.3402 79.8291 56.3311 79.8291 55.208ZM105.684 59.5781C105.684 59.1224 105.529 58.7318 105.22 58.4062C104.927 58.0645 104.406 57.7552 103.657 57.4785C102.909 57.1855 101.859 56.8926 100.508 56.5996C99.222 56.3229 98.0094 55.9567 96.8701 55.501C95.7471 55.0452 94.7624 54.4919 93.916 53.8408C93.0697 53.1898 92.4023 52.4167 91.9141 51.5215C91.4421 50.6263 91.2061 49.6009 91.2061 48.4453C91.2061 47.3223 91.4421 46.2643 91.9141 45.2715C92.4023 44.2624 93.1104 43.3753 94.0381 42.6104C94.9821 41.8291 96.1296 41.2188 97.4805 40.7793C98.8314 40.3236 100.369 40.0957 102.095 40.0957C104.471 40.0957 106.522 40.4619 108.247 41.1943C109.972 41.9105 111.299 42.9196 112.227 44.2217C113.171 45.5075 113.643 46.9967 113.643 48.6895H105.415C105.415 48.0221 105.301 47.4525 105.073 46.9805C104.862 46.5085 104.512 46.1504 104.023 45.9062C103.535 45.6458 102.884 45.5156 102.07 45.5156C101.501 45.5156 100.98 45.6214 100.508 45.833C100.052 46.0446 99.6859 46.3376 99.4092 46.7119C99.1325 47.0863 98.9941 47.5257 98.9941 48.0303C98.9941 48.3883 99.0755 48.7139 99.2383 49.0068C99.4173 49.2835 99.6859 49.5439 100.044 49.7881C100.402 50.016 100.858 50.2275 101.411 50.4229C101.965 50.6019 102.632 50.7646 103.413 50.9111C105.187 51.2367 106.847 51.7005 108.394 52.3027C109.94 52.9049 111.193 53.7594 112.153 54.8662C113.13 55.973 113.618 57.4622 113.618 59.334C113.618 60.5059 113.35 61.5882 112.812 62.5811C112.275 63.5576 111.502 64.4202 110.493 65.1689C109.484 65.9014 108.271 66.471 106.855 66.8779C105.439 67.2848 103.844 67.4883 102.07 67.4883C99.5475 67.4883 97.4154 67.0407 95.6738 66.1455C93.9323 65.234 92.6139 64.0947 91.7188 62.7275C90.8398 61.3441 90.4004 59.9443 90.4004 58.5283H98.0664C98.099 59.3421 98.2943 60.0094 98.6523 60.5303C99.0267 61.0511 99.5231 61.4336 100.142 61.6777C100.76 61.9219 101.476 62.0439 102.29 62.0439C103.039 62.0439 103.657 61.9382 104.146 61.7266C104.65 61.515 105.033 61.2301 105.293 60.8721C105.553 60.4977 105.684 60.0664 105.684 59.5781ZM131.392 40.584V46.2969H115.474V40.584H131.392ZM118.818 34.0166H127.046V58.3818C127.046 59.0817 127.127 59.627 127.29 60.0176C127.453 60.3919 127.729 60.6605 128.12 60.8232C128.527 60.9697 129.064 61.043 129.731 61.043C130.203 61.043 130.594 61.0348 130.903 61.0186C131.213 60.986 131.506 60.9453 131.782 60.8965V66.7803C131.082 67.0081 130.35 67.179 129.585 67.293C128.82 67.4232 128.006 67.4883 127.144 67.4883C125.386 67.4883 123.88 67.2116 122.627 66.6582C121.39 66.1048 120.446 65.234 119.795 64.0459C119.144 62.8577 118.818 61.3115 118.818 59.4072V34.0166ZM147.456 67.4883C145.308 67.4883 143.387 67.1546 141.694 66.4873C140.002 65.8037 138.569 64.8678 137.397 63.6797C136.242 62.4915 135.355 61.1243 134.736 59.5781C134.134 58.0319 133.833 56.3962 133.833 54.6709V53.7432C133.833 51.8063 134.102 50.016 134.639 48.3721C135.176 46.7119 135.973 45.2633 137.031 44.0264C138.089 42.7894 139.416 41.8291 141.011 41.1455C142.606 40.4456 144.461 40.0957 146.577 40.0957C148.449 40.0957 150.125 40.3968 151.606 40.999C153.088 41.6012 154.341 42.4639 155.366 43.5869C156.408 44.71 157.197 46.069 157.734 47.6641C158.288 49.2591 158.564 51.0495 158.564 53.0352V56.3799H136.982V51.2285H150.532V50.5938C150.549 49.7148 150.394 48.9661 150.068 48.3477C149.759 47.7292 149.303 47.2572 148.701 46.9316C148.099 46.6061 147.367 46.4434 146.504 46.4434C145.609 46.4434 144.868 46.6387 144.282 47.0293C143.713 47.4199 143.265 47.957 142.939 48.6406C142.63 49.3079 142.41 50.0811 142.28 50.96C142.15 51.8389 142.085 52.7666 142.085 53.7432V54.6709C142.085 55.6475 142.215 56.5345 142.476 57.332C142.752 58.1296 143.143 58.8132 143.647 59.3828C144.168 59.9362 144.787 60.3675 145.503 60.6768C146.235 60.986 147.065 61.1406 147.993 61.1406C149.116 61.1406 150.223 60.929 151.313 60.5059C152.404 60.0827 153.34 59.3828 154.121 58.4062L157.856 62.8496C157.319 63.6146 156.554 64.3551 155.562 65.0713C154.585 65.7874 153.413 66.3734 152.046 66.8291C150.679 67.2686 149.149 67.4883 147.456 67.4883ZM169.99 46.2236V67H161.763V40.584H169.478L169.99 46.2236ZM169.014 52.8887L167.085 52.9375C167.085 50.9193 167.329 49.1208 167.817 47.542C168.306 45.9469 168.997 44.596 169.893 43.4893C170.788 42.3825 171.854 41.5443 173.091 40.9746C174.344 40.3887 175.736 40.0957 177.266 40.0957C178.486 40.0957 179.601 40.2747 180.61 40.6328C181.636 40.9909 182.515 41.5687 183.247 42.3662C183.996 43.1637 184.565 44.2217 184.956 45.54C185.363 46.8421 185.566 48.4535 185.566 50.374V67H177.29V50.3496C177.29 49.2917 177.144 48.486 176.851 47.9326C176.558 47.363 176.134 46.9723 175.581 46.7607C175.028 46.5492 174.352 46.4434 173.555 46.4434C172.708 46.4434 171.992 46.6061 171.406 46.9316C170.82 47.2572 170.348 47.7129 169.99 48.2988C169.648 48.8685 169.396 49.5439 169.233 50.3252C169.087 51.1064 169.014 51.9609 169.014 52.8887ZM204.048 40.584V46.2969H188.13V40.584H204.048ZM191.475 34.0166H199.702V58.3818C199.702 59.0817 199.784 59.627 199.946 60.0176C200.109 60.3919 200.386 60.6605 200.776 60.8232C201.183 60.9697 201.72 61.043 202.388 61.043C202.86 61.043 203.25 61.0348 203.56 61.0186C203.869 60.986 204.162 60.9453 204.438 60.8965V66.7803C203.739 67.0081 203.006 67.179 202.241 67.293C201.476 67.4232 200.662 67.4883 199.8 67.4883C198.042 67.4883 196.536 67.2116 195.283 66.6582C194.046 66.1048 193.102 65.234 192.451 64.0459C191.8 62.8577 191.475 61.3115 191.475 59.4072V34.0166ZM221.04 60.3594V49.4707C221.04 48.722 220.934 48.0791 220.723 47.542C220.511 47.0049 220.177 46.5898 219.722 46.2969C219.266 45.9876 218.656 45.833 217.891 45.833C217.272 45.833 216.743 45.9388 216.304 46.1504C215.864 46.362 215.531 46.6794 215.303 47.1025C215.075 47.5257 214.961 48.0628 214.961 48.7139H206.733C206.733 47.4932 207.002 46.362 207.539 45.3203C208.092 44.2624 208.874 43.3428 209.883 42.5615C210.908 41.7803 212.129 41.1781 213.545 40.7549C214.977 40.3154 216.572 40.0957 218.33 40.0957C220.43 40.0957 222.301 40.4456 223.945 41.1455C225.605 41.8454 226.916 42.8952 227.876 44.2949C228.836 45.6784 229.316 47.4199 229.316 49.5195V60.335C229.316 62.0602 229.414 63.3704 229.609 64.2656C229.805 65.1445 230.081 65.9176 230.439 66.585V67H222.188C221.797 66.1862 221.504 65.1934 221.309 64.0215C221.13 62.8333 221.04 61.6126 221.04 60.3594ZM222.041 50.8623L222.09 55.2568H218.452C217.687 55.2568 217.036 55.3626 216.499 55.5742C215.978 55.7858 215.555 56.0788 215.229 56.4531C214.92 56.8112 214.692 57.2181 214.546 57.6738C214.416 58.1296 214.351 58.6097 214.351 59.1143C214.351 59.6025 214.465 60.042 214.692 60.4326C214.937 60.807 215.262 61.0999 215.669 61.3115C216.076 61.5231 216.532 61.6289 217.036 61.6289C217.948 61.6289 218.721 61.458 219.355 61.1162C220.007 60.7581 220.503 60.3268 220.845 59.8223C221.187 59.3177 221.357 58.8457 221.357 58.4062L223.164 61.7754C222.839 62.4264 222.464 63.0856 222.041 63.7529C221.634 64.4202 221.121 65.0387 220.503 65.6084C219.901 66.1618 219.16 66.6175 218.281 66.9756C217.402 67.3174 216.336 67.4883 215.083 67.4883C213.455 67.4883 211.958 67.1546 210.591 66.4873C209.24 65.82 208.158 64.8923 207.344 63.7041C206.53 62.4997 206.123 61.1162 206.123 59.5537C206.123 58.1865 206.367 56.9658 206.855 55.8916C207.36 54.8174 208.117 53.9059 209.126 53.1572C210.135 52.4085 211.421 51.8389 212.983 51.4482C214.546 51.0576 216.385 50.8623 218.501 50.8623H222.041ZM233.955 29.5H242.183V60.5059L241.328 67H233.955V29.5ZM258.394 53.499V54.0117C258.394 56.0137 258.19 57.8366 257.783 59.4805C257.376 61.1243 256.75 62.5485 255.903 63.7529C255.057 64.9411 253.991 65.8607 252.705 66.5117C251.419 67.1628 249.897 67.4883 248.14 67.4883C246.545 67.4883 245.177 67.1465 244.038 66.4629C242.899 65.763 241.947 64.8027 241.182 63.582C240.417 62.3451 239.798 60.9209 239.326 59.3096C238.854 57.682 238.48 55.9404 238.203 54.085V53.4746C238.48 51.6354 238.854 49.9102 239.326 48.2988C239.798 46.6712 240.417 45.2471 241.182 44.0264C241.947 42.7894 242.891 41.8291 244.014 41.1455C245.153 40.4456 246.512 40.0957 248.091 40.0957C249.865 40.0957 251.395 40.4294 252.681 41.0967C253.983 41.764 255.057 42.6999 255.903 43.9043C256.75 45.1087 257.376 46.5247 257.783 48.1523C258.19 49.7799 258.394 51.5622 258.394 53.499ZM250.166 54.0117V53.499C250.166 52.5387 250.109 51.6354 249.995 50.7891C249.881 49.9427 249.678 49.194 249.385 48.543C249.092 47.8919 248.677 47.3792 248.14 47.0049C247.603 46.6305 246.903 46.4434 246.04 46.4434C245.161 46.4434 244.421 46.5898 243.818 46.8828C243.232 47.1758 242.76 47.599 242.402 48.1523C242.061 48.6895 241.816 49.3568 241.67 50.1543C241.523 50.9355 241.458 51.8226 241.475 52.8154V54.7441C241.442 56.0951 241.564 57.2507 241.841 58.2109C242.118 59.1712 242.598 59.9036 243.281 60.4082C243.965 60.9128 244.901 61.165 246.089 61.165C246.968 61.165 247.676 60.9941 248.213 60.6523C248.766 60.3105 249.181 59.8223 249.458 59.1875C249.735 58.5527 249.922 57.7959 250.02 56.917C250.117 56.0381 250.166 55.0697 250.166 54.0117ZM270.747 40.584V67H262.495V40.584H270.747ZM262.007 33.7725C262.007 32.6006 262.43 31.6403 263.276 30.8916C264.123 30.1429 265.221 29.7686 266.572 29.7686C267.923 29.7686 269.022 30.1429 269.868 30.8916C270.715 31.6403 271.138 32.6006 271.138 33.7725C271.138 34.9443 270.715 35.9046 269.868 36.6533C269.022 37.402 267.923 37.7764 266.572 37.7764C265.221 37.7764 264.123 37.402 263.276 36.6533C262.43 35.9046 262.007 34.9443 262.007 33.7725ZM284.517 29.5V67H276.265V29.5H284.517ZM298.286 40.584V67H290.034V40.584H298.286ZM289.546 33.7725C289.546 32.6006 289.969 31.6403 290.815 30.8916C291.662 30.1429 292.76 29.7686 294.111 29.7686C295.462 29.7686 296.561 30.1429 297.407 30.8916C298.254 31.6403 298.677 32.6006 298.677 33.7725C298.677 34.9443 298.254 35.9046 297.407 36.6533C296.561 37.402 295.462 37.7764 294.111 37.7764C292.76 37.7764 291.662 37.402 290.815 36.6533C289.969 35.9046 289.546 34.9443 289.546 33.7725ZM318.55 60.9453V29.5H326.826V67H319.404L318.55 60.9453ZM302.339 54.1094V53.5967C302.339 51.5947 302.559 49.7718 302.998 48.1279C303.438 46.4678 304.089 45.0436 304.951 43.8555C305.814 42.651 306.888 41.7233 308.174 41.0723C309.46 40.4212 310.941 40.0957 312.617 40.0957C314.115 40.0957 315.425 40.4456 316.548 41.1455C317.671 41.8291 318.631 42.7894 319.429 44.0264C320.226 45.2633 320.877 46.7119 321.382 48.3721C321.886 50.016 322.269 51.79 322.529 53.6943V54.3047C322.269 56.0951 321.886 57.7878 321.382 59.3828C320.877 60.9616 320.226 62.3613 319.429 63.582C318.631 64.8027 317.663 65.763 316.523 66.4629C315.4 67.1465 314.082 67.4883 312.568 67.4883C310.892 67.4883 309.411 67.1546 308.125 66.4873C306.855 65.82 305.789 64.8841 304.927 63.6797C304.08 62.4753 303.438 61.0592 302.998 59.4316C302.559 57.804 302.339 56.0299 302.339 54.1094ZM310.566 53.5967V54.1094C310.566 55.1022 310.632 56.0218 310.762 56.8682C310.892 57.7145 311.112 58.4632 311.421 59.1143C311.746 59.749 312.17 60.2454 312.69 60.6035C313.228 60.9616 313.887 61.1406 314.668 61.1406C315.726 61.1406 316.597 60.8883 317.28 60.3838C317.98 59.8792 318.493 59.1631 318.818 58.2354C319.16 57.3076 319.307 56.2171 319.258 54.9639V53.0352C319.29 51.9609 319.217 51.0169 319.038 50.2031C318.859 49.373 318.574 48.6813 318.184 48.1279C317.809 47.5745 317.329 47.1595 316.743 46.8828C316.174 46.5898 315.498 46.4434 314.717 46.4434C313.952 46.4434 313.301 46.6224 312.764 46.9805C312.243 47.3385 311.82 47.8431 311.494 48.4941C311.169 49.1289 310.933 49.8857 310.786 50.7646C310.64 51.6273 310.566 52.5713 310.566 53.5967ZM345.21 60.3594V49.4707C345.21 48.722 345.104 48.0791 344.893 47.542C344.681 47.0049 344.347 46.5898 343.892 46.2969C343.436 45.9876 342.826 45.833 342.061 45.833C341.442 45.833 340.913 45.9388 340.474 46.1504C340.034 46.362 339.701 46.6794 339.473 47.1025C339.245 47.5257 339.131 48.0628 339.131 48.7139H330.903C330.903 47.4932 331.172 46.362 331.709 45.3203C332.262 44.2624 333.044 43.3428 334.053 42.5615C335.078 41.7803 336.299 41.1781 337.715 40.7549C339.147 40.3154 340.742 40.0957 342.5 40.0957C344.6 40.0957 346.471 40.4456 348.115 41.1455C349.775 41.8454 351.086 42.8952 352.046 44.2949C353.006 45.6784 353.486 47.4199 353.486 49.5195V60.335C353.486 62.0602 353.584 63.3704 353.779 64.2656C353.975 65.1445 354.251 65.9176 354.609 66.585V67H346.357C345.967 66.1862 345.674 65.1934 345.479 64.0215C345.299 62.8333 345.21 61.6126 345.21 60.3594ZM346.211 50.8623L346.26 55.2568H342.622C341.857 55.2568 341.206 55.3626 340.669 55.5742C340.148 55.7858 339.725 56.0788 339.399 56.4531C339.09 56.8112 338.862 57.2181 338.716 57.6738C338.586 58.1296 338.521 58.6097 338.521 59.1143C338.521 59.6025 338.634 60.042 338.862 60.4326C339.106 60.807 339.432 61.0999 339.839 61.3115C340.246 61.5231 340.701 61.6289 341.206 61.6289C342.118 61.6289 342.891 61.458 343.525 61.1162C344.176 60.7581 344.673 60.3268 345.015 59.8223C345.356 59.3177 345.527 58.8457 345.527 58.4062L347.334 61.7754C347.008 62.4264 346.634 63.0856 346.211 63.7529C345.804 64.4202 345.291 65.0387 344.673 65.6084C344.071 66.1618 343.33 66.6175 342.451 66.9756C341.572 67.3174 340.506 67.4883 339.253 67.4883C337.625 67.4883 336.128 67.1546 334.761 66.4873C333.41 65.82 332.327 64.8923 331.514 63.7041C330.7 62.4997 330.293 61.1162 330.293 59.5537C330.293 58.1865 330.537 56.9658 331.025 55.8916C331.53 54.8174 332.287 53.9059 333.296 53.1572C334.305 52.4085 335.591 51.8389 337.153 51.4482C338.716 51.0576 340.555 50.8623 342.671 50.8623H346.211ZM373.237 60.9453V29.5H381.514V67H374.092L373.237 60.9453ZM357.026 54.1094V53.5967C357.026 51.5947 357.246 49.7718 357.686 48.1279C358.125 46.4678 358.776 45.0436 359.639 43.8555C360.501 42.651 361.576 41.7233 362.861 41.0723C364.147 40.4212 365.628 40.0957 367.305 40.0957C368.802 40.0957 370.112 40.4456 371.235 41.1455C372.358 41.8291 373.319 42.7894 374.116 44.0264C374.914 45.2633 375.565 46.7119 376.069 48.3721C376.574 50.016 376.956 51.79 377.217 53.6943V54.3047C376.956 56.0951 376.574 57.7878 376.069 59.3828C375.565 60.9616 374.914 62.3613 374.116 63.582C373.319 64.8027 372.35 65.763 371.211 66.4629C370.088 67.1465 368.77 67.4883 367.256 67.4883C365.579 67.4883 364.098 67.1546 362.812 66.4873C361.543 65.82 360.477 64.8841 359.614 63.6797C358.768 62.4753 358.125 61.0592 357.686 59.4316C357.246 57.804 357.026 56.0299 357.026 54.1094ZM365.254 53.5967V54.1094C365.254 55.1022 365.319 56.0218 365.449 56.8682C365.579 57.7145 365.799 58.4632 366.108 59.1143C366.434 59.749 366.857 60.2454 367.378 60.6035C367.915 60.9616 368.574 61.1406 369.355 61.1406C370.413 61.1406 371.284 60.8883 371.968 60.3838C372.668 59.8792 373.18 59.1631 373.506 58.2354C373.848 57.3076 373.994 56.2171 373.945 54.9639V53.0352C373.978 51.9609 373.905 51.0169 373.726 50.2031C373.547 49.373 373.262 48.6813 372.871 48.1279C372.497 47.5745 372.017 47.1595 371.431 46.8828C370.861 46.5898 370.186 46.4434 369.404 46.4434C368.639 46.4434 367.988 46.6224 367.451 46.9805C366.93 47.3385 366.507 47.8431 366.182 48.4941C365.856 49.1289 365.62 49.8857 365.474 50.7646C365.327 51.6273 365.254 52.5713 365.254 53.5967ZM398.97 67.4883C396.821 67.4883 394.901 67.1546 393.208 66.4873C391.515 65.8037 390.083 64.8678 388.911 63.6797C387.756 62.4915 386.868 61.1243 386.25 59.5781C385.648 58.0319 385.347 56.3962 385.347 54.6709V53.7432C385.347 51.8063 385.615 50.016 386.152 48.3721C386.689 46.7119 387.487 45.2633 388.545 44.0264C389.603 42.7894 390.929 41.8291 392.524 41.1455C394.119 40.4456 395.975 40.0957 398.091 40.0957C399.963 40.0957 401.639 40.3968 403.12 40.999C404.601 41.6012 405.854 42.4639 406.88 43.5869C407.922 44.71 408.711 46.069 409.248 47.6641C409.801 49.2591 410.078 51.0495 410.078 53.0352V56.3799H388.496V51.2285H402.046V50.5938C402.062 49.7148 401.908 48.9661 401.582 48.3477C401.273 47.7292 400.817 47.2572 400.215 46.9316C399.613 46.6061 398.88 46.4434 398.018 46.4434C397.122 46.4434 396.382 46.6387 395.796 47.0293C395.226 47.4199 394.779 47.957 394.453 48.6406C394.144 49.3079 393.924 50.0811 393.794 50.96C393.664 51.8389 393.599 52.7666 393.599 53.7432V54.6709C393.599 55.6475 393.729 56.5345 393.989 57.332C394.266 58.1296 394.657 58.8132 395.161 59.3828C395.682 59.9362 396.3 60.3675 397.017 60.6768C397.749 60.986 398.579 61.1406 399.507 61.1406C400.63 61.1406 401.737 60.929 402.827 60.5059C403.918 60.0827 404.854 59.3828 405.635 58.4062L409.37 62.8496C408.833 63.6146 408.068 64.3551 407.075 65.0713C406.099 65.7874 404.927 66.3734 403.56 66.8291C402.192 67.2686 400.662 67.4883 398.97 67.4883Z" fill="#1239C0"/>
</svg>
