<svg width="234" height="97" viewBox="0 0 234 97" fill="none" xmlns="http://www.w3.org/2000/svg">
<rect x="0.5" y="0.5" width="233" height="96" rx="9.5" fill="#EEC9FB" stroke="#5F0C86"/>
<path d="M65.9248 54.9639H74.4697C74.3558 57.4378 73.6885 59.6188 72.4678 61.5068C71.2471 63.3949 69.5544 64.8678 67.3896 65.9258C65.2412 66.9674 62.7021 67.4883 59.7725 67.4883C57.3962 67.4883 55.2721 67.0895 53.4004 66.292C51.5449 65.4945 49.9661 64.347 48.6641 62.8496C47.3783 61.3522 46.3936 59.5374 45.71 57.4053C45.0426 55.2731 44.709 52.8724 44.709 50.2031V48.2744C44.709 45.6051 45.0589 43.2044 45.7588 41.0723C46.4749 38.9238 47.484 37.1009 48.7861 35.6035C50.1045 34.0898 51.6833 32.9342 53.5225 32.1367C55.3617 31.3392 57.4043 30.9404 59.6504 30.9404C62.7428 30.9404 65.3551 31.4938 67.4873 32.6006C69.6195 33.7074 71.2715 35.2292 72.4434 37.166C73.6152 39.0866 74.307 41.2757 74.5186 43.7334H65.9736C65.9411 42.3988 65.7132 41.2839 65.29 40.3887C64.8669 39.4772 64.1995 38.7936 63.2881 38.3379C62.3766 37.8822 61.1641 37.6543 59.6504 37.6543C58.5924 37.6543 57.6729 37.8496 56.8916 38.2402C56.1104 38.6309 55.4593 39.2493 54.9385 40.0957C54.4176 40.9421 54.027 42.0407 53.7666 43.3916C53.5225 44.7262 53.4004 46.3376 53.4004 48.2256V50.2031C53.4004 52.0911 53.5143 53.7025 53.7422 55.0371C53.9701 56.3717 54.3363 57.4622 54.8408 58.3086C55.3454 59.1549 55.9964 59.7816 56.7939 60.1885C57.6077 60.5791 58.6006 60.7744 59.7725 60.7744C61.0745 60.7744 62.1732 60.571 63.0684 60.1641C63.9635 59.7409 64.6553 59.1061 65.1436 58.2598C65.6318 57.3971 65.8923 56.2985 65.9248 54.9639ZM86.4326 47.127V67H78.2051V40.584H85.8955L86.4326 47.127ZM94.2451 40.3887L94.0986 48.0303C93.7731 47.9977 93.3337 47.957 92.7803 47.9082C92.2269 47.8594 91.763 47.835 91.3887 47.835C90.4284 47.835 89.5983 47.9489 88.8984 48.1768C88.2148 48.3883 87.6452 48.7139 87.1895 49.1533C86.75 49.5765 86.4245 50.1136 86.2129 50.7646C86.0176 51.4157 85.9281 52.1725 85.9443 53.0352L84.4551 52.0586C84.4551 50.2845 84.626 48.6732 84.9678 47.2246C85.3258 45.7598 85.8304 44.4984 86.4814 43.4404C87.1325 42.3662 87.9219 41.5443 88.8496 40.9746C89.7773 40.3887 90.819 40.0957 91.9746 40.0957C92.3815 40.0957 92.7803 40.1201 93.1709 40.1689C93.5778 40.2178 93.9359 40.291 94.2451 40.3887ZM109.382 67.4883C107.233 67.4883 105.313 67.1546 103.62 66.4873C101.927 65.8037 100.495 64.8678 99.3232 63.6797C98.1676 62.4915 97.2806 61.1243 96.6621 59.5781C96.0599 58.0319 95.7588 56.3962 95.7588 54.6709V53.7432C95.7588 51.8063 96.0273 50.016 96.5645 48.3721C97.1016 46.7119 97.8991 45.2633 98.957 44.0264C100.015 42.7894 101.341 41.8291 102.937 41.1455C104.532 40.4456 106.387 40.0957 108.503 40.0957C110.375 40.0957 112.051 40.3968 113.532 40.999C115.013 41.6012 116.267 42.4639 117.292 43.5869C118.334 44.71 119.123 46.069 119.66 47.6641C120.214 49.2591 120.49 51.0495 120.49 53.0352V56.3799H98.9082V51.2285H112.458V50.5938C112.474 49.7148 112.32 48.9661 111.994 48.3477C111.685 47.7292 111.229 47.2572 110.627 46.9316C110.025 46.6061 109.292 46.4434 108.43 46.4434C107.535 46.4434 106.794 46.6387 106.208 47.0293C105.638 47.4199 105.191 47.957 104.865 48.6406C104.556 49.3079 104.336 50.0811 104.206 50.96C104.076 51.8389 104.011 52.7666 104.011 53.7432V54.6709C104.011 55.6475 104.141 56.5345 104.401 57.332C104.678 58.1296 105.069 58.8132 105.573 59.3828C106.094 59.9362 106.713 60.3675 107.429 60.6768C108.161 60.986 108.991 61.1406 109.919 61.1406C111.042 61.1406 112.149 60.929 113.239 60.5059C114.33 60.0827 115.266 59.3828 116.047 58.4062L119.782 62.8496C119.245 63.6146 118.48 64.3551 117.487 65.0713C116.511 65.7874 115.339 66.3734 113.972 66.8291C112.604 67.2686 111.075 67.4883 109.382 67.4883ZM134.992 61.1406C135.757 61.1406 136.408 61.0023 136.945 60.7256C137.499 60.4326 137.914 60.0257 138.19 59.5049C138.483 58.9678 138.622 58.3249 138.605 57.5762H146.345C146.361 59.5618 145.873 61.3034 144.88 62.8008C143.903 64.2819 142.569 65.4375 140.876 66.2676C139.2 67.0814 137.303 67.4883 135.188 67.4883C133.12 67.4883 131.314 67.1546 129.768 66.4873C128.221 65.8037 126.927 64.8597 125.886 63.6553C124.86 62.4346 124.087 61.0104 123.566 59.3828C123.062 57.7552 122.81 55.9893 122.81 54.085V53.5234C122.81 51.6191 123.062 49.8532 123.566 48.2256C124.087 46.5817 124.86 45.1576 125.886 43.9531C126.927 42.7324 128.213 41.7884 129.743 41.1211C131.289 40.4375 133.088 40.0957 135.139 40.0957C137.336 40.0957 139.273 40.5107 140.949 41.3408C142.642 42.1709 143.968 43.3753 144.929 44.9541C145.889 46.5329 146.361 48.4453 146.345 50.6914H138.605C138.622 49.8939 138.5 49.1777 138.239 48.543C137.979 47.9082 137.572 47.4036 137.019 47.0293C136.481 46.6387 135.79 46.4434 134.943 46.4434C134.097 46.4434 133.413 46.6305 132.893 47.0049C132.372 47.3792 131.973 47.9001 131.696 48.5674C131.436 49.2184 131.257 49.9671 131.159 50.8135C131.078 51.6598 131.037 52.5632 131.037 53.5234V54.085C131.037 55.0615 131.078 55.9811 131.159 56.8438C131.257 57.6901 131.444 58.4388 131.721 59.0898C131.997 59.7246 132.396 60.2292 132.917 60.6035C133.438 60.9616 134.13 61.1406 134.992 61.1406ZM157.917 29.5V67H149.689V29.5H157.917ZM156.94 52.8887L155.012 52.9375C155.012 51.082 155.24 49.373 155.695 47.8105C156.151 46.248 156.802 44.889 157.648 43.7334C158.495 42.5778 159.512 41.6826 160.7 41.0479C161.888 40.4131 163.207 40.0957 164.655 40.0957C165.957 40.0957 167.146 40.2829 168.22 40.6572C169.31 41.0316 170.246 41.6338 171.027 42.4639C171.825 43.2939 172.435 44.3763 172.858 45.7109C173.298 47.0456 173.518 48.6732 173.518 50.5938V67H165.241V50.5449C165.241 49.4707 165.087 48.6406 164.777 48.0547C164.484 47.4525 164.061 47.0374 163.508 46.8096C162.954 46.5654 162.279 46.4434 161.481 46.4434C160.521 46.4434 159.74 46.6061 159.138 46.9316C158.535 47.2572 158.072 47.7129 157.746 48.2988C157.437 48.8685 157.225 49.5439 157.111 50.3252C156.997 51.1064 156.94 51.9609 156.94 52.8887ZM190.876 67.4883C188.728 67.4883 186.807 67.1546 185.114 66.4873C183.422 65.8037 181.989 64.8678 180.817 63.6797C179.662 62.4915 178.775 61.1243 178.156 59.5781C177.554 58.0319 177.253 56.3962 177.253 54.6709V53.7432C177.253 51.8063 177.521 50.016 178.059 48.3721C178.596 46.7119 179.393 45.2633 180.451 44.0264C181.509 42.7894 182.836 41.8291 184.431 41.1455C186.026 40.4456 187.881 40.0957 189.997 40.0957C191.869 40.0957 193.545 40.3968 195.026 40.999C196.507 41.6012 197.761 42.4639 198.786 43.5869C199.828 44.71 200.617 46.069 201.154 47.6641C201.708 49.2591 201.984 51.0495 201.984 53.0352V56.3799H180.402V51.2285H193.952V50.5938C193.968 49.7148 193.814 48.9661 193.488 48.3477C193.179 47.7292 192.723 47.2572 192.121 46.9316C191.519 46.6061 190.786 46.4434 189.924 46.4434C189.029 46.4434 188.288 46.6387 187.702 47.0293C187.132 47.4199 186.685 47.957 186.359 48.6406C186.05 49.3079 185.83 50.0811 185.7 50.96C185.57 51.8389 185.505 52.7666 185.505 53.7432V54.6709C185.505 55.6475 185.635 56.5345 185.896 57.332C186.172 58.1296 186.563 58.8132 187.067 59.3828C187.588 59.9362 188.207 60.3675 188.923 60.6768C189.655 60.986 190.485 61.1406 191.413 61.1406C192.536 61.1406 193.643 60.929 194.733 60.5059C195.824 60.0827 196.76 59.3828 197.541 58.4062L201.276 62.8496C200.739 63.6146 199.974 64.3551 198.981 65.0713C198.005 65.7874 196.833 66.3734 195.466 66.8291C194.099 67.2686 192.569 67.4883 190.876 67.4883Z" fill="#8E3DCD"/>
<rect x="0.5" y="0.5" width="233" height="96" rx="4.5" fill="#EEC9FB" stroke="#5F0C86"/>
<path d="M65.9248 54.9639H74.4697C74.3558 57.4378 73.6885 59.6188 72.4678 61.5068C71.2471 63.3949 69.5544 64.8678 67.3896 65.9258C65.2412 66.9674 62.7021 67.4883 59.7725 67.4883C57.3962 67.4883 55.2721 67.0895 53.4004 66.292C51.5449 65.4945 49.9661 64.347 48.6641 62.8496C47.3783 61.3522 46.3936 59.5374 45.71 57.4053C45.0426 55.2731 44.709 52.8724 44.709 50.2031V48.2744C44.709 45.6051 45.0589 43.2044 45.7588 41.0723C46.4749 38.9238 47.484 37.1009 48.7861 35.6035C50.1045 34.0898 51.6833 32.9342 53.5225 32.1367C55.3617 31.3392 57.4043 30.9404 59.6504 30.9404C62.7428 30.9404 65.3551 31.4938 67.4873 32.6006C69.6195 33.7074 71.2715 35.2292 72.4434 37.166C73.6152 39.0866 74.307 41.2757 74.5186 43.7334H65.9736C65.9411 42.3988 65.7132 41.2839 65.29 40.3887C64.8669 39.4772 64.1995 38.7936 63.2881 38.3379C62.3766 37.8822 61.1641 37.6543 59.6504 37.6543C58.5924 37.6543 57.6729 37.8496 56.8916 38.2402C56.1104 38.6309 55.4593 39.2493 54.9385 40.0957C54.4176 40.9421 54.027 42.0407 53.7666 43.3916C53.5225 44.7262 53.4004 46.3376 53.4004 48.2256V50.2031C53.4004 52.0911 53.5143 53.7025 53.7422 55.0371C53.9701 56.3717 54.3363 57.4622 54.8408 58.3086C55.3454 59.1549 55.9964 59.7816 56.7939 60.1885C57.6077 60.5791 58.6006 60.7744 59.7725 60.7744C61.0745 60.7744 62.1732 60.571 63.0684 60.1641C63.9635 59.7409 64.6553 59.1061 65.1436 58.2598C65.6318 57.3971 65.8923 56.2985 65.9248 54.9639ZM86.4326 47.127V67H78.2051V40.584H85.8955L86.4326 47.127ZM94.2451 40.3887L94.0986 48.0303C93.7731 47.9977 93.3337 47.957 92.7803 47.9082C92.2269 47.8594 91.763 47.835 91.3887 47.835C90.4284 47.835 89.5983 47.9489 88.8984 48.1768C88.2148 48.3883 87.6452 48.7139 87.1895 49.1533C86.75 49.5765 86.4245 50.1136 86.2129 50.7646C86.0176 51.4157 85.9281 52.1725 85.9443 53.0352L84.4551 52.0586C84.4551 50.2845 84.626 48.6732 84.9678 47.2246C85.3258 45.7598 85.8304 44.4984 86.4814 43.4404C87.1325 42.3662 87.9219 41.5443 88.8496 40.9746C89.7773 40.3887 90.819 40.0957 91.9746 40.0957C92.3815 40.0957 92.7803 40.1201 93.1709 40.1689C93.5778 40.2178 93.9359 40.291 94.2451 40.3887ZM109.382 67.4883C107.233 67.4883 105.313 67.1546 103.62 66.4873C101.927 65.8037 100.495 64.8678 99.3232 63.6797C98.1676 62.4915 97.2806 61.1243 96.6621 59.5781C96.0599 58.0319 95.7588 56.3962 95.7588 54.6709V53.7432C95.7588 51.8063 96.0273 50.016 96.5645 48.3721C97.1016 46.7119 97.8991 45.2633 98.957 44.0264C100.015 42.7894 101.341 41.8291 102.937 41.1455C104.532 40.4456 106.387 40.0957 108.503 40.0957C110.375 40.0957 112.051 40.3968 113.532 40.999C115.013 41.6012 116.267 42.4639 117.292 43.5869C118.334 44.71 119.123 46.069 119.66 47.6641C120.214 49.2591 120.49 51.0495 120.49 53.0352V56.3799H98.9082V51.2285H112.458V50.5938C112.474 49.7148 112.32 48.9661 111.994 48.3477C111.685 47.7292 111.229 47.2572 110.627 46.9316C110.025 46.6061 109.292 46.4434 108.43 46.4434C107.535 46.4434 106.794 46.6387 106.208 47.0293C105.638 47.4199 105.191 47.957 104.865 48.6406C104.556 49.3079 104.336 50.0811 104.206 50.96C104.076 51.8389 104.011 52.7666 104.011 53.7432V54.6709C104.011 55.6475 104.141 56.5345 104.401 57.332C104.678 58.1296 105.069 58.8132 105.573 59.3828C106.094 59.9362 106.713 60.3675 107.429 60.6768C108.161 60.986 108.991 61.1406 109.919 61.1406C111.042 61.1406 112.149 60.929 113.239 60.5059C114.33 60.0827 115.266 59.3828 116.047 58.4062L119.782 62.8496C119.245 63.6146 118.48 64.3551 117.487 65.0713C116.511 65.7874 115.339 66.3734 113.972 66.8291C112.604 67.2686 111.075 67.4883 109.382 67.4883ZM134.992 61.1406C135.757 61.1406 136.408 61.0023 136.945 60.7256C137.499 60.4326 137.914 60.0257 138.19 59.5049C138.483 58.9678 138.622 58.3249 138.605 57.5762H146.345C146.361 59.5618 145.873 61.3034 144.88 62.8008C143.903 64.2819 142.569 65.4375 140.876 66.2676C139.2 67.0814 137.303 67.4883 135.188 67.4883C133.12 67.4883 131.314 67.1546 129.768 66.4873C128.221 65.8037 126.927 64.8597 125.886 63.6553C124.86 62.4346 124.087 61.0104 123.566 59.3828C123.062 57.7552 122.81 55.9893 122.81 54.085V53.5234C122.81 51.6191 123.062 49.8532 123.566 48.2256C124.087 46.5817 124.86 45.1576 125.886 43.9531C126.927 42.7324 128.213 41.7884 129.743 41.1211C131.289 40.4375 133.088 40.0957 135.139 40.0957C137.336 40.0957 139.273 40.5107 140.949 41.3408C142.642 42.1709 143.968 43.3753 144.929 44.9541C145.889 46.5329 146.361 48.4453 146.345 50.6914H138.605C138.622 49.8939 138.5 49.1777 138.239 48.543C137.979 47.9082 137.572 47.4036 137.019 47.0293C136.481 46.6387 135.79 46.4434 134.943 46.4434C134.097 46.4434 133.413 46.6305 132.893 47.0049C132.372 47.3792 131.973 47.9001 131.696 48.5674C131.436 49.2184 131.257 49.9671 131.159 50.8135C131.078 51.6598 131.037 52.5632 131.037 53.5234V54.085C131.037 55.0615 131.078 55.9811 131.159 56.8438C131.257 57.6901 131.444 58.4388 131.721 59.0898C131.997 59.7246 132.396 60.2292 132.917 60.6035C133.438 60.9616 134.13 61.1406 134.992 61.1406ZM157.917 29.5V67H149.689V29.5H157.917ZM156.94 52.8887L155.012 52.9375C155.012 51.082 155.24 49.373 155.695 47.8105C156.151 46.248 156.802 44.889 157.648 43.7334C158.495 42.5778 159.512 41.6826 160.7 41.0479C161.888 40.4131 163.207 40.0957 164.655 40.0957C165.957 40.0957 167.146 40.2829 168.22 40.6572C169.31 41.0316 170.246 41.6338 171.027 42.4639C171.825 43.2939 172.435 44.3763 172.858 45.7109C173.298 47.0456 173.518 48.6732 173.518 50.5938V67H165.241V50.5449C165.241 49.4707 165.087 48.6406 164.777 48.0547C164.484 47.4525 164.061 47.0374 163.508 46.8096C162.954 46.5654 162.279 46.4434 161.481 46.4434C160.521 46.4434 159.74 46.6061 159.138 46.9316C158.535 47.2572 158.072 47.7129 157.746 48.2988C157.437 48.8685 157.225 49.5439 157.111 50.3252C156.997 51.1064 156.94 51.9609 156.94 52.8887ZM190.876 67.4883C188.728 67.4883 186.807 67.1546 185.114 66.4873C183.422 65.8037 181.989 64.8678 180.817 63.6797C179.662 62.4915 178.775 61.1243 178.156 59.5781C177.554 58.0319 177.253 56.3962 177.253 54.6709V53.7432C177.253 51.8063 177.521 50.016 178.059 48.3721C178.596 46.7119 179.393 45.2633 180.451 44.0264C181.509 42.7894 182.836 41.8291 184.431 41.1455C186.026 40.4456 187.881 40.0957 189.997 40.0957C191.869 40.0957 193.545 40.3968 195.026 40.999C196.507 41.6012 197.761 42.4639 198.786 43.5869C199.828 44.71 200.617 46.069 201.154 47.6641C201.708 49.2591 201.984 51.0495 201.984 53.0352V56.3799H180.402V51.2285H193.952V50.5938C193.968 49.7148 193.814 48.9661 193.488 48.3477C193.179 47.7292 192.723 47.2572 192.121 46.9316C191.519 46.6061 190.786 46.4434 189.924 46.4434C189.029 46.4434 188.288 46.6387 187.702 47.0293C187.132 47.4199 186.685 47.957 186.359 48.6406C186.05 49.3079 185.83 50.0811 185.7 50.96C185.57 51.8389 185.505 52.7666 185.505 53.7432V54.6709C185.505 55.6475 185.635 56.5345 185.896 57.332C186.172 58.1296 186.563 58.8132 187.067 59.3828C187.588 59.9362 188.207 60.3675 188.923 60.6768C189.655 60.986 190.485 61.1406 191.413 61.1406C192.536 61.1406 193.643 60.929 194.733 60.5059C195.824 60.0827 196.76 59.3828 197.541 58.4062L201.276 62.8496C200.739 63.6146 199.974 64.3551 198.981 65.0713C198.005 65.7874 196.833 66.3734 195.466 66.8291C194.099 67.2686 192.569 67.4883 190.876 67.4883Z" fill="#8E3DCD"/>
<rect x="0.5" y="0.5" width="233" height="96" rx="4.5" fill="#EEC9FB" stroke="#5F0C86"/>
<path d="M65.9248 54.9639H74.4697C74.3558 57.4378 73.6885 59.6188 72.4678 61.5068C71.2471 63.3949 69.5544 64.8678 67.3896 65.9258C65.2412 66.9674 62.7021 67.4883 59.7725 67.4883C57.3962 67.4883 55.2721 67.0895 53.4004 66.292C51.5449 65.4945 49.9661 64.347 48.6641 62.8496C47.3783 61.3522 46.3936 59.5374 45.71 57.4053C45.0426 55.2731 44.709 52.8724 44.709 50.2031V48.2744C44.709 45.6051 45.0589 43.2044 45.7588 41.0723C46.4749 38.9238 47.484 37.1009 48.7861 35.6035C50.1045 34.0898 51.6833 32.9342 53.5225 32.1367C55.3617 31.3392 57.4043 30.9404 59.6504 30.9404C62.7428 30.9404 65.3551 31.4938 67.4873 32.6006C69.6195 33.7074 71.2715 35.2292 72.4434 37.166C73.6152 39.0866 74.307 41.2757 74.5186 43.7334H65.9736C65.9411 42.3988 65.7132 41.2839 65.29 40.3887C64.8669 39.4772 64.1995 38.7936 63.2881 38.3379C62.3766 37.8822 61.1641 37.6543 59.6504 37.6543C58.5924 37.6543 57.6729 37.8496 56.8916 38.2402C56.1104 38.6309 55.4593 39.2493 54.9385 40.0957C54.4176 40.9421 54.027 42.0407 53.7666 43.3916C53.5225 44.7262 53.4004 46.3376 53.4004 48.2256V50.2031C53.4004 52.0911 53.5143 53.7025 53.7422 55.0371C53.9701 56.3717 54.3363 57.4622 54.8408 58.3086C55.3454 59.1549 55.9964 59.7816 56.7939 60.1885C57.6077 60.5791 58.6006 60.7744 59.7725 60.7744C61.0745 60.7744 62.1732 60.571 63.0684 60.1641C63.9635 59.7409 64.6553 59.1061 65.1436 58.2598C65.6318 57.3971 65.8923 56.2985 65.9248 54.9639ZM86.4326 47.127V67H78.2051V40.584H85.8955L86.4326 47.127ZM94.2451 40.3887L94.0986 48.0303C93.7731 47.9977 93.3337 47.957 92.7803 47.9082C92.2269 47.8594 91.763 47.835 91.3887 47.835C90.4284 47.835 89.5983 47.9489 88.8984 48.1768C88.2148 48.3883 87.6452 48.7139 87.1895 49.1533C86.75 49.5765 86.4245 50.1136 86.2129 50.7646C86.0176 51.4157 85.9281 52.1725 85.9443 53.0352L84.4551 52.0586C84.4551 50.2845 84.626 48.6732 84.9678 47.2246C85.3258 45.7598 85.8304 44.4984 86.4814 43.4404C87.1325 42.3662 87.9219 41.5443 88.8496 40.9746C89.7773 40.3887 90.819 40.0957 91.9746 40.0957C92.3815 40.0957 92.7803 40.1201 93.1709 40.1689C93.5778 40.2178 93.9359 40.291 94.2451 40.3887ZM109.382 67.4883C107.233 67.4883 105.313 67.1546 103.62 66.4873C101.927 65.8037 100.495 64.8678 99.3232 63.6797C98.1676 62.4915 97.2806 61.1243 96.6621 59.5781C96.0599 58.0319 95.7588 56.3962 95.7588 54.6709V53.7432C95.7588 51.8063 96.0273 50.016 96.5645 48.3721C97.1016 46.7119 97.8991 45.2633 98.957 44.0264C100.015 42.7894 101.341 41.8291 102.937 41.1455C104.532 40.4456 106.387 40.0957 108.503 40.0957C110.375 40.0957 112.051 40.3968 113.532 40.999C115.013 41.6012 116.267 42.4639 117.292 43.5869C118.334 44.71 119.123 46.069 119.66 47.6641C120.214 49.2591 120.49 51.0495 120.49 53.0352V56.3799H98.9082V51.2285H112.458V50.5938C112.474 49.7148 112.32 48.9661 111.994 48.3477C111.685 47.7292 111.229 47.2572 110.627 46.9316C110.025 46.6061 109.292 46.4434 108.43 46.4434C107.535 46.4434 106.794 46.6387 106.208 47.0293C105.638 47.4199 105.191 47.957 104.865 48.6406C104.556 49.3079 104.336 50.0811 104.206 50.96C104.076 51.8389 104.011 52.7666 104.011 53.7432V54.6709C104.011 55.6475 104.141 56.5345 104.401 57.332C104.678 58.1296 105.069 58.8132 105.573 59.3828C106.094 59.9362 106.713 60.3675 107.429 60.6768C108.161 60.986 108.991 61.1406 109.919 61.1406C111.042 61.1406 112.149 60.929 113.239 60.5059C114.33 60.0827 115.266 59.3828 116.047 58.4062L119.782 62.8496C119.245 63.6146 118.48 64.3551 117.487 65.0713C116.511 65.7874 115.339 66.3734 113.972 66.8291C112.604 67.2686 111.075 67.4883 109.382 67.4883ZM134.992 61.1406C135.757 61.1406 136.408 61.0023 136.945 60.7256C137.499 60.4326 137.914 60.0257 138.19 59.5049C138.483 58.9678 138.622 58.3249 138.605 57.5762H146.345C146.361 59.5618 145.873 61.3034 144.88 62.8008C143.903 64.2819 142.569 65.4375 140.876 66.2676C139.2 67.0814 137.303 67.4883 135.188 67.4883C133.12 67.4883 131.314 67.1546 129.768 66.4873C128.221 65.8037 126.927 64.8597 125.886 63.6553C124.86 62.4346 124.087 61.0104 123.566 59.3828C123.062 57.7552 122.81 55.9893 122.81 54.085V53.5234C122.81 51.6191 123.062 49.8532 123.566 48.2256C124.087 46.5817 124.86 45.1576 125.886 43.9531C126.927 42.7324 128.213 41.7884 129.743 41.1211C131.289 40.4375 133.088 40.0957 135.139 40.0957C137.336 40.0957 139.273 40.5107 140.949 41.3408C142.642 42.1709 143.968 43.3753 144.929 44.9541C145.889 46.5329 146.361 48.4453 146.345 50.6914H138.605C138.622 49.8939 138.5 49.1777 138.239 48.543C137.979 47.9082 137.572 47.4036 137.019 47.0293C136.481 46.6387 135.79 46.4434 134.943 46.4434C134.097 46.4434 133.413 46.6305 132.893 47.0049C132.372 47.3792 131.973 47.9001 131.696 48.5674C131.436 49.2184 131.257 49.9671 131.159 50.8135C131.078 51.6598 131.037 52.5632 131.037 53.5234V54.085C131.037 55.0615 131.078 55.9811 131.159 56.8438C131.257 57.6901 131.444 58.4388 131.721 59.0898C131.997 59.7246 132.396 60.2292 132.917 60.6035C133.438 60.9616 134.13 61.1406 134.992 61.1406ZM157.917 29.5V67H149.689V29.5H157.917ZM156.94 52.8887L155.012 52.9375C155.012 51.082 155.24 49.373 155.695 47.8105C156.151 46.248 156.802 44.889 157.648 43.7334C158.495 42.5778 159.512 41.6826 160.7 41.0479C161.888 40.4131 163.207 40.0957 164.655 40.0957C165.957 40.0957 167.146 40.2829 168.22 40.6572C169.31 41.0316 170.246 41.6338 171.027 42.4639C171.825 43.2939 172.435 44.3763 172.858 45.7109C173.298 47.0456 173.518 48.6732 173.518 50.5938V67H165.241V50.5449C165.241 49.4707 165.087 48.6406 164.777 48.0547C164.484 47.4525 164.061 47.0374 163.508 46.8096C162.954 46.5654 162.279 46.4434 161.481 46.4434C160.521 46.4434 159.74 46.6061 159.138 46.9316C158.535 47.2572 158.072 47.7129 157.746 48.2988C157.437 48.8685 157.225 49.5439 157.111 50.3252C156.997 51.1064 156.94 51.9609 156.94 52.8887ZM190.876 67.4883C188.728 67.4883 186.807 67.1546 185.114 66.4873C183.422 65.8037 181.989 64.8678 180.817 63.6797C179.662 62.4915 178.775 61.1243 178.156 59.5781C177.554 58.0319 177.253 56.3962 177.253 54.6709V53.7432C177.253 51.8063 177.521 50.016 178.059 48.3721C178.596 46.7119 179.393 45.2633 180.451 44.0264C181.509 42.7894 182.836 41.8291 184.431 41.1455C186.026 40.4456 187.881 40.0957 189.997 40.0957C191.869 40.0957 193.545 40.3968 195.026 40.999C196.507 41.6012 197.761 42.4639 198.786 43.5869C199.828 44.71 200.617 46.069 201.154 47.6641C201.708 49.2591 201.984 51.0495 201.984 53.0352V56.3799H180.402V51.2285H193.952V50.5938C193.968 49.7148 193.814 48.9661 193.488 48.3477C193.179 47.7292 192.723 47.2572 192.121 46.9316C191.519 46.6061 190.786 46.4434 189.924 46.4434C189.029 46.4434 188.288 46.6387 187.702 47.0293C187.132 47.4199 186.685 47.957 186.359 48.6406C186.05 49.3079 185.83 50.0811 185.7 50.96C185.57 51.8389 185.505 52.7666 185.505 53.7432V54.6709C185.505 55.6475 185.635 56.5345 185.896 57.332C186.172 58.1296 186.563 58.8132 187.067 59.3828C187.588 59.9362 188.207 60.3675 188.923 60.6768C189.655 60.986 190.485 61.1406 191.413 61.1406C192.536 61.1406 193.643 60.929 194.733 60.5059C195.824 60.0827 196.76 59.3828 197.541 58.4062L201.276 62.8496C200.739 63.6146 199.974 64.3551 198.981 65.0713C198.005 65.7874 196.833 66.3734 195.466 66.8291C194.099 67.2686 192.569 67.4883 190.876 67.4883Z" fill="#8E3DCD"/>
<rect x="0.5" y="0.5" width="233" height="96" rx="4.5" fill="#E2FBC9" stroke="#0F8E33"/>
<path d="M59.1621 58.626L66.5596 31.4531H76.1543L64.167 67H57.9658L59.1621 58.626ZM52.4482 31.4531L59.8457 58.626L61.0908 67H54.8164L42.9023 31.4531H52.4482ZM90.0947 67.4883C87.9463 67.4883 86.0257 67.1546 84.333 66.4873C82.6403 65.8037 81.208 64.8678 80.0361 63.6797C78.8805 62.4915 77.9935 61.1243 77.375 59.5781C76.7728 58.0319 76.4717 56.3962 76.4717 54.6709V53.7432C76.4717 51.8063 76.7402 50.016 77.2773 48.3721C77.8145 46.7119 78.612 45.2633 79.6699 44.0264C80.7279 42.7894 82.0544 41.8291 83.6494 41.1455C85.2445 40.4456 87.0999 40.0957 89.2158 40.0957C91.0876 40.0957 92.764 40.3968 94.2451 40.999C95.7262 41.6012 96.9795 42.4639 98.0049 43.5869C99.0465 44.71 99.8359 46.069 100.373 47.6641C100.926 49.2591 101.203 51.0495 101.203 53.0352V56.3799H79.6211V51.2285H93.1709V50.5938C93.1872 49.7148 93.0326 48.9661 92.707 48.3477C92.3978 47.7292 91.9421 47.2572 91.3398 46.9316C90.7376 46.6061 90.0052 46.4434 89.1426 46.4434C88.2474 46.4434 87.5068 46.6387 86.9209 47.0293C86.3512 47.4199 85.9036 47.957 85.5781 48.6406C85.2689 49.3079 85.0492 50.0811 84.9189 50.96C84.7887 51.8389 84.7236 52.7666 84.7236 53.7432V54.6709C84.7236 55.6475 84.8538 56.5345 85.1143 57.332C85.391 58.1296 85.7816 58.8132 86.2861 59.3828C86.807 59.9362 87.4255 60.3675 88.1416 60.6768C88.874 60.986 89.7041 61.1406 90.6318 61.1406C91.7549 61.1406 92.8617 60.929 93.9521 60.5059C95.0426 60.0827 95.9785 59.3828 96.7598 58.4062L100.495 62.8496C99.958 63.6146 99.193 64.3551 98.2002 65.0713C97.2236 65.7874 96.0518 66.3734 94.6846 66.8291C93.3174 67.2686 91.7874 67.4883 90.0947 67.4883ZM121.149 40.584H128.62V65.9746C128.62 68.416 128.059 70.4831 126.936 72.1758C125.812 73.8848 124.242 75.1787 122.224 76.0576C120.222 76.9528 117.878 77.4004 115.192 77.4004C114.004 77.4004 112.792 77.2458 111.555 76.9365C110.318 76.6436 109.162 76.2041 108.088 75.6182C107.014 75.0322 106.11 74.3079 105.378 73.4453L108.82 68.6113C109.488 69.36 110.326 69.9948 111.335 70.5156C112.344 71.0527 113.532 71.3213 114.899 71.3213C116.088 71.3213 117.08 71.1097 117.878 70.6865C118.692 70.2633 119.31 69.6449 119.733 68.8311C120.157 68.0335 120.368 67.0651 120.368 65.9258V46.834L121.149 40.584ZM103.596 54.1094V53.5967C103.596 51.5947 103.84 49.7718 104.328 48.1279C104.833 46.4678 105.549 45.0436 106.477 43.8555C107.421 42.651 108.56 41.7233 109.895 41.0723C111.229 40.4212 112.735 40.0957 114.411 40.0957C116.218 40.0957 117.699 40.4456 118.854 41.1455C120.026 41.8291 120.962 42.7894 121.662 44.0264C122.378 45.2633 122.932 46.7119 123.322 48.3721C123.729 50.016 124.071 51.79 124.348 53.6943V54.3047C124.071 56.0951 123.688 57.7878 123.2 59.3828C122.728 60.9616 122.11 62.3613 121.345 63.582C120.58 64.8027 119.619 65.763 118.464 66.4629C117.325 67.1465 115.957 67.4883 114.362 67.4883C112.702 67.4883 111.205 67.1546 109.87 66.4873C108.552 65.82 107.421 64.8841 106.477 63.6797C105.549 62.4753 104.833 61.0592 104.328 59.4316C103.84 57.804 103.596 56.0299 103.596 54.1094ZM111.823 53.5967V54.1094C111.823 55.1022 111.913 56.0218 112.092 56.8682C112.287 57.7145 112.58 58.4632 112.971 59.1143C113.361 59.749 113.841 60.2454 114.411 60.6035C114.997 60.9616 115.681 61.1406 116.462 61.1406C117.65 61.1406 118.61 60.8883 119.343 60.3838C120.075 59.8792 120.604 59.1631 120.93 58.2354C121.255 57.3076 121.394 56.2171 121.345 54.9639V53.0352C121.377 51.9609 121.304 51.0169 121.125 50.2031C120.946 49.373 120.661 48.6813 120.271 48.1279C119.896 47.5745 119.392 47.1595 118.757 46.8828C118.138 46.5898 117.39 46.4434 116.511 46.4434C115.746 46.4434 115.07 46.6224 114.484 46.9805C113.898 47.3385 113.41 47.8431 113.02 48.4941C112.629 49.1289 112.328 49.8857 112.116 50.7646C111.921 51.6273 111.823 52.5713 111.823 53.5967ZM147.077 60.3594V49.4707C147.077 48.722 146.971 48.0791 146.76 47.542C146.548 47.0049 146.215 46.5898 145.759 46.2969C145.303 45.9876 144.693 45.833 143.928 45.833C143.309 45.833 142.78 45.9388 142.341 46.1504C141.901 46.362 141.568 46.6794 141.34 47.1025C141.112 47.5257 140.998 48.0628 140.998 48.7139H132.771C132.771 47.4932 133.039 46.362 133.576 45.3203C134.13 44.2624 134.911 43.3428 135.92 42.5615C136.945 41.7803 138.166 41.1781 139.582 40.7549C141.014 40.3154 142.609 40.0957 144.367 40.0957C146.467 40.0957 148.339 40.4456 149.982 41.1455C151.643 41.8454 152.953 42.8952 153.913 44.2949C154.873 45.6784 155.354 47.4199 155.354 49.5195V60.335C155.354 62.0602 155.451 63.3704 155.646 64.2656C155.842 65.1445 156.118 65.9176 156.477 66.585V67H148.225C147.834 66.1862 147.541 65.1934 147.346 64.0215C147.167 62.8333 147.077 61.6126 147.077 60.3594ZM148.078 50.8623L148.127 55.2568H144.489C143.724 55.2568 143.073 55.3626 142.536 55.5742C142.015 55.7858 141.592 56.0788 141.267 56.4531C140.957 56.8112 140.729 57.2181 140.583 57.6738C140.453 58.1296 140.388 58.6097 140.388 59.1143C140.388 59.6025 140.502 60.042 140.729 60.4326C140.974 60.807 141.299 61.0999 141.706 61.3115C142.113 61.5231 142.569 61.6289 143.073 61.6289C143.985 61.6289 144.758 61.458 145.393 61.1162C146.044 60.7581 146.54 60.3268 146.882 59.8223C147.224 59.3177 147.395 58.8457 147.395 58.4062L149.201 61.7754C148.876 62.4264 148.501 63.0856 148.078 63.7529C147.671 64.4202 147.159 65.0387 146.54 65.6084C145.938 66.1618 145.197 66.6175 144.318 66.9756C143.439 67.3174 142.373 67.4883 141.12 67.4883C139.493 67.4883 137.995 67.1546 136.628 66.4873C135.277 65.82 134.195 64.8923 133.381 63.7041C132.567 62.4997 132.16 61.1162 132.16 59.5537C132.16 58.1865 132.404 56.9658 132.893 55.8916C133.397 54.8174 134.154 53.9059 135.163 53.1572C136.172 52.4085 137.458 51.8389 139.021 51.4482C140.583 51.0576 142.422 50.8623 144.538 50.8623H148.078ZM168 46.2236V67H159.772V40.584H167.487L168 46.2236ZM167.023 52.8887L165.095 52.9375C165.095 50.9193 165.339 49.1208 165.827 47.542C166.315 45.9469 167.007 44.596 167.902 43.4893C168.798 42.3825 169.864 41.5443 171.101 40.9746C172.354 40.3887 173.745 40.0957 175.275 40.0957C176.496 40.0957 177.611 40.2747 178.62 40.6328C179.646 40.9909 180.524 41.5687 181.257 42.3662C182.006 43.1637 182.575 44.2217 182.966 45.54C183.373 46.8421 183.576 48.4535 183.576 50.374V67H175.3V50.3496C175.3 49.2917 175.153 48.486 174.86 47.9326C174.567 47.363 174.144 46.9723 173.591 46.7607C173.037 46.5492 172.362 46.4434 171.564 46.4434C170.718 46.4434 170.002 46.6061 169.416 46.9316C168.83 47.2572 168.358 47.7129 168 48.2988C167.658 48.8685 167.406 49.5439 167.243 50.3252C167.097 51.1064 167.023 51.9609 167.023 52.8887Z" fill="#0F8E33"/>
</svg>
